<svg xmlns="http://www.w3.org/2000/svg" viewBox="0 0 694.3 587.02"><title>Layer 1</title><g id="Layer_2" data-name="Layer 2"><g id="Layer_1-2" data-name="Layer 1"><g id="Vibri"><path d="M283.54,264.44h.26a31.82,31.82,0,0,0-3.26-8c-5.71-8.57-16.86-7.17-24.82-10.47a1.28,1.28,0,0,1-.49.59c.56,1.27-.29.41-1.2.31.73,1.56-1-.27-1,1-.45-1.34-3.16-4.12-4.83-4.32-1.52,0,.71.89,1,1.84-2.28-.12-4.63-1.32-6.81-1.51-2.81-.8-.65-5.61-3.51-6.69-.64,2,.08,3.87-1,5.09.57,1.17-.41,1.82.38,3.27-.52.25-1,.28-.94,1.35-1.54-.74-1.53-.5-1.57.67a4,4,0,0,1-2.77-1c-.7-2.62-3.4,1.14-2.84-1.77.89-.59,2.9-4.05.76-4.77-1.89.79-.2,3-1.94,3.77-2.55.73,0-1.76-1.36-2.49,1.19.09,1.28,0,.74-1.59.17.2,1.34,1.21.71-.82.6,1.25,2.81-1.41,1.51-2.19-2.78-2.1-2.38,3.59-4.9,4-.84,2.74-5.13,2.35-7.2,4.27-1.59,2.37-1.81-1.37-3.81.42,1.75,2.33-1.68,3-2.36,3.46-.46.15-3.74-2.25-4.24.27a6.19,6.19,0,0,1,1.08,2.48c-.17,1.58-.63,1.89,1.26,2.39,2.23.33.34,1.73-.8,2.22-3.15.62,1.08,2.59-.62,3.5.11,2.32-2.17.75-1.49-.44-.73-.21-1.38,1.33-2.89.87-1.58-2.69-4.2-.13-6.29-.18-3.26-1.7-.09,2.83-1.44,3.57.25,1.65-1.2,2.54-2.3,3.91-2.51,1.17-.32-1.74.11-2.74,1.06-1.64.42-5.36-1.93-6.09-2.34-2.11-5.82-2.64-8.22-.28-.75,2.19-1.69,4.47-1.73,6.34-1.67,1.94,0,5.23,2.89,3.88,2.6-.2.82,1.71-.55,1.7-1.64,1.08-3.24-.56-4.39.4-3.17,1.18-4.31,3.4-7.28,4.56-2.54.77-4.24,1.7-6.18.44,1-.78,1.1-1.64,2.55-1.39,1-.91-2.92-.35-3.61.53s-5.53.82-3.38,0c3.17-1.29,6.1-2.19,9-4,2.32-1.65,5.08-3.48,5-6.42.87-2-.37-5.94-2.61-7-3.47-1.56-5.57,2.4-7.45,4.63s-3.49,5.33-6,6.15c.8-1.17-.24-4-1.7-3-.32-.1,2.77-2.24,3.1-3.51,0-1.66,1.95-3.09,2.5-5.12-.33-1.76,2.13-4.88,3.73-6.31.33-.83,3.31-.9,1.25-1.5a4.45,4.45,0,0,0-.94-4.77c-1.46-.66-3.23-4-5.5-4.3-1,2.53-4.64,4.31-4,7.53,2.81,1.12-.67,1.06-1.61,1.64-2,1.19-4.35.82-6.21,2.43.68-1.53-1.81,0-3.1-.25-1.42,1.83-2.85-.24-4.23.87-1.64-.25-.17-.46.67-.54-3.47-.33,4.3-2.58.34-2.72-1.37-1.38,1.19-.8.26-2.1.6-.59,3.39-1.29,1-1.58a2.57,2.57,0,0,1,.15-1.29,2.65,2.65,0,0,1,.74-1.07c.86-.46,3.49-3.74,1.85-3.13.38-1.8,1.74-2.49,1.47-4.2,1.25-1.4,3.09-4.25,3-6.66-.83.35.73-2.66-.47-1.82-.24-2.14-.79.88-1.84-1,.82-1.87-.53,1-.53-.41.49-2.1-1,1.58-1,0-.88-2,.05-4.14,0-6.35.74-2.12-1.89-.79-1.27-2.58,1.54-1.87-.28-3.65.78-5.63-.05-1.76-1.58-4-1.08-6-.48-2.77-.58-5-1.72-7.49-.46-3.36-2.78-.41-2.79,1.4-.54,2.05-2.16.67-2-1.3,1.34-.39-.58-2,.72-2,1.74-2.22-3.45-2.12-2.57.34-.93,1.79-1.31.27-1.14-1-2.1-1.31,1.68-1.12.37-2.75-1.55.33-4.8-.79-1.81-1.74-1.22-1.38,2.2,0,2.64.21,3.44,2.1,1.28-4.57-1-3.9.24.23-2.31-.24-3.13.18-2.84-.14.12-.87,1-2.07,2.51-1.89.29-2.55-.18-4.66-3-3.07-.12,2.83-2.65,2.91.2,1.65-1.47,1.37-.89,0-2-1.92,2,.48.42-2.22-.7-2.18-1.9-.7-2.52,0-1.27,2.11-.25.69-1.32-.29-1.63,1.91-1.48-2-.15-1.09,3-.1-.56-3.58-1.61-3.68.88,2.41-1.07,1-1.4-.72-1-.14-3.67,1.44-2.53,2.71-.5-.57-3.46.82-2.44-.7,2.66-2.35-3.32,1.06-1.71-.81,2-.32-.13-1.36-.6.31-3,.11-.69-1.39.63-2-1,.37,1.33-1.56,2,0,2.28-.37-1.37-2.46,1-1.45,3.65.75-3.09-2-.72-2.09,2.42,2,2.78-2.67.08-2.18-.48-1.74-4.75-3.21-2.61-.75,2,1.25-.33,1.39-.3,1.69,1.4,1.75-.44,1-.94-.2-.61-1.88-5.2-3.61-3.78-.06,1.68,1.49-.68.43-1.51.87.71-.74-.56-.85-1.3-1.24-.76,1.71-.84-.68-2.22-.08.88-1,2-.79,2.19-2.24.68-2.61-1.35.09-2.16-.63,2.2-1.36-2.07-2.63-1.84-.19-.65-1.18-.1-2.88-1.85-3.42.57,1.46-1.18,2.87,1,3.32-1.79.09-3,1.9-2.62,4-.65,2.39-1-2.12-1.8-.63-3,1.27.49-2.25-.62-3.65.85-.22,2-2.7,1-2.19-2-.23-1.14-.83-.08-1.41-.86-1.58-2.39-.12-3.54-.8-.46,1.19,1.58,3.15-.09,4.41-2.2,2.25,0-.88-1.12-1.57-.14-.25-1-1.41-.79-2.12,1.57-2.26-2.68-.16-1.32-1.49,3-2.31-2.15-.28-1-1.34,1-2-2.34-.22-3.2-.63-1-1.59-2.66-1.67-3.35.16,2.06,1.07-.08,2.88-1.41,1.47-1.48.76-.56-1.19-.33-1.62.3-1.56-1.47-.9-.81-2.07-.6-3-2.77.6-2.36,2.29-.91-1.86-3,1.44-3.83-.48-2-.63.37-2.11.65-1.67-.26-2.85-3.64-.87-5.16-1.46-2.51,1.6-3.62-1.91-6-2.57-.93,1.48-1.39.25-3,.72.16,3.07-3.56-.76-3.94,2-1.16-2-1.78-.29-3.15,1-2.42.85,1.26-2.5-.82-3.07-1.38.82-1.2-.64.13-.65-1.22-1.9-3.21,3.57-5.1.62.85-1.61-1.48-4.06,1.11-4.76-1.37-2.51-3,2.91-2.41,3.83-.52,1.32-.22,3.67,1.24,3.18-1.25,1.83,2.83-1.33,1.56.73,1.78-.32.93.67-.23.94-.32-.28-.39,1.87-1.85,1-.5.8-1.7,3.26-3.59,2.94-.25-.12-.79-4.38-2-2.26.1,3.4-2.33.63-1.87-.77C46.46,157,44,153.53,44,156c-2.31-1.31,1.16,1.63-.5,2.14,0,2.13-1.88,3-2,.86,1.1-1.6-.76-2.25-2.14-.61-.18-.72-1.85-1.71-2-1.88.53-2.05-1.07-.38-1.21-1.5-.32,1.43-1.75.65-1.79.85-.39-1.65-2-.66-2.87-1.68,2.43-.32-1.25-.62.27-1.06,2.3,1.49,1.1-1.23,1.46-2.14,1.32-2.28-1-.57-1.72-.12.82-1.58-.3-.79.15-1.76-1.16-1.26-.81.33-2.28.13-.05-1.19-3-.9-1-1.24,2.7-.17-.64-1-1-1.46-1.68-1.3.15-1.54.74-.65,2.44.46.4-1.26.78-1.82,3,.78,2.31-4.49-.77-2.86-.24.83-2.41,1.63-1.62.73-1.23-.85-.69-.56.14-1.43-.46-1.45-3.05.21-2.06-1.62-.94,1.15-1.29,0-.37-1.06-.29-1.23-1.56,0-2,.64.61-1.55-1.51-.8-.63-1.39.18-.68,1.35-1.54,2-2.51,2.19.76,4.89-.77,7.29.44,2-2-.59-2-1.83-1.16a1.61,1.61,0,0,0-.21-1,1.59,1.59,0,0,0-.78-.69,1.67,1.67,0,0,0-1.93.48c-2.54-1.33-.78-4,.48-5.52.53,1.78,2.6,0,3.49,1.41,2.39-1.75-3.31-1.47-2.66-2.41.3-1.17,1.65-1.23-.47-1.81.5-.19,1.2-2,2.7-.91,2.31,1.08.81-1.76-.28-2.18-1.48,1.47-2.16-.6-1.16-1.08,2.65.27-1.15-.56.46-1.25-.84-1-1.51-1.52-2.31-.12-2.46,1,2.7,2.72-.75,2.35-3.45.42,2.75,1.48.54,2.2-3.35.77,2.45,2-.06,2,.27.7-1.69,3-3.5,2.12-1.94.46-3.09-1.06-3-3.11-3.06.58,0-2.67-1.31-3-.43,1.19-.07,1.08-1.36,1.16-1.41,1.44-1.28-2.31-2.6.11-.32-1.45-1-1.13-1.08-2.43,1.41-.41,2.43-2.31,0-2.52-1.9,2.09-2.89-2.22-.73-1.69.64-.19,1.54-2.64.35-3.25.59-.23-1.16-1-.73-2.07-1.84-.63-.83-2-1.55-2.88,1.54-1.63-1.63-.41-.94-1.33,2.13-.79-1-.49.49-2-1.53-1.19-.68-3,1.27-2.14-.44.59.53.63,1.5.4.38-1.88-2.13-.12-2.72-1.83-1.86-2.89,1.85-.1,2.43-2.14-.59-2.16,2.45.66,2.26-1.55-1.36-1.72-1.93.49-2.8-.91,1.18-3.1-2.66,2.4-2.38-.13,2.47-1.89-2.55-3.06-1.66-5C7.61,89.59,5.89,87.65,6.75,86c1.24,1,0-1.69.81-1.3C7,84,8,83.83,7.56,83.4c0,.41-2.26,1-.58-.62,1.51-1.77,0-.87-1-1.53.39-.71,2.39-2.87,3-.47,2.09,0,.16-1.49,1.87-1.83-.43-1.91-2-.45-2.83-.22-.2-1.64-1.15.46-1.46-1-3.33-2-3.23,3.1-3.67,4.59C4.46,83.56,2,85.08,3.34,85c.07,1-1.25,2.43-1,3.54-1.12,1.59-.09,2.35.86,3.1,1,1.56-.69,1.29-.78,2-.39,1.42,1.09.46.89,1.45,2.45.58.51,2.2-.51,2.64-.94-1-1.24.67-.43.23,0,.68.69,1,.75,1.26,1.07.5-1.53,1.5-1.11,3.15-.46,1.68,1.36,2.82-.75,4.14a2.59,2.59,0,0,0,1.87-.23c-.84,1.32.68.43.45,1.44,1.69-.46.59.65.87,1.49,1.62.37.71,1.36.25,2.41-.42-1.4-1.41.51.09.09-1.11,1.8.51.3,1.19.82-.83,2,1.23.15,1.53,1.4,0,1.36-1.73.41-2.6.39.32,1,1.49.63.38,1.44,2,.48.8,2.47,1.72,2.41-1.89.48,1.21.27,0,.52-.81,1.7-1.72-.83-2.08.42-1.92-1-1,1.49.67,1-.29,1.91.26,1.24,2,.78.33.56,0,1.84-1.58,1.3-.36,1.33,1.54.35,1,2.22-1.67,1.56.64,2.45,1.18.77,0,.32,2.55.92.9,1.91-1.73-.57-.25,1.12-1.6,1.35-.67.9-2.28,1.28-1.07,3a3.39,3.39,0,0,0,1.28,1.35,3.34,3.34,0,0,0,1.8.44c1,1.87,1.92-.82,3.19-.89-1.24.88,1.35.88.33,1.79-1.73-.53-2.28,2.2-.68,1.06,2.57.7.66,1-.22,2.3.74.16,3.56,0,1.73,1.68-1.82-.2.09,1.28.61.93,1-.56,3.46-.05,2.38,1.56-2.49-1.42-3.49,4.31-.91,3.22,3-1.23,1,1.63-.46,2.16.1,1.23,1.35.22,1.69,1.72.58,2.32.61-.1,1.71,0,1.57-1,.1,1.6,1,.35.45,1.6,2.27,1.67,3,2,1.32,0-.35,1.84-2,1.66-1.4,1.65-.24,3.5,1.49,3.83,1.58-.85,1.8.29,2.52,1.28.64,1.51,1.84-1.11,1.94.29.6.36,1.66-.24,2.37.81,2.91.82-1.78.35-1.72.87,2.75.63.59,3.09-1,.85-1.32-.11-3.06-2-3.52-.21,2.49-.06.12.66.8,1.07,2.46.08-.54,1.8.68,1.77.32,1.84,1.73.49,2.23,1.75,1.75-.91,1.57,2.1,3.15,1.07,1.09.91,1.08-.2,1.11-1.36-1.55-2.21,2.31-2.41,1.54-4.12,2.42.33,0,1.34.59,2.37.66,2.38,2-1.18,1.8,1-.87,2.42.65-1.7,1,.18,3-.44-.55,4.54,2.29,2.65.52,1.14,1.5.32,2.92.09-.25-2.8,3.24-.22.72.59-.58,1.86,1.14.93,1.36.24,2.23,0-.33.43,1.55.94-1.1.84.13,1.69,1.2,1.34,1.44-.87,3.84.75,2.38,2.44.25,2.5,3.08-.18,3.52-1.37,1,.65.41,1.06,1.23,0-.38,2.38,2.27,0,2.27,2.18-.88,1.47.39,2.29,1.4,2.62,3.48,1.19-2,1.16-1.58,2.89-1.54.52-2.79,1.6-.43,1.91-1.08.37-1.5,3.92.57,2.44,1.6.31,3-1.56,4,.18,1.63-.32,2.24,1.29,3.81,1.89,1-.49,3.09,0,4.53-1,1.85.42,4.14.05,6,.74,1.85,1.51,4.9-.5,6.11,1.75,1.79-.46,1.61,1,3.61,1.9,2.33,1.55,4.7-.85,7.06.42a5.11,5.11,0,0,1,6.24,1.46c2.53,2.13,4.65,4.46,7.21,6.34-.43,2.22,1.45,4.69,1.45,6.75.52,2.06-.26,3.34-.06,5.41,1.37,2.16-2.57,3.62-.61,5.57.93,1.81-1.31,4.65.57,5.27-.52,1.41-2.19,3.19.38,3.87-1.13.6,1,1.77-.27,1.81.59.37,1,1.4,1.68,2-2.74.57.73,3.08-1.6,2.87-2.45,1.9.16,3.9-.27,5.91,1.66,1.39-1.71,2.94.74,4,.11,2-2.45.09-3-1-.56-2.46-4.52-.44-2.24.53-1.41,1-.55,2.06-.89,3.19.19,1,1.37,4.82-.1,4.09-2.7-2-4.55.29-7.13,1.47-1.43.73-4.45,3.95-1.8,4.92.87.11,3.71-.92,5.35-1,1.72.23-2.2,1.91-2.62,2.71-1.18,2.5,1.79,1.61,3.09,2.13,2.4-1.44,4.39.44,5.14,2.57-.81,1.18-.18.16.57,1.55-2.11,1.64-4.39,4-3,6.66-.22.12-1.34.78-2-.23-2,.63-.11,4-2.06,5.29-1.64,1.3-2.32,2.82-4.57,2.23-2.2.61,1.43,1.83.58,3.59,3.07.51.49,5.15-1.5,3.83.65,1.29-.41,1.67,1,2.66-1.9.81,1.18,2.62-.74,2.54-1.45,1.8-2.85-1.12-4.27-.57.27-.11-2.19-2.24-3.17-1-.44,2.4-2,3.71-1,5.63.62-2.1,4.08-1.89,5.66-.63,1.57-.09.87.51,1.5,1.87-1.12,2.12,1.86,2.77,2,3.9,2.13,1.73-.71,3.12-.16,5.28-1.67,1.51-1.5,3.67-.61,5.48-.4,1.13-.16,2.65.28,2.83,2,1,2.32,2.83.85,4.31-.18,1.66-.4,5.16,2,5-1.22,1.74,0,3.72-1.44,4.94-.06.64-1.89,2.81-.32,3.38,2,1.62-1,.77-1.93.29a51.58,51.58,0,0,1,.14,5.45c1.54,2.27.1,4.29,2.06,6-1.27,1.9-.72,3.57.53,5.38,2.13,1.69-1,2.1.2,3.94,1.66,2.38-.76-.84-1.84-.68-1.36-.43-2.65-.05-1.6,2.29-.77,1.89.77,3,2.52,3.27,1.15-1.8,3.54-1.14,4.6-2.15,2-1.69,1.84-4,.55-6.14.1-3-1.59-5.63-.77-8.56-1.29-1.41,2.22-.5,1-2,2,.47,1.34-1.8,1.59-3,1-1.1,1.23,2.37,1.09,2.79,2.68-.7,1,2.89,2.59,3.75,2,2.36-1.31,3-.23,5.07-1,1.83-.25,2.83-.3,5,1.19,1.88,1.7-2,3.55-.35,1.94-.19,1-2.07,1.45-3.11-1-2,1.51-5.07,4-4.39-1.09-1.22,1.35,0,2-.5,1,.72,1.64-1.63,1.24-2.72a2.55,2.55,0,0,1-1-.68,2.59,2.59,0,0,1-.56-1.06,2.52,2.52,0,0,1,0-1.19,2.65,2.65,0,0,1,.54-1.07c1.27,1.37,1.57.18,2.93,1,.51-1.63,2.64-.72,2.36,1,1.88-1.09,0-3.18.48-4.82,1.79.7,4-1.47,2.74-2.94-2.22-2.55,1.75,1.53.86-1a1.89,1.89,0,0,1,1.11.5,15.16,15.16,0,0,1,13.29-8.3c21.77-2.13,43.53-1.43,65-2.56,19-1,37.71-3.41,56-10.44,16.59-7,30.89-23.88,26.26-42Z" style="fill:#d7fffe;stroke:#000;stroke-miterlimit:10;fill-rule:evenodd"/><line x1="111.48" y1="289.48" x2="143.14" y2="289.48" style="fill:none;stroke:#51565f;stroke-miterlimit:10"/><path d="M108.25,280.62v6h38.47v-6a19.24,19.24,0,1,0-38.47,0Z" style="fill:#e4f2de"/><path d="M127.49,276a4.61,4.61,0,0,0-4.64,4.64v6h9.28v-6a4.61,4.61,0,0,0-4.64-4.64" style="fill:#ae938d"/><polygon points="127.49 250.77 127.49 256.08 133.46 253.42 127.49 250.77" style="fill:#50dd8e"/><path d="M146.72,286.92H132.13a.31.31,0,0,1-.33-.33v-6a4.31,4.31,0,0,0-8.62,0v6a.34.34,0,0,1-.67,0v-6a5,5,0,1,1,10,0v5.64h4.65v-4.65h-2v2.33a.34.34,0,0,1-.67,0v-3.32a7,7,0,1,0-13.93,0v6a.31.31,0,0,1-.33.33H108.25a.31.31,0,0,1-.33-.33v-6a18.6,18.6,0,0,1,.6-4.71v-.07a19.16,19.16,0,0,1,2.19-5.3c0-.07.06-.07.06-.14a20.27,20.27,0,0,1,4.71-5.3c0-.07.07-.07.14-.07a19.5,19.5,0,0,1,11.87-4,20,20,0,0,1,11.87,4c.07,0,.07.07.13.07a18.94,18.94,0,0,1,4.71,5.3c0,.07.07.07.07.14a18.32,18.32,0,0,1,2.19,5.3v.07a18.2,18.2,0,0,1,.6,4.71v6A.32.32,0,0,1,146.72,286.92Zm-8.95-.66h8.62v-4.65h-8.62Zm-19.9,0h2v-4.65h-2Zm-9.29,0h8.63v-4.65h-8.63Zm34.5-5.31h3.31v-.33a23.6,23.6,0,0,0-.46-4.31h-2.85V281Zm-8,0h7.29v-4.64h-8.62a7.55,7.55,0,0,1,1.33,4.31V281Zm-22.56,0h7.3v-.33a7.55,7.55,0,0,1,1.33-4.31h-8.63Zm-4,0h3.32v-4.64h-2.85a18.73,18.73,0,0,0-.47,4.31V281Zm29.19-5.31h8a19.28,19.28,0,0,0-2-4.64h-6Zm-4.51,0h3.85V271h-9.29v2A7.81,7.81,0,0,1,133.26,275.64Zm-15.39,0h3.85a7.79,7.79,0,0,1,5.44-2.65v-2h-9.29Zm-8.62,0h8V271h-6A19.28,19.28,0,0,0,109.25,275.64Zm23.21-5.3h10.88a19.15,19.15,0,0,0-4.24-4.65h-6.64v4.65Zm-9.28,0h8.62v-4.65h-8.62Zm-11.54,0h10.87v-4.65h-6.63A18.75,18.75,0,0,0,111.64,270.34ZM127.82,265h10.35a18.65,18.65,0,0,0-10.35-3.32Zm-11,0h10.35v-3.32A18.48,18.48,0,0,0,116.81,265Zm10.68-6a.31.31,0,0,1-.33-.33v-8a.35.35,0,0,1,.13-.27.32.32,0,0,1,.33,0l6,2.66a.36.36,0,0,1,.2.33.38.38,0,0,1-.2.33l-3.32,1.46c-.19.07-.33,0-.46-.2s0-.33.2-.46l2.65-1.2-4.84-2.12v7.43A.31.31,0,0,1,127.49,259.06Z" style="fill:#51565f"/><text transform="translate(106.85 312.22)" style="font-size:25px;fill:#fff;stroke:#000;stroke-miterlimit:10;stroke-width:0.75px;font-family:Arial-BoldMT, Arial;font-weight:700">500</text></g><g id="Ranku"><path d="M265.54,364.44c-7-20-39-10-57-23-6.88-5.9-7-15.67-7-24.56-21.47,1.13-43.23.43-65,2.56a15.16,15.16,0,0,0-13.29,8.3,2.14,2.14,0,0,1,.72,2.54c1.15,2.38,1.28,4.19,2.89,6.2-1,.64-.38,2.93-2.36,2.65-3.39-.61-.9,2.45-.87,4.17a5.37,5.37,0,0,0,1.42,4.67c-.74,1.19,1.51,2.09.61,3.52.85,1.86,3.61,3.14,4.3,5.36,1.52-.15,1.3.59.62,1.89,1.45,1.86.91,3.89.79,6.12,1.06,1.49-.86,4.4,1.06,4.71,1.79.79.38,3.29,2.12,5.38,1.32,1.49-1-.15.09,1.16-.75.92-3-.61-4.08-1.12-2,1.26-3.3-3.23-4.67-.48-1-.91-4.52-.38-3,1.33-1.32,0-2.45.16-3,1.67,1.23.9,1.81.48.65,2.28-.76,1.62,1.28,4.16,2.92,1.85,1.72.19.21-3.25,1.43-2,.63,2.47,2.37.87,3.5-.16.52-3.37,1.26,1,2.71,1,.13,1.45,1.09,1.38,1.43,2.37,1.29.84,1.66,2.15,3,2.57,2.49.15.67,2.78-.67,1.2-.94.39-3.17-.25-3.47,1.08,2.06.46.27,1.92-.66.74-.38-1.84-1.94-1.16-3.2-1.94-2.91-.33,2,2,0,2.16-.62,1.5-1.84.06-1.86.64.83,2.85-2.16-2-2.69.17-2.83.84,1.42,2.32.17,3.49-1.29-2.08-4.07,1.49-1,1.46,1.49,2.37,4.47,1.25,6.31-.7,1.29-2.63,3.66.1,3.79,1.86-1.78.48-.83,2.79.15,1.05,1.73.94,3.07,3.64,3.31,5.67.88,1.73-1.61.5-.94,2-.75-1.29-2.7,1.4-.88,1.07.34,1.77,6,4.11,3.85.82.06-2.17,2.33,1.46,3.14,1.48,1.57.73,1.2,3.17,3.08,3.55,1.87.15.67,1.74,1.84,2,1.54,1.49,2.47,4,4.42,5.55-1.17,1.77,4.44,2.71,1.7,4.11.64,1.88,2.37,3.52,3.24,5.43,3,.05,1.71,3.61,3.18,4.76,1.85,2.42,4.48,2.95,6.18,4.71,2.14,1.4,4.73,2.22,4.46,5.12,1.17,1.46,2.61,2.36,2.76,4.65,2.54-.27,1.41,2.84,3.65,2.3.82,1.41,3.73.35,2.78,2.24,2.25,1.16-.72,1.12.25,2.93-2.7.57-.06,5.52,2,3.92,1-1.63,1.42-.85,1.78.65.81,1.23,4.23,1.93,4.83-.67,1.81-.28-.17-2.48.08-2.91,1-2.25,1.09,1.44,2.8,1.11-.26.84.42,1.91.29,2.74a10.91,10.91,0,0,1,5.56,3.49c2.43.67,1.93-.07,4.77-.17.49-1.71,3.58-1,4.56.71,1.74-.85.06-3.42,1.14-5.11.11,1.94,3.07,2.55,1.56,4.65-1.59,1.19.32,6.12,1.3,3.09,1.83.08,3,2.83,5.48,2.61,3,1.81-1.43-2.39,1.23-1.18.6-2.64,2.53.59,4.06-.2,1.32-.55,2.56,3.43,4.48,1.5,2.65-.62,1-2,1.34-4-1.22-1.48-.29-5.27,1.41-2.65,1.55,1.89,1.7,4.65,3.09,6.35.59,1.16,1.55,5,3.38,2.14-.54-2.28,4.82,2.13,4.61-1.45-1.32-3-4.84-2.85-7.2-4.3-2-2.35.24-5.11-2.3-6.6-.3-2.73,1.79.21,2.5-1.31-1.13-1.31-.54-1.67-.51-3.34,1.51-.66.11.38,1,.66.19,1.86,2.42,2.44,1.12.27-.24-.24-1.49-4-.05-3.15s1.46,1.24,1.76-.61c-.18.69.12-4.13.81-2,2.69-.42,2,3.55,1.33,4.71,0,2.39,3.17-.85,2.93.29,1.26-.75-.78,2.56.25,3.85.16,2.3,2.11,1.17,2.7.25.68-.08.78-2.28-.81-3.82-2.45-2.1,1.3-1.2,2.48-.78.92-2.05,2.1-1.51,2.44.48,2.34,1.46-.41-2.24,1-2.12,3.83-.48,1.83,4.71,3.82,6.67-1.05,1.48.54,2.33,1.18,3-.22,2.72,1.61,0,2.13-.93.7,1,.9.41,1.6,1.42,1.31,0,2.36,2.23.49,1-3.14.72,1.21,3.18.69,4.42,1.24.38,2,2.75,3.6,1.52-.93,2.94,4.52,3.24,4.31,1.28-1.73-1.65.27-.87,1.16-1.61,1.55.28.62,3,1.51,4.8,1.91,2.05,1.07-2.13,2.81-2.48a6.26,6.26,0,0,1,1.88-5c3.13-1.76,1.33-5.41.23-8a1.24,1.24,0,0,0,.11-.54,1.22,1.22,0,0,0-.13-.53,1.19,1.19,0,0,0-.33-.44,1.29,1.29,0,0,0-.49-.26,1.26,1.26,0,0,0-.55,0,1.37,1.37,0,0,0-.51.19,1.48,1.48,0,0,0-.39.4,1.31,1.31,0,0,0-.19.51c-1.05-1.86-2.68-1.71-4.35-2.48,1.22,0,1.22-1.65-.27-1.28-1.27,2-1.73.78-2.45-.86,1.18.49.94-1.58,1.83-1.2.89-1,2.4-.61,2.4,0,1.4-1.06,4,.89,5.47-1,.21-2-1.95-4.94-1.56-7.5-1-1.46-3.48-4-5.31-4,.52-1.32-.57-.68-1.24,0-3.2-.54,1.12-1.71,1.56-2.43-1.46-.79-2.58-.52-.61-1.2-.26-1.6-2.23-3.55-2.16-5.12-2.62-1.45-2.16-4.65-4.71-6.4,1.36.27,1.77-.25.52-1.54,2.64,1-2.73-2,.21-1,1.5,1.12,1.06,1.3,1.8,2.3,1.47,1.84.81-.67.11-.85,2.21.78-.92-.77.56-.44,2.19,1.5.31.29-.56-.69-.18-.1-.28-.19-.17-.19l.17.19c.59.34,2.12.88.46-.44-1.32-1-.51-1.29.39-.1a2.46,2.46,0,0,1,2.2.14C266,402.2,270.29,381.52,265.54,364.44Z" style="fill:#d7fffe;stroke:#000;stroke-miterlimit:10;fill-rule:evenodd"/><line x1="186.07" y1="398.04" x2="217.73" y2="398.04" style="fill:none;stroke:#51565f;stroke-miterlimit:10"/><path d="M182.84,389.18v6h38.47v-6a19.24,19.24,0,1,0-38.47,0Z" style="fill:#e4f2de"/><path d="M202.08,384.54a4.61,4.61,0,0,0-4.64,4.64v6h9.28v-6a4.61,4.61,0,0,0-4.64-4.64" style="fill:#ae938d"/><polygon points="202.08 359.33 202.08 364.64 208.05 361.98 202.08 359.33" style="fill:#50dd8e"/><path d="M221.31,395.48H206.72a.31.31,0,0,1-.33-.33v-6a4.31,4.31,0,1,0-8.62,0v6a.34.34,0,0,1-.67,0v-6a5,5,0,1,1,10,0v5.64h4.65v-4.65h-2v2.33a.34.34,0,0,1-.67,0v-3.32a7,7,0,1,0-13.93,0v6a.31.31,0,0,1-.33.33H182.84a.31.31,0,0,1-.33-.33v-6a18.66,18.66,0,0,1,.6-4.71v-.07a19.28,19.28,0,0,1,2.19-5.3c0-.07.06-.07.06-.14a20.27,20.27,0,0,1,4.71-5.3c0-.07.07-.07.14-.07a19.5,19.5,0,0,1,11.87-4,20,20,0,0,1,11.87,4c.07,0,.07.07.13.07a18.94,18.94,0,0,1,4.71,5.3c0,.07.07.07.07.14a18.72,18.72,0,0,1,2.19,5.3v.07a18.26,18.26,0,0,1,.6,4.71v6A.32.32,0,0,1,221.31,395.48Zm-8.95-.66H221v-4.65h-8.62Zm-19.9,0h2v-4.65h-2Zm-9.29,0h8.63v-4.65h-8.63Zm34.5-5.31H221v-.33a23.6,23.6,0,0,0-.46-4.31h-2.85v4.64Zm-8,0H217v-4.64h-8.62a7.55,7.55,0,0,1,1.33,4.31v.33Zm-22.56,0h7.3v-.33a7.48,7.48,0,0,1,1.33-4.31h-8.63Zm-4,0h3.32v-4.64h-2.85a18.73,18.73,0,0,0-.47,4.31v.33Zm29.19-5.31h8a19.28,19.28,0,0,0-2-4.64h-6Zm-4.51,0h3.85v-4.64h-9.29v2A7.81,7.81,0,0,1,207.85,384.2Zm-15.39,0h3.85a7.79,7.79,0,0,1,5.44-2.65v-2h-9.29Zm-8.62,0h8v-4.64h-6A19.28,19.28,0,0,0,183.84,384.2Zm23.21-5.3h10.88a18.92,18.92,0,0,0-4.24-4.64h-6.64v4.64Zm-9.28,0h8.62v-4.64h-8.62Zm-11.54,0H197.1v-4.64h-6.63A18.53,18.53,0,0,0,186.23,378.9Zm16.18-5.31h10.35a18.64,18.64,0,0,0-10.35-3.31Zm-11,0h10.35v-3.31A18.47,18.47,0,0,0,191.4,373.59Zm10.68-6a.31.31,0,0,1-.33-.33v-8a.32.32,0,0,1,.13-.26.28.28,0,0,1,.33,0l6,2.65a.37.37,0,0,1,0,.66l-3.32,1.46c-.19.07-.33,0-.46-.2s0-.33.2-.46l2.65-1.2-4.84-2.12v7.43A.31.31,0,0,1,202.08,367.62Z" style="fill:#51565f"/><text transform="translate(181.44 420.79)" style="font-size:25px;fill:#fff;stroke:#000;stroke-miterlimit:10;stroke-width:0.75px;font-family:Arial-BoldMT, Arial;font-weight:700">500</text></g><g id="Dager"><path d="M363.1,329.33c.18-11.91-1.29-23.59-4.93-34.07l-.63.18.63-.18c-4.54-13.08-12.43-24.31-24.63-31.82-13.93-9-32.8-1.09-49.74,1,4.63,18.16-9.67,35.05-26.26,42-18.29,7-37,9.45-56,10.44,0,8.89.12,18.66,7,24.56,18,13,50,3,57,23,4.75,17.08.49,37.76-.81,56.91a13.82,13.82,0,0,1,2.52,2.49c-.07-1.34.68-2.72,2.07-1.46,1.33-1.23-1-2.46-.12-3.25.87,1.42,3,.84,1,.26.46-1.42-.82-2.12-.9-2.94,1.35-.05-1.34-1.23-1.26-1.55-1.64-2.42.68.76,1.49,0l-.27-.1c-.32-.09-.53-.2,0,0s.93.16.63-.39c-1.79-.4.31-.36.57-.3-1.85-.73-2-2.67-2.83-3.55.71-2.13,4.55-.93,6.49-1.16,2,2,5.61,1.2,7.12,4,1.22,2.78,5.2,3.62,7.74,2.32,3.56-1.86-1.22-3-1.81-4.83.07-2-2.86-5.57.37-6,2.83,0,1.08-3,2-4.49-.51-2.3-1.66-5.84.9-7.28,2.72-.34,5-.23,6.8-2.67.91-2.94,3.24,1.2,4.55,0,2.33.32,1.17-1.2-.39-1.54-.65-3.32,4-2.62,5.44-3.86.69,1.87,1.66.79,3.08,1.69,1.85-.32,1,1,1.34,1.77-.53,2.35,1.66,1.95,2.81.7,1-3.28,1.2,1.83.5,2.68-.43,2.42,2.95,1.69,4.3,1.81.75-1,5.23,1.62,3.54-.62,2.66.78,1.42,4.69,3,6.06.64,2.32,3.13-.43,3.46,1.86,2.38,3.55,1.2-2.2-.49-2.61.49-1.37-4.52-4.4-2.43-3.48,0-.65-3.6-3.31-3.73-4.5-1.43-1.11.75-2.87-1.27-4.26,1.17.51.84-.4.18-1.1-.17,1.16-1.68-1.28-3.38-.12-1.31.06-2.08-3.34-1.77-4.81.67.77,1.95-.1,2.18-.23-.7-1.19-.4-3-1.64-4-.3-1.47,3,.76,3.88.42,1-1.47-2.21-.56-3-1.74-1.33-2,1.42.34.67-1.42-1.53-1.59-4.34-3.25-5.69-5.07-.42-1.81-4.67-2.52-2.53-3.39-1.16-1.22.48.36.89.24,1.77,1.42.51-2,.17-2.92-1.13-2.19,2.48-.37,1.19-1.6,1.47-1.11,1.68,3.47,2.11,1.78a5.43,5.43,0,0,0,3.31,5.39c2.39-.87,3.48,3.63,5.8,2.46,1.78-1.42-.07.72,1.56,1.1-1.32,1.88.66,2.48,2,3.34,2.29,1.12,4.07,2.83,6.56,3.43,1-1.29,1.41-2.08,2.35-.36-1.71,1.93,1.81.35,1.88,1.09.39,2.91,3-.83,3.68,1.3.63,2.5,3.11,2.61,4.3,4.11.44,1.92,3.05-.26,2.72,1.2.27,2,1.37.67,2.43.46a151.79,151.79,0,0,0,12.36-56.41" style="fill:#d7fffe;stroke:#000;stroke-miterlimit:10;fill-rule:evenodd"/><line x1="291.08" y1="327.38" x2="322.74" y2="327.38" style="fill:none;stroke:#51565f;stroke-miterlimit:10"/><path d="M287.85,318.51v6h38.47v-6a19.24,19.24,0,1,0-38.47,0Z" style="fill:#e4f2de"/><path d="M307.08,313.87a4.61,4.61,0,0,0-4.64,4.64v6h9.29v-6a4.61,4.61,0,0,0-4.65-4.64" style="fill:#ae938d"/><polygon points="307.08 288.66 307.08 293.97 313.05 291.31 307.08 288.66" style="fill:#50dd8e"/><path d="M326.32,324.81H311.73a.32.32,0,0,1-.34-.33v-6a4.31,4.31,0,0,0-8.62,0v6a.33.33,0,0,1-.66,0v-6a5,5,0,0,1,9.95,0v5.64h4.64v-4.64h-2v2.32a.33.33,0,1,1-.66,0v-3.32a7,7,0,0,0-13.93,0v6a.31.31,0,0,1-.33.33H287.85a.31.31,0,0,1-.33-.33v-6a18.65,18.65,0,0,1,.59-4.71v-.07a19.92,19.92,0,0,1,2.19-5.3c0-.07.07-.07.07-.13a20,20,0,0,1,4.71-5.31c0-.07.06-.07.13-.07a19.54,19.54,0,0,1,11.87-4,20,20,0,0,1,11.88,4c.06,0,.06.07.13.07a19,19,0,0,1,4.71,5.31c0,.06.07.06.07.13a18.69,18.69,0,0,1,2.18,5.3v.07a18.26,18.26,0,0,1,.6,4.71v6A.31.31,0,0,1,326.32,324.81Zm-9-.66H326v-4.64h-8.63Zm-19.89,0h2v-4.64h-2Zm-9.29,0h8.62v-4.64h-8.62Zm34.49-5.31H326v-.33a22.75,22.75,0,0,0-.47-4.31h-2.85v4.64Zm-8,0H322V314.2h-8.63a7.48,7.48,0,0,1,1.33,4.31v.33Zm-22.55,0h7.3v-.33a7.54,7.54,0,0,1,1.32-4.31h-8.62Zm-4,0h3.32V314.2h-2.86a18.72,18.72,0,0,0-.46,4.31v.33Zm29.18-5.3h8a18.8,18.8,0,0,0-2-4.65h-6Zm-4.51,0h3.85v-4.65h-9.29v2A7.8,7.8,0,0,1,312.85,313.54Zm-15.38,0h3.84a7.82,7.82,0,0,1,5.44-2.66v-2h-9.28Zm-8.63,0h8v-4.65h-6A19.58,19.58,0,0,0,288.84,313.54Zm23.22-5.31h10.88a18.77,18.77,0,0,0-4.25-4.64h-6.63v4.64Zm-9.29,0h8.62v-4.64h-8.62Zm-11.54,0h10.88v-4.64h-6.63A18.77,18.77,0,0,0,291.23,308.23Zm16.18-5.31h10.35a18.62,18.62,0,0,0-10.35-3.31Zm-11,0h10.35v-3.31A18.47,18.47,0,0,0,296.4,302.92Zm10.68-6a.31.31,0,0,1-.33-.33v-8a.34.34,0,0,1,.13-.26.3.3,0,0,1,.34,0l6,2.65a.37.37,0,0,1,.19.33.36.36,0,0,1-.19.33l-3.32,1.46c-.2.07-.33,0-.47-.2a.36.36,0,0,1,.2-.46l2.66-1.19-4.85-2.13v7.43A.31.31,0,0,1,307.08,297Z" style="fill:#51565f"/><text transform="translate(286.45 350.12)" style="font-size:25px;fill:#fff;stroke:#000;stroke-miterlimit:10;stroke-width:0.75px;font-family:Arial-BoldMT, Arial;font-weight:700">500</text></g><g id="Ramac"><path d="M363.34,148.09c-26.26-10.24-54.92,1.78-81.15,8.67a17.61,17.61,0,0,1-2.64,1.89c.47.87.67,0-.28.83-.3,1.47-3.5,1.42-4.42,3.12-3,.08-5,2.14-6.82,4.34.91,1.84-.79,2.51-2.13,3.14-1.68,1.72,4.46,1.65,2,2.3-3.23-.32-2.79,3.58-5.35,3.93,2.35.46-.44,3.89-2,3.24-2.51.92,1,1.79-.05,3.56.82,1.66-.37,2.15-.33,3.48.46,3.28-2.33.7-4.33,1.71-1.21-.29-.14.76-.59,1.38-.92,1.75.75,4.28-.7,5-.9.3.21,1.33.17,2.77s2.4,3.27,2.09,4.47c1.28,2.57.44,5,3.23,6.88.66.75,2.72,5.4.43,2.92-.21.87.64,3.16.41,4.74-1.23-1.3-.29,1-.69.95-2.46.29-2.36-2.57-3.64-4.27-1.36-.46-3.6-3.31-3.2-.3.78,1.38-.91,2.26-.76.5-3-.84-2.87,4.1-4.87,5.3.26,1.64-.53,3-.13,5-1.06-.07-1.15,2.49-1.35,2.55,1.3.85-.07,3.15,1.89,4.14,1.6,1.1.2.08-.46,1a26.05,26.05,0,0,1,3.22,6.08c1.54,2.64,3.93,5,5.76,7.43a1.68,1.68,0,0,0-.59.47,1.58,1.58,0,0,0-.32.68c8,3.3,19.11,1.9,24.82,10.47a31.82,31.82,0,0,1,3.26,8c16.94-2.05,35.81-9.92,49.74-1,12.2,7.51,20.09,18.74,24.63,31.82,28.11-8,23.61-35.6,20.22-59.62.05.32.09.37,0,0a145.43,145.43,0,0,1-1.85-19.2c0-8,4-16,6-25,4-16-1-35-16-42-1.06-.49-2.13-.94-3.2-1.35" style="fill:#d7fffe;stroke:#000;stroke-miterlimit:10;fill-rule:evenodd"/><line x1="311.18" y1="212.9" x2="342.84" y2="212.9" style="fill:none;stroke:#51565f;stroke-miterlimit:10"/><path d="M308,204v6h38.47v-6A19.24,19.24,0,1,0,308,204Z" style="fill:#e4f2de"/><path d="M327.19,199.39a4.62,4.62,0,0,0-4.65,4.64v6h9.29v-6a4.62,4.62,0,0,0-4.64-4.64" style="fill:#ae938d"/><polygon points="327.19 174.19 327.19 179.49 333.16 176.84 327.19 174.19" style="fill:#50dd8e"/><path d="M346.42,210.34H331.83a.32.32,0,0,1-.33-.34v-6a4.32,4.32,0,0,0-8.63,0v6a.33.33,0,1,1-.66,0v-6a5,5,0,0,1,10,0v5.64h4.64V205h-2v2.32a.33.33,0,0,1-.66,0V204a7,7,0,0,0-13.93,0v6a.32.32,0,0,1-.33.34H308a.32.32,0,0,1-.33-.34v-6a18.52,18.52,0,0,1,.6-4.7v-.07A19.5,19.5,0,0,1,310.4,194c0-.06.07-.06.07-.13a20,20,0,0,1,4.71-5.31c0-.06.07-.06.13-.06a19.55,19.55,0,0,1,11.88-4,19.93,19.93,0,0,1,11.87,4c.07,0,.07.06.13.06a18.84,18.84,0,0,1,4.71,5.31c0,.07.07.07.07.13a19.07,19.07,0,0,1,2.19,5.31v.07a18.62,18.62,0,0,1,.59,4.7v6A.32.32,0,0,1,346.42,210.34Zm-8.95-.67h8.62V205h-8.62Zm-19.9,0h2V205h-2Zm-9.29,0h8.62V205h-8.62Zm34.49-5.3h3.32V204a23.79,23.79,0,0,0-.46-4.31h-2.86v4.65Zm-8,0h7.3v-4.65h-8.62a7.55,7.55,0,0,1,1.32,4.32v.33Zm-22.55,0h7.3V204a7.54,7.54,0,0,1,1.32-4.31h-8.62Zm-4,0h3.32v-4.65h-2.85a18.34,18.34,0,0,0-.47,4.32v.33Zm29.19-5.31h8a19.51,19.51,0,0,0-2-4.64h-6Zm-4.51,0h3.84v-4.64h-9.28v2A7.77,7.77,0,0,1,333,199.06Zm-15.39,0h3.85a7.75,7.75,0,0,1,5.43-2.65v-2h-9.28Zm-8.62,0h7.95v-4.64h-6A18.73,18.73,0,0,0,309,199.06Zm23.21-5.31H343a18.94,18.94,0,0,0-4.25-4.64h-6.63v4.64Zm-9.29,0h8.63v-4.64h-8.63Zm-11.54,0h10.88v-4.64h-6.63A18.94,18.94,0,0,0,311.33,193.75Zm16.19-5.3h10.35a18.68,18.68,0,0,0-10.35-3.32Zm-11,0h10.34v-3.32A18.47,18.47,0,0,0,316.51,188.45Zm10.68-6a.32.32,0,0,1-.34-.33v-8a.34.34,0,0,1,.14-.27.28.28,0,0,1,.33,0l6,2.65a.38.38,0,0,1,.2.34.38.38,0,0,1-.2.33L330,178.7a.36.36,0,0,1-.46-.2c-.07-.2,0-.33.2-.47l2.65-1.19-4.84-2.12v7.43A.31.31,0,0,1,327.19,182.48Z" style="fill:#51565f"/><text transform="translate(306.55 235.64)" style="font-size:25px;fill:#fff;stroke:#000;stroke-miterlimit:10;stroke-width:0.75px;font-family:Arial-BoldMT, Arial;font-weight:700">500</text></g><g id="Napana"><path d="M319.54,30.44A40.49,40.49,0,0,1,304.29,22l.18.17c-.46,2.42-3.12-1.29-3.45.86.19,2-.84.93-1.9,1.4.71-1.14-.28-1.77-.64-2.83,1-2.66-3.16-.22-1.51-2.73.31-4-4.64-1.67-5.56-4,.85-2.92-3.53.21-1.32.65,4.27,1.38-1.94,3.79-1.13,6.19,2.24,1.12-.25,3.93-1.59,1.66-.53-1.87-1.84-.53-3-1.09.1-2.9-3.11-1.19-3.43.59a5.89,5.89,0,0,0,6.33,4.51c2-2,2.41.71,2.3,2.34-.55.85,0,1.54-.93,2.25.76,1.13-.66.86-.51,1.35.88-1,1.1.73.33,1.31,1.76,2.91-2.53,4.4-4.27,5.8-1.68,1.23-1.48,4.21-2.67,4.39-1.17,1.27-3-1.4-4.83-.68-.74,1.24,3.41,2.13,2.79,4.28,1.23,1.38-.12,1.33-1.32,2-.72-.34-3.85-1.51-4.16.33-3.46.19-1.27,3.81-3,5.49-1.34,1.45-.35,6.35,2.39,4.54,3.34.15-2.35,3.38-.71,2.77,2.4,1.12,4.32-.42,5.81-2.31.92-2.62.68.33,2.22-.61.3,2.42-1.61,4.64-2.29,7,1.31,1.15.26,1.6-.42,2.78a7.08,7.08,0,0,0-3.28-.57,7.17,7.17,0,0,0-3.18,1c-2.6-.18-.36,2-.93,3.19,1,1.06-1.75,2.64.53,3.63a18.11,18.11,0,0,1-1.5,4.82c1.22.58-.6,2.08.37,2.32-1.32,1.43,1,2,1.84,2.81,2.46,1.66-2.67.66-1.36,1.85-1.64,2-3.68,1.48-5.79,1.82-.33,1.77.07,2.94-1.67,4.24-1.4-.27-1,.29-2.23.75-.44.56-.69-.42-1.55.19,0-.58-1.35,1.48-2.49,1.72-2.09,1.85-4.78,3.34-6.08,5.55-2.4,1-2.75,4.09-3.67,6.37-1.33.74-1.9,2.4-2.71,3-1.12,2.12-3.42,4-2.77,6.29-.53,1.53-1.82,3.65-.93,4.92-.18,2.2-3.29,4.62-1.44,7.3-1.39.4-3.11,1.31-2.58,3.47-.9.39-1,2-1.13,4-.43,1.68-.29,5.59,2.42,5.58-2.27.6-2.33,3.2-.53,5.25,0,1.59-.07,3.93,1.3,5.78,1,2.47,3.11,5.23,6.31,4.33,2.47-2,4.69,1.19,6.72.22,3-.41,4.65-4.91,6.25-5.87-.37-2.7,3,0,1,1.07.19,2.39,1.24-.25,2.22.37,1-1.57.08,1.93.38,3.29-1.22,1.35.84,2,1.73,1,1.84.16,5.23-1.38,7.78-1.63,2.39-.58,5.08-1.24,6.45-3.44.31,1.31,3.16.13,5,0,.49.55.23,1.14-.31,1.69,26.23-6.89,54.89-18.91,81.15-8.67-.65-4.22-2.64-8.44-1.8-12.65,5-21.52,17.25-44.07,14.53-64.32h0a38.37,38.37,0,0,0-11.53-22.68C352.54,36.44,335.54,34.44,319.54,30.44Z" style="fill:#d7fffe;stroke:#000;stroke-miterlimit:10;fill-rule:evenodd"/><line x1="307.5" y1="91.88" x2="339.16" y2="91.88" style="fill:none;stroke:#51565f;stroke-miterlimit:10"/><path d="M304.27,83v6h38.47V83a19.24,19.24,0,0,0-38.47,0Z" style="fill:#e4f2de"/><path d="M323.5,78.37A4.62,4.62,0,0,0,318.86,83v6h9.29V83a4.62,4.62,0,0,0-4.65-4.64" style="fill:#ae938d"/><polygon points="323.5 53.16 323.5 58.47 329.47 55.82 323.5 53.16" style="fill:#50dd8e"/><path d="M342.74,89.32H328.15a.33.33,0,0,1-.34-.34V83a4.31,4.31,0,1,0-8.62,0v6a.33.33,0,1,1-.66,0V83a5,5,0,0,1,10,0v5.64h4.64V84h-2v2.32a.33.33,0,0,1-.66,0V83a7,7,0,0,0-13.93,0v6a.32.32,0,0,1-.33.34H304.27a.32.32,0,0,1-.33-.34V83a18.65,18.65,0,0,1,.59-4.71v-.06a19.85,19.85,0,0,1,2.19-5.31c0-.06.07-.06.07-.13a20,20,0,0,1,4.71-5.31c0-.06.06-.06.13-.06a19.54,19.54,0,0,1,11.87-4,19.94,19.94,0,0,1,11.88,4c.06,0,.06.06.13.06a19,19,0,0,1,4.71,5.31c0,.07.06.07.06.13a18.38,18.38,0,0,1,2.19,5.31v.06a18.32,18.32,0,0,1,.6,4.71v6A.32.32,0,0,1,342.74,89.32Zm-9-.67h8.63V84h-8.63Zm-19.89,0h2V84h-2Zm-9.29,0h8.62V84H304.6Zm34.49-5.3h3.32V83a22.84,22.84,0,0,0-.47-4.31h-2.85v4.65Zm-8,0h7.3V78.7H329.8A7.48,7.48,0,0,1,331.13,83v.34Zm-22.55,0h7.3V83a7.54,7.54,0,0,1,1.32-4.31h-8.62Zm-4,0h3.32V78.7h-2.86A18.78,18.78,0,0,0,304.6,83v.34ZM333.78,78h8a18.73,18.73,0,0,0-2-4.64h-6Zm-4.51,0h3.85V73.4h-9.29v2A7.75,7.75,0,0,1,329.27,78Zm-15.38,0h3.84a7.77,7.77,0,0,1,5.44-2.65v-2h-9.28Zm-8.63,0h8V73.4h-6A19.51,19.51,0,0,0,305.26,78Zm23.22-5.31h10.88a18.94,18.94,0,0,0-4.25-4.64h-6.63v4.64Zm-9.29,0h8.62V68.09h-8.62Zm-11.54,0h10.88V68.09H311.9A18.94,18.94,0,0,0,307.65,72.73Zm16.18-5.3h10.35a18.63,18.63,0,0,0-10.35-3.32Zm-11,0h10.35V64.11A18.48,18.48,0,0,0,312.82,67.43Zm10.68-6a.32.32,0,0,1-.33-.34V53.17a.37.37,0,0,1,.13-.27.3.3,0,0,1,.34,0l6,2.65a.37.37,0,0,1,.19.33.37.37,0,0,1-.19.34l-3.32,1.46c-.2.06-.33,0-.47-.2s0-.33.2-.47l2.66-1.19-4.85-2.12v7.42A.32.32,0,0,1,323.5,61.46Z" style="fill:#51565f"/><text transform="translate(302.87 114.62)" style="font-size:25px;fill:#fff;stroke:#000;stroke-miterlimit:10;stroke-width:0.75px;font-family:Arial-BoldMT, Arial;font-weight:700">500</text></g><g id="Tustra"><path d="M465.91,40.24A4,4,0,0,1,464.47,39a4.41,4.41,0,0,0-2.25-1.34,11.25,11.25,0,0,1-2.82-5.46c1.94-1,2.56-5.19-.37-5.58a40.56,40.56,0,0,0-3.71,3.93c-2.08,2.38-3.26-1.78-5.33-2,1.83-.46-.65-1.56-1.28-1.93.15-1.49,4.65,1.83,3.62-1.36-1.52-1.27-.54-6.33-3.3-4.58-.5,1.88-1.83,2.39-3.07,3.22-.73.66-1.12,1.95-1.66,3.52-1.78-.49-3.07.3-4.67-.48-1,.42-1.9-2-3.36-.94-2-.7-2.67-4.35-1.11-5.43,1-1.32,3.64-2.8,2.48-4.71,1.37.31.15-.68-.56-1.55-.95,1.3-4.16,0-4,1.93,1.12,3.07-2.27,2.24-3.55.6a37.24,37.24,0,0,0-5.92-2.44c1.44-.5,1.25-2.13,1.94-3.18.73-3.2-5.36-1.43-4.56,1.26-.81-1.19-2.79-1.14-3.49-2.27-1.24.32-2.32-.62-3-.66-1.29-.94-3.18,1.06-4.34-1-1.61-.31-1.8-2.7-1.71-3.09.53-1.82-1.61-1.31-2.24-1.67-3.08-1,0,2,1.26,1.83,1,2.19-1.34.69-1.26,1.47-1.77,1-3.69,1-4.59,3.46-.39,2.86-2.16,3.44-4.21,1.64-1.15.45-1.59-1.69-2.42-2-2-1.74-3.67-2.85-4.65-5.4.25-.65-.29-2.14-.77-3.27-1.11-2.34-4.39.6-2.18,2.07,1.36,2.46-1.41.28-1.63,1.34-.83,1.16-4.28,1.9-5.09-.33.95-1.32,1.89-5.35-1.08-3.63-2.69.93,1.61,5.76-.67,4.8-1.08,1-3.17-1-3.87.69-1.56-.42-2.71.21-4.24.07-1-.35-3,.28-4.6-.06-1.61,1.77-3,0-4,1.49a38,38,0,0,0-5.93,1.44c-1.78-.52-4,.41-5.35,1.28a48.82,48.82,0,0,0-7.19,3.7c-2.28,1.55-3.47,3.9-4.58,6.45s-.92-.67-2.87-.73c1.36-1.55.23-7.39-2-4.53.51,2.2-1.38,1.85-2.49,1.86-.38-.1-.49-.21-.52-.27a1.9,1.9,0,0,1-.47.78c-.65-.71-2.46-1.61-3.06-3-.32,0-2.86-.12-1.59,1.56-1.13-1.57-2.33-.59-1.46.73-1,.06-.64,2.6-1.62.84.34-1.07-1.73-3.28-1.75-1.86.13,1.26-1.94-.51-3,.34-2.32-.17-5.86.91-7.06.87-2.71.31,1-1.84-.52-3.07,1.51-1,1.58-2.51,2.1-3.79,1.28-3.06-4.43-4.29-4.49-1.33-.22,4.22-3.25-1.06-5.41.87-2.82.35-1.58,2.24-.7,3.67,3.8,1.43-.42,6,2,8.25a40.52,40.52,0,0,0,15.25,8.47c16,4,33,6,45,18A38.37,38.37,0,0,1,376,71.12c.27,2.18.18,13.83-1.43,21,11.1,2.27,20.82,10.06,32.29,10.82,10.79,2,17.73-5.69,25.54-9.76h0c6.81-1.93,14.25-4.05,17.11-10.74,4-10-1-22,3-31,2.52-5.66,8.6-8.16,15.25-10.73A4,4,0,0,1,465.91,40.24Z" style="fill:#d7fffe;stroke:#000;stroke-miterlimit:10;fill-rule:evenodd"/><line x1="392.67" y1="57.41" x2="424.33" y2="57.41" style="fill:none;stroke:#51565f;stroke-miterlimit:10"/><path d="M389.44,48.54v6h38.47v-6a19.24,19.24,0,0,0-38.47,0Z" style="fill:#e4f2de"/><path d="M408.68,43.9A4.61,4.61,0,0,0,404,48.54v6h9.28v-6a4.61,4.61,0,0,0-4.64-4.64" style="fill:#ae938d"/><polygon points="408.68 18.7 408.68 24 414.65 21.35 408.68 18.7" style="fill:#50dd8e"/><path d="M427.91,54.85H413.32a.32.32,0,0,1-.33-.34v-6a4.31,4.31,0,0,0-8.62,0v6a.34.34,0,1,1-.67,0v-6a5,5,0,0,1,9.95,0v5.64h4.65V49.54h-2v2.32a.34.34,0,0,1-.67,0V48.54a7,7,0,0,0-13.93,0v6a.32.32,0,0,1-.33.34H389.44a.32.32,0,0,1-.33-.34v-6a18.52,18.52,0,0,1,.6-4.7v-.07a19.22,19.22,0,0,1,2.19-5.31c0-.06.06-.06.06-.13A20.16,20.16,0,0,1,396.67,33c0-.06.07-.06.14-.06a19.5,19.5,0,0,1,11.87-4,19.91,19.91,0,0,1,11.87,4c.07,0,.07.06.13.06a18.84,18.84,0,0,1,4.71,5.31c0,.07.07.07.07.13a18.49,18.49,0,0,1,2.19,5.31v.07a18.18,18.18,0,0,1,.6,4.7v6A.33.33,0,0,1,427.91,54.85Zm-9-.67h8.62V49.54H419Zm-19.9,0h2V49.54h-2Zm-9.29,0h8.63V49.54h-8.63Zm34.5-5.3h3.31v-.34a23.79,23.79,0,0,0-.46-4.31h-2.85v4.65Zm-8,0h7.29V44.23H415a7.55,7.55,0,0,1,1.33,4.31v.34Zm-22.56,0h7.3v-.34a7.55,7.55,0,0,1,1.33-4.31h-8.63Zm-4,0h3.32V44.23h-2.85a18.85,18.85,0,0,0-.47,4.31v.34ZM419,43.57h8a19.11,19.11,0,0,0-2-4.64h-6Zm-4.51,0h3.85V38.93H409v2A7.77,7.77,0,0,1,414.45,43.57Zm-15.39,0h3.85a7.75,7.75,0,0,1,5.44-2.65v-2h-9.29Zm-8.62,0h8V38.93h-6A19.11,19.11,0,0,0,390.44,43.57Zm23.21-5.31h10.88a18.9,18.9,0,0,0-4.24-4.64h-6.64v4.64Zm-9.28,0H413V33.62h-8.62Zm-11.54,0H403.7V33.62h-6.63A18.71,18.71,0,0,0,392.83,38.26ZM409,33h10.35A18.65,18.65,0,0,0,409,29.64Zm-11,0h10.35V29.64A18.48,18.48,0,0,0,398,33Zm10.68-6a.31.31,0,0,1-.33-.33v-8a.34.34,0,0,1,.13-.27.28.28,0,0,1,.33,0l6,2.65a.38.38,0,0,1,.2.34.38.38,0,0,1-.2.33l-3.32,1.46A.37.37,0,0,1,411,23c-.07-.2,0-.33.2-.47l2.65-1.19L409,19.23v7.43A.31.31,0,0,1,408.68,27Z" style="fill:#51565f"/><text transform="translate(388.04 80.15)" style="font-size:25px;fill:#fff;stroke:#000;stroke-miterlimit:10;stroke-width:0.75px;font-family:Arial-BoldMT, Arial;font-weight:700">500</text></g><g id="Sopore"><path d="M517.68,125.18a57.25,57.25,0,0,0,17.86-9.75c17.87-15,34-32.75,45.8-53.1-1.13-1-3,1.19-3.69,0,2.67-1.73-1.38-2.83-3-3.8-2-.66-1.06,2.81-2,2.07-2,.49.41-1.34-1.52-1.42-1.25-2-1.86-1.29-3.53-1.71-1.23-1.15-2.38-2.61-3.54-2.53-.82-.22-3.53-.62-4.38,1.51-1.55-.92-3.66-2.5-5.67-2.61-2.54-.65-2.77-.76-5,.24-1.35-1.77-2.85-.78-4.61-2-.95-.64-3.74.83-3.74,2.4-.76.43-.83,2.63-1.94,1.91a3.06,3.06,0,0,1-.87,2.06,3.09,3.09,0,0,1-2,.94c.77,1.57-.35.14-.68,1a1,1,0,0,1-.07.25,1,1,0,0,0,.07-.25c.26-1.06-.49-.46-1.29-.16-.81-1.24-2.12-.79-2.79,1-.79.53-4.19-.59-3.35,2.37-.77,2.73-2.22-2.06-1.26-3.13-1.94-.29.86-1.36,0-2.69,1.47-.14,2.48-1.62-.19-2.55,1.66-.44-.17-1.67-1.36-1-.51-2-1.34,0-1.9.06-3,1.31.9-1.71-.56-2.75,1.43-.86-.22-2.13-1.22-2.68.5,1.46-.63.35-1,.83.08-1.71-2.08-1.68-3.29-2.32-2.2.58-1.83-2.73-.38-2.06.87-1.33.94-2.62,2.68-3.9-.23-1.46-.51-3.91-1.16-4.52-.24.89-3.2-.66-3.23-2.12-1.32-2.42.82,0,2-1.37.56-1.48,3.53.85,3.37-1.88-1.4-1-2.21-2.78-4.08-3.49a9.87,9.87,0,0,0-5.44.18,6.72,6.72,0,0,0-2,6.84c-.78,2.9-2.5,4.56-4.63,6.2,0,2.46-3.63,2.12-5.53,1.27-1.55-.16-3.83.12-5.38-1.5-1.71.31-3.57-1.7-4.4-1.13-.93-.74-2.07.14-2.78-.5-2.5.43-4.92,1.29-7.59,1.13-.5-.15-3-.24-4.18-1.14-.46,1.94-3.7-.75-2.53,1.71-.6,1.71-1.35-.49-1.8-.77a6.16,6.16,0,0,1-2.21.34c-6.65,2.57-12.73,5.06-15.25,10.72-4,9,1,21-3,31-2.87,6.71-10.33,8.83-17.11,10.75,17.8,18.53,40.83,32.89,63.69,34.55a57.83,57.83,0,0,0,10.77-.19C514.07,127,517.68,125.18,517.68,125.18Z" style="fill:#d7fffe;stroke:#000;stroke-miterlimit:10;fill-rule:evenodd"/><line x1="481.27" y1="91.61" x2="512.94" y2="91.61" style="fill:none;stroke:#51565f;stroke-miterlimit:10"/><path d="M478.05,82.74v6h38.47v-6a19.24,19.24,0,1,0-38.47,0Z" style="fill:#e4f2de"/><path d="M497.28,78.1a4.61,4.61,0,0,0-4.64,4.64v6h9.29v-6a4.61,4.61,0,0,0-4.65-4.64" style="fill:#ae938d"/><polygon points="497.28 52.89 497.28 58.2 503.25 55.55 497.28 52.89" style="fill:#50dd8e"/><path d="M516.52,89H501.93a.32.32,0,0,1-.34-.33v-6a4.31,4.31,0,0,0-8.62,0v6a.33.33,0,1,1-.66,0v-6a5,5,0,0,1,9.95,0v5.64h4.64V83.74h-2v2.32a.33.33,0,0,1-.66,0V82.74a7,7,0,0,0-13.93,0v6A.31.31,0,0,1,490,89H478.05a.32.32,0,0,1-.34-.33v-6a18.66,18.66,0,0,1,.6-4.71V78a19.92,19.92,0,0,1,2.19-5.3c0-.07.07-.07.07-.13a20,20,0,0,1,4.71-5.31c0-.07.06-.07.13-.07a19.54,19.54,0,0,1,11.87-4,20,20,0,0,1,11.88,4c.06,0,.06.07.13.07A19,19,0,0,1,514,72.53c0,.06.06.06.06.13a18.43,18.43,0,0,1,2.19,5.3V78a18.26,18.26,0,0,1,.6,4.71v6A.31.31,0,0,1,516.52,89Zm-9-.66h8.63V83.74h-8.63Zm-19.9,0h2V83.74h-2Zm-9.28,0H487V83.74h-8.62Zm34.49-5.31h3.32v-.33a22.75,22.75,0,0,0-.47-4.31h-2.85v4.64Zm-8,0h7.3V78.43h-8.63a7.48,7.48,0,0,1,1.33,4.31v.33Zm-22.55,0h7.29v-.33A7.55,7.55,0,0,1,491,78.43h-8.62Zm-4,0h3.31V78.43h-2.85a18.72,18.72,0,0,0-.46,4.31v.33Zm29.18-5.3h8a18.8,18.8,0,0,0-2-4.65h-6Zm-4.51,0h3.85V73.12h-9.29v2A7.76,7.76,0,0,1,503.05,77.77Zm-15.39,0h3.85A7.78,7.78,0,0,1,497,75.11v-2h-9.29Zm-8.62,0h8V73.12h-6A19.58,19.58,0,0,0,479,77.77Zm23.22-5.31h10.88a18.77,18.77,0,0,0-4.25-4.64h-6.63v4.64Zm-9.29,0h8.62V67.82H493Zm-11.54,0h10.88V67.82h-6.64A18.92,18.92,0,0,0,481.43,72.46Zm16.18-5.31H508a18.62,18.62,0,0,0-10.35-3.31Zm-11,0H497V63.84A18.47,18.47,0,0,0,486.6,67.15Zm10.68-6a.31.31,0,0,1-.33-.33v-8a.34.34,0,0,1,.13-.26.3.3,0,0,1,.34,0l6,2.65a.36.36,0,0,1,.2.33.35.35,0,0,1-.2.33l-3.31,1.46c-.2.07-.33,0-.47-.2a.36.36,0,0,1,.2-.46l2.66-1.2-4.85-2.12v7.43A.31.31,0,0,1,497.28,61.18Z" style="fill:#51565f"/><text transform="translate(476.64 114.35)" style="font-size:25px;fill:#fff;stroke:#000;stroke-miterlimit:10;stroke-width:0.75px;font-family:Arial-BoldMT, Arial;font-weight:700">500</text></g><g id="Caydo"><path d="M516.54,168.44c14.05,15.92,34.23,23.94,54.81,27.36-.6-.76-.89-1.6.53-2.15,2.41.57,4.71,2.16,7.12.3,2.2-.68,4.87-.69,7-1.76,1.33-1.27,2.84-.5,4.51-.87,1.86-1.69,3.13,1.16,5-.1-.28-.75,3.74-1.43,4.83.26,1.18-1.46,1.9,2.24,2.17.46,1.13-.67,3.76,1.82,5.87.08,1.89.6,4.06-.49,6.48-1,2.66-1.69-.16-3.47-2.23-3.11,1.92-1.37-.79-1.8-.63-3.39.9-.06-.44-1.74,1.37-1.42,1.12-1-1.05-1.28-.55-2.69.84,2,4.3-.93,4.66,1.4,1.67.22,2.77,1.32,4.53.08-.31.85-2.39,2.51-2.74,3.58-.8,2.64,5.3,3.11,4.47.16.35,2.48,3.47,1.25,2.63-.87-1.16-2.07,1.14-.07,1.59-1.48,2.34-1.16.61,2.1,2.39,2.43-1.54,2.56,4.06,2.15,2.85-.2.23-2.08,2.18-1,2.84.34,2.71.64.12-2,.58-2.83s2.42,1.43,2.92,1.06c.26-.6,2-1.73,2.31.21.46,2.48,3.31-.31,4.08-2,1.55-2.64,4.84-2,7-3.27.59-3-3.7-1.82-3.65-4.12-1.33-1.79-1.33-3-1.29-5-1.55-2,.3-4.19-1.57-5.88-1.52-1.91-1-4.94-2-6.72.39-2.54-1.94-4.7-1.49-6.65.35-3.19-.56-6.59-3.13-8.52-3.54,0-1.82-4-2.65-5.63.06-2-4.2-2.42-1.69-4.2a19.74,19.74,0,0,1-.19-4.41c-2-.92-1.75-5.21-4.23-3.32-.63-.41-.53-.71-1.42.52,0-1.74,1.23-2.24-.15-3.46,1.22.11,1.4-1.88,1-3.19,1-2.6,1,.25,1.3,1.4,1.39.73,1.28-.91,1.06-2.58-2.12-.27,0-2.5-2-2.5-3-.82,2.23-.19.48-1.4.62-1.92-.1-4.4-1.81-3.79-.77-1.26-1.68-3.93-4.26-3.92-1.08.37-3.85,1-3.69.58.78-1,3.91-1.86.78-2.5-.94-2.69,3.81,2,4.65,0-.15-.6,1.57-1.66,1.48.47.64,1.9,1.91,0,.84-.76.28-.36.47-.48.59-.51a2.16,2.16,0,0,1-.27-.69c1.83,1.27.66-.94.77-1.56-.68-1.4.64-.6.61-1.51,1.71-.79-.29,4.17,1.49,2.53-.53.64-1.1,2.42.47,3-.21,1.48,1.2,1.47,2.45.92,1-1.25,1-6.19-1.17-6,.21-1.39,1-1.78,1.07-3.08.63-2.28,1.77-4,1.16-6.36a20.82,20.82,0,0,0-4-7.85c-.67-2.92-4.43-3.4-6-5.82a9.72,9.72,0,0,0-2.8-2.77,10,10,0,0,0-3.68-1.44c-2.52,1.33-3.55-2.93-6.26-3-2-.24-6.89,1.74-5,4-.61.66,2.5,1.27,1,2.12-2.46-.56-3.24-1-4.08,1,.48.6,1.41,3.7.14,2.84-1,.28-.74.28-1.06-1-1.43,3,0-4.68-2.9-2.92-2.61.37-1.46-1.14.31-1,2.44-1.7-1.45-2.46-.79-4.29.58,0,1.45.12,1.83-1-.17-1-2.64-1.74-3.91-2.5-3.41-1.73-4.3,4.32-.64,4.07-.18.48,1.84,2.56.09,1.84,1.1,1.35-1.42-.06-1.42,1.18v.17c-.64-.37-.16-.2,0-.17l-.24-.12c-.75.12-3.37-3.3-4.7-.64a5.51,5.51,0,0,1-6.21,3.37c-.34-2.28,3.22-2,3.72-2.87.39-1.94-1.83-3.53-4.34-3.14-.87-1.91.34-.81,1.5-.39,2.07-1.17-2.9-2.27-1.5-2.46.69.68-.39-.51.71-.45.35,1.12,2.18-.19.79-.7-2,0-.67-1.72.45-.57.38-.23,2.57,1.21,2-.19-1.53-1.15.13-3.12-1.5-3.82-1.14-3.16-5.29.43-4,2,1.28,2.46-.86-.76-1.42,1-1.51,1.43-.4-.68-.72-1.46a2,2,0,0,0-.56-.91c-11.83,20.36-27.93,38.06-45.8,53.11A57.08,57.08,0,0,1,517.8,125C506.67,136.45,507.61,156.83,516.54,168.44Z" style="fill:#d7fffe;stroke:#000;stroke-miterlimit:10;fill-rule:evenodd"/><line x1="567.74" y1="140.44" x2="599.4" y2="140.44" style="fill:none;stroke:#51565f;stroke-miterlimit:10"/><path d="M564.51,131.57v6H603v-6a19.24,19.24,0,0,0-38.47,0Z" style="fill:#e4f2de"/><path d="M583.74,126.93a4.62,4.62,0,0,0-4.64,4.64v6h9.29v-6a4.62,4.62,0,0,0-4.65-4.64" style="fill:#ae938d"/><polygon points="583.74 101.72 583.74 107.03 589.71 104.38 583.74 101.72" style="fill:#50dd8e"/><path d="M603,137.87H588.39a.31.31,0,0,1-.33-.33v-6a4.32,4.32,0,0,0-8.63,0v6a.33.33,0,0,1-.66,0v-6a5,5,0,0,1,10,0v5.64h4.64v-4.64h-2v2.32a.33.33,0,0,1-.66,0v-3.32a7,7,0,0,0-13.93,0v6a.31.31,0,0,1-.33.33H564.51a.31.31,0,0,1-.33-.33v-6a19.12,19.12,0,0,1,.59-4.71v-.06a19.85,19.85,0,0,1,2.19-5.31c0-.07.07-.07.07-.13a20,20,0,0,1,4.71-5.31c0-.06.06-.06.13-.06a19.48,19.48,0,0,1,11.87-4,19.94,19.94,0,0,1,11.88,4c.06,0,.06.06.13.06a18.84,18.84,0,0,1,4.71,5.31c0,.06.07.06.07.13a18.64,18.64,0,0,1,2.18,5.31v.06a18.26,18.26,0,0,1,.6,4.71v6A.31.31,0,0,1,603,137.87Zm-9-.66h8.63v-4.64H594Zm-19.89,0h2v-4.64h-2Zm-9.29,0h8.62v-4.64h-8.62Zm34.49-5.31h3.32v-.33a22.75,22.75,0,0,0-.47-4.31h-2.85v4.64Zm-8,0h7.3v-4.64h-8.62a7.54,7.54,0,0,1,1.32,4.31v.33Zm-22.55,0h7.3v-.33a7.54,7.54,0,0,1,1.32-4.31h-8.62Zm-4,0h3.32v-4.64H565.3a18.72,18.72,0,0,0-.46,4.31v.33ZM594,126.6h8a18.57,18.57,0,0,0-2-4.64h-6Zm-4.51,0h3.85V122h-9.28v2A7.75,7.75,0,0,1,589.51,126.6Zm-15.38,0H578a7.77,7.77,0,0,1,5.44-2.65v-2h-9.28Zm-8.63,0h8V122h-6A19.34,19.34,0,0,0,565.5,126.6Zm23.22-5.31H599.6a18.94,18.94,0,0,0-4.25-4.64h-6.63v4.64Zm-9.29,0h8.63v-4.64h-8.63Zm-11.54,0h10.88v-4.64h-6.63A18.94,18.94,0,0,0,567.89,121.29Zm16.19-5.3h10.34a18.62,18.62,0,0,0-10.34-3.32Zm-11,0h10.35v-3.32A18.48,18.48,0,0,0,573.06,116Zm10.68-6a.32.32,0,0,1-.33-.34v-8a.36.36,0,0,1,.13-.26.3.3,0,0,1,.34,0l6,2.65a.38.38,0,0,1,.2.33.38.38,0,0,1-.2.34l-3.32,1.46a.36.36,0,0,1-.46-.2.37.37,0,0,1,.19-.47l2.66-1.19-4.84-2.12v7.42A.33.33,0,0,1,583.74,110Z" style="fill:#51565f"/><text transform="translate(563.11 163.18)" style="font-size:25px;fill:#fff;stroke:#000;stroke-miterlimit:10;stroke-width:0.75px;font-family:Arial-BoldMT, Arial;font-weight:700">500</text></g><g id="Rilanor"><path d="M432.43,93.19c-7.81,4.07-14.75,11.72-25.54,9.76-11.47-.76-21.19-8.55-32.29-10.82-3.2,14.24-9.72,29-13.06,43.31-.84,4.21,1.15,8.43,1.8,12.65,1.07.41,2.14.86,3.2,1.35,15,7,20,26,16,42-2,9-6,17-6,25a145.43,145.43,0,0,0,1.85,19.2c16.75-15.8,34.6-33.12,61.15-28.2a33.91,33.91,0,0,1,5.39,1.84c-5.95-7.88-7.29-18.71-.39-24.84,17.66-18.58,43.93-30.27,51.58-56.7C473.26,126.08,450.23,111.71,432.43,93.19Z" style="fill:#d7fffe;stroke:#000;stroke-miterlimit:10;fill-rule:evenodd"/><line x1="401.75" y1="149.74" x2="433.41" y2="149.74" style="fill:none;stroke:#51565f;stroke-miterlimit:10"/><path d="M398.53,140.87v6H437v-6a19.24,19.24,0,0,0-38.47,0Z" style="fill:#e4f2de"/><path d="M417.76,136.23a4.61,4.61,0,0,0-4.64,4.64v6h9.28v-6a4.61,4.61,0,0,0-4.64-4.64" style="fill:#ae938d"/><polygon points="417.76 111.02 417.76 116.33 423.73 113.68 417.76 111.02" style="fill:#50dd8e"/><path d="M437,147.17H422.4a.31.31,0,0,1-.33-.33v-6a4.31,4.31,0,0,0-8.62,0v6a.33.33,0,1,1-.66,0v-6a5,5,0,0,1,9.95,0v5.64h4.64v-4.64h-2v2.32a.33.33,0,1,1-.66,0v-3.32a7,7,0,0,0-13.93,0v6a.31.31,0,0,1-.33.33H398.53a.32.32,0,0,1-.34-.33v-6a18.66,18.66,0,0,1,.6-4.71v-.06a19.85,19.85,0,0,1,2.19-5.31c0-.07.07-.07.07-.13a20,20,0,0,1,4.71-5.31c0-.07.06-.07.13-.07a19.54,19.54,0,0,1,11.87-4,20,20,0,0,1,11.88,4c.06,0,.06.07.13.07a19.15,19.15,0,0,1,4.71,5.31c0,.06.06.06.06.13a18.38,18.38,0,0,1,2.19,5.31v.06a18.26,18.26,0,0,1,.6,4.71v6A.31.31,0,0,1,437,147.17Zm-9-.66h8.63v-4.64H428Zm-19.9,0h2v-4.64h-2Zm-9.28,0h8.62v-4.64h-8.62Zm34.49-5.31h3.32v-.33a22.75,22.75,0,0,0-.47-4.31h-2.85v4.64Zm-8,0h7.3v-4.64h-8.63a7.48,7.48,0,0,1,1.33,4.31v.33Zm-22.55,0h7.29v-.33a7.55,7.55,0,0,1,1.33-4.31h-8.62Zm-4,0h3.31v-4.64h-2.85a18.72,18.72,0,0,0-.46,4.31v.33ZM428,135.9h8a18.8,18.8,0,0,0-2-4.65h-6Zm-4.51,0h3.85v-4.65h-9.29v2A7.8,7.8,0,0,1,423.53,135.9Zm-15.39,0H412a7.82,7.82,0,0,1,5.44-2.66v-2h-9.29Zm-8.62,0h8v-4.65h-6A19.58,19.58,0,0,0,399.52,135.9Zm23.22-5.31h10.87a18.53,18.53,0,0,0-4.24-4.64h-6.63v4.64Zm-9.29,0h8.62V126h-8.62Zm-11.54,0h10.88V126h-6.64A18.92,18.92,0,0,0,401.91,130.59Zm16.18-5.31h10.35A18.62,18.62,0,0,0,418.09,122Zm-11,0h10.35V122A18.47,18.47,0,0,0,407.08,125.28Zm10.68-6a.31.31,0,0,1-.33-.33v-8a.34.34,0,0,1,.13-.26.28.28,0,0,1,.33,0l6,2.65a.36.36,0,0,1,.2.33.34.34,0,0,1-.2.33l-3.31,1.46c-.2.07-.33,0-.47-.19a.38.38,0,0,1,.2-.47l2.66-1.19-4.85-2.13V119A.31.31,0,0,1,417.76,119.31Z" style="fill:#51565f"/><text transform="translate(397.12 172.48)" style="font-size:25px;fill:#fff;stroke:#000;stroke-miterlimit:10;stroke-width:0.75px;font-family:Arial-BoldMT, Arial;font-weight:700">500</text></g><g id="Lisu"><path d="M572.15,196.69c-.28-.28-.54-.58-.8-.89-20.58-3.42-40.76-11.44-54.81-27.36-8.93-11.61-9.87-32,1.42-43.34a55.38,55.38,0,0,1-21.84,2.64c-7.65,26.43-33.92,38.12-51.58,56.7-6.9,6.13-5.56,17,.39,24.84,8.74,3.85,14.09,11.09,16.61,21.16a76.58,76.58,0,0,1,3.56,18.85c5.16-17.16,26.11-21,42.44-24.85,12-2,22,6,33,8,4.13.69,8.25,2.32,12.37,1.65a21.84,21.84,0,0,1,3.63-12.65c4.2-7.56,7.7-18.65,14.63-23.19C570.89,197.72,571,197.17,572.15,196.69Z" style="fill:#d7fffe;stroke:#000;stroke-miterlimit:10;fill-rule:evenodd"/><line x1="479.62" y1="195.34" x2="511.28" y2="195.34" style="fill:none;stroke:#51565f;stroke-miterlimit:10"/><path d="M476.39,186.47v6h38.47v-6a19.24,19.24,0,0,0-38.47,0Z" style="fill:#e4f2de"/><path d="M495.62,181.83a4.62,4.62,0,0,0-4.64,4.64v6h9.29v-6a4.62,4.62,0,0,0-4.65-4.64" style="fill:#ae938d"/><polygon points="495.62 156.63 495.62 161.93 501.59 159.28 495.62 156.63" style="fill:#50dd8e"/><path d="M514.86,192.78H500.27a.32.32,0,0,1-.33-.34v-6a4.32,4.32,0,0,0-8.63,0v6a.33.33,0,1,1-.66,0v-6a5,5,0,0,1,10,0v5.64h4.64v-4.64h-2v2.32a.33.33,0,0,1-.66,0v-3.32a7,7,0,0,0-13.93,0v6a.32.32,0,0,1-.33.34H476.39a.32.32,0,0,1-.33-.34v-6a19.12,19.12,0,0,1,.59-4.71v-.06a19.85,19.85,0,0,1,2.19-5.31c0-.06.07-.06.07-.13a20,20,0,0,1,4.71-5.31c0-.06.06-.06.13-.06a19.54,19.54,0,0,1,11.87-4,19.94,19.94,0,0,1,11.88,4c.06,0,.06.06.13.06a18.84,18.84,0,0,1,4.71,5.31c0,.07.07.07.07.13a18.64,18.64,0,0,1,2.18,5.31v.06a18.32,18.32,0,0,1,.6,4.71v6A.32.32,0,0,1,514.86,192.78Zm-8.95-.67h8.62v-4.64h-8.62Zm-19.9,0h2v-4.64h-2Zm-9.29,0h8.62v-4.64h-8.62Zm34.49-5.3h3.32v-.34a22.84,22.84,0,0,0-.47-4.31h-2.85v4.65Zm-8,0h7.3v-4.65h-8.62a7.54,7.54,0,0,1,1.32,4.31v.34Zm-22.55,0H488v-.34a7.54,7.54,0,0,1,1.32-4.31H480.7Zm-4,0H480v-4.65h-2.86a18.78,18.78,0,0,0-.46,4.31v.34Zm29.19-5.31h8a19.51,19.51,0,0,0-2-4.64h-6Zm-4.51,0h3.84v-4.64H496v2A7.79,7.79,0,0,1,501.4,181.5Zm-15.39,0h3.84a7.77,7.77,0,0,1,5.44-2.65v-2H486Zm-8.63,0h8v-4.64h-6A19.51,19.51,0,0,0,477.38,181.5Zm23.22-5.31h10.88a18.94,18.94,0,0,0-4.25-4.64H500.6v4.64Zm-9.29,0h8.63v-4.64h-8.63Zm-11.54,0h10.88v-4.64H484A18.94,18.94,0,0,0,479.77,176.19Zm16.19-5.3H506.3A18.62,18.62,0,0,0,496,167.57Zm-11,0h10.34v-3.32A18.44,18.44,0,0,0,485,170.89Zm10.67-6a.32.32,0,0,1-.33-.34v-8a.34.34,0,0,1,.14-.27c.06-.07.19-.07.33,0l6,2.65a.38.38,0,0,1,.2.33.38.38,0,0,1-.2.34l-3.32,1.46a.36.36,0,0,1-.46-.2.37.37,0,0,1,.19-.47l2.66-1.19L496,157.16v7.42A.33.33,0,0,1,495.62,164.92Z" style="fill:#51565f"/><text transform="translate(474.99 218.08)" style="font-size:25px;fill:#fff;stroke:#000;stroke-miterlimit:10;stroke-width:0.75px;font-family:Arial-BoldMT, Arial;font-weight:700">500</text></g><g id="Renyt"><path d="M444.89,209.28a33.91,33.91,0,0,0-5.39-1.84c-26.55-4.92-44.4,12.4-61.15,28.2,3.39,24,7.89,51.59-20.22,59.62,3.64,10.48,5.11,22.16,4.93,34.07,26.78-5.66,51.63,10.14,78.44,15.11,13,3,26,4,36-5,7-5,5-16,1-21a47.72,47.72,0,0,1-3-4.12v0c-17.5-26-4.47-55.39-14-83.88C459,220.37,453.63,213.13,444.89,209.28Z" style="fill:#d7fffe;stroke:#000;stroke-miterlimit:10;fill-rule:evenodd"/><line x1="408.85" y1="282.96" x2="440.51" y2="282.96" style="fill:none;stroke:#51565f;stroke-miterlimit:10"/><path d="M405.62,274.1v6h38.47v-6a19.24,19.24,0,1,0-38.47,0Z" style="fill:#e4f2de"/><path d="M424.85,269.45a4.62,4.62,0,0,0-4.64,4.65v6h9.29v-6a4.62,4.62,0,0,0-4.65-4.65" style="fill:#ae938d"/><polygon points="424.86 244.25 424.86 249.55 430.82 246.9 424.86 244.25" style="fill:#50dd8e"/><path d="M444.09,280.4H429.5a.31.31,0,0,1-.33-.33v-6a4.32,4.32,0,1,0-8.63,0v6a.33.33,0,0,1-.66,0v-6a5,5,0,1,1,9.95,0v5.63h4.64v-4.64h-2v2.32a.33.33,0,0,1-.66,0V274.1a7,7,0,1,0-13.93,0v6a.31.31,0,0,1-.33.33H405.62a.31.31,0,0,1-.33-.33v-6a19,19,0,0,1,.59-4.71v-.07a19.85,19.85,0,0,1,2.19-5.31c0-.06.07-.06.07-.13a20,20,0,0,1,4.71-5.31c0-.06.07-.06.13-.06a19.54,19.54,0,0,1,11.87-4,19.94,19.94,0,0,1,11.88,4c.06,0,.06.06.13.06a18.84,18.84,0,0,1,4.71,5.31c0,.07.07.07.07.13a19.07,19.07,0,0,1,2.19,5.31v.07a18.65,18.65,0,0,1,.59,4.71v6A.31.31,0,0,1,444.09,280.4Zm-8.95-.67h8.62v-4.64h-8.62Zm-19.9,0h2v-4.64h-2Zm-9.29,0h8.62v-4.64H406Zm34.49-5.3h3.32v-.33a23,23,0,0,0-.47-4.32h-2.85v4.65Zm-8,0h7.3v-4.65h-8.62a7.55,7.55,0,0,1,1.32,4.32v.33Zm-22.55,0h7.3v-.33a7.55,7.55,0,0,1,1.32-4.32h-8.62Zm-4,0h3.32v-4.65h-2.86a18.87,18.87,0,0,0-.46,4.32v.33Zm29.19-5.31h8a19.51,19.51,0,0,0-2-4.64h-6Zm-4.51,0h3.84v-4.64h-9.28v2A7.81,7.81,0,0,1,430.63,269.12Zm-15.39,0h3.84a7.81,7.81,0,0,1,5.44-2.65v-2h-9.28Zm-8.63,0h8v-4.64h-6A19.51,19.51,0,0,0,406.61,269.12Zm23.22-5.31h10.88a18.94,18.94,0,0,0-4.25-4.64h-6.63v4.64Zm-9.29,0h8.63v-4.64h-8.63Zm-11.54,0h10.88v-4.64h-6.63A18.94,18.94,0,0,0,409,263.81Zm16.19-5.3h10.34a18.62,18.62,0,0,0-10.34-3.32Zm-11,0h10.34v-3.32A18.44,18.44,0,0,0,414.18,258.51Zm10.67-6a.31.31,0,0,1-.33-.33v-8a.34.34,0,0,1,.14-.27.32.32,0,0,1,.33,0l6,2.66a.35.35,0,0,1,.2.33.38.38,0,0,1-.2.33l-3.32,1.46a.36.36,0,0,1-.46-.2c-.07-.2,0-.33.2-.47L430,246.9l-4.84-2.12v7.43A.32.32,0,0,1,424.85,252.54Z" style="fill:#51565f"/><text transform="translate(404.22 305.7)" style="font-size:25px;fill:#fff;stroke:#000;stroke-miterlimit:10;stroke-width:0.75px;font-family:Arial-BoldMT, Arial;font-weight:700">500</text></g><g id="Laly"><path d="M611.54,299.44c24-21,8-52,17-76a12.55,12.55,0,0,1,3.14-5.76,1.12,1.12,0,0,1-.6-.61c1.91-.9-.74-.82-.28-1.56,3-.22-1.44-.5-.5-1.41-.63-1.51.74-.15,1.64-1.3,2.16-2.12-1.39-2.09-1.86-2.83,1.29-1.4.24-2-1.54-2.09-2.19,1-.4-.21-2.14-.75-2.23-2.47-3.71.38-5.84,1.34-.93-.69-1.58-1.37-2.82-1.36-2,1.53-.65-1.76-2.14-1,1.11-.68-.39-1.1-.9-1.66-1.09,1-1.93.71-3.24.72-.22-.8-3.08-1.08-4.24-.2.67,2.2-1.25-.58-2.51.18-2.39-.9-1.6,2.13-3.47,2.31,0-2.06-.79-2.47-1.67-.67-.42-1-2.91-1.4-2.67-3.29,0,2.27-2.43,2.74-3.62.8.51-1.85-2.68-2.09-2.33-1.27-.65,1.58-1.45,0-2.33-.56-2.8,2.6-.83-2.84-3.66-2.44.41-1.26-1.87-2.51-3.51-2.63-2.25.12-3.39,2.63-6.27,2.86-1.25-.22-3.42-1.08-4-2-6.93,4.54-10.43,15.63-14.63,23.19a21.84,21.84,0,0,0-3.66,12.64c.07,11.6,7.09,24,5.63,36.35-.9,10.87-9.19,17.65-13,27l.61.28c.12-.1.23-.2.36-.29-.13.09-.24.19-.36.29,11.75,5.38,22.57-3.34,34.36-6.29,15-3,29,6,30,21v-2C610.54,306.44,609.54,301.44,611.54,299.44Z" style="fill:#d7fffe;stroke:#000;stroke-miterlimit:10;fill-rule:evenodd"/><line x1="571.84" y1="254.48" x2="603.5" y2="254.48" style="fill:none;stroke:#51565f;stroke-miterlimit:10"/><path d="M568.62,245.61v6h38.47v-6a19.24,19.24,0,1,0-38.47,0Z" style="fill:#e4f2de"/><path d="M587.85,241a4.61,4.61,0,0,0-4.64,4.64v6h9.28v-6a4.61,4.61,0,0,0-4.64-4.64" style="fill:#ae938d"/><polygon points="587.85 215.76 587.85 221.07 593.82 218.41 587.85 215.76" style="fill:#50dd8e"/><path d="M607.09,251.91h-14.6a.31.31,0,0,1-.33-.33v-6a4.31,4.31,0,1,0-8.62,0v6a.33.33,0,0,1-.66,0v-6a5,5,0,0,1,10,0v5.64h4.64v-4.64h-2v2.32a.33.33,0,1,1-.66,0v-3.32a7,7,0,0,0-13.93,0v6a.31.31,0,0,1-.33.33H568.62a.32.32,0,0,1-.34-.33v-6a18.66,18.66,0,0,1,.6-4.71v-.07a19.92,19.92,0,0,1,2.19-5.3c0-.07.07-.07.07-.13a20,20,0,0,1,4.71-5.31c0-.07.06-.07.13-.07a19.54,19.54,0,0,1,11.87-4,20,20,0,0,1,11.88,4c.06,0,.06.07.13.07a19.15,19.15,0,0,1,4.71,5.31c0,.06.06.06.06.13a18.43,18.43,0,0,1,2.19,5.3v.07a18.26,18.26,0,0,1,.6,4.71v6A.31.31,0,0,1,607.09,251.91Zm-9-.66h8.63v-4.64h-8.63Zm-19.9,0h2v-4.64h-2Zm-9.28,0h8.62v-4.64H569Zm34.49-5.31h3.32v-.33a22.75,22.75,0,0,0-.47-4.31h-2.85v4.64Zm-8,0h7.3V241.3h-8.63a7.48,7.48,0,0,1,1.33,4.31v.33Zm-22.55,0h7.29v-.33a7.55,7.55,0,0,1,1.33-4.31h-8.62Zm-4,0h3.31V241.3h-2.85a18.72,18.72,0,0,0-.46,4.31v.33Zm29.18-5.3h8a18.8,18.8,0,0,0-2-4.65h-6Zm-4.51,0h3.85V236h-9.29v2A7.76,7.76,0,0,1,593.62,240.64Zm-15.39,0h3.85a7.78,7.78,0,0,1,5.44-2.66v-2h-9.29Zm-8.62,0h8V236h-6A19.58,19.58,0,0,0,569.61,240.64Zm23.22-5.31H603.7a18.53,18.53,0,0,0-4.24-4.64h-6.63v4.64Zm-9.29,0h8.62v-4.64h-8.62Zm-11.54,0h10.88v-4.64h-6.64A18.92,18.92,0,0,0,572,235.33ZM588.18,230h10.35a18.62,18.62,0,0,0-10.35-3.31Zm-11,0h10.35v-3.31A18.47,18.47,0,0,0,577.17,230Zm10.68-6a.31.31,0,0,1-.33-.33v-8a.34.34,0,0,1,.13-.26.28.28,0,0,1,.33,0l6,2.65a.36.36,0,0,1,.2.33.35.35,0,0,1-.2.33l-3.31,1.46c-.2.07-.33,0-.47-.2a.36.36,0,0,1,.2-.46l2.66-1.2-4.85-2.12v7.43A.31.31,0,0,1,587.85,224.05Z" style="fill:#51565f"/><text transform="translate(567.21 277.22)" style="font-size:25px;fill:#fff;stroke:#000;stroke-miterlimit:10;stroke-width:0.75px;font-family:Arial-BoldMT, Arial;font-weight:700">500</text></g><g id="Kide"><path d="M544.54,335.44c6.94-11.9-12.63-26.74,1.64-37.71l-.61-.28c3.78-9.36,12.07-16.14,13-27,1.46-12.38-5.56-24.75-5.63-36.35-4.12.67-8.24-1-12.37-1.65-11-2-21-10-33-8-16.33,3.84-37.28,7.69-42.44,24.85,1.69,22.38-3.24,44.73,10.41,65,.93,1.38,1.92,2.76,3,4.12,4,5,6,16-1,21a28.43,28.43,0,0,1-2.5,2h.5c10-2.3,21.68-2.24,29.31,3.75C518.66,344.13,537,349.63,544.54,335.44Z" style="fill:#d7fffe;stroke:#000;stroke-miterlimit:10;fill-rule:evenodd"/><line x1="494.18" y1="294.85" x2="525.84" y2="294.85" style="fill:none;stroke:#51565f;stroke-miterlimit:10"/><path d="M491,286v6h38.47v-6A19.24,19.24,0,0,0,491,286Z" style="fill:#e4f2de"/><path d="M510.19,281.34a4.62,4.62,0,0,0-4.65,4.64v6h9.29v-6a4.62,4.62,0,0,0-4.64-4.64" style="fill:#ae938d"/><polygon points="510.19 256.13 510.19 261.44 516.15 258.79 510.19 256.13" style="fill:#50dd8e"/><path d="M529.42,292.28H514.83a.31.31,0,0,1-.33-.33v-6a4.32,4.32,0,0,0-8.63,0v6a.33.33,0,0,1-.66,0v-6a5,5,0,0,1,9.95,0v5.64h4.64V287h-2v2.32a.33.33,0,0,1-.66,0V286a7,7,0,0,0-13.93,0v6a.31.31,0,0,1-.33.33H491a.31.31,0,0,1-.33-.33v-6a19.12,19.12,0,0,1,.59-4.71v-.06a19.85,19.85,0,0,1,2.19-5.31c0-.07.07-.07.07-.13a20,20,0,0,1,4.71-5.31c0-.06.07-.06.13-.06a19.49,19.49,0,0,1,11.88-4,19.93,19.93,0,0,1,11.87,4c.06,0,.06.06.13.06a18.84,18.84,0,0,1,4.71,5.31c0,.06.07.06.07.13a19,19,0,0,1,2.19,5.31v.06a18.7,18.7,0,0,1,.59,4.71v6A.31.31,0,0,1,529.42,292.28Zm-8.95-.66h8.62V287h-8.62Zm-19.9,0h2V287h-2Zm-9.29,0h8.62V287h-8.62Zm34.49-5.31h3.32V286a23.6,23.6,0,0,0-.46-4.31h-2.86v4.64Zm-8,0h7.3v-4.64h-8.62a7.54,7.54,0,0,1,1.32,4.31v.33Zm-22.55,0h7.3V286a7.54,7.54,0,0,1,1.32-4.31h-8.62Zm-4,0h3.32v-4.64h-2.85a18.19,18.19,0,0,0-.47,4.31v.33Zm29.19-5.3h8a19.34,19.34,0,0,0-2-4.64h-6ZM516,281h3.84v-4.64h-9.28v2A7.82,7.82,0,0,1,516,281Zm-15.39,0h3.84a7.82,7.82,0,0,1,5.44-2.66v-2h-9.28Zm-8.63,0h8v-4.64h-6A19.34,19.34,0,0,0,491.94,281Zm23.22-5.31H526a18.94,18.94,0,0,0-4.25-4.64h-6.63v4.64Zm-9.29,0h8.63v-4.64h-8.63Zm-11.54,0h10.88v-4.64h-6.63A18.94,18.94,0,0,0,494.33,275.7Zm16.19-5.3h10.34a18.62,18.62,0,0,0-10.34-3.32Zm-11,0h10.34v-3.32A18.44,18.44,0,0,0,499.51,270.4Zm10.68-6a.33.33,0,0,1-.34-.34v-8a.34.34,0,0,1,.14-.26.28.28,0,0,1,.33,0l6,2.65a.38.38,0,0,1,.2.33.38.38,0,0,1-.2.34L513,260.64c-.2.07-.33,0-.46-.19s0-.34.2-.47l2.65-1.19-4.84-2.13v7.43A.32.32,0,0,1,510.19,264.43Z" style="fill:#51565f"/><text transform="translate(489.55 317.59)" style="font-size:25px;fill:#fff;stroke:#000;stroke-miterlimit:10;stroke-width:0.75px;font-family:Arial-BoldMT, Arial;font-weight:700">500</text></g><g id="Sona"><path d="M594.54,419.44c4-15-1-28-7-41-3.81-9.53,1.46-18.15,9.75-21.53,14.23-9,14.19-29.39,13.25-44.47s-15-24-30-21c-11.79,2.95-22.61,11.67-34.36,6.29-14.27,11,5.3,25.81-1.64,37.71-7.57,14.19-25.88,8.69-39.69,9.75a19.38,19.38,0,0,1,5.69,7.25c6,17-5,35,4,51,2.66,4.43,8.46,4.94,10.44,9.18,18.15,4.66,34.72,15.06,53.56,15.82C585.54,429.44,593.54,426.44,594.54,419.44Z" style="fill:#d7fffe;stroke:#000;stroke-miterlimit:10"/><line x1="542.62" y1="371.4" x2="574.29" y2="371.4" style="fill:none;stroke:#51565f;stroke-miterlimit:10"/><path d="M539.4,362.54v6h38.47v-6a19.24,19.24,0,1,0-38.47,0Z" style="fill:#e4f2de"/><path d="M558.63,357.89a4.62,4.62,0,0,0-4.64,4.65v6h9.29v-6a4.62,4.62,0,0,0-4.65-4.65" style="fill:#ae938d"/><polygon points="558.63 332.69 558.63 337.99 564.6 335.34 558.63 332.69" style="fill:#50dd8e"/><path d="M577.87,368.84H563.28a.32.32,0,0,1-.34-.33v-6a4.31,4.31,0,0,0-8.62,0v6a.33.33,0,0,1-.66,0v-6a5,5,0,1,1,10,0v5.63h4.64v-4.64h-2v2.32a.33.33,0,1,1-.66,0v-3.31a7,7,0,1,0-13.93,0v6a.31.31,0,0,1-.33.33H539.4a.32.32,0,0,1-.34-.33v-6a18.54,18.54,0,0,1,.6-4.71v-.07a19.85,19.85,0,0,1,2.19-5.31c0-.06.07-.06.07-.13a19.94,19.94,0,0,1,4.71-5.3c0-.07.06-.07.13-.07a19.54,19.54,0,0,1,11.87-4,19.94,19.94,0,0,1,11.88,4c.06,0,.06.07.13.07a19,19,0,0,1,4.71,5.3c0,.07.06.07.06.13a18.49,18.49,0,0,1,2.19,5.31v.07a18.2,18.2,0,0,1,.6,4.71v6A.31.31,0,0,1,577.87,368.84Zm-9-.67h8.63v-4.64h-8.63Zm-19.9,0h2v-4.64h-2Zm-9.28,0h8.62v-4.64h-8.62Zm34.49-5.3h3.32v-.33a22.75,22.75,0,0,0-.47-4.31h-2.85v4.64Zm-8,0h7.3v-4.64h-8.63a7.45,7.45,0,0,1,1.33,4.31v.33Zm-22.55,0H551v-.33a7.53,7.53,0,0,1,1.33-4.31h-8.62Zm-4,0H543v-4.64h-2.85a18.72,18.72,0,0,0-.46,4.31v.33Zm29.18-5.31h8a18.73,18.73,0,0,0-2-4.64h-6Zm-4.51,0h3.85v-4.64H559v2A7.79,7.79,0,0,1,564.4,357.56Zm-15.39,0h3.85a7.81,7.81,0,0,1,5.44-2.65v-2H549Zm-8.62,0h8v-4.64h-6A19.51,19.51,0,0,0,540.39,357.56Zm23.22-5.3h10.88a18.81,18.81,0,0,0-4.25-4.65h-6.63v4.65Zm-9.29,0h8.62v-4.65h-8.62Zm-11.54,0h10.88v-4.65H547A19,19,0,0,0,542.78,352.26ZM559,347h10.35A18.63,18.63,0,0,0,559,343.63Zm-11,0H558.3v-3.32A18.48,18.48,0,0,0,548,347Zm10.68-6a.31.31,0,0,1-.33-.33v-8a.39.39,0,0,1,.13-.27.34.34,0,0,1,.34,0l6,2.66a.34.34,0,0,1,.2.33.36.36,0,0,1-.2.33l-3.31,1.46c-.2.06-.33,0-.47-.2s0-.33.2-.47l2.66-1.19L559,333.22v7.43A.31.31,0,0,1,558.63,341Z" style="fill:#51565f"/><text transform="translate(537.99 394.14)" style="font-size:25px;fill:#fff;stroke:#000;stroke-miterlimit:10;stroke-width:0.75px;font-family:Arial-BoldMT, Arial;font-weight:700">500</text></g><g id="Caba"><path d="M692.43,364.2c-.41,3.33-2-1.24-3.69-2-1.56-.48-.4-4.38-1.93-2.5-.72-1.05.31-1.08.13-1.84.9.18.88-.35.06-1.33.7-1.52-1-2-1.17-3.22-2.27-1.43,1,.29.81-.83-1.22-.34-1.61-1.41-2.36-2.5,1.37-.65.64-1-1.09-1.93-2.84-.3,1.67-1.41,1.65,0,1.63-1,1.71.64,2.39,1.74,2.55,1.22-2.44-4.43.36-3.13,3.31,1.59.88-3.19.57-4.09-1.63-.74-1.9-1.09-1-2.24,3.15-.71,2.82-3.63,1.12-5.42.84-1-.09-2.3.83-2.85-1.16-.48-.4-2.58-1.62-3.46.62-.9,1.53-1.12,2.82-1.83,2.51-2.58-1-5.33-2.23-7.62-.22-.28,1.29-.85-.19-1.69,2,.3,2.92-.93,2.42-3.38,1.54-1.14-1.44-2-.25-3.41,0-2,1.91-1.62,2-3.41s-2.12-4.58-.76-5.35c-1.42-1.42-2-3.9-3.8-4.88,1.3-1.08.49-3-.22-4.47-.22-.82.4-2.64.56-3.85,1.26-2.25-2.6-4.32.41-5.08-.83-2.43-2-5.65-4-7.41-1.68-1.19.34-4.13-1.59-5.88-2-.72-2.36-3.72-.77-4.75-1.43-1.17,1.44.23.23-1.76-.18-2.76-3-3-3.76-5.6-1.4-.79-2.3-3.61-4-1.79-.06,2.69-2.86-.09-.76-1-.77-1.69.11-4.38-2.39-5.12,1.16-1.56-.37-2.62-1.09-4-1.37-2.14-3.15-4.3-3.84-6.82-2.29-2.44-2.82-4.7-5.24-7.2-1.44-2.05-4.55-2.3-6.35-1.38-.06-.45-1.52,1.13-1.52,1-.46-1.94-1.23-.51-1.34-2.4-1.84-1.58-2.06-.46-3.59-.26.14.23-2.17-.44-2.92-1-1.53-1.36-.45-1.25-1-2.38-.53-1.82-1.46-.44-1.92-1.89-1.13.86-1.26-1.77-3-1.39.91-.36.54-1.95-1.23-2.15-1.39-2.58-3.4,1.85-5.21.12-.34-1.36-2.72-.93-1.27-1.79,1.93-.6.8-.69,0-1.14a12.55,12.55,0,0,0-3.14,5.76c-9,24,7,55-17,76-2,2-1,7-1,11v2c1,15.2,1,35.8-13.58,44.68a19.1,19.1,0,0,1,5.58,1.32c27.56,8.55,64.13,24.3,90.87,7.84C693.71,365.35,693.65,364.58,692.43,364.2Z" style="fill:#d7fffe;stroke:#000;stroke-miterlimit:10;fill-rule:evenodd"/><line x1="635.46" y1="314.47" x2="667.12" y2="314.47" style="fill:none;stroke:#51565f;stroke-miterlimit:10"/><path d="M632.23,305.61v6H670.7v-6a19.24,19.24,0,1,0-38.47,0Z" style="fill:#e4f2de"/><path d="M651.47,301a4.61,4.61,0,0,0-4.65,4.64v6h9.29v-6a4.61,4.61,0,0,0-4.64-4.64" style="fill:#ae938d"/><polygon points="651.47 275.76 651.47 281.07 657.44 278.41 651.47 275.76" style="fill:#50dd8e"/><path d="M670.7,311.91H656.11a.31.31,0,0,1-.33-.33v-6a4.31,4.31,0,1,0-8.62,0v6a.34.34,0,0,1-.67,0v-6a5,5,0,1,1,10,0v5.64h4.65V306.6h-2v2.32a.33.33,0,0,1-.34.34.32.32,0,0,1-.33-.34v-3.31a7,7,0,1,0-13.93,0v6a.31.31,0,0,1-.33.33H632.23a.31.31,0,0,1-.33-.33v-6a18.6,18.6,0,0,1,.6-4.71v-.07a19.16,19.16,0,0,1,2.19-5.3c0-.07.06-.07.06-.14a20.1,20.1,0,0,1,4.71-5.3c0-.07.07-.07.13-.07a19.55,19.55,0,0,1,11.88-4,20,20,0,0,1,11.87,4c.07,0,.07.07.13.07a18.94,18.94,0,0,1,4.71,5.3c0,.07.07.07.07.14a18.89,18.89,0,0,1,2.19,5.3v.07a18.2,18.2,0,0,1,.6,4.71v6A.32.32,0,0,1,670.7,311.91Zm-9-.66h8.62V306.6h-8.62Zm-19.9,0h2V306.6h-2Zm-9.29,0h8.63V306.6h-8.63Zm34.5-5.31h3.31v-.33a23.6,23.6,0,0,0-.46-4.31h-2.85v4.64Zm-8,0h7.29V301.3h-8.62a7.55,7.55,0,0,1,1.33,4.31v.33Zm-22.56,0h7.3v-.33a7.48,7.48,0,0,1,1.33-4.31h-8.63Zm-4,0h3.32V301.3H633a18.73,18.73,0,0,0-.47,4.31v.33Zm29.19-5.31h8a19.69,19.69,0,0,0-2-4.64h-6Zm-4.51,0h3.85V296H651.8v2A7.81,7.81,0,0,1,657.24,300.63Zm-15.39,0h3.85a7.79,7.79,0,0,1,5.44-2.65v-2h-9.29Zm-8.62,0h8V296h-6A18.89,18.89,0,0,0,633.23,300.63Zm23.21-5.3h10.88a19.15,19.15,0,0,0-4.24-4.65h-6.64v4.65Zm-9.28,0h8.62v-4.65h-8.62Zm-11.55,0h10.88v-4.65h-6.63A19,19,0,0,0,635.61,295.33ZM651.8,290h10.35a18.65,18.65,0,0,0-10.35-3.32Zm-11,0h10.35V286.7A18.48,18.48,0,0,0,640.79,290Zm10.68-6a.31.31,0,0,1-.33-.33v-8a.35.35,0,0,1,.13-.27.32.32,0,0,1,.33,0l6,2.66a.36.36,0,0,1,.2.33.38.38,0,0,1-.2.33l-3.32,1.46c-.2.07-.33,0-.46-.2s0-.33.2-.46l2.65-1.2-4.84-2.12v7.43A.31.31,0,0,1,651.47,284.05Z" style="fill:#51565f"/><text transform="translate(630.83 337.21)" style="font-size:25px;fill:#fff;stroke:#000;stroke-miterlimit:10;stroke-width:0.75px;font-family:Arial-BoldMT, Arial;font-weight:700">500</text></g><g id="Wistan"><path d="M692.34,370.43c-.43-1.27.66-2.87,1.07-4.15-26.74,16.46-63.31.71-90.87-7.84a19.1,19.1,0,0,0-5.58-1.32l.33-.21c-8.29,3.38-13.56,12-9.75,21.53,6,13,11,26,7,41-1,7-9,10-16,9-18.84-.76-35.41-11.16-53.56-15.82a6.85,6.85,0,0,1,.56,1.82c.47,4.23.84,11.12-.67,16.63-1.7,6.21-5.8,10.46-5.8,11,9.33,14,7.8,27.83.57,40.05,10.4-5.26,23-7,30.9-1.67,1,.66,2.07,1.26,3.1,1.84,20.88,11.7,41,7.53,62.9,15.16a17.22,17.22,0,0,1,8.34,5.45c.16-.3.14-.78.71-.48,1.41,1.63,2.89-.31,2-1.8,1.65-2.21-.63-2.84-1.32-4.82.4,0,0-2.25.65-1.88-1.41-1.78.62-1,.62-2,.83.8.3-1.67,1.49.17,2.73-.72,1.27-1.6,2.39-3.61-1.35-1.11-.56-1.84.58-3.17.54-2.38,2.28-4.73,1.52-7.18,1.4-.94-1.5-1.74-.34-2.34-.81-2.16.62-2,.34-4,1.75-1.35.32-3.55,1-5.63.72-2.51,1.18-4.65,1.66-6.83,0,.91.1-2.39.84-.67,1.5-2.24,2.35.85,1.07,1.79-.87,2.58.67,4.82-.57,7.48-.36,2.9,2.38-.14,1.19-1.2,1-1.74-.39-4.28,1.3-5.31-.9-1.57.3-2.29,1.18-3.95.53-3,1.9,2.93,1.81-.64,1.86-.79-.41-3.19.61-3.45,1.85.58.44-1.14,1.57-1.4-.38-.6.86-3.9,1.81-1.63,3.6,1.92-2.24-4.27,1-4-.33-.45-.27-1.64-.45-2.58,1-.13.27-2.28,1.31-3.12-1.55-1.23-.51-2.84-1.08-4.8-.82-2,1.9,1.34.82-.09,1.3-.74-.64-2.5.16-2.52-.5-.49-.34-4.37,1.29-2.9,1,2,3.65,3.54,2,6.17.76,2.4-1.5,4.41-.11,7,.39,2.16,2.35,2.08,3.49,2.83,2.07-.09,2.37-2.43,3.63-2.14.75-1.44,2-2.91,1.94-4.69.32.79,1,2,2.07.85.76,1.5,2.43,2,3.58.37,1.92.23,4.07-1.63,5.2-2.17,1-1.41,1.66-.33,2.52-1.69-.38-3,.6-5.13.5-7.85.92-2.2.63-4.51.18-6.85.43-1.32-1.88-1.5-1.29-1.87-.68-2-1.73-1.45-3.33-.8-.64-1.64-2.23-.73-3-1.58-2.69.83,1.82-1.34.34-2.66-.41-2.29-1-2.51-1.28-4.13-1.32-1.15,2-2.9.35-4.73,1-1.49,3.28-.61,4.35-2.44,4.06.77.25-2.1-.12-3.92,2,.3,1.72,3,3.93,1.67.27-1.88,3.06-3,2.8-5.12,1.87-1.29,1-2.9,3.07-3.84a72.38,72.38,0,0,1,4.82-6.23c.63-2.5,3-3.52,4.09-5.79-.41-1,0-2.43.68-2.27a7.3,7.3,0,0,1,1.86-2.34C693.77,374.12,692.17,372.56,692.34,370.43Z" style="fill:#d7fffe;stroke:#000;stroke-miterlimit:10"/><line x1="591.73" y1="456.92" x2="623.39" y2="456.92" style="fill:none;stroke:#51565f;stroke-miterlimit:10"/><path d="M588.51,448.06v6H627v-6a19.24,19.24,0,1,0-38.47,0Z" style="fill:#e4f2de"/><path d="M607.74,443.42a4.61,4.61,0,0,0-4.64,4.64v6h9.28v-6a4.61,4.61,0,0,0-4.64-4.64" style="fill:#ae938d"/><polygon points="607.74 418.21 607.74 423.52 613.71 420.86 607.74 418.21" style="fill:#50dd8e"/><path d="M627,454.36h-14.6a.31.31,0,0,1-.33-.33v-6a4.31,4.31,0,1,0-8.62,0v6a.33.33,0,1,1-.66,0v-6a5,5,0,1,1,10,0v5.64h4.64v-4.65h-2v2.33a.33.33,0,1,1-.66,0v-3.32a7,7,0,1,0-13.93,0v6a.31.31,0,0,1-.33.33H588.51a.32.32,0,0,1-.34-.33v-6a18.66,18.66,0,0,1,.6-4.71v-.07A19.92,19.92,0,0,1,591,438c0-.07.07-.07.07-.14a20.1,20.1,0,0,1,4.71-5.3c0-.07.06-.07.13-.07a19.54,19.54,0,0,1,11.87-4,20,20,0,0,1,11.88,4c.06,0,.06.07.13.07a19.26,19.26,0,0,1,4.71,5.3c0,.07.06.07.06.14a18.43,18.43,0,0,1,2.19,5.3v.07a18.26,18.26,0,0,1,.6,4.71v6A.31.31,0,0,1,627,454.36Zm-9-.66h8.63v-4.65H618Zm-19.9,0h2v-4.65h-2Zm-9.28,0h8.62v-4.65h-8.62Zm34.49-5.31h3.32v-.33a22.75,22.75,0,0,0-.47-4.31h-2.85v4.64Zm-8,0h7.3v-4.64H614a7.48,7.48,0,0,1,1.33,4.31v.33Zm-22.55,0h7.29v-.33a7.55,7.55,0,0,1,1.33-4.31h-8.62Zm-4,0h3.31v-4.64H589.3a18.72,18.72,0,0,0-.46,4.31v.33ZM618,443.08h8a18.89,18.89,0,0,0-2-4.64h-6Zm-4.51,0h3.85v-4.64h-9.29v2A7.79,7.79,0,0,1,613.51,443.08Zm-15.39,0H602a7.81,7.81,0,0,1,5.44-2.65v-2h-9.29Zm-8.62,0h8v-4.64h-6A19.69,19.69,0,0,0,589.5,443.08Zm23.22-5.3h10.87a18.75,18.75,0,0,0-4.24-4.65h-6.63v4.65Zm-9.29,0h8.62v-4.65h-8.62Zm-11.54,0h10.88v-4.65h-6.64A19.15,19.15,0,0,0,591.89,437.78Zm16.18-5.31h10.35a18.62,18.62,0,0,0-10.35-3.31Zm-11,0h10.35v-3.31A18.47,18.47,0,0,0,597.06,432.47Zm10.68-6a.31.31,0,0,1-.33-.33v-8a.34.34,0,0,1,.13-.26.28.28,0,0,1,.33,0l6,2.65a.37.37,0,0,1,0,.66l-3.31,1.46c-.2.07-.33,0-.47-.2a.36.36,0,0,1,.2-.46l2.66-1.2-4.85-2.12v7.43A.31.31,0,0,1,607.74,426.5Z" style="fill:#51565f"/><text transform="translate(587.1 479.67)" style="font-size:25px;fill:#fff;stroke:#000;stroke-miterlimit:10;stroke-width:0.75px;font-family:Arial-BoldMT, Arial;font-weight:700">500</text></g><g id="Ronetia"><path d="M504.89,345.19c-7.63-6-19.35-6.05-29.31-3.75h-.5c-9.62,6.82-21.56,5.75-33.5,3-26.81-5-51.66-20.77-78.44-15.11a151.79,151.79,0,0,1-12.36,56.41,1.12,1.12,0,0,1,.7.08c-1.25,1.55.28,1.79,1.3,2.88,1.45-1.89,1.08.26,2.09,1.12,1.75.17,1.16.21.39,1.35,1.21,2.51,1.66-1.84,2.62.45.8,2.53.89-1.71,1.09.34,1,.39,2.48-.71,3.28,1,2.21,0,1.32,1.87-.13.46.8.95-2.69-.52-.63.65-1.42,0,0,5.16,1.31,3.14.05-2.57,1.33.41,1.47,1.22-.62,2.47,2.22.88,2.49,2.86,3.15-.41,1.45,3.83,4.17,3.72.07.32,1.49-1.58,2.64-1.84-1-.87-1.06-2.11.47-1.29,1.41.41,4.06-2.71,4.2.29a9.29,9.29,0,0,1-4.78,3.86c-.64,2.38,2.41,1.89,2.77,4.4,1.83-.67.1-.16,0,.58,1.22,2.06.27-.38,1.8,0-1.11,2.22,1.93,2.57,3.6,3.74-.65,1.26-.05,2.18,1.1.65-.44,1.29.53,2,1.27,1,.06-.1.12-.2.19-.3a1.89,1.89,0,0,1-.19.3c-.58,1,.69.64.8,1.06,1.26,1.46-.26.59-1.54,1.1,1.85,0,1.07,1.58,2.18,2.79-1.06.58-.56,1.19.28,1.36-1.91,1,2.9-.11,3.23,1.19.32.19-1.9.09-2.86.7-2.15.6,0,.68-.39,1.94.75,2.12,1.71-.83,2.88-.74,1.66,1.12.57,1.59-.7,2.05.46,1.64.2,1-.68,1.33,1.06,3,4-.54,5.42-1.6,2.37-1.28.59,1.55.7,2.51-.13,2-2.36,3.49-3.69,5.32,9-1,19,5,28,0,10-6,18-15,29-18,26-9,54,4,72,24,8-7,8-18,7-27-1-6-8-6-11-11-9-16,2-34-4-51a19.38,19.38,0,0,0-5.69-7.25" style="fill:#d7fffe;stroke:#000;stroke-miterlimit:10;fill-rule:evenodd"/><line x1="412.42" y1="387.49" x2="444.08" y2="387.49" style="fill:none;stroke:#51565f;stroke-miterlimit:10"/><path d="M409.19,378.62v6h38.47v-6a19.24,19.24,0,0,0-38.47,0Z" style="fill:#e4f2de"/><path d="M428.42,374a4.62,4.62,0,0,0-4.64,4.64v6h9.29v-6a4.62,4.62,0,0,0-4.65-4.64" style="fill:#ae938d"/><polygon points="428.42 348.78 428.42 354.08 434.39 351.43 428.42 348.78" style="fill:#50dd8e"/><path d="M447.66,384.93H433.07a.32.32,0,0,1-.33-.34v-6a4.32,4.32,0,0,0-8.63,0v6a.33.33,0,1,1-.66,0v-6a5,5,0,0,1,9.95,0v5.64H438v-4.64h-2v2.32a.33.33,0,0,1-.66,0v-3.32a7,7,0,0,0-13.93,0v6a.32.32,0,0,1-.33.34H409.19a.32.32,0,0,1-.33-.34v-6a19,19,0,0,1,.59-4.7v-.07a19.85,19.85,0,0,1,2.19-5.31c0-.06.07-.06.07-.13a20,20,0,0,1,4.71-5.31c0-.06.06-.06.13-.06a19.54,19.54,0,0,1,11.87-4,19.94,19.94,0,0,1,11.88,4c.06,0,.06.06.13.06a18.84,18.84,0,0,1,4.71,5.31c0,.07.07.07.07.13a18.76,18.76,0,0,1,2.18,5.31v.07a18.18,18.18,0,0,1,.6,4.7v6A.32.32,0,0,1,447.66,384.93Zm-9-.67h8.63v-4.64H438.7Zm-19.89,0h2v-4.64h-2Zm-9.29,0h8.62v-4.64h-8.62ZM444,379h3.32v-.34a22.93,22.93,0,0,0-.47-4.31H444V379Zm-8,0h7.3v-4.65h-8.62a7.54,7.54,0,0,1,1.32,4.31V379Zm-22.55,0h7.3v-.34a7.54,7.54,0,0,1,1.32-4.31H413.5Zm-4,0h3.32v-4.65H410a18.84,18.84,0,0,0-.46,4.31V379Zm29.18-5.31h8a18.73,18.73,0,0,0-2-4.64h-6Zm-4.51,0H438V369h-9.28v2A7.75,7.75,0,0,1,434.19,373.65Zm-15.38,0h3.84a7.77,7.77,0,0,1,5.44-2.65v-2h-9.28Zm-8.63,0h8V369h-6A19.51,19.51,0,0,0,410.18,373.65Zm23.22-5.31h10.88A18.94,18.94,0,0,0,440,363.7H433.4v4.64Zm-9.29,0h8.63V363.7h-8.63Zm-11.54,0h10.88V363.7h-6.63A18.94,18.94,0,0,0,412.57,368.34Zm16.19-5.3H439.1a18.62,18.62,0,0,0-10.34-3.32Zm-11,0h10.35v-3.32A18.48,18.48,0,0,0,417.74,363Zm10.68-6a.31.31,0,0,1-.33-.33v-8a.37.37,0,0,1,.13-.27.3.3,0,0,1,.34,0l6,2.65a.38.38,0,0,1,.2.34.38.38,0,0,1-.2.33l-3.32,1.46a.36.36,0,0,1-.46-.2c-.07-.2,0-.33.19-.47l2.66-1.19-4.84-2.12v7.43A.32.32,0,0,1,428.42,357.07Z" style="fill:#51565f"/><text transform="translate(407.79 410.23)" style="font-size:25px;fill:#fff;stroke:#000;stroke-miterlimit:10;stroke-width:0.75px;font-family:Arial-BoldMT, Arial;font-weight:700">500</text></g><g id="Prusnia"><path d="M519.54,442.44c0-1,0-1-1-1-18-20-46-33-72-24-11,3-19,12-29,18-9,5-19-1-28,0a5.72,5.72,0,0,0-.83,1.61c.05,2.69,1.39-.89,1.52-.28,1.1,1,1.71.71,2.46-.55,2.67.92-.57,2.38-.46,4-1.52,2.73,1.62-1.53,2.22.26,1.15,2.67-.39-.35-1.17,1.89,1,2-2,.49-.82,2,1.68-.9,0,1.7,1.58,1,.21.63,1.36,2.08.57,2.82.91,1.75-1.25.65-.92,1.87,1.67,1.37-.49,2.56-.59.49-2.15-.86-2.2.63-.43,1.62.62,1.62,2.15,2.77,2.6,4.7-1.11,3.27-1-.91-2.45-1.61-2.05,0-1.28-2.11-2.81-2.6-.51,1.6.31,4.24-1.72,3.37.56.89-1,.35-1.06,1.05-.37-.19-.07,1.85-1.41,2.34-1.91-.66-3,2.88-4.64.69-1.07-2.43-4.14-.21-2.39,1.7,1.72,1.21,5.06-.65,5.28,2.82,2.51.73.37,1.88,1.22,3.7,1.44.14.43-2.21.67-3.3.22-2.68,2.41-1.13,3.68-.77-.85,2-1.48,3.76-.52,5.57.92.55,2.67-2.2,2.39-.14-2,1.05-.72.94.24,2,.88-1.1,1.88-.62.92.75.85,1,1.15.31-.07,1.73,1.85,1.78,2.2,3.42,4.16,5.51-.43,1.63,1.71.35,1.83.61,1.15-1.18.76.73,1.08.46-.87.8.38.84-.08,2-1.23-.22-1.34,1.42-.27,2.41,3.3-.47.47,2.39,1.25,3.65,1.68.51.53,2.58,2,2.93,0-1.29,1.47-1.59,1.55-.18-1.09,1.13-.77.83-.2,1.77a.79.79,0,0,1,.14.23.79.79,0,0,0-.14-.23c-.41-.58-1-.43-.32,0a3.81,3.81,0,0,1,.4.23,3.81,3.81,0,0,0-.4-.23c-1.17-.52-1.21.88-.35,1.71,1.61.43-.72.95-.08,2.55,1.25.21,2.78,1.51,4,2.38-2.18,2.68,3.17,3.88,4.56,1.23,1-1,1.46-.6,1.45.1,23.3-8.59,50,.88,63.28,22.17,13.82-10.37,33.28-24.72,43.1-41.33-.94,1.63-1,1.54,0,0C526.89,469.89,528.89,456.43,519.54,442.44Z" style="fill:#d7fffe;stroke:#000;stroke-miterlimit:10;fill-rule:evenodd"/><line x1="441.73" y1="467.54" x2="473.39" y2="467.54" style="fill:none;stroke:#51565f;stroke-miterlimit:10"/><path d="M438.5,458.67v6H477v-6a19.24,19.24,0,0,0-38.48,0Z" style="fill:#e4f2de"/><path d="M457.74,454a4.61,4.61,0,0,0-4.64,4.64v6h9.28v-6a4.61,4.61,0,0,0-4.64-4.64" style="fill:#ae938d"/><polygon points="457.74 428.82 457.74 434.13 463.71 431.48 457.74 428.82" style="fill:#50dd8e"/><path d="M477,465h-14.6a.31.31,0,0,1-.33-.33v-6a4.31,4.31,0,1,0-8.62,0v6a.33.33,0,0,1-.66,0v-6a5,5,0,1,1,9.94,0v5.64h4.65v-4.64h-2V462a.31.31,0,0,1-.33.33.32.32,0,0,1-.34-.33v-3.32a7,7,0,1,0-13.92,0v6a.32.32,0,0,1-.34.33H438.5a.31.31,0,0,1-.33-.33v-6a18.66,18.66,0,0,1,.6-4.71v-.06a19.22,19.22,0,0,1,2.19-5.31c0-.07.06-.07.06-.13a20.34,20.34,0,0,1,4.71-5.31c0-.07.07-.07.14-.07a19.52,19.52,0,0,1,11.87-4,20,20,0,0,1,11.87,4c.07,0,.07.07.14.07a19.15,19.15,0,0,1,4.71,5.31c0,.06.06.06.06.13a18.38,18.38,0,0,1,2.19,5.31V454a18.26,18.26,0,0,1,.6,4.71v6A.31.31,0,0,1,477,465Zm-9-.66h8.62v-4.64H468Zm-19.9,0h2v-4.64h-2Zm-9.28,0h8.62v-4.64h-8.62ZM473.33,459h3.31v-.33a22.75,22.75,0,0,0-.46-4.31h-2.85V459Zm-8,0h7.29v-4.64H464a7.55,7.55,0,0,1,1.33,4.31V459Zm-22.55,0h7.29v-.33a7.55,7.55,0,0,1,1.33-4.31h-8.62Zm-4,0h3.31v-4.64H439.3a18.72,18.72,0,0,0-.46,4.31V459ZM468,453.7h8a19.19,19.19,0,0,0-2-4.65h-6Zm-4.51,0h3.85v-4.65h-9.29v2A7.82,7.82,0,0,1,463.51,453.7Zm-15.39,0H452a7.82,7.82,0,0,1,5.44-2.66v-2h-9.29Zm-8.62,0h8v-4.65h-6A19.19,19.19,0,0,0,439.5,453.7Zm23.22-5.31h10.87a18.53,18.53,0,0,0-4.24-4.64h-6.63v4.64Zm-9.29,0h8.62v-4.64h-8.62Zm-11.54,0h10.88v-4.64h-6.64A18.53,18.53,0,0,0,441.89,448.39Zm16.18-5.31h10.35a18.64,18.64,0,0,0-10.35-3.31Zm-11,0h10.35v-3.31A18.47,18.47,0,0,0,447.06,443.08Zm10.68-6a.31.31,0,0,1-.33-.33v-8a.32.32,0,0,1,.13-.26.28.28,0,0,1,.33,0l6,2.65a.36.36,0,0,1,.2.33.34.34,0,0,1-.2.33l-3.31,1.46c-.2.07-.34,0-.47-.2a.37.37,0,0,1,.2-.46l2.65-1.19-4.84-2.13v7.43A.31.31,0,0,1,457.74,437.11Z" style="fill:#51565f"/><text transform="translate(437.1 490.28)" style="font-size:25px;fill:#fff;stroke:#000;stroke-miterlimit:10;stroke-width:0.75px;font-family:Arial-BoldMT, Arial;font-weight:700">500</text></g><g id="Bavi"><path d="M476.54,523.44c-13.3-21.29-40-30.76-63.28-22.17,0,1-.87,2.49-2.16,1.88-.28,2.45-1.48,1.53-3.31,1.6-2.26,1.1.66,2.05-.53,3.44-.59,1.33,1.64,1,2,2.44-.72-.25-.43,1.86-.61,3.37.5,2.61-1.63-1.66-1,.93-1.26,1.78,1.84,2.31.5,3.13-1,2.27-1.27.18-2-.94-.62-2.92-2.11-.46-2.83,1-.51-1.48-1.53-.66-2.12-.75-.76,1.44-2.16,1.33-2.1-.22-1.51,2,2.15,2.91,2.35,5.07,2-.14,1.07,3.74,2.88,2.93,2.34,2.35-1.85.86-1.76.22-2.56-.85.61,2.14.09.73,1.47.55.26,1.65,1.63,2.07.53,1.68-.13,6.7,2.78,5.49,1.78,2.4-1.46.5-2.43,1.41,1,1.43-2.13.81-.34.5,1.11-1.85-1.49-3.46-1.62-5.36.75-1.92-1.37-3.5-2.52-1.79,1.86,1.1.19,1.24-.73,1.12-1.39.08-.72,3.58,1.72,3.2-1.12,1.08-2.63-.27-1.14,1.63-1.5-.74-2.71-1.69-2.54.74-.58-1.56-2.07-1.37-1.46,0,1.78,2-1.49-.55-1.22.42,1.31-.11,1,2.54-.49,1.33-2.2-.77.37,1.21-.5,1.21,1.13.47,3.14,1.75,3.59.07,1.41-2.47-.28,1.37,1.2,1.59-1.19,2.53,4.15,2,1.75,4.1,0-1.35-1.86-1.24-2.63-2.4-.84-2.37-2.52.77-3.19-.33-.93,1.25-3.3-.5-2.79,1.82,2.11,1.81-.8,1.38-1.4-.11-1.81.81-.62-1.33-1.47-2.21-2.62-.72.61,3.8-2,2.79-.36,1.64-.25,3.66-.77,5.45.64,2,2.41-.27,3.06,1.89,1.87-.8,3.34.74,4.79,2.08-1,1.07-2.67.17-3.8-.75-1.62,1.18-3.65-1.68-5.48-.71.23,1.33-.21,2.16.47,3-.08,3.37,2-2.67,1.92.09-1.23,1.29,1.72,1.69.47,2.12.07.68-1.12,1.21-.43,2.52-1,.06,0,1.83-.3,2.93-1.23,3.1-1.66-4.1-2.91-.53-.59,3.37,3,6,4.16,8.93.5-.76-1.57-3.32-.89-5.09,1.41-.77,1.54,1.3,2.73,1.61,2-1,2.44,2.31,4.76,2.21,1.45,2.64,2.71,1.27,4.83.46,1.61-1.73,1.17,1.26.22,1.09-1.46.11,1.71,3.34,2.78,1.1,3-1.17.17,1.72-1.41,1.49-.66,1.59,2,3.41,3.84,1.79,1.18-1,5.38-.33,2.44.78-1-1.08-1,1,.15,1.09,1.58-.57,1.14.41,2.38-.43.7-2.62,4.09-.57,4.2-.22,1.56-1.07,3.29-.67,5.46-.8,3.12-.06-.6-1.83.53-3-.36-2.49,1.39-.71,1.35.66,1.24-2.16,3.28-.24,5.31.61-.26,1.13,1.2.77,1.47,2.18,1.53,1.24,3.44-1.24,3.17-2.27-1.38-2.69-1.53-6.27-4.15-7.32-1.77-1.61-.24-2.91,1-1.38.23,1.74,1.43,1.24,2.32.64-.13,2.08,2.3-1.84,2.36,1.1-1.14,1.94,1.23,1.84,1.29,3.54.64-1.17-.07,1.92,1.52,1.9.24,1.32,1.6,2.17,2.95,3.23,1.06,2.09,4.1.38,5.44.85,2.29,1-.52,1.1-1.36,1.63-1.81,1.7,2.4,2.54,2.86,3.65,1.17,1.53,2.34-.07,4.07,1,.4-3.48,1.9,1.06,3.69.69.4-2.31,2.21,1.43,3.62.06,1.11,1.15,1.14-1.09,1.64-.45,2.47-.82-.69-3.14,0-3.52.74-1.35.68,1,1.86,1.41,1.07,2.39,2.15.2,3.81.25.51-2.4,1.93-.53,3.16-.65.88-.49,2.73,3.55,3.43.58-1.15-.42-2.66-2.39-.16-1.58,1.85,0,0,2.2,2.51,2.31,1.3-1.67,2.13,1.53,3.58,1.17.16-2,.6-2.64.82-.29,1.26.59,1.52.9-.2,1.11.22,2.39,3.53,1.9,5.47,2.68,2.2,1.25,1.68-2.76-.36-2.61.45-1.29.18-1.57-.78-2.47-1.45-.74.08-3,1.3-2.56-1-1.86,1.57-2.95,2.83-1.42.74-1,2.42,1.11,3.11-1.14,1.57.92,4.63-.86,2.5-3-2-2.62,2.38.51,1.79-1.31,1.63,0,2,2,2.52,3,.25,1.8,2.11,5,3.29,1.69a4.67,4.67,0,0,1,2.2-1.92,4.62,4.62,0,0,1,2.91-.22c-.67-.3-3.12-1.48-.5-1.43,2.47,1,1.4-2.07,2.92-1.07.11-2,1.8-.6,2.17-1.45-1.14-.44,1.85-2.89,1.54-.93.62-2.84,3.6.72,4.26-2.09.66.43,1.77-3.09,2.23-1.14-.24,2.54.52-.44,1.31.73,1.18-2.22.66,1.49.71,2.51,1.42,2.51.58-1.47,1.43-2.17a1.11,1.11,0,0,1,.27.12v-2C495.54,566.44,485.54,542.44,476.54,523.44Z" style="fill:#d7fffe;stroke:#000;stroke-miterlimit:10;fill-rule:evenodd"/><line x1="442.4" y1="548.85" x2="474.06" y2="548.85" style="fill:none;stroke:#51565f;stroke-miterlimit:10"/><path d="M439.17,540v6h38.47v-6a19.24,19.24,0,1,0-38.47,0Z" style="fill:#e4f2de"/><path d="M458.4,535.34a4.61,4.61,0,0,0-4.64,4.64v6h9.29v-6a4.61,4.61,0,0,0-4.65-4.64" style="fill:#ae938d"/><polygon points="458.4 510.13 458.4 515.44 464.37 512.78 458.4 510.13" style="fill:#50dd8e"/><path d="M477.64,546.28H463.05a.31.31,0,0,1-.33-.33v-6a4.32,4.32,0,0,0-8.63,0v6a.33.33,0,0,1-.66,0v-6a5,5,0,0,1,9.95,0v5.64H468V541h-2v2.32a.33.33,0,1,1-.66,0V540a7,7,0,0,0-13.93,0v6a.31.31,0,0,1-.33.33H439.17a.31.31,0,0,1-.33-.33v-6a19.12,19.12,0,0,1,.59-4.71v-.07a19.92,19.92,0,0,1,2.19-5.3c0-.07.07-.07.07-.13a20,20,0,0,1,4.71-5.31c0-.07.06-.07.13-.07a19.54,19.54,0,0,1,11.87-4,20,20,0,0,1,11.88,4c.06,0,.06.07.13.07a18.84,18.84,0,0,1,4.71,5.31c0,.06.07.06.07.13a18.69,18.69,0,0,1,2.18,5.3v.07A18.26,18.26,0,0,1,478,540v6A.31.31,0,0,1,477.64,546.28Zm-9-.66h8.63V541h-8.63Zm-19.89,0h2V541h-2Zm-9.29,0h8.62V541H439.5ZM474,540.31h3.32V540a22.75,22.75,0,0,0-.47-4.31H474v4.64Zm-8,0h7.3v-4.64h-8.62A7.54,7.54,0,0,1,466,540v.33Zm-22.55,0h7.3V540a7.54,7.54,0,0,1,1.32-4.31h-8.62Zm-4,0h3.32v-4.64H440a18.72,18.72,0,0,0-.46,4.31v.33Zm29.18-5.3h8a18.8,18.8,0,0,0-2-4.65h-6Zm-4.51,0H468v-4.65h-9.28v2A7.79,7.79,0,0,1,464.17,535Zm-15.38,0h3.84a7.82,7.82,0,0,1,5.44-2.66v-2h-9.28Zm-8.63,0h8v-4.65h-6A19.58,19.58,0,0,0,440.16,535Zm23.22-5.31h10.88a18.77,18.77,0,0,0-4.25-4.64h-6.63v4.64Zm-9.29,0h8.63v-4.64h-8.63Zm-11.54,0h10.88v-4.64H446.8A18.77,18.77,0,0,0,442.55,529.7Zm16.19-5.31h10.34a18.61,18.61,0,0,0-10.34-3.31Zm-11,0h10.35v-3.31A18.47,18.47,0,0,0,447.72,524.39Zm10.68-6a.31.31,0,0,1-.33-.33v-8a.34.34,0,0,1,.13-.26.3.3,0,0,1,.34,0l6,2.65a.38.38,0,0,1,.2.33.36.36,0,0,1-.2.33l-3.32,1.46c-.2.07-.33,0-.46-.2s0-.33.19-.46l2.66-1.19-4.84-2.13v7.43A.32.32,0,0,1,458.4,518.42Z" style="fill:#51565f"/><text transform="translate(437.77 571.59)" style="font-size:25px;fill:#fff;stroke:#000;stroke-miterlimit:10;stroke-width:0.75px;font-family:Arial-BoldMT, Arial;font-weight:700">500</text></g><g id="Rospa"><path d="M519.64,482.11c-9.82,16.61-29.28,31-43.1,41.33,9,19,19,43,44,42v2c1.07.5.52,1.65.17,2.72.07,2.59,1.55-.73,1.17.45.47-.34,1.08-2,1.9-1-.92,1.08,1.32,4.24,1.13,2.12-.81-1.83.06-.93,1.15-.75-.11,2.24,2.1,2.54,3.58,1-.86-1-1-3.61.55-1.46,1.13,1.93,2.73.92,2.07-1.42-1-2.5,2-2.59,1.55-4.92-1.31-.66.22-3.23.7-1.17-.13-1.46,1.36-2.16,1.37-.23,1-.17.93.13.87,1.41-.77,2.74,1.37,3.18,2.28,4.93.7,0-2.37.25-.94.46-.63.84-.07,1.31.1,2,1.67.49,1.43.58,0,1.77,1.18,2.23,4.14.9,3.39-1-.23,0-.45-.25-.63-.9a2.82,2.82,0,0,1,.63.9c.71,0,1.47-2.32,1.27-1.35-.65,2.69,4.11,3.67,4.56,1.06.36-2.17,1.72-5.57,4.73-4.35,1.9,1.85,5.19-.69,5.25-2.5a8.89,8.89,0,0,0,5.11-2.2c-1.22-1.37,2.05.14,1.86-2,.87-2.5.33,1.44,1.83.24,1,.94,1.54-2.45,2.11-.39,1.53-.87,2.56-1.31,3.46-2.81,1.51.7,1.15-.39,2.33-1.52-.09-2.05.17-.57,1-.22,1.94-.43,2.86.47,4.4-.85,1.75-.59,5.22-3.53,3-4.55-1.85-.84.38-1.3,1,.11.63-1.62,4.31,1.34,3.7-.73.58-.18.79-1,1.21-1.28-1.4-2.9,2.46,1.72,3.53-.12-1-1.37-2.05-4-.54-5,1.71.63-.24-3.67,1.12-3.58.45-1.71.5-.61,1,.55-.38,1.79.52,1.2,1.24,1.68,1.53-.79,2.84-.52,4.33-.65,2.72-1,2.2-3.79,3.65-5.83,2.58.21,1.76-4.74,4.42-5.47.46-2.23,5.14-2,3.57-4.94-.21-1,2.4-2.07,1.21-2.83.66-2.35-1.32-4-1.89-6.33-1.79.55-.56-2.47-2.61-2.4.11-1.31-3-4.66-.42-3.94s.64-1.48,1.19-2.59c1.76.29,1.53-2.05,3.12-1.1,1.49-1.22.35-1.43,1.56-2.53.24-1.41,1.31-.16,1.25-.69,1.18,1.59,1.57-.87.06-1.26-1.48-2,.93-.22,1.51.67.64-1.37,1.14,1.13,1.35.63,1.51,1.37.56-2.17,2-1.29,1.4.29-.22,2.19,1.83,1.64.91-2.51,0,1.39,1.41.95.06,1.27.76,2,1,.64,1.36,1.13-.22-1.59,1.54-.16,2.29.12-3.1-2.67-.92-2.19.64.37.86.24,1,0a17.22,17.22,0,0,0-8.34-5.45c-21.92-7.63-42-3.46-62.9-15.16,0,.05-.06.1-.1.16a.89.89,0,0,1,.1-.16c-1-.58-2.06-1.18-3.1-1.84C542.62,475.15,530,476.85,519.64,482.11Z" style="fill:#d7fffe;stroke:#000;stroke-miterlimit:10;fill-rule:evenodd"/><line x1="526.24" y1="527.78" x2="557.9" y2="527.78" style="fill:none;stroke:#51565f;stroke-miterlimit:10"/><path d="M523,518.92v6h38.47v-6a19.24,19.24,0,1,0-38.47,0Z" style="fill:#e4f2de"/><path d="M542.24,514.28a4.61,4.61,0,0,0-4.64,4.64v6h9.29v-6a4.61,4.61,0,0,0-4.65-4.64" style="fill:#ae938d"/><polygon points="542.24 489.07 542.24 494.38 548.21 491.72 542.24 489.07" style="fill:#50dd8e"/><path d="M561.48,525.22H546.89a.31.31,0,0,1-.33-.33v-6a4.32,4.32,0,0,0-8.63,0v6a.33.33,0,1,1-.66,0v-6a5,5,0,1,1,10,0v5.64h4.64v-4.65h-2v2.32a.33.33,0,1,1-.66,0v-3.31a7,7,0,1,0-13.93,0v6a.31.31,0,0,1-.33.33H523a.31.31,0,0,1-.33-.33v-6a19.06,19.06,0,0,1,.59-4.71v-.07a19.79,19.79,0,0,1,2.19-5.3c0-.07.07-.07.07-.14a20.1,20.1,0,0,1,4.71-5.3c0-.07.06-.07.13-.07a19.54,19.54,0,0,1,11.87-4,20,20,0,0,1,11.88,4c.06,0,.06.07.13.07a18.94,18.94,0,0,1,4.71,5.3c0,.07.07.07.07.14a18.89,18.89,0,0,1,2.19,5.3v.07a18.65,18.65,0,0,1,.59,4.71v6A.31.31,0,0,1,561.48,525.22Zm-9-.66h8.62v-4.65h-8.62Zm-19.9,0h2v-4.65h-2Zm-9.29,0H532v-4.65h-8.62Zm34.49-5.31h3.32v-.33a22.75,22.75,0,0,0-.47-4.31h-2.85v4.64Zm-8,0h7.3v-4.64h-8.62a7.54,7.54,0,0,1,1.32,4.31v.33Zm-22.55,0h7.3v-.33a7.54,7.54,0,0,1,1.32-4.31h-8.62Zm-4,0h3.32v-4.64H523.8a18.72,18.72,0,0,0-.46,4.31v.33Zm29.19-5.31h8a19.69,19.69,0,0,0-2-4.64h-6Zm-4.51,0h3.84V509.3h-9.28v2A7.81,7.81,0,0,1,548,513.94Zm-15.39,0h3.84a7.81,7.81,0,0,1,5.44-2.65v-2h-9.28Zm-8.63,0h8V509.3h-6A19.69,19.69,0,0,0,524,513.94Zm23.22-5.3H558.1a19,19,0,0,0-4.25-4.65h-6.63v4.65Zm-9.29,0h8.63V504h-8.63Zm-11.54,0h10.88V504h-6.63A19,19,0,0,0,526.39,508.64Zm16.19-5.31h10.34A18.62,18.62,0,0,0,542.58,500Zm-11,0h10.34V500A18.44,18.44,0,0,0,531.57,503.33Zm10.67-6a.31.31,0,0,1-.33-.33v-8a.36.36,0,0,1,.14-.27.32.32,0,0,1,.33,0l6,2.66a.36.36,0,0,1,.2.33.38.38,0,0,1-.2.33L545,493.58c-.2.07-.33,0-.46-.2s0-.33.2-.46l2.65-1.2-4.84-2.12V497A.32.32,0,0,1,542.24,497.36Z" style="fill:#51565f"/><text transform="translate(521.61 550.52)" style="font-size:25px;fill:#fff;stroke:#000;stroke-miterlimit:10;stroke-width:0.75px;font-family:Arial-BoldMT, Arial;font-weight:700">500</text></g></g></g></svg>