<?xml version="1.0" encoding="utf-8"?>
<!-- Generator: Adobe Illustrator 23.0.1, SVG Export Plug-In . SVG Version: 6.00 Build 0)  -->
<svg version="1.1" id="Layer_1" xmlns="http://www.w3.org/2000/svg" xmlns:xlink="http://www.w3.org/1999/xlink" x="0px" y="0px"
	 viewBox="0 0 694.3 587" style="enable-background:new 0 0 694.3 587;" xml:space="preserve">
<style type="text/css">
	.st0{fill-rule:evenodd;clip-rule:evenodd;fill:#D7FFFE;stroke:#000000;stroke-miterlimit:10;}
	.st1{fill:none;stroke:#51565F;stroke-miterlimit:10;}
	.st2{fill:#E4F2DE;}
	.st3{fill:#AE938D;}
	.st4{fill:#50DD8E;}
	.st5{fill:#51565F;}
	.st6{fill:#FFFFFF;}
	.st7{font-family:'Arial-BoldMT';}
	.st8{font-size:25px;}
	.st9{fill:none;stroke:#000000;stroke-width:0.75;stroke-miterlimit:10;}
	.st10{fill:#D7FFFE;stroke:#000000;stroke-miterlimit:10;}
</style>
<title>Layer 1</title>
<g>
	<g id="Layer_1-2">
		<g id="Vibri">
			<path class="st0" d="M283.5,264.4h0.3c-0.7-2.8-1.8-5.5-3.3-8c-5.7-8.6-16.9-7.2-24.8-10.5c-0.1,0.2-0.3,0.4-0.5,0.6
				c0.6,1.3-0.3,0.4-1.2,0.3c0.7,1.6-1-0.3-1,1c-0.4-1.3-3.2-4.1-4.8-4.3c-1.5,0,0.7,0.9,1,1.8c-2.3-0.1-4.6-1.3-6.8-1.5
				c-2.8-0.8-0.6-5.6-3.5-6.7c-0.6,2,0.1,3.9-1,5.1c0.6,1.2-0.4,1.8,0.4,3.3c-0.5,0.3-1,0.3-0.9,1.4c-1.5-0.7-1.5-0.5-1.6,0.7
				c-1,0-2-0.3-2.8-1c-0.7-2.6-3.4,1.1-2.8-1.8c0.9-0.6,2.9-4.1,0.8-4.8c-1.9,0.8-0.2,3-1.9,3.8c-2.6,0.7,0-1.8-1.4-2.5
				c1.2,0.1,1.3,0,0.7-1.6c0.2,0.2,1.3,1.2,0.7-0.8c0.6,1.3,2.8-1.4,1.5-2.2c-2.8-2.1-2.4,3.6-4.9,4c-0.8,2.7-5.1,2.4-7.2,4.3
				c-1.6,2.4-1.8-1.4-3.8,0.4c1.8,2.3-1.7,3-2.4,3.5c-0.5,0.1-3.7-2.3-4.2,0.3c0.5,0.7,0.9,1.6,1.1,2.5c-0.2,1.6-0.6,1.9,1.3,2.4
				c2.2,0.3,0.3,1.7-0.8,2.2c-3.1,0.6,1.1,2.6-0.6,3.5c0.1,2.3-2.2,0.8-1.5-0.4c-0.7-0.2-1.4,1.3-2.9,0.9c-1.6-2.7-4.2-0.1-6.3-0.2
				c-3.3-1.7-0.1,2.8-1.4,3.6c0.3,1.6-1.2,2.5-2.3,3.9c-2.5,1.2-0.3-1.7,0.1-2.7c1.1-1.6,0.4-5.4-1.9-6.1c-2.3-2.1-5.8-2.6-8.2-0.3
				c-0.8,2.2-1.7,4.5-1.7,6.3c-1.7,1.9,0,5.2,2.9,3.9c2.6-0.2,0.8,1.7-0.6,1.7c-1.6,1.1-3.2-0.6-4.4,0.4c-3.2,1.2-4.3,3.4-7.3,4.6
				c-2.5,0.8-4.2,1.7-6.2,0.4c1-0.8,1.1-1.6,2.6-1.4c1-0.9-2.9-0.4-3.6,0.5s-5.5,0.8-3.4,0c3.2-1.3,6.1-2.2,9-4
				c2.3-1.6,5.1-3.5,5-6.4c0.9-2-0.4-5.9-2.6-7c-3.5-1.6-5.6,2.4-7.4,4.6s-3.5,5.3-6,6.1c0.8-1.2-0.2-4-1.7-3
				c-0.3-0.1,2.8-2.2,3.1-3.5c0-1.7,1.9-3.1,2.5-5.1c-0.3-1.8,2.1-4.9,3.7-6.3c0.3-0.8,3.3-0.9,1.3-1.5c0.7-1.6,0.3-3.5-0.9-4.8
				c-1.5-0.7-3.2-4-5.5-4.3c-1,2.5-4.6,4.3-4,7.5c2.8,1.1-0.7,1.1-1.6,1.6c-2,1.2-4.4,0.8-6.2,2.4c0.7-1.5-1.8,0-3.1-0.3
				c-1.4,1.8-2.9-0.2-4.2,0.9c-1.6-0.3-0.2-0.5,0.7-0.5c-3.5-0.3,4.3-2.6,0.3-2.7c-1.4-1.4,1.2-0.8,0.3-2.1c0.6-0.6,3.4-1.3,1-1.6
				c-0.1-0.4,0-0.9,0.1-1.3c0.2-0.4,0.4-0.8,0.7-1.1c0.9-0.5,3.5-3.7,1.9-3.1c0.4-1.8,1.7-2.5,1.5-4.2c1.3-1.4,3.1-4.3,3-6.7
				c-0.8,0.4,0.7-2.7-0.5-1.8c-0.2-2.1-0.8,0.9-1.8-1c0.8-1.9-0.5,1-0.5-0.4c0.5-2.1-1,1.6-1,0c-0.9-2,0.1-4.1,0-6.4
				c0.7-2.1-1.9-0.8-1.3-2.6c1.5-1.9-0.3-3.6,0.8-5.6c-0.1-1.8-1.6-4-1.1-6c-0.5-2.8-0.6-5-1.7-7.5c-0.5-3.4-2.8-0.4-2.8,1.4
				c-0.5,2.1-2.2,0.7-2-1.3c1.3-0.4-0.6-2,0.7-2c1.7-2.2-3.4-2.1-2.6,0.3c-0.9,1.8-1.3,0.3-1.1-1c-2.1-1.3,1.7-1.1,0.4-2.8
				c-1.6,0.3-4.8-0.8-1.8-1.7c-1.2-1.4,2.2,0,2.6,0.2c3.4,2.1,1.3-4.6-1-3.9c0.2,0.2-2.3-0.2-3.1,0.2c-2.8-0.1,0.1-0.9,1-2.1
				c2.5-1.9,0.3-2.6-0.2-4.7c-3-3.1-0.1,2.8-2.6,2.9c0.2,1.6-1.5,1.4-0.9,0c-2-1.9,2,0.5,0.4-2.2c-0.7-2.2-1.9-0.7-2.5,0
				c-1.3,2.1-0.3,0.7-1.3-0.3c-1.6,1.9-1.5-2-0.1-1.1c3-0.1-0.6-3.6-1.6-3.7c0.9,2.4-1.1,1-1.4-0.7c-1-0.1-3.7,1.4-2.5,2.7
				c-0.5-0.6-3.5,0.8-2.4-0.7c2.7-2.4-3.3,1.1-1.7-0.8c2-0.3-0.1-1.4-0.6,0.3c-3,0.1-0.7-1.4,0.6-2c-1,0.4,1.3-1.6,2,0
				c2.3-0.4-1.4-2.5,1-1.4c3.7,0.8-3.1-2-0.7-2.1c2.4,2,2.8-2.7,0.1-2.2c-0.5-1.7-4.8-3.2-2.6-0.8c2,1.3-0.3,1.4-0.3,1.7
				c1.4,1.8-0.4,1-0.9-0.2c-0.6-1.9-5.2-3.6-3.8-0.1c1.7,1.5-0.7,0.4-1.5,0.9c0.7-0.7-0.6-0.9-1.3-1.2c-0.8,1.7-0.8-0.7-2.2-0.1
				c0.9-1,2-0.8,2.2-2.2c0.7-2.6-1.3,0.1-2.2-0.6c2.2-1.4-2.1-2.6-1.8-0.2c-0.7-1.2-0.1-2.9-1.8-3.4c0.6,1.5-1.2,2.9,1,3.3
				c-1.8,0.1-3,1.9-2.6,4c-0.7,2.4-1-2.1-1.8-0.6c-3,1.3,0.5-2.3-0.6-3.6c0.8-0.2,2-2.7,1-2.2c-2-0.2-1.1-0.8-0.1-1.4
				c-0.9-1.6-2.4-0.1-3.5-0.8c-0.5,1.2,1.6,3.1-0.1,4.4c-2.2,2.3,0-0.9-1.1-1.6c-0.1-0.3-1-1.4-0.8-2.1c1.6-2.3-2.7-0.2-1.3-1.5
				c3-2.3-2.2-0.3-1-1.3c1-2-2.3-0.2-3.2-0.6c-1-1.6-2.7-1.7-3.3,0.2c2.1,1.1-0.1,2.9-1.4,1.5c-1.5,0.8-0.6-1.2-0.3-1.6
				c0.3-1.6-1.5-0.9-0.8-2.1c-0.6-3-2.8,0.6-2.4,2.3c-0.9-1.9-3,1.4-3.8-0.5c-2-0.6,0.4-2.1,0.7-1.7c-0.3-2.9-3.6-0.9-5.2-1.5
				c-2.5,1.6-3.6-1.9-6-2.6c-0.9,1.5-1.4,0.3-3,0.7c0.2,3.1-3.6-0.8-3.9,2c-1.2-2-1.8-0.3-3.2,1c-2.4,0.9,1.3-2.5-0.8-3.1
				c-1.4,0.8-1.2-0.6,0.1-0.6c-1.2-1.9-3.2,3.6-5.1,0.6c0.8-1.6-1.5-4.1,1.1-4.8c-1.4-2.5-3,2.9-2.4,3.8c-0.5,1.3-0.2,3.7,1.2,3.2
				c-1.3,1.8,2.8-1.3,1.6,0.7c1.8-0.3,0.9,0.7-0.2,0.9c-0.3-0.3-0.4,1.9-1.8,1c-0.5,0.8-1.7,3.3-3.6,2.9c-0.3-0.1-0.8-4.4-2-2.3
				c0.1,3.4-2.3,0.6-1.9-0.8c1.4-0.9-1.1-4.3-1.1-1.9c-2.3-1.3,1.2,1.6-0.5,2.1c0,2.1-1.9,3-2,0.9c1.1-1.6-0.8-2.3-2.1-0.6
				c-0.2-0.7-1.8-1.7-2-1.9c0.5-2.1-1.1-0.4-1.2-1.5c-0.3,1.4-1.8,0.6-1.8,0.9c-0.4-1.6-2-0.7-2.9-1.7c2.4-0.3-1.3-0.6,0.3-1.1
				c2.3,1.5,1.1-1.2,1.5-2.1c1.3-2.3-1-0.6-1.7-0.1c0.8-1.6-0.3-0.8,0.1-1.8c-1.2-1.3-0.8,0.3-2.3,0.1c0-1.2-3-0.9-1-1.2
				c2.7-0.2-0.6-1-1-1.5c-1.7-1.3,0.1-1.5,0.7-0.6c2.4,0.5,0.4-1.3,0.8-1.8c3,0.8,2.3-4.5-0.8-2.9c-0.2,0.8-2.4,1.6-1.6,0.7
				c-1.2-0.9-0.7-0.6,0.1-1.4c-0.5-1.4-3,0.2-2.1-1.6c-0.9,1.1-1.3,0-0.4-1.1c-0.3-1.2-1.6,0-2,0.6c0.6-1.6-1.5-0.8-0.6-1.4
				c0.2-0.7,1.4-1.5,2-2.5c2.2,0.8,4.9-0.8,7.3,0.4c2-2-0.6-2-1.8-1.2c0-0.3,0-0.7-0.2-1c-0.2-0.3-0.4-0.6-0.8-0.7
				c-0.7-0.3-1.5-0.1-1.9,0.5c-2.5-1.3-0.8-4,0.5-5.5c0.5,1.8,2.6,0,3.5,1.4c2.4-1.8-3.3-1.5-2.7-2.4c0.3-1.2,1.6-1.2-0.5-1.8
				c0.5-0.2,1.2-2,2.7-0.9c2.3,1.1,0.8-1.8-0.3-2.2c-1.5,1.5-2.2-0.6-1.2-1.1c2.6,0.3-1.1-0.6,0.5-1.3c-0.8-1-1.5-1.5-2.3-0.1
				c-2.5,1,2.7,2.7-0.8,2.3c-3.5,0.4,2.8,1.5,0.5,2.2c-3.4,0.8,2.5,2-0.1,2c0.3,0.7-1.7,3-3.5,2.1c-1.9,0.5-3.1-1.1-3-3.1
				c-3.1,0.6,0-2.7-1.3-3c-0.4,1.2-0.1,1.1-1.4,1.2c-1.4,1.4-1.3-2.3-2.6,0.1c-0.3-1.4-1-1.1-1.1-2.4c1.4-0.4,2.4-2.3,0-2.5
				c-1.9,2.1-2.9-2.2-0.7-1.7c0.6-0.2,1.5-2.6,0.4-3.3c0.6-0.2-1.2-1-0.7-2.1c-1.8-0.6-0.8-2-1.6-2.9c1.5-1.6-1.6-0.4-0.9-1.3
				c2.1-0.8-1-0.5,0.5-2c-1.5-1.2-0.7-3,1.3-2.1c-0.4,0.6,0.5,0.6,1.5,0.4c0.4-1.9-2.1-0.1-2.7-1.8c-1.9-2.9,1.9-0.1,2.4-2.1
				c-0.6-2.2,2.4,0.7,2.3-1.6c-1.4-1.7-1.9,0.5-2.8-0.9c1.2-3.1-2.7,2.4-2.4-0.1c2.5-1.9-2.6-3.1-1.7-5c-0.4-1.5-2.2-3.5-1.3-5.1
				c1.2,1,0-1.7,0.8-1.3C7,84,8,83.8,7.6,83.4c0,0.4-2.3,1-0.6-0.6c1.5-1.8,0-0.9-1-1.5c0.4-0.7,2.4-2.9,3-0.5
				c2.1,0,0.2-1.5,1.9-1.8c-0.4-1.9-2-0.4-2.8-0.2c-0.2-1.6-1.2,0.5-1.5-1c-3.3-2-3.2,3.1-3.7,4.6C4.5,83.6,2,85.1,3.3,85
				c0.1,1-1.3,2.4-1,3.5c-1.1,1.6-0.1,2.3,0.9,3.1c1,1.6-0.7,1.3-0.8,2c-0.4,1.4,1.1,0.5,0.9,1.4c2.5,0.6,0.5,2.2-0.5,2.6
				c-0.9-1-1.2,0.7-0.4,0.2c0,0.7,0.7,1,0.8,1.3c1.1,0.5-1.5,1.5-1.1,3.2c-0.5,1.7,1.4,2.8-0.8,4.1c0.6,0.2,1.3,0.1,1.9-0.2
				c-0.8,1.3,0.7,0.4,0.5,1.4c1.7-0.5,0.6,0.7,0.9,1.5c1.6,0.4,0.7,1.4,0.3,2.4c-0.4-1.4-1.4,0.5,0.1,0.1c-1.1,1.8,0.5,0.3,1.2,0.8
				c-0.8,2,1.2,0.2,1.5,1.4c0,1.4-1.7,0.4-2.6,0.4c0.3,1,1.5,0.6,0.4,1.4c2,0.5,0.8,2.5,1.7,2.4c-1.9,0.5,1.2,0.3,0,0.5
				c-0.8,1.7-1.7-0.8-2.1,0.4c-1.9-1-1,1.5,0.7,1c-0.3,1.9,0.3,1.2,2,0.8c0.3,0.6,0,1.8-1.6,1.3c-0.4,1.3,1.5,0.3,1,2.2
				c-1.7,1.6,0.6,2.4,1.2,0.8c0,0.3,2.6,0.9,0.9,1.9c-1.7-0.6-0.3,1.1-1.6,1.3c-0.7,0.9-2.3,1.3-1.1,3c0.3,0.6,0.7,1,1.3,1.4
				c0.5,0.3,1.2,0.5,1.8,0.4c1,1.9,1.9-0.8,3.2-0.9c-1.2,0.9,1.4,0.9,0.3,1.8c-1.7-0.5-2.3,2.2-0.7,1.1c2.6,0.7,0.7,1-0.2,2.3
				c0.7,0.2,3.6,0,1.7,1.7c-1.8-0.2,0.1,1.3,0.6,0.9c1-0.6,3.5-0.1,2.4,1.6c-2.5-1.4-3.5,4.3-0.9,3.2c3-1.2,1,1.6-0.5,2.2
				c0.1,1.2,1.3,0.2,1.7,1.7c0.6,2.3,0.6-0.1,1.7,0c1.6-1,0.1,1.6,1,0.4c0.5,1.6,2.3,1.7,3,2c1.3,0-0.4,1.8-2,1.7
				c-1.4,1.6-0.2,3.5,1.5,3.8c1.6-0.9,1.8,0.3,2.5,1.3c0.6,1.5,1.8-1.1,1.9,0.3c0.6,0.4,1.7-0.2,2.4,0.8c2.9,0.8-1.8,0.4-1.7,0.9
				c2.8,0.6,0.6,3.1-1,0.9c-1.3-0.1-3.1-2-3.5-0.2c2.5-0.1,0.1,0.7,0.8,1.1c2.5,0.1-0.5,1.8,0.7,1.8c0.3,1.8,1.7,0.5,2.2,1.8
				c1.8-0.9,1.6,2.1,3.1,1.1c1.1,0.9,1.1-0.2,1.1-1.4c-1.5-2.2,2.3-2.4,1.5-4.1c2.4,0.3,0,1.3,0.6,2.4c0.7,2.4,2-1.2,1.8,1
				c-0.9,2.4,0.7-1.7,1,0.2c3-0.4-0.5,4.5,2.3,2.6c0.5,1.1,1.5,0.3,2.9,0.1c-0.3-2.8,3.2-0.2,0.7,0.6c-0.6,1.9,1.1,0.9,1.4,0.2
				c2.2,0-0.3,0.4,1.5,0.9c-1.1,0.8,0.1,1.7,1.2,1.3c1.4-0.9,3.8,0.8,2.4,2.4c0.3,2.5,3.1-0.2,3.5-1.4c1,0.6,0.4,1.1,1.2,0
				c-0.4,2.4,2.3,0,2.3,2.2c-0.9,1.5,0.4,2.3,1.4,2.6c3.5,1.2-2,1.2-1.6,2.9c-1.5,0.5-2.8,1.6-0.4,1.9c-1.1,0.4-1.5,3.9,0.6,2.4
				c1.6,0.3,3-1.6,4,0.2c1.6-0.3,2.2,1.3,3.8,1.9c1-0.5,3.1,0,4.5-1c1.8,0.4,4.1,0.1,6,0.7c1.8,1.5,4.9-0.5,6.1,1.8
				c1.8-0.5,1.6,1,3.6,1.9c2.3,1.6,4.7-0.9,7.1,0.4c2.2-1,4.8-0.4,6.2,1.5c2.5,2.1,4.7,4.5,7.2,6.3c-0.4,2.2,1.4,4.7,1.4,6.8
				c0.5,2.1-0.3,3.3-0.1,5.4c1.4,2.2-2.6,3.6-0.6,5.6c0.9,1.8-1.3,4.6,0.6,5.3c-0.5,1.4-2.2,3.2,0.4,3.9c-1.1,0.6,1,1.8-0.3,1.8
				c0.6,0.4,1,1.4,1.7,2c-2.7,0.6,0.7,3.1-1.6,2.9c-2.4,1.9,0.2,3.9-0.3,5.9c1.7,1.4-1.7,2.9,0.7,4c0.1,2-2.4,0.1-3-1
				c-0.6-2.5-4.5-0.4-2.2,0.5c-1.4,1-0.6,2.1-0.9,3.2c0.2,1,1.4,4.8-0.1,4.1c-2.7-2-4.6,0.3-7.1,1.5c-1.4,0.7-4.4,3.9-1.8,4.9
				c0.9,0.1,3.7-0.9,5.3-1c1.7,0.2-2.2,1.9-2.6,2.7c-1.2,2.5,1.8,1.6,3.1,2.1c2.4-1.4,4.4,0.4,5.1,2.6c-0.8,1.2-0.2,0.2,0.6,1.5
				c-2.1,1.6-4.4,4-3,6.7c-0.2,0.1-1.3,0.8-2-0.2c-2,0.6-0.1,4-2.1,5.3c-1.6,1.3-2.3,2.8-4.6,2.2c-2.2,0.6,1.4,1.8,0.6,3.6
				c3.1,0.5,0.5,5.1-1.5,3.8c0.7,1.3-0.4,1.7,1,2.7c-1.9,0.8,1.2,2.6-0.7,2.5c-1.4,1.8-2.8-1.1-4.3-0.6c0.3-0.1-2.2-2.2-3.2-1
				c-0.4,2.4-2,3.7-1,5.6c0.6-2.1,4.1-1.9,5.7-0.6c1.6-0.1,0.9,0.5,1.5,1.9c-1.1,2.1,1.9,2.8,2,3.9c2.1,1.7-0.7,3.1-0.2,5.3
				c-1.7,1.5-1.5,3.7-0.6,5.5c-0.4,1.1-0.2,2.6,0.3,2.8c2,1,2.3,2.8,0.8,4.3c-0.2,1.7-0.4,5.2,2,5c-1.2,1.7,0,3.7-1.4,4.9
				c-0.1,0.6-1.9,2.8-0.3,3.4c2,1.6-1,0.8-1.9,0.3c0.1,1.8,0.2,3.6,0.1,5.5c1.5,2.3,0.1,4.3,2.1,6c-1.3,1.9-0.7,3.6,0.5,5.4
				c2.1,1.7-1,2.1,0.2,3.9c1.7,2.4-0.8-0.8-1.8-0.7c-1.4-0.4-2.7,0-1.6,2.3c-0.8,1.9,0.8,3,2.5,3.3c1.2-1.8,3.5-1.1,4.6-2.1
				c2-1.7,1.8-4,0.6-6.1c0.1-3-1.6-5.6-0.8-8.6c-1.3-1.4,2.2-0.5,1-2c2,0.5,1.3-1.8,1.6-3c1-1.1,1.2,2.4,1.1,2.8
				c2.7-0.7,1,2.9,2.6,3.8c2,2.4-1.3,3-0.2,5.1c-1,1.8-0.3,2.8-0.3,5c1.2,1.9,1.7-2,3.6-0.4c1.9-0.2,1-2.1,1.4-3.1
				c-1-2,1.5-5.1,4-4.4c-1.1-1.2,1.3,0,2-0.5c1,0.7,1.6-1.6,1.2-2.7c-0.4-0.1-0.7-0.4-1-0.7c-0.3-0.3-0.5-0.7-0.6-1.1
				c-0.1-0.4-0.1-0.8,0-1.2c0.1-0.4,0.3-0.8,0.5-1.1c1.3,1.4,1.6,0.2,2.9,1c0.5-1.6,2.6-0.7,2.4,1c1.9-1.1,0-3.2,0.5-4.8
				c1.8,0.7,4-1.5,2.7-2.9c-2.2-2.5,1.8,1.5,0.9-1c0.4,0,0.8,0.2,1.1,0.5c2.5-5,7.7-8.2,13.3-8.3c21.8-2.1,43.5-1.4,65-2.6
				c19-1,37.7-3.4,56-10.4c16.6-7,30.9-23.9,26.3-42L283.5,264.4z"/>
			<line class="st1" x1="111.5" y1="289.5" x2="143.1" y2="289.5"/>
			<path class="st2" d="M108.3,280.6v6h38.5v-6c0.2-10.6-8.2-19.4-18.8-19.7s-19.4,8.2-19.7,18.8C108.2,280,108.2,280.3,108.3,280.6
				z"/>
			<path class="st3" d="M127.5,276c-2.5,0-4.6,2-4.6,4.6c0,0,0,0,0,0.1v6h9.3v-6C132.1,278.1,130.1,276,127.5,276
				C127.5,276,127.5,276,127.5,276"/>
			<polygon class="st4" points="127.5,250.8 127.5,256.1 133.5,253.4 			"/>
			<path class="st5" d="M146.7,286.9h-14.6c-0.2,0-0.3-0.1-0.3-0.3c0,0,0,0,0,0v-6c0-2.4-1.9-4.3-4.3-4.3c-2.4,0-4.3,1.9-4.3,4.3
				l0,0v6c0,0.2-0.2,0.3-0.4,0.3c-0.1,0-0.3-0.1-0.3-0.3v-6c0-2.8,2.2-5,5-5s5,2.2,5,5v5.6h4.6v-4.6h-2v2.3c0,0.2-0.2,0.3-0.4,0.3
				c-0.1,0-0.3-0.1-0.3-0.3v-3.3c0.4-3.8-2.4-7.3-6.3-7.7c-3.8-0.4-7.3,2.4-7.7,6.3c0,0.5,0,0.9,0,1.4v6c0,0.2-0.1,0.3-0.3,0.3
				c0,0,0,0,0,0h-12c-0.2,0-0.3-0.1-0.3-0.3c0,0,0,0,0,0v-6c0-1.6,0.2-3.2,0.6-4.7v-0.1c0.5-1.9,1.2-3.7,2.2-5.3
				c0-0.1,0.1-0.1,0.1-0.1c1.2-2,2.8-3.8,4.7-5.3c0-0.1,0.1-0.1,0.1-0.1c3.4-2.6,7.6-4,11.9-4c4.3,0,8.4,1.4,11.9,4
				c0.1,0,0.1,0.1,0.1,0.1c1.9,1.5,3.5,3.3,4.7,5.3c0,0.1,0.1,0.1,0.1,0.1c1,1.6,1.7,3.4,2.2,5.3v0.1c0.4,1.5,0.6,3.1,0.6,4.7v6
				C147.1,286.8,146.9,286.9,146.7,286.9C146.7,286.9,146.7,286.9,146.7,286.9z M137.8,286.3h8.6v-4.6h-8.6V286.3z M117.9,286.3h2
				v-4.6h-2V286.3z M108.6,286.3h8.6v-4.6h-8.6V286.3z M143.1,281h3.3v-0.3c0-1.4-0.2-2.9-0.5-4.3h-2.9L143.1,281L143.1,281z
				 M135.1,281h7.3v-4.6h-8.6c0.9,1.3,1.3,2.8,1.3,4.3V281L135.1,281z M112.5,281h7.3v-0.3c0-1.5,0.5-3,1.3-4.3h-8.6L112.5,281z
				 M108.5,281h3.3v-4.6H109c-0.3,1.4-0.5,2.9-0.5,4.3V281L108.5,281z M137.7,275.6h8c-0.5-1.6-1.1-3.2-2-4.6h-6V275.6z
				 M133.2,275.6h3.9V271h-9.3v2C129.9,273.1,131.9,274.1,133.2,275.6L133.2,275.6z M117.8,275.6h3.8c1.4-1.6,3.3-2.5,5.4-2.6v-2
				h-9.3V275.6z M109.2,275.6h8V271h-6C110.3,272.5,109.7,274,109.2,275.6L109.2,275.6z M132.4,270.3h10.9c-1.1-1.8-2.6-3.3-4.2-4.6
				h-6.6V270.3z M123.1,270.3h8.6v-4.6h-8.6L123.1,270.3z M111.6,270.3h10.9v-4.6h-6.6C114.2,267,112.8,268.6,111.6,270.3
				L111.6,270.3z M127.8,265h10.3c-3-2.1-6.6-3.3-10.3-3.3V265z M116.8,265h10.3v-3.3C123.5,261.7,119.9,262.9,116.8,265L116.8,265z
				 M127.5,259c-0.2,0-0.3-0.1-0.3-0.3c0,0,0,0,0,0v-8c0-0.1,0-0.2,0.1-0.3c0.1-0.1,0.2-0.1,0.3,0l6,2.7c0.1,0.1,0.2,0.2,0.2,0.3
				c0,0.1-0.1,0.3-0.2,0.3l-3.3,1.5c-0.2,0.1-0.3,0-0.5-0.2s0-0.3,0.2-0.5l2.6-1.2l-4.8-2.1v7.4c0.1,0.2,0,0.3-0.1,0.4
				C127.6,259.1,127.6,259.1,127.5,259L127.5,259z"/>
			<text transform="matrix(1 0 0 1 106.85 312.22)" class="st6 st7 st8">500</text>
			<text transform="matrix(1 0 0 1 106.85 312.22)" class="st9 st7 st8">500</text>
		</g>
		<g id="Ranku">
			<path class="st0" d="M265.5,364.4c-7-20-39-10-57-23c-6.9-5.9-7-15.7-7-24.6c-21.5,1.1-43.2,0.4-65,2.6
				c-5.6,0.1-10.7,3.3-13.3,8.3c0.8,0.6,1.1,1.6,0.7,2.5c1.2,2.4,1.3,4.2,2.9,6.2c-1,0.6-0.4,2.9-2.4,2.6c-3.4-0.6-0.9,2.5-0.9,4.2
				c-0.3,1.7,0.2,3.4,1.4,4.7c-0.7,1.2,1.5,2.1,0.6,3.5c0.8,1.9,3.6,3.1,4.3,5.4c1.5-0.1,1.3,0.6,0.6,1.9c1.4,1.9,0.9,3.9,0.8,6.1
				c1.1,1.5-0.9,4.4,1.1,4.7c1.8,0.8,0.4,3.3,2.1,5.4c1.3,1.5-1-0.1,0.1,1.2c-0.8,0.9-3-0.6-4.1-1.1c-2,1.3-3.3-3.2-4.7-0.5
				c-1-0.9-4.5-0.4-3,1.3c-1.3,0-2.4,0.2-3,1.7c1.2,0.9,1.8,0.5,0.7,2.3c-0.8,1.6,1.3,4.2,2.9,1.9c1.7,0.2,0.2-3.3,1.4-2
				c0.6,2.5,2.4,0.9,3.5-0.2c0.5-3.4,1.3,1,2.7,1c0.1,1.5,1.1,1.4,1.4,2.4c1.3,0.8,1.7,2.1,3,2.6c2.5,0.1,0.7,2.8-0.7,1.2
				c-0.9,0.4-3.2-0.3-3.5,1.1c2.1,0.5,0.3,1.9-0.7,0.7c-0.4-1.8-1.9-1.2-3.2-1.9c-2.9-0.3,2,2,0,2.2c-0.6,1.5-1.8,0.1-1.9,0.6
				c0.8,2.9-2.2-2-2.7,0.2c-2.8,0.8,1.4,2.3,0.2,3.5c-1.3-2.1-4.1,1.5-1,1.5c1.5,2.4,4.5,1.3,6.3-0.7c1.3-2.6,3.7,0.1,3.8,1.9
				c-1.8,0.5-0.8,2.8,0.1,1c1.7,0.9,3.1,3.6,3.3,5.7c0.9,1.7-1.6,0.5-0.9,2c-0.8-1.3-2.7,1.4-0.9,1.1c0.3,1.8,6,4.1,3.9,0.8
				c0.1-2.2,2.3,1.5,3.1,1.5c1.6,0.7,1.2,3.2,3.1,3.5c1.9,0.1,0.7,1.7,1.8,2c1.5,1.5,2.5,4,4.4,5.5c-1.2,1.8,4.4,2.7,1.7,4.1
				c0.6,1.9,2.4,3.5,3.2,5.4c3,0,1.7,3.6,3.2,4.8c1.9,2.4,4.5,3,6.2,4.7c2.1,1.4,4.7,2.2,4.5,5.1c1.2,1.5,2.6,2.4,2.8,4.6
				c2.5-0.3,1.4,2.8,3.6,2.3c0.8,1.4,3.7,0.4,2.8,2.2c2.3,1.2-0.7,1.1,0.3,2.9c-2.7,0.6-0.1,5.5,2,3.9c1-1.6,1.4-0.9,1.8,0.6
				c0.8,1.2,4.2,1.9,4.8-0.7c1.8-0.3-0.2-2.5,0.1-2.9c1-2.3,1.1,1.4,2.8,1.1c-0.3,0.8,0.4,1.9,0.3,2.7c2.2,0.6,4.1,1.8,5.6,3.5
				c2.4,0.7,1.9-0.1,4.8-0.2c0.5-1.7,3.6-1,4.6,0.7c1.7-0.9,0.1-3.4,1.1-5.1c0.1,1.9,3.1,2.5,1.6,4.6c-1.6,1.2,0.3,6.1,1.3,3.1
				c1.8,0.1,3,2.8,5.5,2.6c3,1.8-1.4-2.4,1.2-1.2c0.6-2.6,2.5,0.6,4.1-0.2c1.3-0.5,2.6,3.4,4.5,1.5c2.6-0.6,1-2,1.3-4
				c-1.2-1.5-0.3-5.3,1.4-2.6c1.6,1.9,1.7,4.6,3.1,6.4c0.6,1.2,1.6,5,3.4,2.1c-0.5-2.3,4.8,2.1,4.6-1.5c-1.3-3-4.8-2.9-7.2-4.3
				c-2-2.4,0.2-5.1-2.3-6.6c-0.3-2.7,1.8,0.2,2.5-1.3c-1.1-1.3-0.5-1.7-0.5-3.3c1.5-0.7,0.1,0.4,1,0.7c0.2,1.9,2.4,2.4,1.1,0.3
				c-0.2-0.2-1.5-4-0.1-3.1s1.5,1.2,1.8-0.6c-0.2,0.7,0.1-4.1,0.8-2c2.7-0.4,2,3.5,1.3,4.7c0,2.4,3.2-0.9,2.9,0.3
				c1.3-0.8-0.8,2.6,0.3,3.9c0.2,2.3,2.1,1.2,2.7,0.3c0.7-0.1,0.8-2.3-0.8-3.8c-2.4-2.1,1.3-1.2,2.5-0.8c0.9-2,2.1-1.5,2.4,0.5
				c2.3,1.5-0.4-2.2,1-2.1c3.8-0.5,1.8,4.7,3.8,6.7c-1.1,1.5,0.5,2.3,1.2,3c-0.2,2.7,1.6,0,2.1-0.9c0.7,1,0.9,0.4,1.6,1.4
				c1.3,0,2.4,2.2,0.5,1c-3.1,0.7,1.2,3.2,0.7,4.4c1.2,0.4,2,2.8,3.6,1.5c-0.9,2.9,4.5,3.2,4.3,1.3c-1.7-1.6,0.3-0.9,1.2-1.6
				c1.5,0.3,0.6,3,1.5,4.8c1.9,2,1.1-2.1,2.8-2.5c-0.2-1.9,0.5-3.7,1.9-5c3.1-1.8,1.3-5.4,0.2-8c0.1-0.2,0.1-0.4,0.1-0.5
				c0-0.2,0-0.4-0.1-0.5c-0.1-0.2-0.2-0.3-0.3-0.4c-0.1-0.1-0.3-0.2-0.5-0.3c-0.2,0-0.4,0-0.5,0c-0.2,0-0.4,0.1-0.5,0.2
				c-0.2,0.1-0.3,0.2-0.4,0.4c-0.1,0.2-0.2,0.3-0.2,0.5c-1-1.9-2.7-1.7-4.4-2.5c1.2,0,1.2-1.6-0.3-1.3c-1.3,2-1.7,0.8-2.5-0.9
				c1.2,0.5,0.9-1.6,1.8-1.2c0.9-1,2.4-0.6,2.4,0c1.4-1.1,4,0.9,5.5-1c0.2-2-2-4.9-1.6-7.5c-1-1.5-3.5-4-5.3-4
				c0.5-1.3-0.6-0.7-1.2,0c-3.2-0.5,1.1-1.7,1.6-2.4c-1.5-0.8-2.6-0.5-0.6-1.2c-0.3-1.6-2.2-3.5-2.2-5.1c-2.6-1.5-2.2-4.6-4.7-6.4
				c1.4,0.3,1.8-0.3,0.5-1.5c2.6,1-2.7-2,0.2-1c1.5,1.1,1.1,1.3,1.8,2.3c1.5,1.8,0.8-0.7,0.1-0.9c2.2,0.8-0.9-0.8,0.6-0.4
				c2.2,1.5,0.3,0.3-0.6-0.7c-0.2-0.1-0.3-0.2-0.2-0.2l0.2,0.2c0.6,0.3,2.1,0.9,0.5-0.4c-1.3-1-0.5-1.3,0.4-0.1
				c0.7-0.3,1.5-0.3,2.2,0.1C266,402.2,270.3,381.5,265.5,364.4z"/>
			<line class="st1" x1="186.1" y1="398" x2="217.7" y2="398"/>
			<path class="st2" d="M182.8,389.2v6h38.5v-6c0.2-10.6-8.2-19.4-18.8-19.7s-19.4,8.2-19.7,18.8
				C182.8,388.6,182.8,388.9,182.8,389.2z"/>
			<path class="st3" d="M202.1,384.5c-2.5,0-4.6,2-4.6,4.6c0,0,0,0,0,0.1v6h9.3v-6C206.7,386.6,204.7,384.6,202.1,384.5
				C202.1,384.5,202.1,384.5,202.1,384.5"/>
			<polygon class="st4" points="202.1,359.3 202.1,364.6 208.1,362 			"/>
			<path class="st5" d="M221.3,395.5h-14.6c-0.2,0-0.3-0.1-0.3-0.3c0,0,0,0,0,0v-6c0-2.4-1.9-4.3-4.3-4.3c-2.4,0-4.3,1.9-4.3,4.3
				c0,0,0,0,0,0v6c0,0.2-0.2,0.3-0.4,0.3c-0.1,0-0.3-0.1-0.3-0.3v-6c0-2.8,2.2-5,5-5s5,2.2,5,5v5.6h4.6v-4.6h-2v2.3
				c0,0.2-0.2,0.3-0.4,0.3c-0.1,0-0.3-0.1-0.3-0.3v-3.3c0.4-3.8-2.4-7.3-6.3-7.7c-3.8-0.4-7.3,2.4-7.7,6.3c0,0.5,0,0.9,0,1.4v6
				c0,0.2-0.1,0.3-0.3,0.3c0,0,0,0,0,0h-12c-0.2,0-0.3-0.1-0.3-0.3c0,0,0,0,0,0v-6c0-1.6,0.2-3.2,0.6-4.7v-0.1
				c0.5-1.9,1.2-3.7,2.2-5.3c0-0.1,0.1-0.1,0.1-0.1c1.2-2,2.8-3.8,4.7-5.3c0-0.1,0.1-0.1,0.1-0.1c3.4-2.6,7.6-4,11.9-4
				c4.3,0,8.4,1.4,11.9,4c0.1,0,0.1,0.1,0.1,0.1c1.9,1.5,3.5,3.3,4.7,5.3c0,0.1,0.1,0.1,0.1,0.1c1,1.6,1.7,3.4,2.2,5.3v0.1
				c0.4,1.5,0.6,3.1,0.6,4.7v6C221.7,395.3,221.5,395.5,221.3,395.5C221.3,395.5,221.3,395.5,221.3,395.5z M212.4,394.8h8.6v-4.6
				h-8.6L212.4,394.8z M192.5,394.8h2v-4.6h-2V394.8z M183.2,394.8h8.6v-4.6h-8.6V394.8z M217.7,389.5h3.3v-0.3
				c0-1.4-0.2-2.9-0.5-4.3h-2.9L217.7,389.5L217.7,389.5z M209.7,389.5h7.3v-4.6h-8.6c0.9,1.3,1.3,2.8,1.3,4.3L209.7,389.5
				L209.7,389.5z M187.1,389.5h7.3v-0.3c0-1.5,0.5-3,1.3-4.3h-8.6V389.5z M183.1,389.5h3.3v-4.6h-2.9c-0.3,1.4-0.5,2.9-0.5,4.3
				V389.5L183.1,389.5z M212.3,384.2h8c-0.5-1.6-1.1-3.2-2-4.6h-6V384.2z M207.8,384.2h3.9v-4.6h-9.3v2
				C204.5,381.7,206.5,382.6,207.8,384.2L207.8,384.2z M192.4,384.2h3.9c1.4-1.6,3.3-2.5,5.4-2.6v-2h-9.3L192.4,384.2z M183.8,384.2
				h8v-4.6h-6C184.9,381,184.3,382.6,183.8,384.2L183.8,384.2z M207,378.9h10.9c-1.1-1.8-2.6-3.3-4.2-4.6H207V378.9z M197.7,378.9
				h8.6v-4.6h-8.6V378.9z M186.2,378.9h10.9v-4.6h-6.6C188.8,375.6,187.4,377.1,186.2,378.9L186.2,378.9z M202.4,373.6h10.4
				c-3-2.1-6.6-3.3-10.4-3.3V373.6z M191.4,373.6h10.4v-3.3C198,370.3,194.4,371.5,191.4,373.6L191.4,373.6z M202,367.6
				c-0.2,0-0.3-0.1-0.3-0.3c0,0,0,0,0,0v-8c0-0.1,0-0.2,0.1-0.3c0.1-0.1,0.2-0.1,0.3,0l6,2.6c0.2,0.1,0.3,0.3,0.2,0.5
				c0,0.1-0.1,0.1-0.2,0.2l-3.3,1.5c-0.2,0.1-0.3,0-0.5-0.2s0-0.3,0.2-0.5l2.6-1.2l-4.8-2.1v7.4c0,0.2,0,0.3-0.2,0.4
				C202.2,367.6,202.1,367.6,202,367.6L202,367.6z"/>
			<text transform="matrix(1 0 0 1 181.44 420.79)" class="st6 st7 st8">500</text>
			<text transform="matrix(1 0 0 1 181.44 420.79)" class="st9 st7 st8">500</text>
		</g>
		<g id="Dager">
			<path class="st0" d="M363.1,329.3c0.2-11.9-1.3-23.6-4.9-34.1l-0.6,0.2l0.6-0.2c-4.5-13.1-12.4-24.3-24.6-31.8
				c-13.9-9-32.8-1.1-49.7,1c4.6,18.2-9.7,35-26.3,42c-18.3,7-37,9.5-56,10.4c0,8.9,0.1,18.7,7,24.6c18,13,50,3,57,23
				c4.8,17.1,0.5,37.8-0.8,56.9c0.9,0.7,1.8,1.6,2.5,2.5c-0.1-1.3,0.7-2.7,2.1-1.5c1.3-1.2-1-2.5-0.1-3.3c0.9,1.4,3,0.8,1,0.3
				c0.5-1.4-0.8-2.1-0.9-2.9c1.4,0-1.3-1.2-1.3-1.5c-1.6-2.4,0.7,0.8,1.5,0l-0.3-0.1c-0.3-0.1-0.5-0.2,0,0s0.9,0.2,0.6-0.4
				c-1.8-0.4,0.3-0.4,0.6-0.3c-1.9-0.7-2-2.7-2.8-3.5c0.7-2.1,4.5-0.9,6.5-1.2c2,2,5.6,1.2,7.1,4c1.2,2.8,5.2,3.6,7.7,2.3
				c3.6-1.9-1.2-3-1.8-4.8c0.1-2-2.9-5.6,0.4-6c2.8,0,1.1-3,2-4.5c-0.5-2.3-1.7-5.8,0.9-7.3c2.7-0.3,5-0.2,6.8-2.7
				c0.9-2.9,3.2,1.2,4.5,0c2.3,0.3,1.2-1.2-0.4-1.5c-0.6-3.3,4-2.6,5.4-3.9c0.7,1.9,1.7,0.8,3.1,1.7c1.9-0.3,1,1,1.3,1.8
				c-0.5,2.4,1.7,2,2.8,0.7c1-3.3,1.2,1.8,0.5,2.7c-0.4,2.4,3,1.7,4.3,1.8c0.8-1,5.2,1.6,3.5-0.6c2.7,0.8,1.4,4.7,3,6.1
				c0.6,2.3,3.1-0.4,3.5,1.9c2.4,3.5,1.2-2.2-0.5-2.6c0.5-1.4-4.5-4.4-2.4-3.5c0-0.6-3.6-3.3-3.7-4.5c-1.4-1.1,0.8-2.9-1.3-4.3
				c1.2,0.5,0.8-0.4,0.2-1.1c-0.2,1.2-1.7-1.3-3.4-0.1c-1.3,0.1-2.1-3.3-1.8-4.8c0.7,0.8,2-0.1,2.2-0.2c-0.7-1.2-0.4-3-1.6-4
				c-0.3-1.5,3,0.8,3.9,0.4c1-1.5-2.2-0.6-3-1.7c-1.3-2,1.4,0.3,0.7-1.4c-1.5-1.6-4.3-3.3-5.7-5.1c-0.4-1.8-4.7-2.5-2.5-3.4
				c-1.2-1.2,0.5,0.4,0.9,0.2c1.8,1.4,0.5-2,0.2-2.9c-1.1-2.2,2.5-0.4,1.2-1.6c1.5-1.1,1.7,3.5,2.1,1.8c-0.2,2.3,1.2,4.5,3.3,5.4
				c2.4-0.9,3.5,3.6,5.8,2.5c1.8-1.4-0.1,0.7,1.6,1.1c-1.3,1.9,0.7,2.5,2,3.3c2.3,1.1,4.1,2.8,6.6,3.4c1-1.3,1.4-2.1,2.4-0.4
				c-1.7,1.9,1.8,0.4,1.9,1.1c0.4,2.9,3-0.8,3.7,1.3c0.6,2.5,3.1,2.6,4.3,4.1c0.4,1.9,3-0.3,2.7,1.2c0.3,2,1.4,0.7,2.4,0.5
				C358.5,367.9,362.7,348.7,363.1,329.3"/>
			<line class="st1" x1="291.1" y1="327.4" x2="322.7" y2="327.4"/>
			<path class="st2" d="M287.9,318.5v6h38.5v-6c0.2-10.6-8.2-19.4-18.8-19.7s-19.4,8.2-19.7,18.8
				C287.8,317.9,287.8,318.2,287.9,318.5z"/>
			<path class="st3" d="M307.1,313.9c-2.5,0-4.6,2-4.6,4.6c0,0,0,0,0,0.1v6h9.3v-6C311.7,316,309.7,313.9,307.1,313.9
				C307.1,313.9,307.1,313.9,307.1,313.9"/>
			<polygon class="st4" points="307.1,288.7 307.1,294 313,291.3 			"/>
			<path class="st5" d="M326.3,324.8h-14.6c-0.2,0-0.3-0.1-0.3-0.3c0,0,0,0,0,0v-6c0-2.4-1.9-4.3-4.3-4.3c-2.4,0-4.3,1.9-4.3,4.3v6
				c0,0.2-0.1,0.3-0.3,0.3c-0.2,0-0.3-0.1-0.3-0.3l0,0v-6c0.3-2.7,2.7-4.8,5.5-4.5c2.4,0.2,4.2,2.1,4.5,4.5v5.6h4.6v-4.6h-2v2.3
				c0,0.2-0.1,0.3-0.3,0.3c-0.2,0-0.3-0.1-0.3-0.3v-3.3c-0.4-3.8-3.8-6.7-7.7-6.3c-3.3,0.3-5.9,3-6.3,6.3v6c0,0.2-0.1,0.3-0.3,0.3
				c0,0,0,0,0,0h-11.9c-0.2,0-0.3-0.1-0.3-0.3c0,0,0,0,0,0v-6c0-1.6,0.2-3.2,0.6-4.7v-0.1c0.5-1.9,1.2-3.6,2.2-5.3
				c0-0.1,0.1-0.1,0.1-0.1c1.2-2,2.8-3.8,4.7-5.3c0-0.1,0.1-0.1,0.1-0.1c3.4-2.6,7.6-4,11.9-4c4.3,0,8.5,1.4,11.9,4
				c0.1,0,0.1,0.1,0.1,0.1c1.9,1.5,3.5,3.3,4.7,5.3c0,0.1,0.1,0.1,0.1,0.1c1,1.6,1.7,3.4,2.2,5.3v0.1c0.4,1.5,0.6,3.1,0.6,4.7v6
				C326.7,324.7,326.5,324.8,326.3,324.8C326.3,324.8,326.3,324.8,326.3,324.8z M317.3,324.1h8.7v-4.6h-8.6L317.3,324.1z
				 M297.4,324.1h2v-4.6h-2V324.1z M288.1,324.1h8.6v-4.6h-8.6V324.1z M322.6,318.8h3.4v-0.3c0-1.4-0.2-2.9-0.5-4.3h-2.9
				L322.6,318.8L322.6,318.8z M314.6,318.8h7.4v-4.6h-8.6c0.9,1.3,1.3,2.8,1.3,4.3L314.6,318.8L314.6,318.8z M292.1,318.8h7.3v-0.3
				c0-1.5,0.5-3,1.3-4.3h-8.6V318.8z M288.1,318.8h3.3v-4.6h-2.9c-0.3,1.4-0.5,2.9-0.5,4.3L288.1,318.8L288.1,318.8z M317.3,313.5h8
				c-0.5-1.6-1.1-3.2-2-4.6h-6V313.5z M312.7,313.5h3.9v-4.6h-9.3v2c2.1,0.1,4.1,1,5.5,2.6H312.7z M297.4,313.5h3.8
				c1.4-1.6,3.3-2.5,5.4-2.7v-2h-9.3V313.5z M288.7,313.5h8v-4.6h-6c-0.8,1.5-1.5,3-1.9,4.6H288.7z M312,308.2h10.9
				c-1.1-1.8-2.6-3.3-4.3-4.6H312V308.2z M302.7,308.2h8.6v-4.6h-8.6V308.2z M291.1,308.2H302v-4.6h-6.6c-1.6,1.3-3,2.9-4.1,4.6
				H291.1z M307.3,302.9h10.4c-3-2.1-6.6-3.3-10.4-3.3V302.9z M296.3,302.9h10.4v-3.3C303,299.7,299.4,300.8,296.3,302.9
				L296.3,302.9z M307,296.9c-0.2,0-0.3-0.1-0.3-0.3c0,0,0,0,0,0v-8c0-0.1,0-0.2,0.1-0.3c0.1-0.1,0.2-0.1,0.3,0l6,2.6
				c0.1,0.1,0.2,0.2,0.2,0.3c0,0.1-0.1,0.3-0.2,0.3l-3.3,1.5c-0.2,0.1-0.3,0-0.5-0.2c-0.1-0.2,0-0.4,0.2-0.5l2.7-1.2l-4.9-2.1v7.4
				c0.1,0.2,0,0.3-0.1,0.4C307.2,297,307.1,297,307,296.9L307,296.9z"/>
			<text transform="matrix(1 0 0 1 286.45 350.12)" class="st6 st7 st8">500</text>
			<text transform="matrix(1 0 0 1 286.45 350.12)" class="st9 st7 st8">500</text>
		</g>
		<g id="Ramac">
			<path class="st0" d="M363.3,148.1c-26.3-10.2-54.9,1.8-81.1,8.7c-0.8,0.7-1.7,1.3-2.6,1.9c0.5,0.9,0.7,0-0.3,0.8
				c-0.3,1.5-3.5,1.4-4.4,3.1c-3,0.1-5,2.1-6.8,4.3c0.9,1.8-0.8,2.5-2.1,3.1c-1.7,1.7,4.5,1.6,2,2.3c-3.2-0.3-2.8,3.6-5.4,3.9
				c2.4,0.5-0.4,3.9-2,3.2c-2.5,0.9,1,1.8,0,3.6c0.8,1.7-0.4,2.1-0.3,3.5c0.5,3.3-2.3,0.7-4.3,1.7c-1.2-0.3-0.1,0.8-0.6,1.4
				c-0.9,1.8,0.8,4.3-0.7,5c-0.9,0.3,0.2,1.3,0.2,2.8s2.4,3.3,2.1,4.5c1.3,2.6,0.4,5,3.2,6.9c0.7,0.8,2.7,5.4,0.4,2.9
				c-0.2,0.9,0.6,3.2,0.4,4.7c-1.2-1.3-0.3,1-0.7,0.9c-2.5,0.3-2.4-2.6-3.6-4.3c-1.4-0.5-3.6-3.3-3.2-0.3c0.8,1.4-0.9,2.3-0.8,0.5
				c-3-0.8-2.9,4.1-4.9,5.3c0.3,1.6-0.5,3-0.1,5c-1.1-0.1-1.1,2.5-1.4,2.6c1.3,0.9-0.1,3.1,1.9,4.1c1.6,1.1,0.2,0.1-0.5,1
				c1.3,1.9,2.4,3.9,3.2,6.1c1.5,2.6,3.9,5,5.8,7.4c-0.2,0.1-0.4,0.3-0.6,0.5c-0.2,0.2-0.3,0.4-0.3,0.7c8,3.3,19.1,1.9,24.8,10.5
				c1.4,2.5,2.5,5.2,3.3,8c16.9-2,35.8-9.9,49.7-1c12.2,7.5,20.1,18.7,24.6,31.8c28.1-8,23.6-35.6,20.2-59.6c0,0.3,0.1,0.4,0,0
				c-1-6.4-1.7-12.8-1.9-19.2c0-8,4-16,6-25c4-16-1-35-16-42C365.5,149,364.4,148.5,363.3,148.1"/>
			<line class="st1" x1="311.2" y1="212.9" x2="342.8" y2="212.9"/>
			<path class="st2" d="M308,204v6h38.5v-6c0.2-10.6-8.2-19.4-18.8-19.7c-10.6-0.2-19.4,8.2-19.7,18.8C308,203.4,308,203.7,308,204z
				"/>
			<path class="st3" d="M327.2,199.4c-2.6,0-4.6,2-4.6,4.6c0,0,0,0,0,0.1v6h9.3v-6C331.8,201.5,329.8,199.4,327.2,199.4
				C327.2,199.4,327.2,199.4,327.2,199.4"/>
			<polygon class="st4" points="327.2,174.2 327.2,179.5 333.2,176.8 			"/>
			<path class="st5" d="M346.4,210.3h-14.6c-0.2,0-0.3-0.1-0.3-0.3c0,0,0,0,0,0v-6c-0.1-2.4-2.1-4.2-4.5-4.1c-2.2,0.1-4,1.9-4.1,4.1
				v6c0,0.2-0.1,0.3-0.3,0.3c-0.2,0-0.3-0.1-0.3-0.3v-6c0-2.8,2.2-5,5-5s5,2.2,5,5v5.6h4.6V205h-2v2.3c0,0.2-0.1,0.3-0.3,0.3
				c-0.2,0-0.3-0.1-0.3-0.3l0,0V204c-0.4-3.8-3.8-6.7-7.7-6.3c-3.3,0.3-5.9,3-6.3,6.3v6c0,0.2-0.1,0.3-0.3,0.3c0,0,0,0,0,0H308
				c-0.2,0-0.3-0.1-0.3-0.3c0,0,0,0,0,0v-6c0-1.6,0.2-3.2,0.6-4.7v-0.1c0.5-1.8,1.2-3.6,2.1-5.2c0-0.1,0.1-0.1,0.1-0.1
				c1.2-2,2.8-3.8,4.7-5.3c0-0.1,0.1-0.1,0.1-0.1c3.4-2.6,7.6-4,11.9-4c4.3,0,8.4,1.4,11.9,4c0.1,0,0.1,0.1,0.1,0.1
				c1.9,1.5,3.5,3.3,4.7,5.3c0,0.1,0.1,0.1,0.1,0.1c1,1.6,1.7,3.4,2.2,5.3v0.1c0.4,1.5,0.6,3.1,0.6,4.7v6
				C346.7,210.2,346.6,210.3,346.4,210.3z M337.5,209.7h8.6V205h-8.6V209.7z M317.6,209.7h2V205h-2V209.7z M308.3,209.7h8.6V205
				h-8.6V209.7z M342.8,204.4h3.3V204c0-1.4-0.2-2.9-0.5-4.3h-2.9L342.8,204.4L342.8,204.4z M334.8,204.4h7.3v-4.6h-8.6
				c0.9,1.3,1.3,2.8,1.3,4.3V204.4L334.8,204.4z M312.2,204.4h7.3V204c0-1.5,0.5-3,1.3-4.3h-8.6V204.4z M308.2,204.4h3.3v-4.6h-2.9
				c-0.3,1.4-0.5,2.9-0.5,4.3V204.4L308.2,204.4z M337.4,199.1h8c-0.5-1.6-1.1-3.2-2-4.6h-6V199.1z M332.9,199.1h3.8v-4.6h-9.3v2
				c2.1,0.1,4.1,1,5.5,2.6H332.9z M317.5,199.1h3.9c1.4-1.6,3.3-2.5,5.4-2.6v-2h-9.3V199.1z M308.9,199.1h8v-4.6h-6
				c-0.8,1.5-1.4,3-1.8,4.6H308.9z M332.1,193.8H343c-1.1-1.8-2.6-3.3-4.3-4.6h-6.6L332.1,193.8L332.1,193.8z M322.8,193.8h8.6v-4.6
				h-8.6V193.8z M311.3,193.8h10.9v-4.6h-6.6C313.9,190.4,312.5,192,311.3,193.8L311.3,193.8z M327.5,188.4h10.4
				c-3-2.1-6.6-3.3-10.4-3.3V188.4z M316.5,188.4h10.3v-3.3C323.1,185.2,319.5,186.3,316.5,188.4L316.5,188.4z M327.1,182.4
				c-0.2,0-0.3-0.1-0.3-0.3c0,0,0,0,0,0v-8c0-0.1,0.1-0.2,0.1-0.3c0.1-0.1,0.2-0.1,0.3,0l6,2.6c0.1,0.1,0.2,0.2,0.2,0.3
				c0,0.1-0.1,0.3-0.2,0.3l-3.3,1.5c-0.2,0.1-0.4,0-0.5-0.2c-0.1-0.2,0-0.3,0.2-0.5l2.6-1.2l-4.8-2.1v7.4c0,0.2-0.1,0.3-0.3,0.3
				C327.2,182.5,327.2,182.5,327.1,182.4L327.1,182.4z"/>
			<text transform="matrix(1 0 0 1 306.55 235.64)" class="st6 st7 st8">500</text>
			<text transform="matrix(1 0 0 1 306.55 235.64)" class="st9 st7 st8">500</text>
		</g>
		<g id="Napana">
			<path class="st0" d="M319.5,30.4c-5.6-1.7-10.8-4.6-15.3-8.4l0.2,0.2c-0.5,2.4-3.1-1.3-3.5,0.9c0.2,2-0.8,0.9-1.9,1.4
				c0.7-1.1-0.3-1.8-0.6-2.8c1-2.7-3.2-0.2-1.5-2.7c0.3-4-4.6-1.7-5.6-4c0.9-2.9-3.5,0.2-1.3,0.6c4.3,1.4-1.9,3.8-1.1,6.2
				c2.2,1.1-0.3,3.9-1.6,1.7c-0.5-1.9-1.8-0.5-3-1.1c0.1-2.9-3.1-1.2-3.4,0.6c0.7,2.9,3.4,4.8,6.3,4.5c2-2,2.4,0.7,2.3,2.3
				c-0.5,0.9,0,1.5-0.9,2.3c0.8,1.1-0.7,0.9-0.5,1.3c0.9-1,1.1,0.7,0.3,1.3c1.8,2.9-2.5,4.4-4.3,5.8c-1.7,1.2-1.5,4.2-2.7,4.4
				c-1.2,1.3-3-1.4-4.8-0.7c-0.7,1.2,3.4,2.1,2.8,4.3c1.2,1.4-0.1,1.3-1.3,2c-0.7-0.3-3.9-1.5-4.2,0.3c-3.5,0.2-1.3,3.8-3,5.5
				c-1.3,1.5-0.4,6.3,2.4,4.5c3.3,0.2-2.4,3.4-0.7,2.8c2.4,1.1,4.3-0.4,5.8-2.3c0.9-2.6,0.7,0.3,2.2-0.6c0.3,2.4-1.6,4.6-2.3,7
				c1.3,1.2,0.3,1.6-0.4,2.8c-1-0.4-2.2-0.6-3.3-0.6c-1.1,0.1-2.2,0.4-3.2,1c-2.6-0.2-0.4,2-0.9,3.2c1,1.1-1.8,2.6,0.5,3.6
				c-0.3,1.7-0.8,3.3-1.5,4.8c1.2,0.6-0.6,2.1,0.4,2.3c-1.3,1.4,1,2,1.8,2.8c2.5,1.7-2.7,0.7-1.4,1.8c-1.6,2-3.7,1.5-5.8,1.8
				c-0.3,1.8,0.1,2.9-1.7,4.2c-1.4-0.3-1,0.3-2.2,0.8c-0.4,0.6-0.7-0.4-1.5,0.2c0-0.6-1.4,1.5-2.5,1.7c-2.1,1.8-4.8,3.3-6.1,5.6
				c-2.4,1-2.8,4.1-3.7,6.4c-1.3,0.7-1.9,2.4-2.7,3c-1.1,2.1-3.4,4-2.8,6.3c-0.5,1.5-1.8,3.7-0.9,4.9c-0.2,2.2-3.3,4.6-1.4,7.3
				c-1.4,0.4-3.1,1.3-2.6,3.5c-0.9,0.4-1,2-1.1,4c-0.4,1.7-0.3,5.6,2.4,5.6c-2.3,0.6-2.3,3.2-0.5,5.3c0,1.6-0.1,3.9,1.3,5.8
				c1,2.5,3.1,5.2,6.3,4.3c2.5-2,4.7,1.2,6.7,0.2c3-0.4,4.7-4.9,6.2-5.9c-0.4-2.7,3,0,1,1.1c0.2,2.4,1.2-0.3,2.2,0.4
				c1-1.6,0.1,1.9,0.4,3.3c-1.2,1.4,0.8,2,1.7,1c1.8,0.2,5.2-1.4,7.8-1.6c2.4-0.6,5.1-1.2,6.5-3.4c0.3,1.3,3.2,0.1,5,0
				c0.5,0.6,0.2,1.1-0.3,1.7c26.2-6.9,54.9-18.9,81.1-8.7c-0.6-4.2-2.6-8.4-1.8-12.6c5-21.5,17.3-44.1,14.5-64.3l0,0
				c-1.2-8.7-5.2-16.7-11.5-22.7C352.5,36.4,335.5,34.4,319.5,30.4z"/>
			<line class="st1" x1="307.5" y1="91.9" x2="339.2" y2="91.9"/>
			<path class="st2" d="M304.3,83v6h38.5v-6c-0.2-10.6-9.1-19-19.7-18.8C312.8,64.4,304.5,72.7,304.3,83z"/>
			<path class="st3" d="M323.5,78.4c-2.6,0-4.6,2-4.6,4.6c0,0,0,0,0,0v6h9.3v-6C328.2,80.4,326.1,78.4,323.5,78.4
				C323.5,78.4,323.5,78.4,323.5,78.4"/>
			<polygon class="st4" points="323.5,53.2 323.5,58.5 329.5,55.8 			"/>
			<path class="st5" d="M342.7,89.3h-14.6c-0.2,0-0.3-0.1-0.3-0.3c0,0,0,0,0,0v-6c0-2.4-1.9-4.3-4.3-4.3c-2.4,0-4.3,1.9-4.3,4.3
				c0,0,0,0,0,0v6c0,0.2-0.1,0.3-0.3,0.3c-0.2,0-0.3-0.1-0.3-0.3v-6c0-2.8,2.2-5,5-5s5,2.2,5,5v5.6h4.6V84h-2v2.3
				c0,0.2-0.1,0.3-0.3,0.3c-0.2,0-0.3-0.1-0.3-0.3V83c-0.4-3.8-3.8-6.7-7.7-6.3c-3.3,0.3-5.9,3-6.3,6.3v6c0,0.2-0.1,0.3-0.3,0.3
				c0,0,0,0,0,0h-12c-0.2,0-0.3-0.1-0.3-0.3c0,0,0,0,0,0v-6c0-1.6,0.2-3.2,0.6-4.7v-0.1c0.5-1.9,1.2-3.7,2.2-5.3
				c0-0.1,0.1-0.1,0.1-0.1c1.2-2,2.8-3.8,4.7-5.3c0-0.1,0.1-0.1,0.1-0.1c3.4-2.6,7.6-4,11.9-4c4.3,0,8.5,1.4,11.9,4
				c0.1,0,0.1,0.1,0.1,0.1c1.9,1.5,3.5,3.3,4.7,5.3c0,0.1,0.1,0.1,0.1,0.1c1,1.6,1.7,3.4,2.2,5.3v0.1c0.4,1.5,0.6,3.1,0.6,4.7v6
				C343.1,89.2,342.9,89.3,342.7,89.3C342.7,89.3,342.7,89.3,342.7,89.3z M333.7,88.7h8.6V84h-8.6V88.7z M313.8,88.7h2V84h-2V88.7z
				 M304.6,88.7h8.6V84h-8.6L304.6,88.7z M339,83.3h3.3V83c0-1.4-0.2-2.9-0.5-4.3H339V83.3L339,83.3z M331,83.3h7.3v-4.7h-8.5
				c0.9,1.3,1.3,2.8,1.3,4.3L331,83.3L331,83.3z M308.5,83.3h7.3V83c0-1.5,0.5-3,1.3-4.3h-8.6V83.3z M304.5,83.3h3.3v-4.7H305
				c-0.3,1.4-0.4,2.9-0.4,4.3v0.3L304.5,83.3z M333.8,78h8c-0.5-1.6-1.1-3.2-2-4.6h-6V78z M329.3,78h3.9v-4.6h-9.3v2
				C325.9,75.5,327.9,76.4,329.3,78z M313.9,78h3.8c1.4-1.6,3.3-2.5,5.4-2.7v-2h-9.3V78z M305.3,78h8v-4.6h-6
				C306.4,74.8,305.7,76.4,305.3,78L305.3,78z M328.5,72.7h10.9c-1.1-1.8-2.6-3.3-4.3-4.6h-6.6V72.7z M319.2,72.7h8.6v-4.6h-8.6
				V72.7z M307.6,72.7h10.9v-4.6h-6.6C310.2,69.4,308.8,71,307.6,72.7L307.6,72.7z M323.8,67.4h10.4c-3-2.1-6.6-3.3-10.4-3.3V67.4z
				 M312.8,67.4h10.4v-3.3C319.5,64.2,315.9,65.3,312.8,67.4L312.8,67.4z M323.5,61.4c-0.2,0-0.3-0.1-0.3-0.3c0,0,0,0,0,0v-7.9
				c0-0.1,0.1-0.2,0.1-0.3c0.1-0.1,0.2-0.1,0.3,0l6,2.7c0.1,0.1,0.2,0.2,0.2,0.3c0,0.1-0.1,0.3-0.2,0.3l-3.3,1.5
				c-0.2,0.1-0.3,0-0.5-0.2s0-0.3,0.2-0.5l2.7-1.2l-4.9-2.1v7.4C323.9,61.3,323.8,61.4,323.5,61.4C323.5,61.5,323.5,61.5,323.5,61.4
				L323.5,61.4z"/>
			<text transform="matrix(1 0 0 1 302.87 114.62)" class="st6 st7 st8">500</text>
			<text transform="matrix(1 0 0 1 302.87 114.62)" class="st9 st7 st8">500</text>
		</g>
		<g id="Tustra">
			<path class="st0" d="M465.9,40.2c-0.6-0.3-1.1-0.7-1.4-1.2c-0.6-0.7-1.4-1.1-2.3-1.3c-1.4-1.5-2.4-3.4-2.8-5.5
				c1.9-1,2.6-5.2-0.4-5.6c-1.3,1.2-2.6,2.5-3.7,3.9c-2.1,2.4-3.3-1.8-5.3-2c1.8-0.5-0.6-1.6-1.3-1.9c0.1-1.5,4.6,1.8,3.6-1.4
				c-1.5-1.3-0.5-6.3-3.3-4.6c-0.5,1.9-1.8,2.4-3.1,3.2c-0.7,0.7-1.1,2-1.7,3.5c-1.8-0.5-3.1,0.3-4.7-0.5c-1,0.4-1.9-2-3.4-0.9
				c-2-0.7-2.7-4.4-1.1-5.4c1-1.3,3.6-2.8,2.5-4.7c1.4,0.3,0.1-0.7-0.6-1.6c-1,1.3-4.2,0-4,1.9c1.1,3.1-2.3,2.2-3.5,0.6
				c-1.9-1-3.9-1.8-5.9-2.4c1.4-0.5,1.3-2.1,1.9-3.2c0.7-3.2-5.4-1.4-4.6,1.3c-0.8-1.2-2.8-1.1-3.5-2.3c-1.2,0.3-2.3-0.6-3-0.7
				c-1.3-0.9-3.2,1.1-4.3-1c-1.6-0.3-1.8-2.7-1.7-3.1c0.5-1.8-1.6-1.3-2.2-1.7c-3.1-1,0,2,1.3,1.8c1,2.2-1.3,0.7-1.3,1.5
				c-1.8,1-3.7,1-4.6,3.5c-0.4,2.9-2.2,3.4-4.2,1.6c-1.1,0.4-1.6-1.7-2.4-2c-2-1.7-3.7-2.8-4.6-5.4c0.3-0.7-0.3-2.1-0.8-3.3
				c-1.1-2.3-4.4,0.6-2.2,2.1c1.4,2.5-1.4,0.3-1.6,1.3c-0.8,1.2-4.3,1.9-5.1-0.3c1-1.3,1.9-5.3-1.1-3.6c-2.7,0.9,1.6,5.8-0.7,4.8
				c-1.1,1-3.2-1-3.9,0.7c-1.6-0.4-2.7,0.2-4.2,0.1c-1-0.3-3,0.3-4.6-0.1c-1.6,1.8-3,0-4,1.5c-2,0.3-4,0.8-5.9,1.4
				c-1.8-0.5-4,0.4-5.4,1.3c-2.5,1-4.9,2.3-7.2,3.7c-2.3,1.6-3.5,3.9-4.6,6.4s-0.9-0.7-2.9-0.7c1.4-1.5,0.2-7.4-2-4.5
				c0.5,2.2-1.4,1.9-2.5,1.9c-0.4-0.1-0.5-0.2-0.5-0.3c-0.1,0.3-0.3,0.6-0.5,0.8c-0.6-0.7-2.5-1.6-3.1-3c-0.3,0-2.9-0.1-1.6,1.6
				c-1.1-1.6-2.3-0.6-1.5,0.7c-1,0.1-0.6,2.6-1.6,0.8c0.3-1.1-1.7-3.3-1.8-1.9c0.1,1.3-1.9-0.5-3,0.3c-2.3-0.2-5.9,0.9-7.1,0.9
				c-2.7,0.3,1-1.8-0.5-3.1c1.5-1,1.6-2.5,2.1-3.8c1.3-3.1-4.4-4.3-4.5-1.3c-0.2,4.2-3.3-1.1-5.4,0.9c-2.8,0.4-1.6,2.2-0.7,3.7
				c3.8,1.4-0.4,6,2,8.3c4.4,3.9,9.6,6.8,15.3,8.5c16,4,33,6,45,18c6.3,6,10.3,14,11.5,22.6c0.3,2.2,0.2,13.8-1.4,21
				c11.1,2.3,20.8,10.1,32.3,10.8c10.8,2,17.7-5.7,25.5-9.8l0,0c6.8-1.9,14.3-4.1,17.1-10.7c4-10-1-22,3-31
				c2.5-5.7,8.6-8.2,15.3-10.7C467.1,40.7,466.5,40.5,465.9,40.2z"/>
			<line class="st1" x1="392.7" y1="57.4" x2="424.3" y2="57.4"/>
			<path class="st2" d="M389.4,48.5v6h38.5v-6c-0.2-10.6-9.1-19-19.7-18.8C398,30,389.7,38.3,389.4,48.5z"/>
			<path class="st3" d="M408.7,43.9c-2.5,0-4.6,2-4.7,4.5c0,0,0,0.1,0,0.1v6h9.3v-6C413.3,46,411.2,43.9,408.7,43.9
				C408.7,43.9,408.7,43.9,408.7,43.9"/>
			<polygon class="st4" points="408.7,18.7 408.7,24 414.6,21.4 			"/>
			<path class="st5" d="M427.9,54.8h-14.6c-0.2,0-0.3-0.1-0.3-0.3c0,0,0,0,0,0v-6c0-2.4-1.9-4.3-4.3-4.3c-2.4,0-4.3,1.9-4.3,4.3v6
				c0,0.2-0.1,0.4-0.3,0.4s-0.4-0.1-0.4-0.3c0,0,0-0.1,0-0.1v-6c0.3-2.7,2.7-4.8,5.5-4.5c2.4,0.2,4.2,2.1,4.5,4.5v5.6h4.6v-4.6h-2
				v2.3c0,0.2-0.2,0.3-0.4,0.3c-0.1,0-0.3-0.1-0.3-0.3v-3.3c-0.4-3.8-3.8-6.7-7.7-6.3c-3.3,0.3-5.9,3-6.3,6.3v6
				c0,0.2-0.1,0.3-0.3,0.3c0,0,0,0,0,0h-11.9c-0.2,0-0.3-0.1-0.3-0.3c0,0,0,0,0,0v-6c0-1.6,0.2-3.2,0.6-4.7v-0.1
				c0.5-1.9,1.2-3.7,2.2-5.3c0-0.1,0.1-0.1,0.1-0.1c1.2-2,2.8-3.8,4.7-5.3c0-0.1,0.1-0.1,0.1-0.1c3.4-2.6,7.6-4,11.9-4
				c4.3,0,8.4,1.4,11.9,4c0.1,0,0.1,0.1,0.1,0.1c1.9,1.5,3.5,3.3,4.7,5.3c0,0.1,0.1,0.1,0.1,0.1c1,1.6,1.7,3.4,2.2,5.3v0.1
				c0.4,1.5,0.6,3.1,0.6,4.7v6C428.3,54.7,428.1,54.9,427.9,54.8C427.9,54.9,427.9,54.9,427.9,54.8z M418.9,54.2h8.6v-4.6H419
				L418.9,54.2z M399,54.2h2v-4.6h-2V54.2z M389.7,54.2h8.6v-4.6h-8.6V54.2z M424.2,48.9h3.3v-0.3c0-1.4-0.2-2.9-0.5-4.3h-2.9V48.9z
				 M416.2,48.9h7.3v-4.7H415c0.9,1.3,1.3,2.8,1.3,4.3v0.3H416.2z M393.7,48.9h7.3v-0.3c0-1.5,0.5-3,1.3-4.3h-8.6L393.7,48.9z
				 M389.7,48.9h3.3v-4.7h-2.9c-0.3,1.4-0.5,2.9-0.5,4.3V48.9z M419,43.6h8c-0.5-1.6-1.1-3.2-2-4.6h-6V43.6z M414.5,43.6h3.9v-4.6
				H409v2C411.1,41,413.1,42,414.5,43.6L414.5,43.6z M399.1,43.6h3.9c1.4-1.6,3.3-2.5,5.4-2.7v-2h-9.3V43.6z M390.5,43.6h8v-4.6h-6
				C391.6,40.4,390.9,41.9,390.5,43.6L390.5,43.6z M413.7,38.3h10.9c-1.1-1.8-2.6-3.3-4.2-4.6h-6.6V38.3z M404.4,38.3h8.6v-4.6h-8.6
				L404.4,38.3z M392.9,38.3h10.8v-4.6h-6.6C395.4,34.9,394,36.5,392.9,38.3L392.9,38.3z M409,33h10.4c-3-2.1-6.6-3.3-10.4-3.4V33z
				 M398,33h10.4v-3.4C404.6,29.7,401,30.9,398,33z M408.7,27c-0.2,0-0.3-0.1-0.3-0.3c0,0,0,0,0,0v-8c0-0.1,0-0.2,0.1-0.3
				c0.1-0.1,0.2-0.1,0.3,0l6,2.6c0.1,0.1,0.2,0.2,0.2,0.3c0,0.1-0.1,0.3-0.2,0.3l-3.3,1.5c-0.2,0.1-0.4,0-0.5-0.2
				c-0.1-0.2,0-0.3,0.2-0.5l2.6-1.2l-4.9-2.1v7.4C409,26.8,408.9,27,408.7,27C408.7,27,408.7,27,408.7,27z"/>
			<text transform="matrix(1 0 0 1 388.04 80.15)" class="st6 st7 st8">500</text>
			<text transform="matrix(1 0 0 1 388.04 80.15)" class="st9 st7 st8">500</text>
		</g>
		<g id="Sopore">
			<path class="st0" d="M517.7,125.2c6.5-2.2,12.5-5.5,17.9-9.8c17.9-15,34-32.8,45.8-53.1c-1.1-1-3,1.2-3.7,0
				c2.7-1.7-1.4-2.8-3-3.8c-2-0.7-1.1,2.8-2,2.1c-2,0.5,0.4-1.3-1.5-1.4c-1.3-2-1.9-1.3-3.5-1.7c-1.2-1.2-2.4-2.6-3.5-2.5
				c-0.8-0.2-3.5-0.6-4.4,1.5c-1.5-0.9-3.7-2.5-5.7-2.6c-2.5-0.7-2.8-0.8-5,0.2c-1.3-1.8-2.8-0.8-4.6-2c-1-0.6-3.7,0.8-3.7,2.4
				c-0.8,0.4-0.8,2.6-1.9,1.9c0,0.8-0.3,1.5-0.9,2.1c-0.5,0.5-1.2,0.9-2,0.9c0.8,1.6-0.3,0.1-0.7,1c0,0.1,0,0.2-0.1,0.3
				c0-0.1,0.1-0.2,0.1-0.3c0.3-1.1-0.5-0.5-1.3-0.2c-0.8-1.2-2.1-0.8-2.8,1c-0.8,0.5-4.2-0.6-3.3,2.4c-0.8,2.7-2.2-2.1-1.3-3.1
				c-1.9-0.3,0.9-1.4,0-2.7c1.5-0.1,2.5-1.6-0.2-2.5c1.7-0.4-0.2-1.7-1.4-1c-0.5-2-1.3,0-1.9,0.1c-3,1.3,0.9-1.7-0.6-2.8
				c1.4-0.9-0.2-2.1-1.2-2.7c0.5,1.5-0.6,0.3-1,0.8c0.1-1.7-2.1-1.7-3.3-2.3c-2.2,0.6-1.8-2.7-0.4-2.1c0.9-1.3,0.9-2.6,2.7-3.9
				c-0.2-1.5-0.5-3.9-1.2-4.5c-0.2,0.9-3.2-0.7-3.2-2.1c-1.3-2.4,0.8,0,2-1.4c0.6-1.5,3.5,0.8,3.4-1.9c-1.4-1-2.2-2.8-4.1-3.5
				c-1.8-0.5-3.7-0.4-5.4,0.2c-1.9,1.7-2.7,4.4-2,6.8c-0.8,2.9-2.5,4.6-4.6,6.2c0,2.5-3.6,2.1-5.5,1.3c-1.5-0.2-3.8,0.1-5.4-1.5
				c-1.7,0.3-3.6-1.7-4.4-1.1c-0.9-0.7-2.1,0.1-2.8-0.5c-2.5,0.4-4.9,1.3-7.6,1.1c-0.5-0.2-3-0.2-4.2-1.1c-0.5,1.9-3.7-0.8-2.5,1.7
				c-0.6,1.7-1.4-0.5-1.8-0.8c-0.7,0.2-1.5,0.4-2.2,0.3c-6.6,2.6-12.7,5.1-15.3,10.7c-4,9,1,21-3,31c-2.9,6.7-10.3,8.8-17.1,10.8
				c17.8,18.5,40.8,32.9,63.7,34.5c3.6,0.3,7.2,0.2,10.8-0.2C514.1,127,517.7,125.2,517.7,125.2z"/>
			<line class="st1" x1="481.3" y1="91.6" x2="512.9" y2="91.6"/>
			<path class="st2" d="M478,82.7v6h38.5v-6c0.2-10.6-8.2-19.4-18.8-19.7c-10.6-0.2-19.4,8.2-19.7,18.8C478,82.2,478,82.4,478,82.7
				L478,82.7z"/>
			<path class="st3" d="M497.3,78.1c-2.5,0-4.6,2-4.6,4.6c0,0,0,0,0,0.1v6h9.3v-6C501.9,80.2,499.9,78.1,497.3,78.1
				C497.3,78.1,497.3,78.1,497.3,78.1"/>
			<polygon class="st4" points="497.3,52.9 497.3,58.2 503.3,55.5 			"/>
			<path class="st5" d="M516.5,89h-14.6c-0.2,0-0.3-0.1-0.3-0.3c0,0,0,0,0,0v-6c0-2.4-1.9-4.3-4.3-4.3c-2.4,0-4.3,1.9-4.3,4.3v6
				c0,0.2-0.1,0.3-0.3,0.3c-0.2,0-0.3-0.1-0.3-0.3v-6c0.3-2.7,2.7-4.8,5.5-4.5c2.4,0.2,4.2,2.1,4.5,4.5v5.6h4.6v-4.6h-2v2.3
				c0,0.2-0.1,0.3-0.3,0.3c-0.2,0-0.3-0.1-0.3-0.3v-3.3c-0.4-3.8-3.8-6.7-7.7-6.3c-3.3,0.3-5.9,3-6.3,6.3v6c0,0.2-0.2,0.3-0.3,0.3
				h-12c-0.2,0-0.3-0.1-0.3-0.3c0,0,0,0,0,0v-6c0-1.6,0.2-3.2,0.6-4.7v0c0.5-1.9,1.2-3.6,2.2-5.3c0-0.1,0.1-0.1,0.1-0.1
				c1.2-2,2.8-3.8,4.7-5.3c0-0.1,0.1-0.1,0.1-0.1c3.4-2.6,7.6-4,11.9-4c4.3,0,8.5,1.4,11.9,4c0.1,0,0.1,0.1,0.1,0.1
				c1.9,1.4,3.5,3.2,4.7,5.3c0,0.1,0.1,0.1,0.1,0.1c1,1.6,1.7,3.4,2.2,5.3v0c0.4,1.5,0.6,3.1,0.6,4.7v6
				C516.8,88.9,516.7,89,516.5,89C516.5,89,516.5,89,516.5,89z M507.5,88.3h8.6v-4.6h-8.6V88.3z M487.6,88.3h2v-4.6h-2V88.3z
				 M478.3,88.3h8.7v-4.6h-8.6L478.3,88.3z M512.8,83h3.3v-0.3c0-1.4-0.2-2.9-0.5-4.3h-2.8L512.8,83L512.8,83z M504.8,83h7.3v-4.6
				h-8.6c0.9,1.3,1.3,2.8,1.3,4.3L504.8,83L504.8,83z M482.3,83h7.3v-0.3c0-1.5,0.5-3,1.4-4.3h-8.6L482.3,83z M478.3,83h3.3v-4.6
				h-2.9c-0.3,1.4-0.5,2.9-0.5,4.3V83L478.3,83z M507.5,77.7h8c-0.5-1.6-1.1-3.2-2-4.7h-6V77.7z M503,77.7h3.9v-4.6h-9.3v2
				C499.6,75.2,501.6,76.2,503,77.7L503,77.7z M487.6,77.7h3.9c1.4-1.6,3.4-2.6,5.6-2.6v-2h-9.3L487.6,77.7z M478.9,77.7h8v-4.6h-6
				C480.1,74.6,479.4,76.1,478.9,77.7L478.9,77.7z M502.2,72.4H513c-1.1-1.8-2.6-3.3-4.3-4.6h-6.6L502.2,72.4L502.2,72.4z
				 M492.9,72.4h8.6v-4.6H493L492.9,72.4z M481.3,72.4h10.9v-4.6h-6.6c-1.6,1.3-3,2.9-4.1,4.6L481.3,72.4z M497.5,67.1H508
				c-3-2.1-6.6-3.3-10.4-3.3L497.5,67.1z M486.5,67.1H497v-3.3C493.3,63.9,489.7,65,486.5,67.1L486.5,67.1z M497.2,61.1
				c-0.2,0-0.3-0.1-0.3-0.3c0,0,0,0,0,0v-8c0-0.1,0-0.2,0.1-0.3c0.1-0.1,0.2-0.1,0.3,0l6,2.7c0.1,0.1,0.2,0.2,0.2,0.3
				c0,0.1-0.1,0.3-0.2,0.3l-3.3,1.5c-0.2,0.1-0.3,0-0.5-0.2c-0.1-0.2,0-0.4,0.2-0.5l2.7-1.2l-4.9-2.1v7.4c0.1,0.2,0,0.3-0.2,0.4
				C497.4,61.2,497.3,61.2,497.2,61.1L497.2,61.1z"/>
			<text transform="matrix(1 0 0 1 476.64 114.35)" class="st6 st7 st8">500</text>
			<text transform="matrix(1 0 0 1 476.64 114.35)" class="st9 st7 st8">500</text>
		</g>
		<g id="Caydo">
			<path class="st0" d="M516.5,168.4c14,15.9,34.2,23.9,54.8,27.4c-0.6-0.8-0.9-1.6,0.5-2.1c2.4,0.6,4.7,2.2,7.1,0.3
				c2.2-0.7,4.9-0.7,7-1.8c1.3-1.3,2.8-0.5,4.5-0.9c1.9-1.7,3.1,1.2,5-0.1c-0.3-0.8,3.7-1.4,4.8,0.3c1.2-1.5,1.9,2.2,2.2,0.5
				c1.1-0.7,3.8,1.8,5.9,0.1c1.9,0.6,4.1-0.5,6.5-1c2.7-1.7-0.2-3.5-2.2-3.1c1.9-1.4-0.8-1.8-0.6-3.4c0.9-0.1-0.4-1.7,1.4-1.4
				c1.1-1-1-1.3-0.5-2.7c0.8,2,4.3-0.9,4.7,1.4c1.7,0.2,2.8,1.3,4.5,0.1c-0.3,0.9-2.4,2.5-2.7,3.6c-0.8,2.6,5.3,3.1,4.5,0.2
				c0.3,2.5,3.5,1.3,2.6-0.9c-1.2-2.1,1.1-0.1,1.6-1.5c2.3-1.2,0.6,2.1,2.4,2.4c-1.5,2.6,4.1,2.1,2.8-0.2c0.2-2.1,2.2-1,2.8,0.3
				c2.7,0.6,0.1-2,0.6-2.8s2.4,1.4,2.9,1.1c0.3-0.6,2-1.7,2.3,0.2c0.5,2.5,3.3-0.3,4.1-2c1.5-2.6,4.8-2,7-3.3c0.6-3-3.7-1.8-3.7-4.1
				c-1.3-1.8-1.3-3-1.3-5c-1.5-2,0.3-4.2-1.6-5.9c-1.5-1.9-1-4.9-2-6.7c0.4-2.5-1.9-4.7-1.5-6.6c0.3-3.2-0.6-6.6-3.1-8.5
				c-3.5,0-1.8-4-2.7-5.6c0.1-2-4.2-2.4-1.7-4.2c-0.2-1.5-0.3-2.9-0.2-4.4c-2-0.9-1.8-5.2-4.2-3.3c-0.6-0.4-0.5-0.7-1.4,0.5
				c0-1.7,1.2-2.2-0.2-3.5c1.2,0.1,1.4-1.9,1-3.2c1-2.6,1,0.3,1.3,1.4c1.4,0.7,1.3-0.9,1.1-2.6c-2.1-0.3,0-2.5-2-2.5
				c-3-0.8,2.2-0.2,0.5-1.4c0.6-1.9-0.1-4.4-1.8-3.8c-0.8-1.3-1.7-3.9-4.3-3.9c-1.1,0.4-3.8,1-3.7,0.6c0.8-1,3.9-1.9,0.8-2.5
				c-0.9-2.7,3.8,2,4.7,0c-0.2-0.6,1.6-1.7,1.5,0.5c0.6,1.9,1.9,0,0.8-0.8c0.3-0.4,0.5-0.5,0.6-0.5c-0.1-0.2-0.2-0.4-0.3-0.7
				c1.8,1.3,0.7-0.9,0.8-1.6c-0.7-1.4,0.6-0.6,0.6-1.5c1.7-0.8-0.3,4.2,1.5,2.5c-0.5,0.6-1.1,2.4,0.5,3c-0.2,1.5,1.2,1.5,2.5,0.9
				c1-1.3,1-6.2-1.2-6c0.2-1.4,1-1.8,1.1-3.1c0.6-2.3,1.8-4,1.2-6.4c-0.8-2.9-2.1-5.5-4-7.8c-0.7-2.9-4.4-3.4-6-5.8
				c-0.7-1.1-1.7-2-2.8-2.8c-1.1-0.7-2.4-1.2-3.7-1.4c-2.5,1.3-3.5-2.9-6.3-3c-2-0.2-6.9,1.7-5,4c-0.6,0.7,2.5,1.3,1,2.1
				c-2.5-0.6-3.2-1-4.1,1c0.5,0.6,1.4,3.7,0.1,2.8c-1,0.3-0.7,0.3-1.1-1c-1.4,3,0-4.7-2.9-2.9c-2.6,0.4-1.5-1.1,0.3-1
				c2.4-1.7-1.5-2.5-0.8-4.3c0.6,0,1.5,0.1,1.8-1c-0.2-1-2.6-1.7-3.9-2.5c-3.4-1.7-4.3,4.3-0.6,4.1c-0.2,0.5,1.8,2.6,0.1,1.8
				c1.1,1.3-1.4-0.1-1.4,1.2v0.2c-0.6-0.4-0.2-0.2,0-0.2l-0.2-0.1c-0.8,0.1-3.4-3.3-4.7-0.6c-1,2.5-3.6,3.9-6.2,3.4
				c-0.3-2.3,3.2-2,3.7-2.9c0.4-1.9-1.8-3.5-4.3-3.1c-0.9-1.9,0.3-0.8,1.5-0.4c2.1-1.2-2.9-2.3-1.5-2.5c0.7,0.7-0.4-0.5,0.7-0.4
				c0.3,1.1,2.2-0.2,0.8-0.7c-2,0-0.7-1.7,0.5-0.6c0.4-0.2,2.6,1.2,2-0.2c-1.5-1.2,0.1-3.1-1.5-3.8c-1.1-3.2-5.3,0.4-4,2
				c1.3,2.5-0.9-0.8-1.4,1c-1.5,1.4-0.4-0.7-0.7-1.5c-0.1-0.3-0.3-0.7-0.6-0.9c-11.8,20.4-27.9,38.1-45.8,53.1
				c-5.3,4.2-11.3,7.5-17.7,9.6C506.7,136.4,507.6,156.8,516.5,168.4z"/>
			<line class="st1" x1="567.7" y1="140.4" x2="599.4" y2="140.4"/>
			<path class="st2" d="M564.5,131.6v6H603v-6c-0.2-10.6-9.1-19-19.7-18.8C573,113,564.8,121.3,564.5,131.6L564.5,131.6z"/>
			<path class="st3" d="M583.7,126.9c-2.6,0-4.6,2-4.6,4.6c0,0,0,0,0,0v6h9.3v-6C588.4,129,586.3,126.9,583.7,126.9
				C583.8,126.9,583.8,126.9,583.7,126.9"/>
			<polygon class="st4" points="583.7,101.7 583.7,107 589.7,104.4 			"/>
			<path class="st5" d="M603,137.9h-14.6c-0.2,0-0.3-0.1-0.3-0.3c0,0,0,0,0,0v-6c-0.1-2.4-2.1-4.2-4.5-4.1c-2.2,0.1-4,1.9-4.1,4.1v6
				c0,0.2-0.2,0.3-0.3,0.3c-0.2,0-0.3-0.1-0.3-0.3v-6c0-2.8,2.2-5,5-5s5,2.2,5,5v5.6h4.6v-4.6h-2v2.3c0,0.2-0.2,0.3-0.3,0.3
				c-0.2,0-0.3-0.1-0.3-0.3v-3.3c-0.4-3.8-3.8-6.7-7.7-6.3c-3.3,0.3-5.9,3-6.3,6.3v6c0,0.2-0.1,0.3-0.3,0.3c0,0,0,0,0,0h-12
				c-0.2,0-0.3-0.1-0.3-0.3c0,0,0,0,0,0v-6c0-1.6,0.2-3.2,0.6-4.7v-0.1c0.5-1.9,1.2-3.7,2.2-5.3c0-0.1,0.1-0.1,0.1-0.1
				c1.2-2,2.8-3.8,4.7-5.3c0-0.1,0.1-0.1,0.1-0.1c3.4-2.6,7.6-4,11.9-4c4.3,0,8.5,1.4,11.9,4c0.1,0,0.1,0.1,0.1,0.1
				c1.9,1.5,3.5,3.3,4.7,5.3c0,0.1,0.1,0.1,0.1,0.1c1,1.6,1.7,3.4,2.2,5.3v0.1c0.4,1.5,0.6,3.1,0.6,4.7v6
				C603.3,137.7,603.2,137.9,603,137.9C603,137.9,603,137.9,603,137.9z M594,137.2h8.6v-4.6H594V137.2z M574.1,137.2h2v-4.6h-2
				V137.2z M564.8,137.2h8.6v-4.6h-8.6V137.2z M599.3,131.9h3.3v-0.3c0-1.4-0.2-2.9-0.5-4.3h-2.8L599.3,131.9L599.3,131.9z
				 M591.3,131.9h7.3v-4.6H590c0.9,1.3,1.3,2.8,1.3,4.3V131.9z M568.8,131.9h7.3v-0.3c0-1.5,0.5-3,1.3-4.3h-8.6V131.9z M564.8,131.9
				h3.3v-4.6h-2.8c-0.3,1.4-0.5,2.9-0.5,4.3L564.8,131.9L564.8,131.9z M594,126.6h8c-0.5-1.6-1.1-3.2-2-4.6h-6V126.6z M589.5,126.6
				h3.8V122h-9.3v2C586.2,124.1,588.1,125,589.5,126.6L589.5,126.6z M574.1,126.6h3.9c1.4-1.6,3.3-2.5,5.4-2.7v-2h-9.3L574.1,126.6z
				 M565.5,126.6h8V122h-6C566.6,123.4,566,125,565.5,126.6L565.5,126.6z M588.7,121.3h10.9c-1.1-1.8-2.6-3.3-4.3-4.6h-6.6
				L588.7,121.3L588.7,121.3z M579.4,121.3h8.6v-4.6h-8.6V121.3z M567.9,121.3h10.9v-4.6h-6.6C570.5,118,569,119.5,567.9,121.3
				L567.9,121.3z M584.1,116h10.3c-3-2.1-6.6-3.3-10.3-3.3V116z M573.1,116h10.3v-3.3C579.7,112.7,576.1,113.9,573.1,116L573.1,116z
				 M583.7,110c-0.2,0-0.3-0.1-0.3-0.3c0,0,0,0,0,0v-8c0-0.1,0.1-0.2,0.1-0.3c0.1-0.1,0.2-0.1,0.3,0l6,2.7c0.1,0.1,0.2,0.2,0.2,0.3
				c0,0.1-0.1,0.3-0.2,0.3l-3.3,1.5c-0.2,0.1-0.4,0-0.5-0.2c-0.1-0.2,0-0.4,0.2-0.5l2.7-1.2l-4.8-2.1v7.4c0,0.2-0.1,0.4-0.3,0.4
				C583.8,110,583.8,110,583.7,110L583.7,110z"/>
			<text transform="matrix(1 0 0 1 563.11 163.18)" class="st6 st7 st8">500</text>
			<text transform="matrix(1 0 0 1 563.11 163.18)" class="st9 st7 st8">500</text>
		</g>
		<g id="Rilanor">
			<path class="st0" d="M432.4,93.2c-7.8,4.1-14.8,11.7-25.5,9.8c-11.5-0.8-21.2-8.6-32.3-10.8c-3.2,14.2-9.7,29-13.1,43.3
				c-0.8,4.2,1.1,8.4,1.8,12.6c1.1,0.4,2.1,0.9,3.2,1.4c15,7,20,26,16,42c-2,9-6,17-6,25c0.2,6.4,0.8,12.8,1.9,19.2
				c16.8-15.8,34.6-33.1,61.1-28.2c1.8,0.5,3.6,1.1,5.4,1.8c-6-7.9-7.3-18.7-0.4-24.8c17.7-18.6,43.9-30.3,51.6-56.7
				C473.3,126.1,450.2,111.7,432.4,93.2z"/>
			<line class="st1" x1="401.8" y1="149.7" x2="433.4" y2="149.7"/>
			<path class="st2" d="M398.5,140.9v6H437v-6c-0.2-10.6-9.1-19-19.7-18.8C407,122.3,398.8,130.6,398.5,140.9z"/>
			<path class="st3" d="M417.8,136.2c-2.5,0-4.6,2-4.6,4.6c0,0,0,0,0,0.1v6h9.3v-6C422.4,138.3,420.4,136.2,417.8,136.2
				C417.8,136.2,417.8,136.2,417.8,136.2"/>
			<polygon class="st4" points="417.8,111 417.8,116.3 423.7,113.7 			"/>
			<path class="st5" d="M437,147.2h-14.6c-0.2,0-0.3-0.1-0.3-0.3c0,0,0,0,0,0v-6c0-2.4-1.9-4.3-4.3-4.3c-2.4,0-4.3,1.9-4.3,4.3v6
				c0,0.2-0.1,0.3-0.3,0.3c-0.2,0-0.3-0.1-0.3-0.3l0,0v-6c0.3-2.7,2.7-4.8,5.5-4.5c2.4,0.2,4.2,2.1,4.5,4.5v5.6h4.6v-4.6h-2v2.3
				c0,0.2-0.1,0.3-0.3,0.3c-0.2,0-0.3-0.1-0.3-0.3v-3.3c-0.4-3.8-3.8-6.7-7.7-6.3c-3.3,0.3-5.9,3-6.3,6.3v6c0,0.2-0.1,0.3-0.3,0.3
				c0,0,0,0,0,0h-11.9c-0.2,0-0.3-0.1-0.3-0.3c0,0,0,0,0,0v-6c0-1.6,0.2-3.2,0.6-4.7v-0.1c0.5-1.9,1.2-3.7,2.2-5.3
				c0-0.1,0.1-0.1,0.1-0.1c1.2-2,2.8-3.8,4.7-5.3c0-0.1,0.1-0.1,0.1-0.1c3.4-2.6,7.6-4,11.9-4c4.3,0,8.5,1.4,11.9,4
				c0.1,0,0.1,0.1,0.1,0.1c1.9,1.5,3.5,3.3,4.7,5.3c0,0.1,0.1,0.1,0.1,0.1c1,1.6,1.7,3.4,2.2,5.3v0.1c0.4,1.5,0.6,3.1,0.6,4.7v6
				C437.3,147,437.2,147.2,437,147.2C437,147.2,437,147.2,437,147.2z M428,146.5h8.6v-4.6H428V146.5z M408.1,146.5h2v-4.6h-2V146.5z
				 M398.8,146.5h8.6v-4.6h-8.6V146.5z M433.3,141.2h3.3v-0.3c0-1.4-0.2-2.9-0.5-4.3h-2.9V141.2z M425.3,141.2h7.3v-4.6H424
				c0.9,1.3,1.3,2.8,1.3,4.3L425.3,141.2L425.3,141.2z M402.8,141.2h7.3v-0.3c0-1.5,0.5-3,1.3-4.3h-8.6V141.2z M398.8,141.2h3.3
				v-4.6h-2.9c-0.3,1.4-0.5,2.9-0.5,4.3V141.2z M428,135.9h8c-0.5-1.6-1.1-3.2-2-4.6h-6V135.9z M423.5,135.9h3.9v-4.6H418v2
				C420.2,133.4,422.1,134.3,423.5,135.9L423.5,135.9z M408.1,135.9h3.9c1.4-1.6,3.3-2.5,5.4-2.7v-2h-9.3L408.1,135.9z M399.5,135.9
				h8v-4.6h-6C400.6,132.7,400,134.3,399.5,135.9L399.5,135.9z M422.7,130.6h10.9c-1.1-1.8-2.6-3.3-4.2-4.6h-6.6V130.6z
				 M413.4,130.6h8.6V126h-8.6V130.6z M401.9,130.6h10.9V126h-6.6C404.5,127.3,403,128.8,401.9,130.6L401.9,130.6z M418,125.3h10.4
				c-3-2.1-6.6-3.2-10.3-3.3L418,125.3z M407,125.3h10.4V122C413.7,122,410.1,123.2,407,125.3L407,125.3z M417.7,119.3
				c-0.2,0-0.3-0.1-0.3-0.3c0,0,0,0,0,0v-8c0-0.1,0-0.2,0.1-0.3c0.1-0.1,0.2-0.1,0.3,0l6,2.7c0.1,0.1,0.2,0.2,0.2,0.3
				c0,0.1-0.1,0.3-0.2,0.3l-3.3,1.5c-0.2,0.1-0.3,0-0.5-0.2c-0.1-0.2,0-0.4,0.2-0.5l2.7-1.2l-4.9-2.1v7.5
				C418.1,119.2,418,119.3,417.7,119.3C417.8,119.3,417.8,119.3,417.7,119.3L417.7,119.3z"/>
			<text transform="matrix(1 0 0 1 397.12 172.48)" class="st6 st7 st8">500</text>
			<text transform="matrix(1 0 0 1 397.12 172.48)" class="st9 st7 st8">500</text>
		</g>
		<g id="Lisu">
			<path class="st0" d="M572.2,196.7c-0.3-0.3-0.5-0.6-0.8-0.9c-20.6-3.4-40.8-11.4-54.8-27.4c-8.9-11.6-9.9-32,1.4-43.3
				c-7,2.3-14.5,3.2-21.8,2.6c-7.6,26.4-33.9,38.1-51.6,56.7c-6.9,6.1-5.6,17,0.4,24.8c8.7,3.9,14.1,11.1,16.6,21.2
				c2,6.1,3.2,12.4,3.6,18.9c5.2-17.2,26.1-21,42.4-24.9c12-2,22,6,33,8c4.1,0.7,8.3,2.3,12.4,1.6c-0.1-4.5,1.1-8.9,3.6-12.6
				c4.2-7.6,7.7-18.6,14.6-23.2C570.9,197.7,571,197.2,572.2,196.7z"/>
			<line class="st1" x1="479.6" y1="195.3" x2="511.3" y2="195.3"/>
			<path class="st2" d="M476.4,186.5v6h38.5v-6c-0.2-10.6-9.1-19-19.7-18.8C484.9,167.9,476.6,176.2,476.4,186.5L476.4,186.5z"/>
			<path class="st3" d="M495.6,181.8c-2.6,0-4.6,2-4.6,4.6c0,0,0,0,0,0v6h9.3v-6C500.3,183.9,498.2,181.8,495.6,181.8
				C495.7,181.8,495.6,181.8,495.6,181.8"/>
			<polygon class="st4" points="495.6,156.6 495.6,161.9 501.6,159.3 			"/>
			<path class="st5" d="M514.9,192.8h-14.6c-0.2,0-0.3-0.1-0.3-0.3c0,0,0,0,0,0v-6c-0.1-2.4-2.1-4.2-4.5-4.1c-2.2,0.1-4,1.9-4.1,4.1
				v6c0,0.2-0.1,0.3-0.3,0.3c-0.2,0-0.3-0.1-0.3-0.3v-6c0-2.8,2.2-5,5-5s5,2.2,5,5v5.6h4.6v-4.6h-2v2.3c0,0.2-0.1,0.3-0.3,0.3
				c-0.2,0-0.3-0.1-0.3-0.3v-3.3c-0.4-3.8-3.8-6.7-7.7-6.3c-3.3,0.3-5.9,3-6.3,6.3v6c0,0.2-0.1,0.3-0.3,0.3c0,0,0,0,0,0h-12
				c-0.2,0-0.3-0.1-0.3-0.3c0,0,0,0,0,0v-6c0-1.6,0.2-3.2,0.6-4.7v-0.1c0.5-1.9,1.2-3.7,2.2-5.3c0-0.1,0.1-0.1,0.1-0.1
				c1.2-2,2.8-3.8,4.7-5.3c0-0.1,0.1-0.1,0.1-0.1c3.4-2.6,7.6-4,11.9-4c4.3,0,8.5,1.4,11.9,4c0.1,0,0.1,0.1,0.1,0.1
				c1.9,1.5,3.5,3.3,4.7,5.3c0,0.1,0.1,0.1,0.1,0.1c1,1.6,1.7,3.4,2.2,5.3v0.1c0.4,1.5,0.6,3.1,0.6,4.7v6
				C515.2,192.6,515.1,192.8,514.9,192.8C514.9,192.8,514.9,192.8,514.9,192.8z M505.9,192.1h8.6v-4.6h-8.6V192.1z M486,192.1h2
				v-4.6h-2V192.1z M476.7,192.1h8.6v-4.6h-8.6V192.1z M511.2,186.8h3.3v-0.3c0-1.4-0.2-2.9-0.5-4.3h-2.9L511.2,186.8L511.2,186.8z
				 M503.2,186.8h7.3v-4.6h-8.6c0.9,1.3,1.3,2.8,1.3,4.3V186.8z M480.7,186.8h7.3v-0.3c0-1.5,0.5-3,1.3-4.3h-8.6L480.7,186.8z
				 M476.7,186.8h3.3v-4.6h-2.9c-0.3,1.4-0.5,2.9-0.5,4.3L476.7,186.8L476.7,186.8z M505.8,181.5h8c-0.5-1.6-1.1-3.2-2-4.6h-6V181.5
				z M501.3,181.5h3.8v-4.6H496v2C498.1,179,500,179.9,501.3,181.5L501.3,181.5z M485.9,181.5h3.8c1.4-1.6,3.3-2.5,5.4-2.6v-2H486
				L485.9,181.5z M477.3,181.5h8v-4.6h-6C478.5,178.3,477.8,179.9,477.3,181.5L477.3,181.5z M500.5,176.2h10.9
				c-1.1-1.8-2.6-3.3-4.3-4.6h-6.6L500.5,176.2L500.5,176.2z M491.2,176.2h8.6v-4.6h-8.6V176.2z M479.7,176.2h10.9v-4.6H484
				C482.3,172.9,480.9,174.4,479.7,176.2L479.7,176.2z M495.9,170.9h10.4c-3-2.1-6.6-3.3-10.3-3.3L495.9,170.9z M484.9,170.9h10.3
				v-3.3c-3.7,0.1-7.2,1.2-10.2,3.3H484.9z M495.6,164.9c-0.2,0-0.3-0.1-0.3-0.3c0,0,0,0,0,0v-8c0-0.1,0.1-0.2,0.1-0.3
				c0.1-0.1,0.2-0.1,0.3,0l6,2.6c0.1,0.1,0.2,0.2,0.2,0.3c0,0.1-0.1,0.3-0.2,0.3l-3.3,1.5c-0.2,0.1-0.4,0-0.5-0.2
				c-0.1-0.2,0-0.4,0.2-0.5l2.7-1.2l-4.8-2v7.4c0,0.2-0.1,0.3-0.3,0.3C495.7,164.9,495.6,164.9,495.6,164.9L495.6,164.9z"/>
			<text transform="matrix(1 0 0 1 474.99 218.08)" class="st6 st7 st8">500</text>
			<text transform="matrix(1 0 0 1 474.99 218.08)" class="st9 st7 st8">500</text>
		</g>
		<g id="Renyt">
			<path class="st0" d="M444.9,209.3c-1.7-0.8-3.5-1.4-5.4-1.8c-26.5-4.9-44.4,12.4-61.1,28.2c3.4,24,7.9,51.6-20.2,59.6
				c3.6,10.5,5.1,22.2,4.9,34.1c26.8-5.7,51.6,10.1,78.4,15.1c13,3,26,4,36-5c7-5,5-16,1-21c-1.1-1.3-2.1-2.7-3-4.1l0,0
				c-17.5-26-4.5-55.4-14-83.9C459,220.4,453.6,213.1,444.9,209.3z"/>
			<line class="st1" x1="408.9" y1="283" x2="440.5" y2="283"/>
			<path class="st2" d="M405.6,274.1v6h38.5v-6c0.2-10.6-8.2-19.4-18.8-19.7c-10.6-0.2-19.4,8.2-19.7,18.8
				C405.6,273.5,405.6,273.8,405.6,274.1z"/>
			<path class="st3" d="M424.9,269.5c-2.6,0-4.6,2-4.6,4.6c0,0,0,0,0,0.1v6h9.3v-6C429.5,271.5,427.5,269.5,424.9,269.5
				C424.9,269.4,424.9,269.4,424.9,269.5"/>
			<polygon class="st4" points="424.9,244.3 424.9,249.6 430.8,246.9 			"/>
			<path class="st5" d="M444.1,280.4h-14.6c-0.2,0-0.3-0.1-0.3-0.3c0,0,0,0,0,0v-6c0.1-2.4-1.7-4.4-4.1-4.5
				c-2.4-0.1-4.4,1.7-4.5,4.1c0,0.1,0,0.3,0,0.4v6c0,0.2-0.1,0.3-0.3,0.3c-0.2,0-0.3-0.1-0.3-0.3v-6c-0.3-2.7,1.7-5.2,4.5-5.5
				c2.7-0.3,5.2,1.7,5.5,4.5c0,0.3,0,0.7,0,1v5.6h4.6v-4.6h-2v2.3c0,0.2-0.1,0.3-0.3,0.3c-0.2,0-0.3-0.1-0.3-0.3v-3.3
				c0.4-3.8-2.4-7.3-6.3-7.7c-3.8-0.4-7.3,2.4-7.7,6.3c0,0.5,0,0.9,0,1.4v6c0,0.2-0.1,0.3-0.3,0.3c0,0,0,0,0,0h-11.9
				c-0.2,0-0.3-0.1-0.3-0.3c0,0,0,0,0,0v-6c0-1.6,0.2-3.2,0.6-4.7v-0.1c0.5-1.9,1.2-3.7,2.2-5.3c0-0.1,0.1-0.1,0.1-0.1
				c1.2-2,2.8-3.8,4.7-5.3c0-0.1,0.1-0.1,0.1-0.1c3.4-2.6,7.6-4,11.9-4c4.3,0,8.5,1.4,11.9,4c0.1,0,0.1,0.1,0.1,0.1
				c1.9,1.5,3.5,3.3,4.7,5.3c0,0.1,0.1,0.1,0.1,0.1c1,1.6,1.7,3.4,2.2,5.3v0.1c0.4,1.5,0.6,3.1,0.6,4.7v6
				C444.4,280.3,444.3,280.4,444.1,280.4C444.1,280.4,444.1,280.4,444.1,280.4z M435.1,279.7h8.6v-4.6h-8.6V279.7z M415.2,279.7h2
				v-4.6h-2V279.7z M405.9,279.7h8.6v-4.6H406L405.9,279.7z M440.4,274.4h3.3v-0.3c0-1.5-0.2-2.9-0.5-4.3h-2.9V274.4z M432.4,274.4
				h7.3v-4.6h-8.6c0.9,1.3,1.3,2.8,1.3,4.3V274.4z M409.9,274.4h7.3v-0.3c0-1.5,0.4-3,1.3-4.3h-8.6V274.4z M405.9,274.4h3.3v-4.6
				h-2.9c-0.3,1.4-0.5,2.9-0.5,4.3L405.9,274.4L405.9,274.4z M435.1,269.1h8c-0.5-1.6-1.1-3.2-2-4.6h-6V269.1z M430.6,269.1h3.8
				v-4.6h-9.3v2C427.2,266.6,429.2,267.5,430.6,269.1L430.6,269.1z M415.2,269.1h3.8c1.4-1.6,3.3-2.5,5.4-2.6v-2h-9.3V269.1z
				 M406.5,269.1h8v-4.6h-6C407.7,265.9,407.1,267.5,406.5,269.1L406.5,269.1z M429.8,263.8h10.9c-1.1-1.8-2.6-3.3-4.3-4.6h-6.6
				V263.8z M420.5,263.8h8.6v-4.6h-8.6V263.8z M408.9,263.8h10.9v-4.6h-6.6C411.5,260.5,410.1,262,408.9,263.8L408.9,263.8z
				 M425.1,258.5h10.3c-3-2.1-6.6-3.3-10.3-3.3V258.5z M414.1,258.5h10.3v-3.3C420.8,255.2,417.2,256.4,414.1,258.5L414.1,258.5z
				 M424.8,252.5c-0.2,0-0.3-0.1-0.3-0.3c0,0,0,0,0,0v-8c0-0.1,0.1-0.2,0.1-0.3c0.1-0.1,0.2-0.1,0.3,0l6,2.7
				c0.1,0.1,0.2,0.2,0.2,0.3c0,0.1-0.1,0.3-0.2,0.3l-3.3,1.5c-0.2,0.1-0.4,0-0.5-0.2c-0.1-0.2,0-0.3,0.2-0.5l2.6-1.1l-4.8-2.1v7.4
				C425.2,252.4,425,252.5,424.8,252.5C424.9,252.5,424.9,252.5,424.8,252.5L424.8,252.5z"/>
			<text transform="matrix(1 0 0 1 404.22 305.7)" class="st6 st7 st8">500</text>
			<text transform="matrix(1 0 0 1 404.22 305.7)" class="st9 st7 st8">500</text>
		</g>
		<g id="Laly">
			<path class="st0" d="M611.5,299.4c24-21,8-52,17-76c0.5-2.2,1.6-4.2,3.1-5.8c-0.3-0.1-0.5-0.3-0.6-0.6c1.9-0.9-0.7-0.8-0.3-1.6
				c3-0.2-1.4-0.5-0.5-1.4c-0.6-1.5,0.7-0.1,1.6-1.3c2.2-2.1-1.4-2.1-1.9-2.8c1.3-1.4,0.2-2-1.5-2.1c-2.2,1-0.4-0.2-2.1-0.8
				c-2.2-2.5-3.7,0.4-5.8,1.3c-0.9-0.7-1.6-1.4-2.8-1.4c-2,1.5-0.7-1.8-2.1-1c1.1-0.7-0.4-1.1-0.9-1.7c-1.1,1-1.9,0.7-3.2,0.7
				c-0.2-0.8-3.1-1.1-4.2-0.2c0.7,2.2-1.3-0.6-2.5,0.2c-2.4-0.9-1.6,2.1-3.5,2.3c0-2.1-0.8-2.5-1.7-0.7c-0.4-1-2.9-1.4-2.7-3.3
				c0,2.3-2.4,2.7-3.6,0.8c0.5-1.9-2.7-2.1-2.3-1.3c-0.7,1.6-1.5,0-2.3-0.6c-2.8,2.6-0.8-2.8-3.7-2.4c0.4-1.3-1.9-2.5-3.5-2.6
				c-2.3,0.1-3.4,2.6-6.3,2.9c-1.3-0.2-3.4-1.1-4-2c-6.9,4.5-10.4,15.6-14.6,23.2c-2.5,3.7-3.8,8.2-3.7,12.6
				c0.1,11.6,7.1,24,5.6,36.4c-0.9,10.9-9.2,17.6-13,27l0.6,0.3c0.1-0.1,0.2-0.2,0.4-0.3c-0.1,0.1-0.2,0.2-0.4,0.3
				c11.8,5.4,22.6-3.3,34.4-6.3c15-3,29,6,30,21v-2C610.5,306.4,609.5,301.4,611.5,299.4z"/>
			<line class="st1" x1="571.8" y1="254.5" x2="603.5" y2="254.5"/>
			<path class="st2" d="M568.6,245.6v6h38.5v-6c0.2-10.6-8.2-19.4-18.8-19.7c-10.6-0.2-19.4,8.2-19.7,18.8
				C568.6,245,568.6,245.3,568.6,245.6z"/>
			<path class="st3" d="M587.8,241c-2.5,0-4.6,2-4.6,4.6c0,0,0,0,0,0.1v6h9.3v-6C592.5,243.1,590.5,241,587.8,241
				C587.9,241,587.9,241,587.8,241"/>
			<polygon class="st4" points="587.8,215.8 587.8,221.1 593.8,218.4 			"/>
			<path class="st5" d="M607.1,251.9h-14.6c-0.2,0-0.3-0.1-0.3-0.3c0,0,0,0,0,0v-6c0-2.4-1.9-4.3-4.3-4.3c-2.4,0-4.3,1.9-4.3,4.3
				c0,0,0,0,0,0v6c0,0.2-0.2,0.3-0.3,0.3c-0.2,0-0.3-0.1-0.3-0.3v-6c0-2.8,2.2-5,5-5s5,2.2,5,5v5.6h4.6v-4.6h-2v2.3
				c0,0.2-0.1,0.3-0.3,0.3s-0.3-0.1-0.3-0.3c0,0,0,0,0,0v-3.3c-0.4-3.8-3.8-6.7-7.7-6.3c-3.3,0.3-5.9,3-6.3,6.3v6
				c0,0.2-0.1,0.3-0.3,0.3c0,0,0,0,0,0h-12c-0.2,0-0.3-0.1-0.3-0.3c0,0,0,0,0,0v-6c0-1.6,0.2-3.2,0.6-4.7v-0.1
				c0.5-1.9,1.2-3.6,2.2-5.3c0-0.1,0.1-0.1,0.1-0.1c1.2-2,2.8-3.8,4.7-5.3c0-0.1,0.1-0.1,0.1-0.1c3.4-2.6,7.6-4,11.9-4
				c4.3,0,8.5,1.4,11.9,4c0.1,0,0.1,0.1,0.1,0.1c1.9,1.5,3.5,3.3,4.7,5.3c0,0.1,0.1,0.1,0.1,0.1c1,1.6,1.7,3.4,2.2,5.3v0.1
				c0.4,1.5,0.6,3.1,0.6,4.7v6C607.4,251.8,607.3,251.9,607.1,251.9C607.1,251.9,607.1,251.9,607.1,251.9z M598.1,251.3h8.6v-4.6
				h-8.6V251.3z M578.2,251.3h2v-4.6h-2V251.3z M568.9,251.3h8.6v-4.6H569L568.9,251.3z M603.4,245.9h3.3v-0.3
				c0-1.4-0.2-2.9-0.5-4.3h-2.8L603.4,245.9L603.4,245.9z M595.4,245.9h7.3v-4.6h-8.6c0.9,1.3,1.3,2.8,1.3,4.3V245.9z M572.8,245.9
				h7.3v-0.3c0-1.5,0.5-3,1.3-4.3h-8.6V245.9z M568.8,245.9h3.3v-4.6h-2.8c-0.3,1.4-0.5,2.9-0.5,4.3V245.9z M598,240.6h8
				c-0.5-1.6-1.1-3.2-2-4.6h-6V240.6z M593.5,240.6h3.8V236h-9.3v2c2.1,0.1,4.1,1,5.5,2.6H593.5z M578.1,240.6h3.8
				c1.4-1.6,3.3-2.5,5.4-2.7v-2h-9.3V240.6z M569.5,240.6h8V236h-6c-0.8,1.5-1.5,3-1.9,4.6H569.5z M592.7,235.3h11
				c-1.1-1.8-2.6-3.3-4.2-4.6h-6.6v4.6H592.7z M583.4,235.3h8.6v-4.6h-8.6V235.3z M571.9,235.3h10.9v-4.6h-6.6
				c-1.6,1.3-3,2.9-4.1,4.6H571.9z M588.2,230h10.3c-3-2.1-6.6-3.3-10.3-3.3V230z M577.2,230h10.3v-3.3
				C583.8,226.7,580.2,227.9,577.2,230L577.2,230z M587.9,224c-0.2,0-0.3-0.1-0.3-0.3c0,0,0,0,0,0v-8c0-0.1,0-0.2,0.1-0.3
				c0.1-0.1,0.2-0.1,0.3,0l6,2.6c0.1,0.1,0.2,0.2,0.2,0.3c0,0.1-0.1,0.3-0.2,0.3l-3.3,1.5c-0.2,0.1-0.3,0-0.5-0.2
				c-0.1-0.2,0-0.4,0.2-0.5l2.7-1.2l-4.8-2.1v7.4c0.1,0.2,0,0.3-0.2,0.4C588,224.1,587.9,224.1,587.9,224L587.9,224z"/>
			<text transform="matrix(1 0 0 1 567.21 277.22)" class="st6 st7 st8">500</text>
			<text transform="matrix(1 0 0 1 567.21 277.22)" class="st9 st7 st8">500</text>
		</g>
		<g id="Kide">
			<path class="st0" d="M544.5,335.4c6.9-11.9-12.6-26.7,1.6-37.7l-0.6-0.3c3.8-9.4,12.1-16.1,13-27c1.5-12.4-5.6-24.8-5.6-36.4
				c-4.1,0.7-8.2-1-12.4-1.6c-11-2-21-10-33-8c-16.3,3.8-37.3,7.7-42.4,24.9c1.7,22.4-3.2,44.7,10.4,65c0.9,1.4,1.9,2.8,3,4.1
				c4,5,6,16-1,21c-0.8,0.7-1.6,1.4-2.5,2h0.5c10-2.3,21.7-2.2,29.3,3.8C518.7,344.1,537,349.6,544.5,335.4z"/>
			<line class="st1" x1="494.2" y1="294.9" x2="525.8" y2="294.9"/>
			<path class="st2" d="M491,286v6h38.5v-6c-0.2-10.6-9.1-19-19.7-18.8C499.5,267.4,491.2,275.7,491,286z"/>
			<path class="st3" d="M510.2,281.3c-2.6,0-4.6,2-4.6,4.6c0,0,0,0,0,0.1v6h9.3v-6C514.8,283.4,512.8,281.4,510.2,281.3
				C510.2,281.3,510.2,281.3,510.2,281.3"/>
			<polygon class="st4" points="510.2,256.1 510.2,261.4 516.2,258.8 			"/>
			<path class="st5" d="M529.4,292.3h-14.6c-0.2,0-0.3-0.1-0.3-0.3c0,0,0,0,0,0v-6c-0.1-2.4-2.1-4.2-4.5-4.1c-2.2,0.1-4,1.9-4.1,4.1
				v6c0,0.2-0.1,0.3-0.3,0.3c-0.2,0-0.3-0.1-0.3-0.3v-6c0.3-2.7,2.7-4.8,5.5-4.5c2.4,0.2,4.2,2.1,4.5,4.5v5.6h4.6V287h-2v2.3
				c0,0.2-0.2,0.3-0.3,0.3c-0.2,0-0.3-0.1-0.3-0.3V286c-0.4-3.8-3.8-6.7-7.7-6.3c-3.3,0.3-5.9,3-6.3,6.3v6c0,0.2-0.1,0.3-0.3,0.3
				c0,0,0,0,0,0H491c-0.2,0-0.3-0.1-0.3-0.3c0,0,0,0,0,0v-6c0-1.6,0.2-3.2,0.6-4.7v-0.1c0.5-1.9,1.2-3.7,2.2-5.3
				c0-0.1,0.1-0.1,0.1-0.1c1.2-2,2.8-3.8,4.7-5.3c0-0.1,0.1-0.1,0.1-0.1c3.4-2.6,7.6-4,11.9-4c4.3,0,8.4,1.4,11.9,4
				c0.1,0,0.1,0.1,0.1,0.1c1.9,1.5,3.5,3.3,4.7,5.3c0,0.1,0.1,0.1,0.1,0.1c1,1.6,1.7,3.4,2.2,5.3v0.1c0.4,1.5,0.6,3.1,0.6,4.7v6
				C529.8,292.2,529.6,292.3,529.4,292.3C529.5,292.3,529.4,292.3,529.4,292.3z M520.5,291.6h8.6V287h-8.6V291.6z M500.6,291.6h2
				V287h-2V291.6z M491.3,291.6h8.6V287h-8.6V291.6z M525.8,286.3h3.3V286c0-1.4-0.2-2.9-0.5-4.3h-2.9V286.3L525.8,286.3z
				 M517.8,286.3h7.3v-4.6h-8.6c0.9,1.3,1.3,2.8,1.3,4.3V286.3L517.8,286.3z M495.2,286.3h7.3V286c0-1.5,0.5-3,1.3-4.3h-8.6V286.3z
				 M491.2,286.3h3.3v-4.6h-2.9c-0.3,1.4-0.5,2.9-0.5,4.3V286.3L491.2,286.3z M520.4,281h8c-0.5-1.6-1.1-3.2-2-4.6h-6V281z M516,281
				h3.8v-4.6h-9.3v2C512.7,278.5,514.6,279.4,516,281z M500.6,281h3.8c1.4-1.6,3.3-2.5,5.4-2.7v-2h-9.3V281z M492,281h8v-4.6h-6
				C493.1,277.8,492.4,279.4,492,281L492,281z M515.2,275.7H526c-1.1-1.8-2.6-3.3-4.3-4.6h-6.6L515.2,275.7L515.2,275.7z
				 M505.9,275.7h8.6V271h-8.6L505.9,275.7z M494.4,275.7h10.9V271h-6.6C496.9,272.3,495.5,273.9,494.4,275.7L494.4,275.7z
				 M510.6,270.4h10.3c-3-2.1-6.6-3.3-10.3-3.3L510.6,270.4z M499.6,270.4h10.3v-3.3C506.2,267.1,502.6,268.3,499.6,270.4
				L499.6,270.4z M510.2,264.4c-0.2,0-0.3-0.1-0.3-0.3c0,0,0,0,0,0v-8c0-0.1,0.1-0.2,0.1-0.3c0.1-0.1,0.2-0.1,0.3,0l6,2.7
				c0.1,0.1,0.2,0.2,0.2,0.3c0,0.1-0.1,0.3-0.2,0.3l-3.4,1.5c-0.2,0.1-0.3,0-0.5-0.2s0-0.3,0.2-0.5l2.7-1.2l-4.8-2.1v7.4
				C510.6,264.3,510.4,264.4,510.2,264.4C510.2,264.4,510.2,264.4,510.2,264.4L510.2,264.4z"/>
			<text transform="matrix(1 0 0 1 489.55 317.59)" class="st6 st7 st8">500</text>
			<text transform="matrix(1 0 0 1 489.55 317.59)" class="st9 st7 st8">500</text>
		</g>
		<g id="Sona">
			<path class="st10" d="M594.5,419.4c4-15-1-28-7-41c-3.8-9.5,1.5-18.1,9.8-21.5c14.2-9,14.2-29.4,13.3-44.5s-15-24-30-21
				c-11.8,3-22.6,11.7-34.4,6.3c-14.3,11,5.3,25.8-1.6,37.7c-7.6,14.2-25.9,8.7-39.7,9.8c2.5,1.9,4.4,4.4,5.7,7.3c6,17-5,35,4,51
				c2.7,4.4,8.5,4.9,10.4,9.2c18.2,4.7,34.7,15.1,53.6,15.8C585.5,429.4,593.5,426.4,594.5,419.4z"/>
			<line class="st1" x1="542.6" y1="371.4" x2="574.3" y2="371.4"/>
			<path class="st2" d="M539.4,362.5v6h38.5v-6c0.2-10.6-8.2-19.4-18.8-19.7c-10.6-0.2-19.4,8.2-19.7,18.8
				C539.4,362,539.4,362.2,539.4,362.5z"/>
			<path class="st3" d="M558.6,357.9c-2.6,0-4.6,2-4.6,4.6c0,0,0,0,0,0.1v6h9.3v-6C563.3,360,561.2,357.9,558.6,357.9
				C558.7,357.9,558.7,357.9,558.6,357.9"/>
			<polygon class="st4" points="558.6,332.7 558.6,338 564.6,335.3 			"/>
			<path class="st5" d="M577.9,368.8h-14.6c-0.2,0-0.3-0.1-0.3-0.3c0,0,0,0,0,0v-6c0-2.4-1.9-4.3-4.3-4.3c-2.4,0-4.3,1.9-4.3,4.3v6
				c0,0.2-0.2,0.3-0.3,0.3c-0.2,0-0.3-0.1-0.3-0.3v-6c0-2.8,2.2-5,5-5s5,2.2,5,5v5.6h4.6v-4.6h-2v2.3c0,0.2-0.1,0.3-0.3,0.3
				s-0.3-0.1-0.3-0.3c0,0,0,0,0,0v-3.3c0.4-3.8-2.4-7.3-6.3-7.7c-3.8-0.4-7.3,2.4-7.7,6.3c0,0.5,0,0.9,0,1.4v6
				c0,0.2-0.1,0.3-0.3,0.3c0,0,0,0,0,0h-12c-0.2,0-0.3-0.1-0.3-0.3c0,0,0,0,0,0v-6c0-1.6,0.2-3.2,0.6-4.7v-0.1
				c0.5-1.9,1.2-3.7,2.2-5.3c0-0.1,0.1-0.1,0.1-0.1c1.2-2,2.8-3.8,4.7-5.3c0-0.1,0.1-0.1,0.1-0.1c3.4-2.6,7.6-4,11.9-4
				c4.3,0,8.5,1.4,11.9,4c0.1,0,0.1,0.1,0.1,0.1c1.9,1.5,3.5,3.3,4.7,5.3c0,0.1,0.1,0.1,0.1,0.1c1,1.6,1.7,3.4,2.2,5.3v0.1
				c0.4,1.5,0.6,3.1,0.6,4.7v6C578.2,368.7,578.1,368.8,577.9,368.8C577.9,368.8,577.9,368.8,577.9,368.8z M568.9,368.2h8.6v-4.6
				h-8.6V368.2z M549,368.2h2v-4.6h-2V368.2z M539.7,368.2h8.6v-4.6h-8.6V368.2z M574.2,362.9h3.3v-0.3c0-1.4-0.2-2.9-0.5-4.3h-2.8
				L574.2,362.9L574.2,362.9z M566.2,362.9h7.3v-4.6h-8.6c0.9,1.3,1.3,2.8,1.3,4.3V362.9L566.2,362.9z M543.6,362.9h7.4v-0.3
				c0-1.5,0.5-3,1.3-4.3h-8.6L543.6,362.9z M539.6,362.9h3.4v-4.6h-2.8c-0.3,1.4-0.5,2.9-0.5,4.3L539.6,362.9L539.6,362.9z
				 M568.8,357.6h8c-0.5-1.6-1.1-3.2-2-4.6h-6V357.6z M564.3,357.6h3.8v-4.6H559v2c2.1,0.1,4,1.1,5.4,2.6H564.3z M548.9,357.6h3.8
				c1.4-1.6,3.3-2.5,5.4-2.6v-2H549L548.9,357.6z M540.3,357.6h8v-4.6h-6c-0.8,1.5-1.5,3-1.9,4.6H540.3z M563.5,352.3h10.9
				c-1.1-1.8-2.6-3.3-4.3-4.6h-6.6V352.3z M554.2,352.3h8.6v-4.6h-8.6V352.3z M542.7,352.3h10.9v-4.6H547c-1.7,1.3-3.1,2.9-4.2,4.6
				H542.7z M559,347h10.3c-3-2.1-6.6-3.3-10.3-3.4V347z M548,347h10.3v-3.3C554.6,343.7,551,344.9,548,347z M558.7,341
				c-0.2,0-0.3-0.1-0.3-0.3c0,0,0,0,0,0v-8c0-0.1,0.1-0.2,0.1-0.3c0.1-0.1,0.2-0.1,0.3,0l6,2.7c0.1,0.1,0.2,0.2,0.2,0.3
				c0,0.1-0.1,0.3-0.2,0.3l-3.3,1.5c-0.2,0.1-0.3,0-0.5-0.2s0-0.3,0.2-0.5l2.7-1.2l-4.9-2.1v7.4C559,340.8,558.9,341,558.7,341
				C558.7,341,558.7,341,558.7,341L558.7,341z"/>
			<text transform="matrix(1 0 0 1 537.99 394.14)" class="st6 st7 st8">500</text>
			<text transform="matrix(1 0 0 1 537.99 394.14)" class="st9 st7 st8">500</text>
		</g>
		<g id="Caba">
			<path class="st0" d="M692.4,364.2c-0.4,3.3-2-1.2-3.7-2c-1.6-0.5-0.4-4.4-1.9-2.5c-0.7-1,0.3-1.1,0.1-1.8
				c0.9,0.2,0.9-0.4,0.1-1.3c0.7-1.5-1-2-1.2-3.2c-2.3-1.4,1,0.3,0.8-0.8c-1.2-0.3-1.6-1.4-2.4-2.5c1.4-0.6,0.6-1-1.1-1.9
				c-2.8-0.3,1.7-1.4,1.7,0c1.6-1,1.7,0.6,2.4,1.7c2.5,1.2-2.4-4.4,0.4-3.1c3.3,1.6,0.9-3.2,0.6-4.1c-1.6-0.7-1.9-1.1-1-2.2
				c3.2-0.7,2.8-3.6,1.1-5.4c0.8-1-0.1-2.3,0.8-2.9c-1.2-0.5-0.4-2.6-1.6-3.5c0.6-0.9,1.5-1.1,2.8-1.8c2.5-2.6-1-5.3-2.2-7.6
				c-0.2-0.3,1.3-0.9-0.2-1.7c2,0.3,2.9-0.9,2.4-3.4c1.5-1.1-1.4-2-0.3-3.4c0-2,1.9-1.6,2-3.4s-2.1-4.6-0.8-5.4
				c-1.4-1.4-2-3.9-3.8-4.9c1.3-1.1,0.5-3-0.2-4.5c-0.2-0.8,0.4-2.6,0.6-3.9c1.3-2.3-2.6-4.3,0.4-5.1c-0.8-2.4-2-5.6-4-7.4
				c-1.7-1.2,0.3-4.1-1.6-5.9c-2-0.7-2.4-3.7-0.8-4.8c-1.4-1.2,1.4,0.2,0.2-1.8c-0.2-2.8-3-3-3.8-5.6c-1.4-0.8-2.3-3.6-4-1.8
				c-0.1,2.7-2.9-0.1-0.8-1c-0.8-1.7,0.1-4.4-2.4-5.1c1.2-1.6-0.4-2.6-1.1-4c-1.4-2.1-3.2-4.3-3.8-6.8c-2.3-2.4-2.8-4.7-5.2-7.2
				c-1.4-2.1-4.5-2.3-6.3-1.4c-0.1-0.4-1.5,1.1-1.5,1c-0.5-1.9-1.2-0.5-1.3-2.4c-1.8-1.6-2.1-0.5-3.6-0.3c0.1,0.2-2.2-0.4-2.9-1
				c-1.5-1.4-0.5-1.3-1-2.4c-0.5-1.8-1.5-0.4-1.9-1.9c-1.1,0.9-1.3-1.8-3-1.4c0.9-0.4,0.5-1.9-1.2-2.1c-1.4-2.6-3.4,1.9-5.2,0.1
				c-0.3-1.4-2.7-0.9-1.3-1.8c1.9-0.6,0.8-0.7,0-1.1c-1.5,1.6-2.6,3.6-3.1,5.8c-9,24,7,55-17,76c-2,2-1,7-1,11v2
				c1,15.2,1,35.8-13.6,44.7c1.9,0.2,3.8,0.6,5.6,1.3c27.6,8.5,64.1,24.3,90.9,7.8C693.7,365.4,693.7,364.6,692.4,364.2z"/>
			<line class="st1" x1="635.5" y1="314.5" x2="667.1" y2="314.5"/>
			<path class="st2" d="M632.2,305.6v6h38.5v-6c0.2-10.6-8.2-19.4-18.8-19.7c-10.6-0.2-19.4,8.2-19.7,18.8
				C632.2,305,632.2,305.3,632.2,305.6z"/>
			<path class="st3" d="M651.5,301c-2.5,0-4.6,2-4.6,4.6c0,0,0,0,0,0.1v6h9.3v-6C656.1,303.1,654.1,301,651.5,301
				C651.5,301,651.5,301,651.5,301"/>
			<polygon class="st4" points="651.5,275.8 651.5,281.1 657.4,278.4 			"/>
			<path class="st5" d="M670.7,311.9h-14.6c-0.2,0-0.3-0.1-0.3-0.3c0,0,0,0,0,0v-6c0-2.4-1.9-4.3-4.3-4.3s-4.3,1.9-4.3,4.3
				c0,0,0,0,0,0v6c0,0.2-0.2,0.3-0.4,0.3c-0.1,0-0.3-0.1-0.3-0.3v-6c0-2.8,2.2-5,5-5s5,2.2,5,5v5.6h4.7v-4.6h-2v2.3
				c0,0.2-0.1,0.3-0.3,0.3c0,0,0,0,0,0c-0.2,0-0.3-0.1-0.3-0.3c0,0,0,0,0,0v-3.3c0.4-3.8-2.4-7.3-6.3-7.7c-3.8-0.4-7.3,2.4-7.7,6.3
				c0,0.5,0,0.9,0,1.4v6c0,0.2-0.1,0.3-0.3,0.3c0,0,0,0,0,0h-12c-0.2,0-0.3-0.1-0.3-0.3c0,0,0,0,0,0v-6c0-1.6,0.2-3.2,0.6-4.7v-0.1
				c0.5-1.9,1.2-3.7,2.2-5.3c0-0.1,0.1-0.1,0.1-0.1c1.2-2,2.8-3.8,4.7-5.3c0-0.1,0.1-0.1,0.1-0.1c3.4-2.6,7.6-4,11.9-4
				c4.3,0,8.4,1.4,11.9,4c0.1,0,0.1,0.1,0.1,0.1c1.9,1.5,3.5,3.3,4.7,5.3c0,0.1,0.1,0.1,0.1,0.1c1,1.6,1.7,3.4,2.2,5.3v0.1
				c0.4,1.5,0.6,3.1,0.6,4.7v6C671,311.8,670.9,311.9,670.7,311.9C670.7,311.9,670.7,311.9,670.7,311.9z M661.7,311.3h8.6v-4.6h-8.6
				V311.3z M641.8,311.3h2v-4.6h-2V311.3z M632.5,311.3h8.6v-4.6h-8.6V311.3z M667,305.9h3.3v-0.3c0-1.4-0.2-2.9-0.5-4.3H667V305.9
				L667,305.9z M659,305.9h7.3v-4.6h-8.6c0.9,1.3,1.3,2.8,1.3,4.3V305.9L659,305.9z M636.5,305.9h7.3v-0.3c0-1.5,0.5-3,1.3-4.3h-8.6
				V305.9z M632.5,305.9h3.3v-4.6H633c-0.3,1.4-0.5,2.9-0.5,4.3L632.5,305.9L632.5,305.9z M661.6,300.6h8c-0.5-1.6-1.1-3.2-2-4.6h-6
				V300.6z M657.1,300.6h3.8V296h-9.2v2c2.1,0.1,4.1,1.1,5.4,2.6H657.1z M641.7,300.6h3.8c1.4-1.6,3.3-2.5,5.4-2.6v-2h-9.3V300.6z
				 M633.1,300.6h8V296h-6c-0.8,1.5-1.5,3-1.9,4.6H633.1z M656.3,295.3h10.9c-1.1-1.8-2.6-3.3-4.2-4.6h-6.6V295.3z M647,295.3h8.6
				v-4.6H647V295.3z M635.5,295.3h10.9v-4.6h-6.6c-1.6,1.3-3,2.9-4.1,4.6L635.5,295.3z M651.8,290h10.3c-3-2.1-6.6-3.3-10.3-3.3V290
				z M640.8,290h10.3v-3.3C647.4,286.7,643.8,287.9,640.8,290L640.8,290z M651.5,284c-0.2,0-0.3-0.1-0.3-0.3c0,0,0,0,0,0v-8
				c0-0.1,0-0.2,0.1-0.3c0.1-0.1,0.2-0.1,0.3,0l6,2.7c0.1,0.1,0.2,0.2,0.2,0.3c0,0.1-0.1,0.3-0.2,0.3l-3.3,1.5
				c-0.2,0.1-0.3,0-0.5-0.2s0-0.3,0.2-0.5l2.7-1.2l-4.8-2.1v7.4c0.1,0.2,0,0.3-0.2,0.4C651.6,284.1,651.5,284.1,651.5,284L651.5,284
				z"/>
			<text transform="matrix(1 0 0 1 630.8301 337.21)" class="st6 st7 st8">500</text>
			<text transform="matrix(1 0 0 1 630.8301 337.21)" class="st9 st7 st8">500</text>
		</g>
		<g id="Wistan">
			<path class="st10" d="M692.3,370.4c-0.4-1.3,0.7-2.9,1.1-4.1c-26.7,16.5-63.3,0.7-90.9-7.8c-1.8-0.7-3.7-1.2-5.6-1.3l0.3-0.2
				c-8.3,3.4-13.6,12-9.8,21.5c6,13,11,26,7,41c-1,7-9,10-16,9c-18.8-0.8-35.4-11.2-53.6-15.8c0.3,0.6,0.5,1.2,0.6,1.8
				c0.5,4.2,0.8,11.1-0.7,16.6c-1.7,6.2-5.8,10.5-5.8,11c9.3,14,7.8,27.8,0.6,40c10.4-5.3,23-7,30.9-1.7c1,0.7,2.1,1.3,3.1,1.8
				c20.9,11.7,41,7.5,62.9,15.2c3.3,1,6.2,2.9,8.3,5.5c0.2-0.3,0.1-0.8,0.7-0.5c1.4,1.6,2.9-0.3,2-1.8c1.7-2.2-0.6-2.8-1.3-4.8
				c0.4,0,0-2.3,0.7-1.9c-1.4-1.8,0.6-1,0.6-2c0.8,0.8,0.3-1.7,1.5,0.2c2.7-0.7,1.3-1.6,2.4-3.6c-1.3-1.1-0.6-1.8,0.6-3.2
				c0.5-2.4,2.3-4.7,1.5-7.2c1.4-0.9-1.5-1.7-0.3-2.3c-0.8-2.2,0.6-2,0.3-4c1.8-1.4,0.3-3.5,1-5.6c0.7-2.5,1.2-4.6,1.7-6.8
				c0,0.9,0.1-2.4,0.8-0.7c1.5-2.2,2.3,0.9,1.1,1.8c-0.9,2.6,0.7,4.8-0.6,7.5c-0.4,2.9,2.4-0.1,1.2-1.2c1-1.7-0.4-4.3,1.3-5.3
				c-0.9-1.6,0.3-2.3,1.2-4c0.5-3,1.9,2.9,1.8-0.6c1.9-0.8-0.4-3.2,0.6-3.5c1.8,0.6,0.4-1.1,1.6-1.4c-0.4-0.6,0.9-3.9,1.8-1.6
				c3.6,1.9-2.2-4.3,1-4c-0.3-0.5-0.3-1.6-0.5-2.6c1-0.1,0.3-2.3,1.3-3.1c-1.5-1.2-0.5-2.8-1.1-4.8c-0.8-2,1.9,1.3,0.8-0.1
				c1.3-0.7-0.6-2.5,0.2-2.5c-0.5-0.5-0.3-4.4,1.3-2.9c1,2,3.7,3.5,2,6.2c0.8,2.4-1.5,4.4-0.1,7c0.4,2.2,2.3,2.1,3.5,2.8
				c2.1-0.1,2.4-2.4,3.6-2.1c0.8-1.4,2-2.9,1.9-4.7c0.3,0.8,1,2,2.1,0.9c0.8,1.5,2.4,2,3.6,0.4c1.9,0.2,4.1-1.6,5.2-2.2
				c1-1.4,1.7-0.3,2.5-1.7c-0.4-3,0.6-5.1,0.5-7.9c0.9-2.2,0.6-4.5,0.2-6.9c0.4-1.3-1.9-1.5-1.3-1.9c-0.7-2-1.7-1.5-3.3-0.8
				c-0.6-1.6-2.2-0.7-3-1.6c-2.7,0.8,1.8-1.3,0.3-2.7c-0.4-2.3-1-2.5-1.3-4.1c-1.3-1.1,2-2.9,0.3-4.7c1-1.5,3.3-0.6,4.3-2.4
				c4.1,0.8,0.3-2.1-0.1-3.9c2,0.3,1.7,3,3.9,1.7c0.3-1.9,3.1-3,2.8-5.1c1.9-1.3,1-2.9,3.1-3.8c1.5-2.2,3.1-4.2,4.8-6.2
				c0.6-2.5,3-3.5,4.1-5.8c-0.4-1,0-2.4,0.7-2.3c0.5-0.9,1.1-1.7,1.9-2.3C693.8,374.1,692.2,372.6,692.3,370.4z"/>
			<line class="st1" x1="591.7" y1="456.9" x2="623.4" y2="456.9"/>
			<path class="st2" d="M588.5,448.1v6H627v-6c0.2-10.6-8.2-19.4-18.8-19.7c-10.6-0.2-19.4,8.2-19.7,18.8
				C588.5,447.5,588.5,447.8,588.5,448.1L588.5,448.1z"/>
			<path class="st3" d="M607.7,443.4c-2.5,0-4.6,2-4.6,4.6c0,0,0,0,0,0.1v6h9.3v-6C612.4,445.5,610.3,443.4,607.7,443.4
				C607.8,443.4,607.8,443.4,607.7,443.4"/>
			<polygon class="st4" points="607.7,418.2 607.7,423.5 613.7,420.9 			"/>
			<path class="st5" d="M627,454.4h-14.6c-0.2,0-0.3-0.1-0.3-0.3c0,0,0,0,0,0v-6c0-2.4-1.9-4.3-4.3-4.3s-4.3,1.9-4.3,4.3
				c0,0,0,0,0,0v6c0,0.2-0.1,0.3-0.3,0.3s-0.3-0.1-0.3-0.3c0,0,0,0,0,0v-6c0-2.8,2.2-5,5-5s5,2.2,5,5v5.6h4.6V449h-2v2.3
				c0,0.2-0.1,0.3-0.3,0.3s-0.3-0.1-0.3-0.3c0,0,0,0,0,0V448c0.4-3.8-2.4-7.3-6.3-7.7c-3.8-0.4-7.3,2.4-7.7,6.3c0,0.5,0,0.9,0,1.4v6
				c0,0.2-0.1,0.3-0.3,0.3c0,0,0,0,0,0h-12c-0.2,0-0.3-0.1-0.3-0.3c0,0,0,0,0,0v-6c0-1.6,0.2-3.2,0.6-4.7v-0.1
				c0.5-1.8,1.2-3.6,2.2-5.3c0-0.1,0.1-0.1,0.1-0.1c1.2-2,2.8-3.8,4.7-5.3c0-0.1,0.1-0.1,0.1-0.1c3.4-2.6,7.6-4,11.9-4
				c4.3,0,8.5,1.4,11.9,4c0.1,0,0.1,0.1,0.1,0.1c1.9,1.5,3.5,3.3,4.7,5.3c0,0.1,0.1,0.1,0.1,0.1c1,1.6,1.7,3.4,2.2,5.3v0.1
				c0.4,1.5,0.6,3.1,0.6,4.7v6C627.3,454.3,627.2,454.4,627,454.4C627,454.4,627,454.4,627,454.4z M618,453.7h8.6V449H618V453.7z
				 M598.1,453.7h2V449h-2V453.7z M588.8,453.7h8.6V449h-8.6V453.7z M623.3,448.4h3.3v-0.3c0-1.4-0.2-2.9-0.5-4.3h-2.8L623.3,448.4
				L623.3,448.4z M615.3,448.4h7.3v-4.6H614c0.9,1.3,1.3,2.8,1.3,4.3L615.3,448.4L615.3,448.4z M592.8,448.4h7.3v-0.3
				c0-1.5,0.5-3,1.3-4.3h-8.6V448.4z M588.8,448.4h3.3v-4.6h-2.8c-0.3,1.4-0.5,2.9-0.5,4.3L588.8,448.4L588.8,448.4z M618,443.1h8
				c-0.5-1.6-1.1-3.2-2-4.6h-6V443.1z M613.5,443.1h3.8v-4.6H608v2C610.2,440.5,612.1,441.5,613.5,443.1L613.5,443.1z M598.1,443.1
				h3.9c1.4-1.6,3.3-2.5,5.4-2.6v-2h-9.3L598.1,443.1z M589.5,443.1h8v-4.6h-6C590.6,439.9,590,441.5,589.5,443.1L589.5,443.1z
				 M612.7,437.8h10.9c-1.1-1.8-2.6-3.3-4.2-4.6h-6.6V437.8z M603.4,437.8h8.6v-4.6h-8.6V437.8z M591.9,437.8h10.9v-4.6h-6.6
				C594.5,434.4,593,436,591.9,437.8L591.9,437.8z M608,432.5h10.3c-3-2.1-6.6-3.3-10.3-3.3V432.5z M597,432.5h10.3v-3.3
				C603.7,429.2,600.1,430.4,597,432.5L597,432.5z M607.7,426.5c-0.2,0-0.3-0.1-0.3-0.3c0,0,0,0,0,0v-8c0-0.1,0-0.2,0.1-0.3
				c0.1-0.1,0.2-0.1,0.3,0l6,2.6c0.2,0.1,0.3,0.3,0.2,0.5c0,0.1-0.1,0.1-0.2,0.2l-3.3,1.5c-0.2,0.1-0.3,0-0.5-0.2
				c-0.1-0.2,0-0.4,0.2-0.5l2.7-1.2l-4.8-2.1v7.4c0.1,0.2,0,0.3-0.2,0.4C607.8,426.5,607.8,426.5,607.7,426.5L607.7,426.5z"/>
			<text transform="matrix(1 0 0 1 587.1 479.67)" class="st6 st7 st8">500</text>
			<text transform="matrix(1 0 0 1 587.1 479.67)" class="st9 st7 st8">500</text>
		</g>
		<g id="Ronetia">
			<path class="st0" d="M504.9,345.2c-7.6-6-19.4-6-29.3-3.8h-0.5c-9.6,6.8-21.6,5.8-33.5,3c-26.8-5-51.7-20.8-78.4-15.1
				c-0.5,19.4-4.7,38.6-12.4,56.4c0.2,0,0.5,0,0.7,0.1c-1.3,1.5,0.3,1.8,1.3,2.9c1.5-1.9,1.1,0.3,2.1,1.1c1.8,0.2,1.2,0.2,0.4,1.4
				c1.2,2.5,1.7-1.8,2.6,0.5c0.8,2.5,0.9-1.7,1.1,0.3c1,0.4,2.5-0.7,3.3,1c2.2,0,1.3,1.9-0.1,0.5c0.8,1-2.7-0.5-0.6,0.6
				c-1.4,0,0,5.2,1.3,3.1c0-2.6,1.3,0.4,1.5,1.2c-0.6,2.5,2.2,0.9,2.5,2.9c3.1-0.4,1.5,3.8,4.2,3.7c0.1,0.3,1.5-1.6,2.6-1.8
				c-1-0.9-1.1-2.1,0.5-1.3c1.4,0.4,4.1-2.7,4.2,0.3c-1.1,1.8-2.8,3.2-4.8,3.9c-0.6,2.4,2.4,1.9,2.8,4.4c1.8-0.7,0.1-0.2,0,0.6
				c1.2,2.1,0.3-0.4,1.8,0c-1.1,2.2,1.9,2.6,3.6,3.7c-0.6,1.3,0,2.2,1.1,0.6c-0.4,1.3,0.5,2,1.3,1c0.1-0.1,0.1-0.2,0.2-0.3
				c-0.1,0.1-0.1,0.2-0.2,0.3c-0.6,1,0.7,0.6,0.8,1.1c1.3,1.5-0.3,0.6-1.5,1.1c1.9,0,1.1,1.6,2.2,2.8c-1.1,0.6-0.6,1.2,0.3,1.4
				c-1.9,1,2.9-0.1,3.2,1.2c0.3,0.2-1.9,0.1-2.9,0.7c-2.1,0.6,0,0.7-0.4,1.9c0.8,2.1,1.7-0.8,2.9-0.7c1.7,1.1,0.6,1.6-0.7,2
				c0.5,1.6,0.2,1-0.7,1.3c1.1,3,4-0.5,5.4-1.6c2.4-1.3,0.6,1.5,0.7,2.5c-0.1,2-2.4,3.5-3.7,5.3c9-1,19,5,28,0c10-6,18-15,29-18
				c26-9,54,4,72,24c8-7,8-18,7-27c-1-6-8-6-11-11c-9-16,2-34-4-51C509.3,349.6,507.4,347.1,504.9,345.2"/>
			<line class="st1" x1="412.4" y1="387.5" x2="444.1" y2="387.5"/>
			<path class="st2" d="M409.2,378.6v6h38.5v-6c-0.2-10.6-9.1-19-19.7-18.8C417.7,360.1,409.4,368.3,409.2,378.6z"/>
			<path class="st3" d="M428.4,374c-2.6,0-4.6,2-4.6,4.6c0,0,0,0,0,0v6h9.3v-6C433.1,376.1,431,374,428.4,374
				C428.5,374,428.4,374,428.4,374"/>
			<polygon class="st4" points="428.4,348.8 428.4,354.1 434.4,351.4 			"/>
			<path class="st5" d="M447.7,384.9h-14.6c-0.2,0-0.3-0.1-0.3-0.3c0,0,0,0,0,0v-6c-0.1-2.4-2.1-4.2-4.5-4.1c-2.2,0.1-4,1.9-4.1,4.1
				v6c0,0.2-0.1,0.3-0.3,0.3c-0.2,0-0.3-0.1-0.3-0.3l0,0v-6c0.3-2.7,2.7-4.8,5.5-4.5c2.4,0.2,4.2,2.1,4.5,4.5v5.6h4.6v-4.6h-2v2.3
				c0,0.2-0.1,0.3-0.3,0.3c-0.2,0-0.3-0.1-0.3-0.3v-3.3c-0.4-3.8-3.8-6.7-7.7-6.3c-3.3,0.3-5.9,3-6.3,6.3v6c0,0.2-0.1,0.3-0.3,0.3
				c0,0,0,0,0,0h-11.9c-0.2,0-0.3-0.1-0.3-0.3c0,0,0,0,0,0v-6c0-1.6,0.2-3.2,0.6-4.7v-0.1c0.5-1.9,1.2-3.7,2.2-5.3
				c0-0.1,0.1-0.1,0.1-0.1c1.2-2,2.8-3.8,4.7-5.3c0-0.1,0.1-0.1,0.1-0.1c3.4-2.6,7.6-4,11.9-4c4.3,0,8.5,1.4,11.9,4
				c0.1,0,0.1,0.1,0.1,0.1c1.9,1.5,3.5,3.3,4.7,5.3c0,0.1,0.1,0.1,0.1,0.1c1,1.6,1.7,3.4,2.2,5.3v0.1c0.4,1.5,0.6,3.1,0.6,4.7v6
				C448,384.8,447.9,384.9,447.7,384.9C447.7,384.9,447.7,384.9,447.7,384.9z M438.7,384.3h8.6v-4.6h-8.6L438.7,384.3z M418.8,384.3
				h2v-4.6h-2V384.3z M409.5,384.3h8.6v-4.6h-8.6V384.3z M444,379h3.3v-0.3c0-1.4-0.2-2.9-0.5-4.3H444V379z M436,379h7.3v-4.6h-8.6
				c0.9,1.3,1.3,2.8,1.3,4.3V379z M413.5,379h7.3v-0.3c0-1.5,0.5-3,1.3-4.3h-8.6L413.5,379z M409.5,379h3.3v-4.6H410
				c-0.3,1.4-0.5,2.9-0.5,4.3L409.5,379L409.5,379z M438.6,373.7h8c-0.5-1.6-1.1-3.2-2-4.6h-6V373.7z M434.1,373.7h3.9V369h-9.3v2
				C430.8,371.1,432.8,372.1,434.1,373.7L434.1,373.7z M418.7,373.7h3.8c1.4-1.6,3.3-2.5,5.4-2.6v-2h-9.3V373.7z M410.1,373.7h8V369
				h-6C411.3,370.5,410.6,372,410.1,373.7L410.1,373.7z M433.3,368.4h10.9c-1.1-1.8-2.6-3.4-4.2-4.7h-6.6L433.3,368.4L433.3,368.4z
				 M424,368.4h8.6v-4.7H424V368.4z M412.5,368.4h10.9v-4.7h-6.6C415.1,365,413.7,366.6,412.5,368.4L412.5,368.4z M428.7,363.1h10.4
				c-3-2.1-6.6-3.3-10.3-3.3L428.7,363.1z M417.7,363.1H428v-3.3C424.4,359.8,420.8,360.9,417.7,363.1L417.7,363.1z M428.4,357.1
				c-0.2,0-0.3-0.1-0.3-0.3c0,0,0,0,0,0v-8c0-0.1,0.1-0.2,0.1-0.3c0.1-0.1,0.2-0.1,0.3,0l6,2.6c0.1,0.1,0.2,0.2,0.2,0.3
				c0,0.1-0.1,0.3-0.2,0.3l-3.3,1.5c-0.2,0.1-0.4,0-0.5-0.2c-0.1-0.2,0-0.3,0.2-0.5l2.7-1.2l-4.8-2.1v7.4
				C428.8,356.9,428.6,357,428.4,357.1C428.4,357.1,428.4,357.1,428.4,357.1L428.4,357.1z"/>
			<text transform="matrix(1 0 0 1 407.79 410.23)" class="st6 st7 st8">500</text>
			<text transform="matrix(1 0 0 1 407.79 410.23)" class="st9 st7 st8">500</text>
		</g>
		<g id="Prusnia">
			<path class="st0" d="M519.5,442.4c0-1,0-1-1-1c-18-20-46-33-72-24c-11,3-19,12-29,18c-9,5-19-1-28,0c-0.4,0.5-0.6,1-0.8,1.6
				c0,2.7,1.4-0.9,1.5-0.3c1.1,1,1.7,0.7,2.5-0.5c2.7,0.9-0.6,2.4-0.5,4c-1.5,2.7,1.6-1.5,2.2,0.3c1.1,2.7-0.4-0.4-1.2,1.9
				c1,2-2,0.5-0.8,2c1.7-0.9,0,1.7,1.6,1c0.2,0.6,1.4,2.1,0.6,2.8c0.9,1.8-1.3,0.6-0.9,1.9c1.7,1.4-0.5,2.6-0.6,0.5
				c-2.1-0.9-2.2,0.6-0.4,1.6c0.6,1.6,2.1,2.8,2.6,4.7c-1.1,3.3-1-0.9-2.5-1.6c-2,0-1.3-2.1-2.8-2.6c-0.5,1.6,0.3,4.2-1.7,3.4
				c0.6,0.9-1,0.4-1.1,1c-0.4-0.2-0.1,1.9-1.4,2.3c-1.9-0.7-3,2.9-4.6,0.7c-1.1-2.4-4.1-0.2-2.4,1.7c1.7,1.2,5.1-0.6,5.3,2.8
				c2.5,0.7,0.4,1.9,1.2,3.7c1.4,0.1,0.4-2.2,0.7-3.3c0.2-2.7,2.4-1.1,3.7-0.8c-0.9,2-1.5,3.8-0.5,5.6c0.9,0.5,2.7-2.2,2.4-0.1
				c-2,1-0.7,0.9,0.2,2c0.9-1.1,1.9-0.6,0.9,0.8c0.9,1,1.1,0.3-0.1,1.7c1.9,1.8,2.2,3.4,4.2,5.5c-0.4,1.6,1.7,0.4,1.8,0.6
				c1.1-1.2,0.8,0.7,1.1,0.5c-0.9,0.8,0.4,0.8-0.1,2c-1.2-0.2-1.3,1.4-0.3,2.4c3.3-0.5,0.5,2.4,1.3,3.6c1.7,0.5,0.5,2.6,2,2.9
				c0-1.3,1.5-1.6,1.5-0.2c-1.1,1.1-0.8,0.8-0.2,1.8c0.1,0.1,0.1,0.1,0.1,0.2c0-0.1-0.1-0.2-0.1-0.2c-0.4-0.6-1-0.4-0.3,0
				c0.1,0.1,0.3,0.1,0.4,0.2c-0.1-0.1-0.3-0.2-0.4-0.2c-1.2-0.5-1.2,0.9-0.4,1.7c1.6,0.4-0.7,1-0.1,2.5c1.3,0.2,2.8,1.5,4,2.4
				c-2.2,2.7,3.2,3.9,4.6,1.2c1-1,1.5-0.6,1.5,0.1c23.3-8.6,50,0.9,63.3,22.2c13.8-10.4,33.3-24.7,43.1-41.3c-0.9,1.6-1,1.5,0,0
				C526.9,469.9,528.9,456.4,519.5,442.4z"/>
			<line class="st1" x1="441.7" y1="467.5" x2="473.4" y2="467.5"/>
			<path class="st2" d="M438.5,458.7v6H477v-6c0-10.6-8.6-19.2-19.2-19.2C447.1,439.4,438.5,448,438.5,458.7L438.5,458.7
				L438.5,458.7z"/>
			<path class="st3" d="M457.7,454c-2.5,0-4.6,2-4.6,4.6c0,0,0,0,0,0.1v6h9.3v-6C462.4,456.1,460.3,454,457.7,454
				C457.8,454,457.8,454,457.7,454"/>
			<polygon class="st4" points="457.7,428.8 457.7,434.1 463.7,431.5 			"/>
			<path class="st5" d="M477,465h-14.6c-0.2,0-0.3-0.1-0.3-0.3c0,0,0,0,0,0v-6c0-2.4-1.9-4.3-4.3-4.3s-4.3,1.9-4.3,4.3c0,0,0,0,0,0
				v6c0,0.2-0.1,0.3-0.3,0.3c-0.2,0-0.3-0.1-0.3-0.3v-6c-0.3-2.7,1.7-5.2,4.4-5.5c2.7-0.3,5.2,1.7,5.5,4.4c0,0.4,0,0.7,0,1.1v5.6
				h4.6v-4.6h-2v2.3c0,0.2-0.1,0.3-0.3,0.3c0,0,0,0,0,0c-0.2,0-0.3-0.1-0.3-0.3c0,0,0,0,0,0v-3.3c0.4-3.8-2.4-7.3-6.2-7.7
				c-3.8-0.4-7.3,2.4-7.7,6.2c-0.1,0.5-0.1,1,0,1.5v6c0,0.2-0.1,0.3-0.3,0.3c0,0,0,0,0,0h-12c-0.2,0-0.3-0.1-0.3-0.3c0,0,0,0,0,0v-6
				c0-1.6,0.2-3.2,0.6-4.7v-0.1c0.5-1.9,1.2-3.7,2.2-5.3c0-0.1,0.1-0.1,0.1-0.1c1.2-2,2.8-3.8,4.7-5.3c0-0.1,0.1-0.1,0.1-0.1
				c3.4-2.6,7.6-4,11.9-4c4.3,0,8.4,1.4,11.9,4c0.1,0,0.1,0.1,0.1,0.1c1.9,1.5,3.5,3.3,4.7,5.3c0,0.1,0.1,0.1,0.1,0.1
				c1,1.6,1.7,3.4,2.2,5.3v0.1c0.4,1.5,0.6,3.1,0.6,4.7v6C477.3,464.9,477.2,465,477,465z M468,464.3h8.6v-4.6H468V464.3z
				 M448.1,464.3h2v-4.6h-2V464.3z M438.8,464.3h8.6v-4.6h-8.6V464.3z M473.3,459h3.3v-0.3c0-1.4-0.2-2.9-0.5-4.3h-2.9V459z
				 M465.3,459h7.3v-4.6H464c0.9,1.3,1.3,2.8,1.3,4.3V459z M442.8,459h7.3v-0.3c0-1.5,0.5-3,1.3-4.3h-8.6V459z M438.8,459h3.3v-4.6
				h-2.8c-0.3,1.4-0.5,2.9-0.5,4.3L438.8,459L438.8,459z M468,453.7h8c-0.5-1.6-1.1-3.2-2-4.6h-6V453.7z M463.5,453.7h3.9v-4.6H458
				v2C460.2,451.2,462.1,452.1,463.5,453.7L463.5,453.7z M448.1,453.7h3.9c1.4-1.6,3.3-2.5,5.4-2.7v-2h-9.3L448.1,453.7z
				 M439.5,453.7h8v-4.6h-6C440.6,450.5,440,452.1,439.5,453.7L439.5,453.7z M462.7,448.4h10.9c-1.1-1.8-2.6-3.3-4.2-4.6h-6.6V448.4
				z M453.4,448.4h8.6v-4.6h-8.6V448.4z M441.9,448.4h10.9v-4.6h-6.6C444.4,445,443,446.6,441.9,448.4L441.9,448.4z M458,443.1h10.4
				c-3-2.1-6.6-3.3-10.4-3.3V443.1z M447,443.1h10.4v-3.3C453.7,439.8,450.1,441,447,443.1L447,443.1z M457.7,437.1
				c-0.2,0-0.3-0.1-0.3-0.3c0,0,0,0,0,0v-8c0-0.1,0-0.2,0.1-0.3c0.1-0.1,0.2-0.1,0.3,0l6,2.6c0.1,0.1,0.2,0.2,0.2,0.3
				c0,0.1-0.1,0.3-0.2,0.3l-3.3,1.5c-0.2,0.1-0.3,0-0.5-0.2c-0.1-0.2,0-0.4,0.2-0.5l2.6-1.2l-4.8-2.1v7.4c0.1,0.2,0,0.3-0.2,0.4
				C457.8,437.1,457.8,437.1,457.7,437.1L457.7,437.1z"/>
			<text transform="matrix(1 0 0 1 437.1 490.28)" class="st6 st7 st8">500</text>
			<text transform="matrix(1 0 0 1 437.1 490.28)" class="st9 st7 st8">500</text>
		</g>
		<g id="Bavi">
			<path class="st0" d="M476.5,523.4c-13.3-21.3-40-30.8-63.3-22.2c0,1-0.9,2.5-2.2,1.9c-0.3,2.5-1.5,1.5-3.3,1.6
				c-2.3,1.1,0.7,2-0.5,3.4c-0.6,1.3,1.6,1,2,2.4c-0.7-0.3-0.4,1.9-0.6,3.4c0.5,2.6-1.6-1.7-1,0.9c-1.3,1.8,1.8,2.3,0.5,3.1
				c-1,2.3-1.3,0.2-2-0.9c-0.6-2.9-2.1-0.5-2.8,1c-0.5-1.5-1.5-0.7-2.1-0.8c-0.8,1.4-2.2,1.3-2.1-0.2c-1.5,2,2.1,2.9,2.4,5.1
				c2-0.1,1.1,3.7,2.9,2.9c2.3,2.3-1.9,0.9-1.8,0.2c-2.6-0.8,0.6,2.1,0.1,0.7c1.5,0.5,0.3,1.7,1.6,2.1c0.5,1.7-0.1,6.7,2.8,5.5
				c1.8,2.4-1.5,0.5-2.4,1.4c1,1.4-2.1,0.8-0.3,0.5c1.1-1.8-1.5-3.5-1.6-5.4c0.8-1.9-1.4-3.5-2.5-1.8c1.9,1.1,0.2,1.2-0.7,1.1
				c-1.4,0.1-0.7,3.6,1.7,3.2c-1.1,1.1-2.6-0.3-1.1,1.6c-1.5-0.7-2.7-1.7-2.5,0.7c-0.6-1.6-2.1-1.4-1.5,0c1.8,2-1.5-0.5-1.2,0.4
				c1.3-0.1,1,2.5-0.5,1.3c-2.2-0.8,0.4,1.2-0.5,1.2c1.1,0.5,3.1,1.8,3.6,0.1c1.4-2.5-0.3,1.4,1.2,1.6c-1.2,2.5,4.1,2,1.8,4.1
				c0-1.3-1.9-1.2-2.6-2.4c-0.8-2.4-2.5,0.8-3.2-0.3c-0.9,1.3-3.3-0.5-2.8,1.8c2.1,1.8-0.8,1.4-1.4-0.1c-1.8,0.8-0.6-1.3-1.5-2.2
				c-2.6-0.7,0.6,3.8-2,2.8c-0.4,1.6-0.3,3.7-0.8,5.5c0.6,2,2.4-0.3,3.1,1.9c1.9-0.8,3.3,0.7,4.8,2.1c-1,1.1-2.7,0.2-3.8-0.8
				c-1.6,1.2-3.6-1.7-5.5-0.7c0.2,1.3-0.2,2.2,0.5,3c-0.1,3.4,2-2.7,1.9,0.1c-1.2,1.3,1.7,1.7,0.5,2.1c0.1,0.7-1.1,1.2-0.4,2.5
				c-1,0.1,0,1.8-0.3,2.9c-1.2,3.1-1.7-4.1-2.9-0.5c-0.6,3.4,3,6,4.2,8.9c0.5-0.8-1.6-3.3-0.9-5.1c1.4-0.8,1.5,1.3,2.7,1.6
				c2-1,2.4,2.3,4.8,2.2c1.5,2.6,2.7,1.3,4.8,0.5c1.6-1.7,1.2,1.3,0.2,1.1c-1.5,0.1,1.7,3.3,2.8,1.1c3-1.2,0.2,1.7-1.4,1.5
				c-0.7,1.6,2,3.4,3.8,1.8c1.2-1,5.4-0.3,2.4,0.8c-1-1.1-1,1,0.1,1.1c1.6-0.6,1.1,0.4,2.4-0.4c0.7-2.6,4.1-0.6,4.2-0.2
				c1.6-1.1,3.3-0.7,5.5-0.8c3.1-0.1-0.6-1.8,0.5-3c-0.4-2.5,1.4-0.7,1.4,0.7c1.2-2.2,3.3-0.2,5.3,0.6c-0.3,1.1,1.2,0.8,1.5,2.2
				c1.5,1.2,3.4-1.2,3.2-2.3c-1.4-2.7-1.5-6.3-4.1-7.3c-1.8-1.6-0.2-2.9,1-1.4c0.2,1.7,1.4,1.2,2.3,0.6c-0.1,2.1,2.3-1.8,2.4,1.1
				c-1.1,1.9,1.2,1.8,1.3,3.5c0.6-1.2-0.1,1.9,1.5,1.9c0.2,1.3,1.6,2.2,3,3.2c1.1,2.1,4.1,0.4,5.4,0.8c2.3,1-0.5,1.1-1.4,1.6
				c-1.8,1.7,2.4,2.5,2.9,3.7c1.2,1.5,2.3-0.1,4.1,1c0.4-3.5,1.9,1.1,3.7,0.7c0.4-2.3,2.2,1.4,3.6,0.1c1.1,1.2,1.1-1.1,1.6-0.5
				c2.5-0.8-0.7-3.1,0-3.5c0.7-1.3,0.7,1,1.9,1.4c1.1,2.4,2.1,0.2,3.8,0.3c0.5-2.4,1.9-0.5,3.2-0.7c0.9-0.5,2.7,3.5,3.4,0.6
				c-1.1-0.4-2.7-2.4-0.2-1.6c1.9,0,0,2.2,2.5,2.3c1.3-1.7,2.1,1.5,3.6,1.2c0.2-2,0.6-2.6,0.8-0.3c1.3,0.6,1.5,0.9-0.2,1.1
				c0.2,2.4,3.5,1.9,5.5,2.7c2.2,1.3,1.7-2.8-0.4-2.6c0.5-1.3,0.2-1.6-0.8-2.5c-1.5-0.7,0.1-3,1.3-2.6c-1-1.9,1.6-3,2.8-1.4
				c0.7-1,2.4,1.1,3.1-1.1c1.6,0.9,4.6-0.9,2.5-3c-2-2.6,2.4,0.5,1.8-1.3c1.6,0,2,2,2.5,3c0.3,1.8,2.1,5,3.3,1.7
				c0.5-0.9,1.3-1.5,2.2-1.9c0.9-0.4,1.9-0.5,2.9-0.2c-0.7-0.3-3.1-1.5-0.5-1.4c2.5,1,1.4-2.1,2.9-1.1c0.1-2,1.8-0.6,2.2-1.5
				c-1.1-0.4,1.9-2.9,1.5-0.9c0.6-2.8,3.6,0.7,4.3-2.1c0.7,0.4,1.8-3.1,2.2-1.1c-0.2,2.5,0.5-0.4,1.3,0.7c1.2-2.2,0.7,1.5,0.7,2.5
				c1.4,2.5,0.6-1.5,1.4-2.2c0.1,0,0.2,0.1,0.3,0.1v-2C495.5,566.4,485.5,542.4,476.5,523.4z"/>
			<line class="st1" x1="442.4" y1="548.8" x2="474.1" y2="548.8"/>
			<path class="st2" d="M439.2,540v6h38.5v-6c0.2-10.6-8.2-19.4-18.8-19.7c-10.6-0.2-19.4,8.2-19.7,18.8
				C439.2,539.4,439.2,539.7,439.2,540z"/>
			<path class="st3" d="M458.4,535.3c-2.5,0-4.6,2-4.6,4.6c0,0,0,0,0,0.1v6h9.3v-6C463.1,537.4,461,535.4,458.4,535.3
				C458.4,535.3,458.4,535.3,458.4,535.3"/>
			<polygon class="st4" points="458.4,510.1 458.4,515.4 464.4,512.8 			"/>
			<path class="st5" d="M477.6,546.3H463c-0.2,0-0.3-0.1-0.3-0.3c0,0,0,0,0,0v-6c-0.1-2.4-2.1-4.2-4.5-4.1c-2.2,0.1-4,1.9-4.1,4.1v6
				c0,0.2-0.1,0.3-0.3,0.3c-0.2,0-0.3-0.1-0.3-0.3v-6c0.3-2.7,2.7-4.8,5.5-4.5c2.4,0.2,4.2,2.1,4.5,4.5v5.6h4.6V541h-2v2.3
				c0,0.2-0.1,0.3-0.3,0.3c-0.2,0-0.3-0.1-0.3-0.3V540c-0.4-3.8-3.8-6.7-7.7-6.3c-3.3,0.3-5.9,3-6.3,6.3v6c0,0.2-0.1,0.3-0.3,0.3
				c0,0,0,0,0,0h-11.9c-0.2,0-0.3-0.1-0.3-0.3c0,0,0,0,0,0v-6c0-1.6,0.2-3.2,0.6-4.7v-0.1c0.5-1.9,1.2-3.6,2.2-5.3
				c0-0.1,0.1-0.1,0.1-0.1c1.2-2,2.8-3.8,4.7-5.3c0-0.1,0.1-0.1,0.1-0.1c3.4-2.6,7.6-4,11.9-4c4.3,0,8.5,1.4,11.9,4
				c0.1,0,0.1,0.1,0.1,0.1c1.9,1.5,3.5,3.3,4.7,5.3c0,0.1,0.1,0.1,0.1,0.1c1,1.6,1.7,3.4,2.2,5.3v0.1c0.4,1.5,0.6,3.1,0.6,4.7v6
				C478,546.2,477.8,546.3,477.6,546.3C477.7,546.3,477.6,546.3,477.6,546.3z M468.6,545.6h8.6V541h-8.6V545.6z M448.8,545.6h2V541
				h-2V545.6z M439.5,545.6h8.6V541h-8.6L439.5,545.6z M474,540.3h3.3V540c0-1.4-0.2-2.9-0.5-4.3H474V540.3L474,540.3z M466,540.3
				h7.3v-4.6h-8.6c0.9,1.3,1.3,2.8,1.3,4.3V540.3L466,540.3z M443.5,540.3h7.3V540c0-1.5,0.5-3,1.3-4.3h-8.6V540.3z M439.5,540.3
				h3.3v-4.6H440c-0.3,1.4-0.5,2.9-0.5,4.3L439.5,540.3L439.5,540.3z M468.6,535h8c-0.5-1.6-1.1-3.2-2-4.7h-6V535z M464.1,535h3.9
				v-4.7h-9.3v2C460.8,532.5,462.8,533.4,464.1,535L464.1,535z M448.7,535h3.8c1.4-1.6,3.3-2.5,5.4-2.7v-2h-9.3V535z M440.1,535h8
				v-4.7h-6C441.3,531.8,440.6,533.4,440.1,535L440.1,535z M463.3,529.7h10.9c-1.1-1.8-2.6-3.3-4.3-4.6h-6.6V529.7z M454,529.7h8.6
				v-4.6H454V529.7z M442.5,529.7h10.9v-4.6h-6.6C445.1,526.4,443.7,527.9,442.5,529.7L442.5,529.7z M458.7,524.4H469
				c-3-2.1-6.6-3.3-10.3-3.3V524.4z M447.7,524.4H458v-3.3C454.3,521.1,450.8,522.3,447.7,524.4L447.7,524.4z M458.4,518.4
				c-0.2,0-0.3-0.1-0.3-0.3c0,0,0,0,0,0v-8c0-0.1,0-0.2,0.1-0.3c0.1-0.1,0.2-0.1,0.3,0l6,2.7c0.1,0.1,0.2,0.2,0.2,0.3
				c0,0.1-0.1,0.3-0.2,0.3l-3.3,1.5c-0.2,0.1-0.3,0-0.5-0.2s0-0.3,0.2-0.5l2.7-1.2l-4.8-2.1v7.4c0,0.2-0.1,0.3-0.2,0.4
				C458.5,518.4,458.4,518.4,458.4,518.4L458.4,518.4z"/>
			<text transform="matrix(1 0 0 1 437.77 571.59)" class="st6 st7 st8">500</text>
			<text transform="matrix(1 0 0 1 437.77 571.59)" class="st9 st7 st8">500</text>
		</g>
		<g id="Rospa">
			<path class="st0" d="M519.6,482.1c-9.8,16.6-29.3,31-43.1,41.3c9,19,19,43,44,42v2c1.1,0.5,0.5,1.7,0.2,2.7
				c0.1,2.6,1.5-0.7,1.2,0.5c0.5-0.3,1.1-2,1.9-1c-0.9,1.1,1.3,4.2,1.1,2.1c-0.8-1.8,0.1-0.9,1.2-0.8c-0.1,2.2,2.1,2.5,3.6,1
				c-0.9-1-1-3.6,0.5-1.5c1.1,1.9,2.7,0.9,2.1-1.4c-1-2.5,2-2.6,1.5-4.9c-1.3-0.7,0.2-3.2,0.7-1.2c-0.1-1.5,1.4-2.2,1.4-0.2
				c1-0.2,0.9,0.1,0.9,1.4c-0.8,2.7,1.4,3.2,2.3,4.9c0.7,0-2.4,0.3-0.9,0.5c-0.6,0.8-0.1,1.3,0.1,2c1.7,0.5,1.4,0.6,0,1.8
				c1.2,2.2,4.1,0.9,3.4-1c-0.2,0-0.5-0.3-0.6-0.9c0.3,0.3,0.5,0.6,0.6,0.9c0.7,0,1.5-2.3,1.3-1.3c-0.7,2.7,4.1,3.7,4.6,1.1
				c0.4-2.2,1.7-5.6,4.7-4.3c1.9,1.8,5.2-0.7,5.3-2.5c1.9-0.2,3.7-0.9,5.1-2.2c-1.2-1.4,2,0.1,1.9-2c0.9-2.5,0.3,1.4,1.8,0.2
				c1,0.9,1.5-2.5,2.1-0.4c1.5-0.9,2.6-1.3,3.5-2.8c1.5,0.7,1.2-0.4,2.3-1.5c-0.1-2,0.2-0.6,1-0.2c1.9-0.4,2.9,0.5,4.4-0.8
				c1.8-0.6,5.2-3.5,3-4.5c-1.8-0.8,0.4-1.3,1,0.1c0.6-1.6,4.3,1.3,3.7-0.7c0.6-0.2,0.8-1,1.2-1.3c-1.4-2.9,2.5,1.7,3.5-0.1
				c-1-1.4-2-4-0.5-5c1.7,0.6-0.2-3.7,1.1-3.6c0.5-1.7,0.5-0.6,1,0.5c-0.4,1.8,0.5,1.2,1.2,1.7c1.5-0.8,2.8-0.5,4.3-0.7
				c2.7-1,2.2-3.8,3.7-5.8c2.6,0.2,1.8-4.7,4.4-5.5c0.5-2.2,5.1-2,3.6-4.9c-0.2-1,2.4-2.1,1.2-2.8c0.7-2.3-1.3-4-1.9-6.3
				c-1.8,0.5-0.6-2.5-2.6-2.4c0.1-1.3-3-4.7-0.4-3.9s0.6-1.5,1.2-2.6c1.8,0.3,1.5-2,3.1-1.1c1.5-1.2,0.3-1.4,1.6-2.5
				c0.2-1.4,1.3-0.2,1.3-0.7c1.2,1.6,1.6-0.9,0.1-1.3c-1.5-2,0.9-0.2,1.5,0.7c0.6-1.4,1.1,1.1,1.3,0.6c1.5,1.4,0.6-2.2,2-1.3
				c1.4,0.3-0.2,2.2,1.8,1.6c0.9-2.5,0,1.4,1.4,1c0.1,1.3,0.8,2,1,0.6c1.4,1.1-0.2-1.6,1.5-0.2c2.3,0.1-3.1-2.7-0.9-2.2
				c0.6,0.4,0.9,0.2,1,0c-2.2-2.6-5.1-4.5-8.3-5.5c-21.9-7.6-42-3.5-62.9-15.2c0,0-0.1,0.1-0.1,0.2c0-0.1,0.1-0.1,0.1-0.2
				c-1-0.6-2.1-1.2-3.1-1.8C542.6,475.1,530,476.9,519.6,482.1z"/>
			<line class="st1" x1="526.2" y1="527.8" x2="557.9" y2="527.8"/>
			<path class="st2" d="M523,518.9v6h38.5v-6c0.2-10.6-8.2-19.4-18.8-19.7c-10.6-0.2-19.4,8.2-19.7,18.8
				C523,518.3,523,518.6,523,518.9z"/>
			<path class="st3" d="M542.2,514.3c-2.5,0-4.6,2-4.6,4.6c0,0,0,0,0,0.1v6h9.3v-6C546.9,516.4,544.9,514.3,542.2,514.3
				C542.3,514.3,542.3,514.3,542.2,514.3"/>
			<polygon class="st4" points="542.2,489.1 542.2,494.4 548.2,491.7 			"/>
			<path class="st5" d="M561.5,525.2h-14.6c-0.2,0-0.3-0.1-0.3-0.3c0,0,0,0,0,0v-6c-0.1-2.4-2.1-4.2-4.5-4.1c-2.2,0.1-4,1.9-4.1,4.1
				v6c0,0.2-0.1,0.3-0.3,0.3s-0.3-0.1-0.3-0.3c0,0,0,0,0,0v-6c0-2.8,2.2-5,5-5s5,2.2,5,5v5.6h4.6v-4.7h-2v2.3c0,0.2-0.1,0.3-0.3,0.3
				s-0.3-0.1-0.3-0.3c0,0,0,0,0,0v-3.3c0.4-3.8-2.4-7.3-6.3-7.7c-3.8-0.4-7.3,2.4-7.7,6.3c0,0.5,0,0.9,0,1.4v6
				c0,0.2-0.1,0.3-0.3,0.3c0,0,0,0,0,0h-12c-0.2,0-0.3-0.1-0.3-0.3c0,0,0,0,0,0v-6c0-1.6,0.2-3.2,0.6-4.7v-0.1
				c0.5-1.9,1.2-3.6,2.2-5.3c0-0.1,0.1-0.1,0.1-0.1c1.2-2,2.8-3.8,4.7-5.3c0-0.1,0.1-0.1,0.1-0.1c3.4-2.6,7.6-4,11.9-4
				c4.3,0,8.5,1.4,11.9,4c0.1,0,0.1,0.1,0.1,0.1c1.9,1.5,3.5,3.3,4.7,5.3c0,0.1,0.1,0.1,0.1,0.1c1,1.6,1.7,3.4,2.2,5.3v0.1
				c0.4,1.5,0.6,3.1,0.6,4.7v6C561.8,525.1,561.7,525.2,561.5,525.2C561.5,525.2,561.5,525.2,561.5,525.2z M552.5,524.6h8.6v-4.7
				h-8.6V524.6z M532.6,524.6h2v-4.7h-2V524.6z M523.3,524.6h8.7v-4.7h-8.6L523.3,524.6z M557.8,519.3h3.3v-0.3
				c0-1.4-0.2-2.9-0.5-4.3h-2.8L557.8,519.3L557.8,519.3z M549.8,519.3h7.3v-4.6h-8.6c0.9,1.3,1.3,2.8,1.3,4.3V519.3z M527.2,519.3
				h7.3v-0.3c0-1.5,0.5-3,1.3-4.3h-8.6V519.3z M523.2,519.3h3.3v-4.6h-2.8c-0.3,1.4-0.5,2.9-0.5,4.3v0.3H523.2z M552.4,513.9h8
				c-0.5-1.6-1.1-3.2-2-4.6h-6V513.9z M547.9,513.9h3.8v-4.6h-9.3v2C544.6,511.4,546.6,512.3,547.9,513.9L547.9,513.9z M532.5,513.9
				h3.8c1.4-1.6,3.3-2.5,5.4-2.6v-2h-9.3V513.9z M523.9,513.9h8v-4.6h-6c-0.8,1.5-1.5,3-1.9,4.6H523.9z M547.1,508.6h11
				c-1.1-1.8-2.6-3.3-4.3-4.6h-6.6v4.6H547.1z M537.8,508.6h8.6V504h-8.6V508.6z M526.3,508.6h10.9V504h-6.6c-1.6,1.3-3,2.9-4.1,4.6
				H526.3z M542.5,503.3h10.3c-3-2.1-6.6-3.3-10.2-3.3L542.5,503.3z M531.5,503.3h10.3V500c-3.7,0.1-7.2,1.2-10.2,3.3L531.5,503.3z
				 M542.1,497.3c-0.2,0-0.3-0.1-0.3-0.3c0,0,0,0,0,0v-8c0-0.1,0.1-0.2,0.1-0.3c0.1-0.1,0.2-0.1,0.3,0l6,2.7
				c0.1,0.1,0.2,0.2,0.2,0.3c0,0.1-0.1,0.3-0.2,0.3l-3.3,1.5c-0.2,0.1-0.3,0-0.5-0.2s0-0.3,0.2-0.5l2.7-1.2l-4.8-2.1v7.4
				c0,0.2-0.1,0.3-0.3,0.4c0,0,0,0,0,0L542.1,497.3z"/>
			<text transform="matrix(1 0 0 1 521.61 550.52)" class="st6 st7 st8">500</text>
			<text transform="matrix(1 0 0 1 521.61 550.52)" class="st9 st7 st8">500</text>
		</g>
	</g>
</g>
</svg>
