<svg width="179" height="269" viewBox="0 0 179 269" fill="none" xmlns="http://www.w3.org/2000/svg">
    <g clip-path="url(#clip0_1322_3)">
        <path d="M67.5692 248.536C92.3535 248.536 112.445 211.776 112.445 166.429C112.445 121.082 92.3535 84.3218 67.5692 84.3218C42.785 84.3218 22.6934 121.082 22.6934 166.429C22.6934 211.776 42.785 248.536 67.5692 248.536Z" fill="black" stroke="black" stroke-width="1.225" stroke-miterlimit="10" />
        <path d="M67.5664 248.537C88.1476 248.537 104.832 221.316 104.832 187.738C104.832 154.16 88.1476 126.94 67.5664 126.94C46.9852 126.94 30.3008 154.16 30.3008 187.738C30.3008 221.316 46.9852 248.537 67.5664 248.537Z" fill="white" stroke="black" stroke-width="0.961" stroke-miterlimit="10" />
        <path d="M56.0457 255.002C63.7645 247.272 61.1848 232.154 50.2839 221.237C39.3829 210.319 24.2886 207.735 16.5698 215.466C8.85106 223.197 11.4307 238.314 22.3317 249.231C33.2327 260.149 48.3269 262.733 56.0457 255.002Z" fill="#F7941D" />
        <path d="M52.7949 126.933L66.9025 182.619L82.3318 126.933H52.7949Z" fill="#FBB040" />
        <path opacity="0.67" d="M56.6855 134.21L66.313 172.216C66.8447 174.307 69.0299 174.353 69.609 172.278L80.1407 134.272C80.5712 132.737 79.723 131.099 78.5045 131.099H58.3432C57.1419 131.099 56.3023 132.686 56.6855 134.21Z" fill="#FFE07F" />
        <path opacity="0.67" d="M54.3006 254.878C60.918 248.251 58.7084 235.293 49.3653 225.935C40.0222 216.578 27.0837 214.365 20.4663 220.992C13.8489 227.62 16.0584 240.578 25.4015 249.936C34.7446 259.293 47.6831 261.506 54.3006 254.878Z" fill="#FFE07F" />
        <path d="M113.165 249.234C124.066 238.317 126.645 223.199 118.927 215.469C111.208 207.738 96.1135 210.322 85.2126 221.239C74.3116 232.157 71.7319 247.274 79.4507 255.005C87.1695 262.735 102.264 260.152 113.165 249.234Z" fill="#F7941D" />
        <path opacity="0.67" d="M110.09 249.932C119.433 240.575 121.643 227.616 115.025 220.989C108.408 214.361 95.4692 216.574 86.1261 225.932C76.7831 235.289 74.5735 248.247 81.1909 254.875C87.8083 261.502 100.747 259.289 110.09 249.932Z" fill="#FFE07F" />
        <path d="M53.3548 117.463C57.0954 117.463 60.1277 113.569 60.1277 108.766C60.1277 103.962 57.0954 100.068 53.3548 100.068C49.6143 100.068 46.582 103.962 46.582 108.766C46.582 113.569 49.6143 117.463 53.3548 117.463Z" fill="white" />
        <path d="M54.054 113.706C55.7828 113.706 57.1843 112.302 57.1843 110.571C57.1843 108.839 55.7828 107.436 54.054 107.436C52.3253 107.436 50.9238 108.839 50.9238 110.571C50.9238 112.302 52.3253 113.706 54.054 113.706Z" fill="black" />
        <path d="M25.7301 138.434C22.1155 138.175 17.5665 139.688 11.347 150.529C6.99826 158.115 -3.52695 187.634 2.75933 188.637C12.8561 190.247 36.0271 162.505 36.3005 147.256C36.3888 142.679 30.3587 138.766 25.7301 138.434Z" fill="black" stroke="#58595B" stroke-width="0.75" stroke-miterlimit="10" />
        <path d="M111.271 138.434C114.887 138.175 119.434 139.688 125.654 150.529C130.002 158.115 140.528 187.634 134.241 188.637C124.145 190.247 100.974 162.505 100.7 147.256C100.612 142.679 106.642 138.766 111.271 138.434Z" fill="black" stroke="#58595B" stroke-width="0.75" stroke-miterlimit="10" />
        <path d="M81.7709 117.463C85.5114 117.463 88.5437 113.569 88.5437 108.766C88.5437 103.962 85.5114 100.068 81.7709 100.068C78.0303 100.068 74.998 103.962 74.998 108.766C74.998 113.569 78.0303 117.463 81.7709 117.463Z" fill="white" />
        <path d="M82.4759 113.706C84.2047 113.706 85.6061 112.302 85.6061 110.571C85.6061 108.839 84.2047 107.436 82.4759 107.436C80.7472 107.436 79.3457 108.839 79.3457 110.571C79.3457 112.302 80.7472 113.706 82.4759 113.706Z" fill="black" />
    </g>
    <g clip-path="url(#clip1_1322_3)">
        <path d="M157.723 155.414C156.944 154.635 155.682 154.635 154.903 155.414L119.721 190.596C118.942 191.375 118.942 192.637 119.721 193.416C120.11 193.805 120.62 194 121.131 194C121.641 194 122.151 193.805 122.54 193.416L157.723 158.234C158.501 157.455 158.501 156.192 157.723 155.414Z" fill="#A66300" />
        <path d="M157.723 155.414C157.687 155.379 157.65 155.347 157.613 155.314L119.621 193.306C119.653 193.343 119.685 193.381 119.721 193.416C120.11 193.805 120.62 194 121.131 194C121.641 194 122.151 193.805 122.54 193.416L157.723 158.234C158.501 157.455 158.501 156.193 157.723 155.414Z" fill="#875100" />
        <path d="M172.128 159.178L167.509 152.989L169.989 145.676C170.233 144.957 170.048 144.162 169.511 143.626C168.974 143.089 168.18 142.904 167.461 143.147L160.147 145.627L153.958 141.009C153.35 140.555 152.537 140.485 151.86 140.83C151.184 141.175 150.762 141.873 150.772 142.632L150.871 150.354L144.565 154.813C143.946 155.251 143.629 156.003 143.747 156.753C143.866 157.503 144.4 158.12 145.125 158.345L152.499 160.638L154.791 168.012C155.017 168.737 155.634 169.271 156.384 169.389C156.488 169.406 156.592 169.414 156.696 169.414C157.336 169.414 157.946 169.105 158.323 168.571L162.782 162.266L170.504 162.365C171.258 162.371 171.962 161.952 172.306 161.276C172.651 160.6 172.582 159.787 172.128 159.178Z" fill="#FACE17" />
        <path d="M137.064 138.105L138.656 141.015L141.566 142.607L138.656 144.198L137.064 147.108L135.473 144.198L132.562 142.607L135.473 141.015L137.064 138.105Z" fill="#E6BD15" />
        <path d="M159.954 176.455L161.241 178.808L163.595 180.096L161.241 181.383L159.954 183.737L158.666 181.383L156.312 180.096L158.666 178.808L159.954 176.455Z" fill="#FACE17" />
        <path d="M161.764 133L163.052 135.354L165.406 136.641L163.052 137.929L161.764 140.283L160.477 137.929L158.123 136.641L160.477 135.354L161.764 133Z" fill="#FACE17" />
        <path d="M175.683 148.57L176.454 149.979L177.862 150.75L176.454 151.52L175.683 152.929L174.913 151.52L173.504 150.75L174.913 149.979L175.683 148.57Z" fill="#FACE17" />
        <path d="M176.692 168.042L175.759 171.228L176.692 174.415L173.505 173.482L170.318 174.415L171.252 171.228L170.318 168.042L173.505 168.975L176.692 168.042Z" fill="#E6BD15" />
        <path d="M172.307 161.276C172.651 160.6 172.582 159.787 172.128 159.179L167.51 152.99L169.99 145.676C170.233 144.957 170.048 144.162 169.511 143.626C169.476 143.59 169.44 143.557 169.403 143.525L152.34 160.588L152.5 160.637L154.792 168.012C155.017 168.736 155.635 169.271 156.384 169.389C156.489 169.406 156.593 169.414 156.697 169.414C157.337 169.414 157.947 169.105 158.324 168.571L162.783 162.266L170.505 162.364C171.258 162.371 171.962 161.952 172.307 161.276Z" fill="#E6BD15" />
    </g>
    <path d="M125 88.5311C125 93.9597 99.4857 98.4835 68 98.4835C36.5143 98.4835 11 94.1406 11 88.5311C11 82.9216 36.5143 86.3597 68 86.3597C99.4857 86.3597 125 83.1025 125 88.5311Z" fill="#8A5FC4" />
    <path d="M67.4668 86.2025C98.9525 86.2025 124.467 82.9453 124.467 88.3739C124.467 93.8025 98.9525 98.3263 67.4668 98.3263" fill="#704D96" />
    <path d="M67.1487 87.4262C74.5677 87.4262 81.6249 87.2452 88.1391 87.0643L71.3106 24.8166C68.0534 21.5595 66.2439 21.5595 62.9868 24.8166L46.1582 87.0643C52.6725 87.2452 59.7296 87.4262 67.1487 87.4262Z" fill="#8A5FC4" />
    <path d="M67.4688 88.1796C74.8878 88.1796 81.9449 87.9986 88.4592 87.8177L71.6307 25.5701" fill="#704D96" />
    <path d="M22.7207 93.7568C31.5874 95.7473 49.6826 98.0997 68.3207 98.0997C86.9588 98.0997 103.425 96.2902 113.74 93.9378L22.7207 93.7568Z" fill="#704D96" />
    <path d="M67.9997 55.5977L70.3521 60.4834L75.7807 61.2072L71.9807 65.0072L72.8854 70.4357L67.9997 67.9024L63.114 70.4357L64.0187 65.0072L60.2188 61.2072L65.6473 60.4834L67.9997 55.5977Z" fill="#FCC03A" />
    <defs>
        <clipPath id="clip0_1322_3">
            <rect width="137" height="186" fill="white" transform="translate(0 83)" />
        </clipPath>
        <clipPath id="clip1_1322_3">
            <rect width="61" height="61" fill="white" transform="translate(118 133)" />
        </clipPath>
    </defs>
</svg>
    