<svg width="164" height="186" viewBox="0 0 164 186" fill="none" xmlns="http://www.w3.org/2000/svg">
    <g clip-path="url(#clip0_1322_4)">
        <path d="M67.5692 165.536C92.3535 165.536 112.445 128.776 112.445 83.4291C112.445 38.0825 92.3535 1.32178 67.5692 1.32178C42.785 1.32178 22.6934 38.0825 22.6934 83.4291C22.6934 128.776 42.785 165.536 67.5692 165.536Z" fill="black" stroke="black" stroke-width="1.225" stroke-miterlimit="10" />
        <path d="M67.5664 165.536C88.1476 165.536 104.832 138.316 104.832 104.738C104.832 71.16 88.1476 43.9397 67.5664 43.9397C46.9852 43.9397 30.3008 71.16 30.3008 104.738C30.3008 138.316 46.9852 165.536 67.5664 165.536Z" fill="white" stroke="black" stroke-width="0.961" stroke-miterlimit="10" />
        <path d="M56.0457 172.002C63.7645 164.272 61.1848 149.154 50.2839 138.237C39.3829 127.319 24.2886 124.735 16.5698 132.466C8.85106 140.197 11.4307 155.314 22.3317 166.231C33.2327 177.149 48.3269 179.733 56.0457 172.002Z" fill="#F7941D" />
        <path d="M52.7949 43.9331L66.9025 99.6193L82.3318 43.9331H52.7949Z" fill="#FBB040" />
        <path opacity="0.67" d="M56.6855 51.2099L66.313 89.2158C66.8447 91.3073 69.0299 91.3526 69.609 89.2784L80.1407 51.2724C80.5712 49.7373 79.723 48.0986 78.5045 48.0986H58.3432C57.1419 48.0986 56.3023 49.6855 56.6855 51.2099Z" fill="#FFE07F" />
        <path opacity="0.67" d="M54.3006 171.879C60.918 165.251 58.7084 152.293 49.3653 142.936C40.0222 133.578 27.0837 131.365 20.4663 137.993C13.8489 144.62 16.0584 157.579 25.4015 166.936C34.7446 176.293 47.6831 178.506 54.3006 171.879Z" fill="#FFE07F" />
        <path d="M113.165 166.234C124.066 155.317 126.645 140.199 118.927 132.469C111.208 124.738 96.1135 127.322 85.2126 138.239C74.3116 149.157 71.7319 164.274 79.4507 172.005C87.1695 179.735 102.264 177.152 113.165 166.234Z" fill="#F7941D" />
        <path opacity="0.67" d="M110.09 166.932C119.433 157.574 121.643 144.616 115.025 137.989C108.408 131.361 95.4692 133.574 86.1261 142.931C76.7831 152.289 74.5735 165.247 81.1909 171.874C87.8083 178.502 100.747 176.289 110.09 166.932Z" fill="#FFE07F" />
        <path d="M53.3548 34.4635C57.0954 34.4635 60.1277 30.5693 60.1277 25.7657C60.1277 20.962 57.0954 17.0679 53.3548 17.0679C49.6143 17.0679 46.582 20.962 46.582 25.7657C46.582 30.5693 49.6143 34.4635 53.3548 34.4635Z" fill="white" />
        <path d="M54.054 30.7053C55.7828 30.7053 57.1843 29.3017 57.1843 27.5703C57.1843 25.8389 55.7828 24.4353 54.054 24.4353C52.3253 24.4353 50.9238 25.8389 50.9238 27.5703C50.9238 29.3017 52.3253 30.7053 54.054 30.7053Z" fill="black" />
        <path d="M25.7301 55.4339C22.1155 55.1751 17.5665 56.6887 11.347 67.5297C6.99826 75.115 -3.52695 104.634 2.75933 105.637C12.8561 107.248 36.0271 79.5048 36.3005 64.2567C36.3888 59.6793 30.3587 55.7659 25.7301 55.4339Z" fill="black" stroke="#58595B" stroke-width="0.75" stroke-miterlimit="10" />
        <path d="M111.271 55.4339C114.887 55.1751 119.434 56.6887 125.654 67.5297C130.002 75.115 140.528 104.634 134.241 105.637C124.145 107.248 100.974 79.5048 100.7 64.2567C100.612 59.6793 106.642 55.7659 111.271 55.4339Z" fill="black" stroke="#58595B" stroke-width="0.75" stroke-miterlimit="10" />
        <path d="M81.7709 34.4635C85.5114 34.4635 88.5437 30.5693 88.5437 25.7657C88.5437 20.962 85.5114 17.0679 81.7709 17.0679C78.0303 17.0679 74.998 20.962 74.998 25.7657C74.998 30.5693 78.0303 34.4635 81.7709 34.4635Z" fill="white" />
        <path d="M82.4759 30.7053C84.2047 30.7053 85.6061 29.3017 85.6061 27.5703C85.6061 25.8389 84.2047 24.4353 82.4759 24.4353C80.7472 24.4353 79.3457 25.8389 79.3457 27.5703C79.3457 29.3017 80.7472 30.7053 82.4759 30.7053Z" fill="black" />
        <path d="M99.8152 26.5202V41.4338C99.8152 42.5274 98.9801 43.4223 97.9459 43.4223H69.8687C68.8347 43.4223 67.9995 42.5274 67.9995 41.4338C67.9995 42.5274 67.1642 43.4223 66.1302 43.4223H38.0528C37.0188 43.4223 36.1836 42.5274 36.1836 41.4338V26.5202V23.5374H99.8152V26.5202Z" fill="#31C0D8" />
        <path d="M105.781 16.5779V26.5203H99.8157V23.5374H68H36.1841V26.5203H30.2188V16.5779H105.781Z" fill="#AFB6BB" />
        <path d="M107 15.3591H29V27.739H34.9654V41.434C34.9654 43.2025 36.3507 44.6411 38.0534 44.6411H66.1308C66.8326 44.6411 67.4808 44.3966 67.9998 43.9853C68.519 44.3966 69.1672 44.6411 69.8691 44.6411H97.9465C99.6491 44.6411 101.034 43.2024 101.034 41.434V27.739H107V15.3591ZM98.597 41.4339C98.597 41.851 98.2991 42.2035 97.9466 42.2035H69.8692C69.5166 42.2035 69.2188 41.851 69.2188 41.4339V28.5086H66.7812V41.4339C66.7812 41.851 66.4834 42.2035 66.1309 42.2035H38.0534C37.7007 42.2035 37.4029 41.851 37.4029 41.4339V24.7562H98.597V41.4339ZM104.562 25.3015H101.034V22.3187H34.9654V25.3012H31.4375V17.7963H104.562V25.3015Z" fill="black" />
        <path d="M43.3691 30.7217H46.1274V28.2842H40.9316V34.4743H43.3691V30.7217Z" fill="black" />
    </g>
    <g clip-path="url(#clip1_1322_4)">
        <path d="M144.528 104.539L119.867 95.1585L128.95 88.1645L132.555 74.711L130.485 74.1565L132.01 68.4646L146.499 72.3468L144.974 78.0386L142.904 77.484L139.299 90.9374L144.528 104.539Z" fill="#9CE0FF" />
        <path d="M149.31 116.913L145.942 105.473L128.284 96.8595L118.693 95.3987L106.948 106.116L108.426 110.949L145.682 120.932L149.31 116.913Z" fill="#80D440" />
        <path d="M143.697 121.509L109.908 112.455C107.942 111.929 106.474 110.371 106.066 108.376C105.658 106.381 106.367 104.352 107.987 103.067L128.152 87.0076L131.119 75.9344C129.739 75.2875 128.934 73.7406 129.35 72.1883L129.904 70.1186C130.362 68.411 132.133 67.3883 133.841 67.8458L145.224 70.896C146.932 71.3536 147.955 73.125 147.497 74.8326L146.943 76.9023C146.568 78.2994 145.318 79.24 143.862 79.2934C143.758 79.2657 143.693 79.3036 143.589 79.2758L143.537 79.262L140.57 90.3352L150.055 114.339C150.815 116.262 150.416 118.374 149.065 119.897C147.714 121.421 145.664 122.036 143.697 121.509ZM133.175 76.5408L130.124 87.9244C130.069 88.1314 129.962 88.3245 129.751 88.4899L109.31 104.753C108.323 105.542 107.886 106.756 108.178 107.943C108.418 109.117 109.273 110.067 110.463 110.386L144.252 119.439C145.442 119.758 146.643 119.415 147.452 118.467C148.312 117.533 148.528 116.315 148.067 115.137L138.444 90.8192C138.344 90.5706 138.348 90.3498 138.403 90.1428L141.731 77.7243C141.884 77.1551 142.408 76.852 142.991 76.9528L143.885 77.1368C144.275 77.1303 144.734 76.8652 144.873 76.3477L145.427 74.278C145.58 73.7088 145.239 73.1183 144.67 72.9658L133.286 69.9156C132.717 69.763 132.126 70.104 131.974 70.6731L131.419 72.7429C131.267 73.3121 131.608 73.9026 132.177 74.0551L135.023 74.8176C135.592 74.9701 135.933 75.5606 135.78 76.1298C135.628 76.699 135.037 77.0399 134.468 76.8874L133.175 76.5408Z" fill="#61A1DD" />
        <path d="M139.642 78.274L138.09 77.858C137.52 77.7055 137.18 77.115 137.332 76.5459C137.485 75.9767 138.075 75.6358 138.644 75.7883L140.197 76.2042C140.766 76.3567 141.107 76.9472 140.954 77.5164C140.802 78.0856 140.211 78.4265 139.642 78.274Z" fill="#61A1DD" />
        <path d="M144.865 106.183C143.016 105.632 141.185 104.808 139.423 103.726L134.099 100.414C130.485 98.1701 125.815 96.974 121.573 97.2795L118.126 97.5204C117.553 97.5887 117.015 97.1119 116.999 96.5529C116.93 95.98 117.407 95.4422 117.966 95.4256L121.414 95.1848C126.045 94.8728 131.195 96.142 135.181 98.6519L140.505 101.964C142.074 102.939 143.764 103.669 145.406 104.165C145.975 104.317 146.302 104.959 146.098 105.515C146.025 105.994 145.434 106.335 144.865 106.183Z" fill="#61A1DD" />
    </g>
    <path d="M154.303 173.852H152.369C151.306 173.852 150.436 172.935 150.436 171.815V163.666C150.436 162.546 151.306 161.629 152.369 161.629H154.303C155.366 161.629 156.236 162.546 156.236 163.666V171.815C156.236 172.935 155.366 173.852 154.303 173.852Z" fill="#464F5D" />
    <path d="M126.266 159.592H141.734V153.48H126.266V159.592Z" fill="#81CCB8" />
    <path d="M154.301 182H113.697C112.634 182 111.764 181.083 111.764 179.963C111.764 178.843 112.634 177.926 113.697 177.926H154.301C155.365 177.926 156.235 178.843 156.235 179.963C156.235 181.083 155.365 182 154.301 182Z" fill="#81CCB8" />
    <path d="M146.568 177.926H121.432V161.629C121.432 160.508 122.302 159.592 123.365 159.592H144.634C145.697 159.592 146.568 160.508 146.568 161.629V177.926H146.568Z" fill="#00AE97" />
    <path d="M122.398 153.48H145.601V146.35H122.398V153.48Z" fill="#00AE97" />
    <path d="M138.446 144.517L138.253 144.721C135.836 146.962 132.162 146.962 129.745 144.721L129.552 144.517C126.458 141.665 125.781 136.878 127.715 133.109L132.646 123.84C133.226 122.72 134.773 122.72 135.353 123.84L140.283 133.109C142.217 136.878 141.54 141.563 138.446 144.517Z" fill="#F0C419" />
    <path d="M134 146.35C133.42 146.35 132.84 146.147 132.357 145.637L132.163 145.434C130.423 143.804 130.036 141.156 131.196 139.017L133.323 134.535C133.613 133.924 134.483 133.924 134.773 134.535L136.9 139.017C138.06 141.156 137.577 143.804 135.837 145.434L135.643 145.637C135.16 146.147 134.58 146.35 134 146.35Z" fill="#E57E25" />
    <path d="M146.568 170.796H150.435V164.685H146.568V170.796Z" fill="#BDC3C7" />
    <path d="M156.236 164.685H150.436V166.722H156.236V164.685Z" fill="#687492" />
    <path d="M156.236 168.759H150.436V170.796H156.236V168.759Z" fill="#687492" />
    <path d="M140.768 153.48H142.701V146.35H140.768V153.48Z" fill="#25C3AB" />
    <path d="M136.9 153.48H138.834V146.35H136.9V153.48Z" fill="#25C3AB" />
    <path d="M133.033 153.48H134.967V146.35H133.033V153.48Z" fill="#25C3AB" />
    <path d="M129.166 153.48H131.1V146.35H129.166V153.48Z" fill="#25C3AB" />
    <path d="M125.299 153.48H127.232V146.35H125.299V153.48Z" fill="#25C3AB" />
    <path d="M124.332 166.722C124.912 166.722 125.299 166.314 125.299 165.703C125.299 165.092 124.912 164.684 124.332 164.684H121.432V166.721H124.332V166.722Z" fill="#81CCB8" />
    <path d="M127.232 170.796C127.812 170.796 128.199 170.388 128.199 169.777C128.199 169.166 127.812 168.759 127.232 168.759H121.432V170.796H127.232V170.796Z" fill="#81CCB8" />
    <path d="M130.133 174.87C130.713 174.87 131.099 174.463 131.099 173.851C131.099 173.24 130.713 172.833 130.133 172.833H121.432V174.87H130.133V174.87Z" fill="#81CCB8" />
    <defs>
        <clipPath id="clip0_1322_4">
            <rect width="137" height="186" fill="white" />
        </clipPath>
        <clipPath id="clip1_1322_4">
            <rect width="49.2837" height="49.2837" fill="white" transform="translate(115.756 63) rotate(15)" />
        </clipPath>
    </defs>
</svg>
    