<svg xmlns="http://www.w3.org/2000/svg" version="1.1" xmlns:xlink="http://www.w3.org/1999/xlink" xmlns:svgjs="http://svgjs.com/svgjs" width="1200" height="1200" preserveAspectRatio="none" viewBox="0 0 1200 1200">
    <g mask="url(&quot;#SvgjsMask1033&quot;)" fill="none">
        <rect width="1200" height="1200" x="0" y="0" fill="rgba(14, 131, 205, 1)"></rect>
        <path d="M0,538.584C98.199,517.986,132.853,392.112,219.679,341.827C313.272,287.623,454.178,323.311,519.954,237.455C585.332,152.117,584.048,20.772,541.166,-77.808C500.246,-171.878,377.919,-192.556,302.605,-262.208C238.595,-321.405,212.415,-417.642,133.539,-454.791C49.862,-494.201,-47.941,-491.134,-137.912,-469.684C-230.937,-447.506,-312.009,-395.996,-382.794,-331.693C-460.844,-260.79,-554.003,-186.123,-565.447,-81.299C-576.852,23.167,-489.74,108.298,-440.995,201.396C-395.161,288.934,-366.627,388.324,-288.132,448.342C-206.528,510.737,-100.537,559.672,0,538.584" fill="#095585"></path>
        <path d="M1200 1601.2269999999999C1279.247 1603.058 1355.97 1587.566 1428.454 1555.481 1511.0059999999999 1518.939 1609.652 1486.321 1646.136 1403.744 1682.597 1321.219 1619.422 1230.699 1611.662 1140.812 1603.276 1043.665 1642.501 941.634 1598.722 854.506 1550.5810000000001 758.698 1462.8319999999999 684.155 1362.8029999999999 645.543 1258.6 605.32 1134.467 586.697 1034.617 636.758 937.4580000000001 685.47 913.874 809.5509999999999 854.327 900.473 803.989 977.333 729.7850000000001 1039.712 711.716 1129.795 693.1600000000001 1222.307 702.37 1324.577 753.332 1403.9859999999999 802.119 1480.005 895.6030000000001 1508.589 978.232 1545.077 1049.431 1576.517 1122.189 1599.429 1200 1601.2269999999999" fill="#36a9f1"></path>
    </g>
    <defs>
        <mask id="SvgjsMask1033">
            <rect width="1200" height="1200" fill="#ffffff"></rect>
        </mask>
    </defs>
</svg>