<svg xmlns="http://www.w3.org/2000/svg" xmlns:xlink="http://www.w3.org/1999/xlink" viewBox="0 0 1400 980"><defs><linearGradient id="linear-gradient" y1="489.67" x2="1400" y2="489.67" gradientUnits="userSpaceOnUse"><stop offset="0" stop-color="#34688e"/><stop offset="0.34" stop-color="#3d7296"/><stop offset="0.76" stop-color="#b3f3ff"/><stop offset="1" stop-color="#7fbad1"/></linearGradient><radialGradient id="radial-gradient" cx="1123.04" cy="6111.82" r="633.27" gradientTransform="translate(0 -3132.56) scale(1 0.59)" gradientUnits="userSpaceOnUse"><stop offset="0" stop-color="#b3f3ff"/><stop offset="0.76" stop-color="#34688e"/><stop offset="1" stop-color="#396d92"/></radialGradient></defs><title>Layer 1</title><g style="isolation:isolate"><g id="Layer_2" data-name="Layer 2"><g id="Layer_1-2" data-name="Layer 1"><rect y="0.33" width="1400" height="978.67" style="fill:#b3f3ff"/><path d="M1400,214.78c-11,14,6.38,19-30.31,18.48s-40.62-20.48-59.66-4.49-35,18.64-35,26,2.67,10.66,0,16.65-4,34-9.33,34.63-.67-28.64-2.67-34-4.67,42.62-11.33,39.29-5.34-40-6-54.61-.71-38.63-5-37.3-5,25.31-3.65,36.63a60,60,0,0,1-.62,19.32s-6.05.16-6.05-12.24-4-26-4-26-2.66,87.55,0,110.86-2.37,43.95-1.18,49.28-4.82-21.31-4.82-40-1.33-37.93-4-50.93-6.66-21-6.66-37-7.34-28-7.34-15.32-7.33,30-6.66,44-.05,26.64-.05,26.64-7.95-12-7.29-30.64-1.33-48.61-3.33-60.6-4-11.93-5.33,3.69-.67,20.95-2.67,28.28-8,23.31-7.33,4-.77-29.3-.05-36,.2-8-.21-21.31-2.41,14-5.08,22-6.66-2-6.66-15.31-8-42-8-15.32-4,26-4,37.29,2,21.32,0,30.64,2,30,0,32-9.34-20.65-8.67-36.63,4.58-16,0-34.63-7.65-20.23-13.14-7.12-5.49,20.44-5.49,27.76-2,12,0,21.31,2.89,25.7-.89,21.18-3.11-20.51-5.11-31.17-6.54-7.69-4.66-23.31,4.7-26.1-1.65-33.36-5,2.06-5.69,12.05-4.66,10.05-4.66,17.68-6,9-5.34,0,2-18.34,2.67-26.34-5.86-16.43-4.74-19.89-5.93-10.74-5.26,3.91,3.24,12.65,0,19.31,0,6.66-4.63,9.33-8.66-.67-6.66-11.32,4-17.62,4-26.13a28.37,28.37,0,0,0-4.53-15.05c-.06,0-12.14,16.54-10.81,26.53s-.87,14.65-.1,18,2.1,17.31-3.23,8.65-6.22-15.83-10-19.31-6.67-11.32-10.67-6.66-18.48,150.32-66.48,177.29-96,62.76-96,98.82-18,75-21,132,36.61,100.59,49.81,95.26,13.2-.66,52.2,0,36-20.33,72-20.33,10-18,51.48,3-19.66,22.87,86.34,27.47,93.07,10.83,129.66,11,41.55-17.37,56.55-14.43,49.12,3.77,49.12,3.77V979H0V0H1400Z" style="fill:#56a9c5"/><path d="M1400,75.81c-83-.89-99.67,31.08-153,45.73s-150,26.65-182,54-24,49.28-68,87.24-72,30-140,83.92S763,458.53,737,489.5s-40,37-52,70.93-6.67,60,0,107.89,0,52.84,15,130.31,41.2,121.88,55,133.42,84,48,84,48H0V0H1400Z" style="fill:#4e99b7"/><path d="M1335,0c-84,21-119.58,88.9-246.79,114.88s-259.85,35.32-300,67.61S711,216.78,689,256.74s-24,103.89-42,127.87-32,20-40,41.95.4,20-26.8,30-53.2,28-47.2,61.94,78.65,101.9,87.32,145.85,15.35,54.61,35,94.24S663,808.18,715,831.15s30-13,66,31,34,36,88,54,46,1,78,32,60,31,60,31H0V0Z" style="fill:#428cad"/><path d="M604.16,23c-7.16,84.49,19.16,191.8,0,235.76S567,358.63,539,390.6,445,452,427,474.24s-33,6.27-29.51,36.24S417,535.59,431,575s80.67,152.61,97.33,191.9,51.87,89.25,51.87,89.25l61.46,34L781,979H0V0H601Z" style="fill:#4084a7"/><path d="M1104.33,0C1019.69,5.66,1000-7,968.48,29.64S974.35,40.9,829,75.81s-186,75-222,111-82,47.95-100,89.91-39,55.94-52.5,85.91-44.5,51.95-64,75.92-49.5,22-59.5,50.95,12,64.93,14,104.89,56.55,57.94,60.28,95.91S421,824.16,489,858.12s92,44,198,63.94,194-22,277,6,221,51,275,51H0V0Z" style="fill:#3e7696"/><path d="M644.49,0c-48.42,24.91-57.84,45-89.66,82.92S503,114.55,491,144.69s-20,50.11-46,68.09-40,38-64,56-52,22-56,49.94-2,51.95-20,55.95-30-2-48,12-8,10-58,24S71,444,71,474.24s6,38.24,40,74.2,54,16,80,53.95,92.31,94,124,141.85-5.76,45.78,49.33,69.93,90.17,44,90.17,44L531,930.05l250,49H0V0Z" style="fill:#31688f"/><path d="M0,618.37c12,4,20,23,26,14s1-15,8-14,12,6.78,12,16.38-9,13.59,0,21.58,9-6,15,9,19,29,19,29,8-3,14,0,8,17.34,14,7.17,5-39.48,9-39.81.67,38.29,5.67,37.63,5.33-21.32,7-40.63,5-38.29,7.33-34.3-1.67,13,1.67,25.64S141,668.65,141,679.31s-2.33,21.31,1,23.64,1.33-34,3.33-35.3,3.34,3.67,3.34,9.66,2.33,22,2.33,22l4.67,19s10.33,4.33,12.66,9.32-.59,7.29,5.34,10.66,7.17-4.08,13,3,4.33,10.66,13,21,10.66-25.64,13-32.63,9.33-17,9.66-5.33-.33,15.32,0,24S220,760.56,225,769.55s63.07,17.57,70.37,27.93,19.3,18.35,24,16.36,9.34-52,11.67-51,4.33,22.64,4,31.3-2.93,12.32,0,12.65,3-47,7-45,6,5.66,5,13.65.25,33,.25,33,52.64-29,58-35.3,4.72-19.31,6.39-23.31,6,7,6.33,14.32-.33,12.89,1.33,12.77,3-52.06,6.67-54.06,4.67,0,4.67,9-.34,11,1.33,20,3.67,19.31,3.67,19.31,2.66-39.62,2.66-43,4-2,4,8.32,2.34,23.31,2.34,23.31,2,2.33,2.66,8.66,1.67.67,9,1,7.67-11,7.67-11l-1.67-14s4.34,2.33,4.34,6.33A73.28,73.28,0,0,0,468,763.55c.67,3.33-1.33-14.65,1.67-17.31s4.66-6.33,6,1.33,2.66,14,2.66,14,13-32.64,15-38.63.67-16,3.67-8.66,3,5.66,3,14v12.65s5.67-22.64,6-27.64-2-12,2.33-8.66,6,2.87,5.67,11.59,0,15.72,0,15.72-1,3.66.67,17.65,12.66,25.64,13.66,17.31-1.33-14.65,0-17.31,4-7,5-7,5-1.34,6,4,3.67,12.32,5,14,7,6,8.34-1.33-.34-16,3-25.31S560,721.26,561,720.6s4,0,4.33,9.32,3.34,13.65,4,20-.66,6,2,12.32,23.34,15,27.34,2,.66-20,8.33-20.65,13-2,21-1,9.67,2.33,12.33,7,1,2.66,5.34,6.33,7.66,10.65,9.66,2.66a81,81,0,0,0,2-17s3.34-4,4,0-.33,7,0,12-.33,5.33,2.34,10S670,749.9,670,749.9s.33-12,2.33-12,1.34.67,3,11.33-1.33,20.31,3,14,2.67-22,2.67-24.31,2.33-8.66,2.67-3.66,0,12.32,0,12.32,3,11.66,3.66,8.66-.66-24.31,0-30.3,3-17.79,4.34-9.73,3,10.06,2,17S696,748.9,698,741.58s.33-23.78,6.33-25.38,2.67,5.73,3,14,2-5,4-11.32,9-21.31,9.34-15.31,1,11.32,0,16.31,1.33,11,2.66,18-2.33,12,4.67,12.66,18,2.33,24.33.33,4-5.66,10.34-2,5.66,7.66,13.66,2.33,4.34-20,10.34-21.64,7.33-3.33,11.66,5.66,7.34,18.65,13.34,16.32-1.67-13,6.66-10.66,8,2.66,11,7,17,1.67,17,1.67,2-3,11.34-6,3.33-6,9.33-3,8,7.66,18,6.32,13-13.32,26.67-14.31,17.33,3,25.33.66,17.67-3.66,22.33-4.66,3.67-6.33,9.67-4.66,11,3.33,16.67,5,.33-5.33,6-8.32,3.66-3.33,20-.67,36.82-2.36,54.66,1.67,14-4,29.67.66,17.67,11.32,30,10.66,7.67-2.67,19.67-2.67,15.33,4.67,17.66-1.66-1.33-10.66,1.34-17,9.66,5,12.33,10.32,2.67,6.66,8.67,6,10-4.33,13.33-.66,16.67,9,16.67,9,11.34-4.36,18.66-5.66,18.34,1.66,18.34,1.66h13a87.7,87.7,0,0,1,5-16c3.33-7.59,3.33,8.06,11.33,10.06s.52-7,12.33-3.66,9.34,8.65,18.67,8.32,17.93-8.17,17.93-8.17,5.4-4.15,20.07-1.82,18-8.66,28.33-9,20.67,0,20.67,0V979H0Z" style="fill:#153d5b"/><path d="M516,921.06c41,0,31.88,6.44,85.94-13.76S650,882.1,674,870.11s26-23,41-39,16-17,31-26,19-12,30-21,24-26,33-25,4,6,10,13,1,28-6,40,2.35,24,8.68,24S832,848.32,852,840.23s40-30.06,44-30.06,2,3,5,17,6,22,19,18,17-26,27-29,11,0,20,9-11,21.16,17,15.07,15.88.87,32-13.07,11-48,19-71.93,8-46,15-47,1.8,5,0,24-11.43,25.63-2.65,36.82S1060,736.25,1066,728.26s0,46.57,7,58.94-1.93,18.85,6.53,27.9S1098,793.19,1107,788.2s12-14.78,18-2.88,13.31,19.43,20,17.86,5.22-11.21,17-3,13-21,13-31,4-29,7-30,11.11,37.08,8.91,49.48-15,12.79-3.45,18.78,9.54-.33,23.54,1.66,17-9.11,25,5.93,11,8.34,21,18,30.11,14.31,44,13,25-8,31,2,19,8,34,10,34,0,34,0V979H410s-16.51-11.58,12.19-20S460,953,478,941A236.57,236.57,0,0,1,516,921.06Z" style="fill:#1a314c"/><path d="M0,865.12c18-12,30-11,54-10s23-6,54-8,61,4,72-2,18.65-41.24,28.32-40.1S239,817.17,252,815.17s18-3,18-21-13.51-50.94-6-61.94,2.25-37.46,8.12-29.22,5.5,11.38,5.88,33.22,10,27,8,54.94,5,45,8,35,1-36,0-56.94-4.83-54,1.58-54,4.42,49,9.42,74.92,4,36,7,37,4-3,24,5,22,15,44,9,29-3,53-2,39-3,49-3,8-6,22,5,29,12,40,16,14,6,23,15,13,2,27,21-2,7,20,24,20,17,33,20,12-13,40-15,39-15,51-7,10,9,17,17,32,24,32,24,40,0,60,9,18,4,35,9,27,5,27,5H0Z" style="fill:#0e1b3c"/><path d="M0,880.67c17.6-13.48,48.11-27.87,53.6-35.87s-3.67-5.34,5.49-8,.5-12.71,15.15-12.35,17.14,8.7,17.52,4.44,5.11-28.72,10.44-26-4,30,2.66,30.63,4.66-.66,12.65-7.32,8.66-12.66,9.32-20.65,1.34-38,4-38,1.33,49.28,4,49.28,7.6-12.73,21.11-13.36,19.17-9.61,21.5-17.94,16.65-97.23,22.64-99.23-.66,22.64,0,42.62,3.05,45.29,2.52,61.94,7.47,12,10.8,19.31,1.33,18.65,13.31,16,8.66-7.33,10.66-24,3.32-111.22,6-111.22,5.32,28,5.32,28-6-49.28,0-70.59,6-32.63,7.33-47.29,2-27.3,4.66-26,8,30.64,4.66,47.28,2.12,34,1.06,44-1.32,18.65.14,23.31,4.13-18.65,6.79-18-6,48.61,0,69.26,8,28,5.33,40-1.68,34.63,1.15,45.29,1.51,15.31,4.17,20.64,22.64,2.67,30.63,29.31,11.32,30.63,22,37.29,26,11.32,50.6,21.31,27.3,2,45.94,10.66S470.72,951,501,958s52.6.67,78.56,5.33,112.6-2.61,128.5,0,22-8.79,51.93,1.6S918.46,956,937.77,952.69s19.31-14,32.63-18,29.29-46,28-59.27c-.5-5-1.07-13.42-1.42-21.92-.58-14.21-.54-28.61,1.5-27.36,3.25,2,7.91,33.3,7.91,48s-3.33,15.32,2,32,18.64,21.31,21.3,10,2.89-48.79,6-59.28,0-38.62,6-57.27,4-54.61,6.65-59.28,7.33,5.21,6.66,31.25-.66,36.69-.66,68.65-.54,43.29.73,53.28,5.26,18,9.92,18c0,0,6.66.67,9.32-12.65s4-105.89,5.33-123.21,1.33-52.61,4.66-53.28-1.33,28.52,0,49.23,3.33,45.34,5.32,38,.67-26,2.67-32.64,4-16.65,4,4.67-4,33.3-4,57.27,2.66,46.62,4,52.61,6,8.66,11.32,7.33,17.31,1.33,15.31-18-6.66-46-2.66-36,2.89,17.32,2.89,17.32.5-35.3.14-52,1-59.94,3.63-56.61,2,79.92,6,92.58,8.22,18.52,8.22,18.52,7.76-61.15,11.09-71.8,4.66-34.63,4.66-34.63,8-31.31,10-30,2,19.31,2,26-2.66,27.31,0,31.3,5.33,51.28,8,61.94,4.66,19.31,8,19.31-2-28,0-36-.41-17.32,1.13-23.31,6.86-44,8.19-31.3,3.33,16,3.33,37.29-3.33,29.31,1.33,34.63,6-48.61,5.33-63.93-4.34-14,.16-24.64,3.17-10,3.17-22-4.66-93.24-2.66-93.9,7.32,2,8,18.64,2,38,5.32,35.3,2-15.32,4.66-25.31,1.33-41.29,4-51.94,11.32-13.32,11.32-7.33,2.66,16.65,2.66,23.31-2,89.91,0,104.56.66,34,0,54.61-5.33,34.63-5.33,45.29,8.66,26.64,17.31,23.31,15.32-26,16-40,3.33-38,8.66-40.63,14.64,20,10,38.63-8,44.62-2.66,43.29,10-34,10.65-57.94,1.34-26.64,6-48.62,2-43.95,4.66-48.61,4,15.31,4,30-1.82,20.57,0,37.3.67,50.61,16,55.94,14.65-13.32,21.31-28.63,6-65.27,14-76.59,6.66-43.29,16-63.94,22.8-22.81,22.8-22.81V979H0Z" style="fill:#0b1331"/><path d="M0,0V429.56c0,8,21.92-12,21.92-25s-17-24,0-46.95-14.61-48,0-76.93S48.7,233.76,58.44,196.8,82.79,10,82.79,10,104.71,182.81,112,199.8s-7.3,28,0,61.93-3.09,74.93,2.11,97.9,12.5,50.62,17.37,71.76,14.61-42.79,14.61-69.76V276.72c0-37,9.74-101.9,14.61-127.87s2.44-47.95,12.18-70.93S197.24,22,197.24,22s7.3,110.88,17,130.86-17,35,0,56.95,21.92,82.91,26.79,86.91-14.61-83.92,0-102.9,31.65-26,26.78-52.94-17.78-61.94.85-85.92,6.46,56,16.2,73.93,9.74,27,19.48,31-9.74-12,0-23,12.17-26,17-36S299.51,52,321.42,40s36.53,33.63,39,47.78-7.3,35.13,0,33.14,26.79-26,26.79-39,7.3-34,14.61-39,12.17,16,14.61,34,12.17,17,14.61,32,17-12.32,17-21.15,4.87-23.81,0-38.79-.54-25,2.17-31,34.36,25,39.23,41,4.87,30,12.17,51,2.44,19,7.31,41,7.3,23.31,19.48,24.64,7.3-12.66,17-28.64,9.74-53.28,14.61-59.11,12.18,40.13,14.61,57.11-4.87,27.31,0,30.64,34.09-15.65,26.79-48.62-9.85-33,1.16-54.94,3.71-28,11-34,19.48,6,21.92,23,14.61,38,24.35,39,9.74-29,14.61-40,36.52,25,29.22,38-.26,11,1.09,25-8.65,27,0,28,18.39-22,20.82-32-7.3-16.32,0-31.14S721.57,63.93,726,52s2.12-33,2.12-33,19.4,34,19.4,50-12.18,19,0,42,0,94.9,24.35,93.9,14.61-42,14.61-69.93-10.76-26.3,1.92-47.12S798.68,27,801.12,20,820.6,60.61,820.6,87.74s2.43,34.14,0,62.11-14.88,67,1.08,68,6.22-37,20.83-55S852.25,61.94,864.43,47s26.78-36,34.09-29,0,47,0,47v41c0,19-5.68,23,3.24,29s21.11-17,21.11-29-17-40,0-52.94,24.35-25,39-39,17-17,17,16-14.61,34,0,51,3.66,72.42,14.61,73.42,18.27-10.49,18.27-25.47-2.44-39.46,0-55.94,3.65-31,6.08-36,19.48,31,17.05,42-6.09,21.48,0,25,6.09-8.49,15.83-19,12.17-34,12.17-34,7.31,24,12.18,42,11,30,11,48,18.27,28,19.48,50.44-1.21,35.47,9.74,36.47,19.48-15,21.92-30,21.91-17,23.13-46,0-48.95,0-48.95l14.61-46.46s-3.65,50.45,2.44,69.43,15.82,62.44,15.82,72.93,9.74,4.49,14.61-13,1.22-39,4.87-50.95-3.65-45,4.87-54.94,17,63.93,18.27,82.91,4.87,18,8.52,41a90.86,90.86,0,0,0,15.83,38.46l9.74-24.45s-7.31-27,1.21-46,0-46.45,0-46.45-6.08-24.47,0-35.46,4.87-32.47,9.74-35.47,13.4,132.87,19.48,144.86,9.74,16,9.74,29.47-4.87,18.48,0,35,9.74,35.46,13.4,49.45c0,0-12.18,9.49,0,10.49S1349,281.21,1349,261.23s-13.39-21.47,0-37,7.31-43.45,7.31-43.45l1.38-43.46s9.58,41,12,53.94,1.22,22,0,42,0,14,0,35.47v41.45s-2.43,9,0,23,0,35,0,35,7.31,65.44,7.31,76.93,6.08,20.47,6.08,24.47,16.92,9.49,16.92-3V0Z" style="fill:#112b45"/><path d="M748,.33C769.34,3,783.56,11,782.14,19s-.71,24,4.27,48,4.28,11.48,5.6,3.31S790.12,37.63,799.29,33s5.61,0,9.17,14.65,7.82,26,8.53,18-5-26,0-34,7.82-2.7,7.82,9,2.85,7.64,5,0S834.06,23,844,22.31s20.62-8.66,22.76,7.33,10.67,17.31,12.8,29.3,5.69,28,7.82,41.29-5,36.63,0,40.63,8.54-23.31,7.83-38.63.71-32,7.82-43.29,6.4-29.3,11.38-34,10.67-4,17.07,22,8.7,129,15.65,128.54,3.14-83.25,8.32-102.56,14.43-32,13-43.29,7.11-31.3,12.8-26,7,16.63,8.47,41.28-2.19,34.65,0,47.3,10.74-1.33,8.6-20,2.85-20,7.12-40,9.95-32.63,14.22-26.64,7.11,17.32,8.53,24.64-2.84,17.32,0,28.64,9.25,10.66,9.25-2-2.84-19.31,0-30,17.78-30.63,17.78-22,8.45,20,7.83,36-.39,37.95-.32,46.95,7.43.33,7.43-17.65,7.1-29.24,7.82-39.53S1078,0,1078,0Z" style="fill:#0b1331"/><path d="M0,0S23,129.53,23,148.85s-1.33,36,0,67.26,4.67,41.29,6.67,31.3-2.67-39.29,0-55.94,8.66-45.29,4-60.6,8.3-61.35,11.81-56,26.85,98.6,26.19,123.91,2.66,30.09,3.33,52.34,2.67,4.93,4-13.72.67-22.64,0-39.95,1.84-35.75,0-52.62,4-43.95,4-43.95,2,65.93,4.67,85.24-2.67,28.64,0,56.61,2.66,46.62,5.33,46.62,10.67-42,8-60.6,1.33-41.29,4.67-63.94-5.34-39.29,0-51.28,6.66-30,9.33-51.95,8.67-36,10.67-36-4,40.63,0,44.62,9.4-12.44,9.33-24,8.67-30.64,8.67-30.64,14.66,69.26,14.66,83.25-3.33,26.64,0,31.3,1.34-11.32,6.67-22.64.21-31.91,5.33-47.95S174.33,31,179,27s-.67,121.88,0,134.53.53,84.58,1.93,89.24,8.74-112.55,13.4-124.54,10.44-56,17.34-79.25,10.66,21.31,10.66,48,7.34,41.29,6,61.94-1,32.63.17,33.3,5.17-6.66,5.17-15.32,3.81-34.84,2.65-44.69,6.68-37.89,7.35-52.54,2.66-41.29,6-34S255,124.21,257,133.53s5.86-4.68,5.82-14.66S269.67,43.62,271,34.3c0,0,8,107.89,8.67,123.21s6-2,6-5.33-.67-16,0-28.64,4-34,4-44.62,3.69-51.45,3.69-51.45,4.31,53.45,3.64,65.44-3.19,44.28.07,51.78S301,94.24,303,83.58s-.51-28.71,2-42.62,4.67-31.3,4.67-31.3,5.48,55,8.07,65.77,4.59,23.47,6.59,17.48S325,84.25,329,63.6a109.7,109.7,0,0,0,0-39.29,41.69,41.69,0,0,1,16,30.63c1.33,20.65.67,35.3,4.67,34s.66-34.63,6-44,8.66-28.3,8.66-36.63V0Z" style="fill:#0b1331"/><path d="M0,0V300s7.67,0,6.33-10.66S17,62.27,17,62.27s8,53.94,12,53.28S45,59.61,45,59.61s8,259.06,12,259.06S69,56.28,69,56.28s1.33,88.57,5.33,87.91,5.34-83.92,9.34-87.91,18-25.31,27.33-30,14,14,20,12,12.67-22.64,12.67-22.64,10,55.94,15.33,58.61S173.67,11,173.67,11s13.33,244.42,16,280.38,6,90.57,10,90.57S213,190.81,213,175.49,219,13,219,13s8,55.94,10.67,70.59,7.33,46.62,8.66,69.26,4.67,52.62,8,52.62,7.34-117.88,11.34-138.53,6-51.95,6-51.95-2,114.55,0,133.2,2,36.63,6,38,10-67.93,12-84.58S291,15,291,15s5.33,24.65,4,32.64,2,20.64,4,22,3.33-21.32,6-28.64,2.67-18,2.67-18,1.33,41.29,0,55.27,4,60.61,6,63.27S315,82.92,319,68.26,325,13,325,13s3.33,26,8,30,9.33-2.67,9.33-14.66a102.53,102.53,0,0,1,3.34-24s2.66,30,4.66,32.63,8-37,8-37H373s-4,23.64,0,37-.67,54,0,67.27,5.33,48.61,10,71.26,7.33,96.57,9.33,97.23,3.34-32.63,8-53.28A265.8,265.8,0,0,0,405,132.86c-4-34-6-75.92-2-87.24s6.67-32,6.67-32,20,8.66,20,17.32,4.66-.67,6-9.33a57.53,57.53,0,0,1,4.66-15.31s1.34,15.31,2.67,25.3,9.33.67,9.33-8,4-17.31,4-17.31l6.5-5.5H877S874.33,19,877,32.3s2.67,19.31,2.67,31.3,0,24,3.33,23.31,4.67-27.3,6.67-28,4,19.31,7.33,22.64,2,23.31,6.67,24,.66-26.64,6-26,5.33,26.63,6.66,35.29,4.67,22,4.67,22-3.33-38.63,0-46,2.67-25.31,2.67-25.31,4.66,20.65,6.66,21.31S937,66.27,937,66.27s2.67,53.27,3.33,63.93-4,29.3,0,29.3,6.67-31.3,9.34-21.31,4.66,42.13,4.66,52.7-.66,10.57,3.34,6.58-3.34-36.63,3.33-26.64,2,41.29,6,41.29,6-35.3,6-49.29,5.33-94.57,5.33-94.57-3.33,71.93,0,81.92,8.95,26,9.14,32-3.52,19.31,0,20.64,5.53-16,2.86-34,1.23-38.63,1.23-38.63.77,23.31,4.77,22.64,6-96.56,6-96.56,1.34,119.87,5.34,119.87,4-87.24,5.33-98.56S1029.67.83,1029.67.83L1073,0s4,55.61,5.33,68.26-4,24,0,24.65,9.34-43.29,9.34-43.29,1.33,111.88,0,120.54-3.48,20.81.59,20.73S1104.33,0,1104.33,0s2,69.6,6.67,67.6,10-55.28,10-55.28,2.67,50.62,10,50.62,8-40.63,8-40.63,2.67,47.29,6.67,47.29,4.66-12,4.66-15.32,5.34-39.3,5.34-39.3,6.66,50,10.66,50.62S1175.67,53,1175.67,53s0,38,4,44.62,9.33,40,14,38.62,0-37.29,0-37.29,4.66,12.65,8,10.65-4-26.63,0-34,14.66-18,16.66-6.66-.66,31.3,0,40.62,1.34,52.62,4.67,50.62-2-36.63,0-45.95,5.33-8.66,6-5.33,6.67,65.27,6.67,78.59-4,20,0,19.31,5.33-67.27,5.33-79.92,4-6.66,6-5.33-2.67-42.62,4-39.29,0,32.63,4.67,45.29,14,53.94,11.33,67.26-5.06,48.62.47,49.95.2-28,5.53-24,5,12.33,5.67,30,3.33,57.95,5,70.27-2,19.31,0,26.3,6.33,13,6.33,19.32,4,13,4,18.31.33,8.66,0,19,.33,20,1.67,26.31-1,27.64,3.66,26.64,4.67-9,4.34-17-2.67-18.31-2-28.63,3.25-23,2.12-29.64-.31-17.32.28-25.31.08-6.66,0-20.64,2.6-20,4.93-25.64,8.67-13.32,8.67-20.32V274.39s10,25,6.66,42.95a110.6,110.6,0,0,0,.68,43c2,8.32.66,15,2.32,27s2.34,23.31,2.67,30.64,3,7,5,5,1.67-30.3,3.33-38,3-24.31,3-24.31-2,37.63,0,49.62,6.34,19,3.34,24.64,4.66,8.06,4,22-3,19.28-1.67,35.26,1.75,19.65,1.71,30.64,6.62,24.64,3.62,41-2.58,33.3-3.62,44.29-8,10.65-6.71,26.64,1.33,19.64,1.33,29,7.34,18,2.34,22.64S1330,688,1330,697.62s5.67,21.65-3,33-10.67,31-10.67,36.63-3,16.65-3,34,.34,31.3,1,38.63,6.67,45.29-6.33,57.27-26,23-38,22-29-8-41-6-12-14-39-12-33-29-31-48,7-5-2-33-10-41.95-7-67.93-1-59.94-1-59.94-13,84.92-12,96.9-2,14,0,34,11,39,1,59.94-15,32.09-38,36-34,11-46,0-6-22-10-53-12-33-12-57.94,3-52.95,3-52.95-14,44.95-13,59.94-3,18,1,45S998,943,992,942s1-27-4.53-42S979,844.14,976,845.14s-2,71.92-12,82.91-34,10-41,6,2-79.92-4-79.92-9,21-12,40,1,33-14,41-35,3-55,12-22,12-51,9-59,3-62,7,7,2-12,5-24,11-31,11-24-5-36-5-12,5-24,5-69-14-90-14-37,6-61,5-15-1-37-7-32-17-39-10-14,4-29,9-34,0-58-4-25,0-49-7-18-2-33-12,0-7,5-16,11-20,5-21-7-8-5-11-19-15-28-22-8-87.91-10-113.88-4-67.93-8-67.93-7,68.93-5,89.91,7,46.95,0,67.93,2,38-6,39-14,4-16-25-1-56.94-3-71.92-3-45-6-46,3,53,0,63.94-2,32-2,40,0,18-8,27-12-5-27-4-23,2-21-28,6-43.95-1-71.92-3-37-7-63.94-3-4-4,26-2,79.92-4,89.91-2,31-2,53-8,29-11,26-1-48-4-79.92-11-47.95-10-72.92,9-61.94,4-67.93-4,24-6,29-12-2-12-16,3-16,3-39-7-29-8,8-9,46.95-12,45.95,9-48.95-1-61.94a153.11,153.11,0,0,1-16-26V979H1400V0Z" style="fill:#0b0f24"/><path d="M397.49.33c13.34.5,18.67,13.32,16.67,52.62s1.48,56.6.41,67.93-5.17,30,.21,30,6.05-65.27,7.38-75.26,7.33-20.65,7.33-36.63,13.34-28,16-12.65,7.34,40,10.67,36.63,1.33-38,6-36.63,2,59.94,5.33,58.6,3.34-26,7.34-19.31-4.67,50,2.66,50.61,4-105.22,10-110.55,12,28.64,11.34,51.28-5.9,56.61.05,56.61,5.95-54.61,9.28-70.59,13.33-41.3,16-31.31,13.33,45.29,13.33,63.94,1.34,40,2.67,46.62,6-86.58,8-91.91,7.33,28.64,6.67,52.62,5.33,48,9.33,45.28-3.33-69.93,6.67-87.91,24.66-27.3,26-14,.66,22.64,4.66,22S600.16,35,604.16,23,610.16.33,621.83.33s11,47.29,13.66,56.61-2,38.63,4,41.29,2-41.29,3.34-55.27,5.33-29.31,12-26.64,6.66,8,12.66,24,14,25.31,10,35.3,2,42,4,52,2-38,5.34-51.95,5.33-24,4.66-34.63,11.34-32,14-16.65-2,27.3,0,42,.67,24.64,4,26,1.34-45.29,6.67-53.95,16-16,19.33-2.66,14,32,10,47.95-4.89,60.61.89,67.27,3.11-65.94,7.78-75.26,2-20.65,6.67-33.3,0-42,0-42Z" style="fill:#0b1331"/><rect y="0.33" width="1400" height="978.67" style="mix-blend-mode:soft-light;fill:url(#linear-gradient)"/><rect y="0.33" width="1400" height="978.67" style="mix-blend-mode:soft-light;fill:url(#radial-gradient)"/></g></g></g></svg>