<svg width="208" height="213" viewBox="0 0 208 213" fill="none" xmlns="http://www.w3.org/2000/svg">
    <path d="M207.689 72.3044L127.718 93.3519V51.2568L207.689 72.3044Z" fill="#FF8800" />
    <path d="M68.3616 212.273C106.117 212.273 136.723 164.754 136.723 106.136C136.723 47.5188 106.117 0 68.3616 0C30.6065 0 0 47.5188 0 106.136C0 164.754 30.6065 212.273 68.3616 212.273Z" fill="black" />
    <path d="M68.3609 211.621C105.756 211.621 136.071 164.393 136.071 106.136C136.071 47.8777 105.756 0.650391 68.3609 0.650391C30.9654 0.650391 0.650391 47.8777 0.650391 106.136C0.650391 164.393 30.9654 211.621 68.3609 211.621Z" stroke="black" />
    <path d="M71.9473 12.3173C86.4816 5.53239 107.114 13.5988 122.455 41.7841C128.409 52.7233 135.271 67.2503 137.188 81.7747C139.496 99.2644 135.083 128.08 135.083 128.08C135.083 128.08 132.012 102.603 111.933 90.194C96.4663 80.6352 78.3967 81.7552 67.7388 73.3567C57.0809 64.9583 50.9023 53.0893 50.9023 41.7841C50.9023 30.479 57.413 19.1022 71.9473 12.3173Z" fill="white" />
    <path d="M89.1971 71.6251C103.22 71.6251 114.589 60.2555 114.589 46.2305C114.589 32.2055 103.22 20.8359 89.1971 20.8359C75.1738 20.8359 63.8057 32.2055 63.8057 46.2305C63.8057 60.2555 75.1738 71.6251 89.1971 71.6251Z" fill="black" />
    <path d="M74.8726 41.6728C78.8279 41.6728 82.0343 38.466 82.0343 34.5102C82.0343 30.5544 78.8279 27.3477 74.8726 27.3477C70.9173 27.3477 67.7109 30.5544 67.7109 34.5102C67.7109 38.466 70.9173 41.6728 74.8726 41.6728Z" fill="white" />
</svg>
    