<svg width="165" height="238" viewBox="0 0 165 238" fill="none" xmlns="http://www.w3.org/2000/svg">
    <g clip-path="url(#clip0)">
        <path d="M67.5692 217.536C92.3535 217.536 112.445 180.776 112.445 135.429C112.445 90.0825 92.3535 53.3218 67.5692 53.3218C42.785 53.3218 22.6934 90.0825 22.6934 135.429C22.6934 180.776 42.785 217.536 67.5692 217.536Z" fill="black" stroke="black" stroke-width="1.225" stroke-miterlimit="10" />
        <path d="M67.5673 217.537C88.1486 217.537 104.833 190.316 104.833 156.738C104.833 123.16 88.1486 95.9399 67.5673 95.9399C46.9861 95.9399 30.3018 123.16 30.3018 156.738C30.3018 190.316 46.9861 217.537 67.5673 217.537Z" fill="white" stroke="black" stroke-width="0.961" stroke-miterlimit="10" />
        <path d="M56.0467 224.002C63.7655 216.272 61.1858 201.154 50.2849 190.237C39.3839 179.319 24.2896 176.735 16.5708 184.466C8.85204 192.197 11.4317 207.314 22.3327 218.231C33.2336 229.149 48.3279 231.733 56.0467 224.002Z" fill="#F7941D" />
        <path d="M52.7959 95.9331L66.9034 151.619L82.3328 95.9331H52.7959Z" fill="#FBB040" />
        <path opacity="0.67" d="M56.6855 103.21L66.313 141.216C66.8447 143.307 69.0299 143.353 69.609 141.278L80.1407 103.272C80.5712 101.737 79.723 100.099 78.5045 100.099H58.3432C57.1419 100.099 56.3023 101.686 56.6855 103.21Z" fill="#FFE07F" />
        <path opacity="0.67" d="M54.3006 223.878C60.918 217.251 58.7084 204.293 49.3653 194.935C40.0222 185.578 27.0837 183.365 20.4663 189.992C13.8489 196.62 16.0584 209.578 25.4015 218.936C34.7446 228.293 47.6831 230.506 54.3006 223.878Z" fill="#FFE07F" />
        <path d="M113.165 218.234C124.066 207.317 126.645 192.199 118.927 184.469C111.208 176.738 96.1135 179.322 85.2126 190.239C74.3116 201.157 71.7319 216.274 79.4507 224.005C87.1695 231.735 102.264 229.152 113.165 218.234Z" fill="#F7941D" />
        <path opacity="0.67" d="M110.091 218.932C119.434 209.575 121.644 196.616 115.026 189.989C108.409 183.361 95.4702 185.574 86.1271 194.932C76.784 204.289 74.5744 217.247 81.1919 223.875C87.8093 230.502 100.748 228.289 110.091 218.932Z" fill="#FFE07F" />
        <path d="M53.3558 86.4635C57.0963 86.4635 60.1286 82.5693 60.1286 77.7657C60.1286 72.962 57.0963 69.0679 53.3558 69.0679C49.6153 69.0679 46.583 72.962 46.583 77.7657C46.583 82.5693 49.6153 86.4635 53.3558 86.4635Z" fill="white" />
        <path d="M54.056 82.7055C55.7848 82.7055 57.1862 81.302 57.1862 79.5705C57.1862 77.8391 55.7848 76.4355 54.056 76.4355C52.3272 76.4355 50.9258 77.8391 50.9258 79.5705C50.9258 81.302 52.3272 82.7055 54.056 82.7055Z" fill="black" />
        <path d="M25.7311 107.434C22.1165 107.175 17.5675 108.688 11.348 119.529C6.99924 127.115 -3.52597 156.634 2.76031 157.637C12.8571 159.247 36.0281 131.505 36.3015 116.256C36.3898 111.679 30.3597 107.766 25.7311 107.434Z" fill="black" stroke="#58595B" stroke-width="0.75" stroke-miterlimit="10" />
        <path d="M111.272 107.434C114.888 107.175 119.435 108.688 125.655 119.529C130.003 127.115 140.529 156.634 134.242 157.637C124.146 159.247 100.975 131.505 100.701 116.256C100.613 111.679 106.643 107.766 111.272 107.434Z" fill="black" stroke="#58595B" stroke-width="0.75" stroke-miterlimit="10" />
        <path d="M81.7718 86.4635C85.5124 86.4635 88.5447 82.5693 88.5447 77.7657C88.5447 72.962 85.5124 69.0679 81.7718 69.0679C78.0313 69.0679 74.999 72.962 74.999 77.7657C74.999 82.5693 78.0313 86.4635 81.7718 86.4635Z" fill="white" />
        <path d="M82.4779 82.7055C84.2067 82.7055 85.6081 81.302 85.6081 79.5705C85.6081 77.8391 84.2067 76.4355 82.4779 76.4355C80.7491 76.4355 79.3477 77.8391 79.3477 79.5705C79.3477 81.302 80.7491 82.7055 82.4779 82.7055Z" fill="black" />
    </g>
    <path d="M145.923 154.73H109.077C109.077 154.73 94.6016 167.781 94.6016 192.893V195.502C94.6016 200.079 97.2808 204.265 101.487 206.073C106.266 208.129 114.255 210 127.5 210C140.745 210 148.734 208.129 153.513 206.073C157.719 204.265 160.398 200.079 160.398 195.502V192.893C160.398 167.781 145.923 154.73 145.923 154.73Z" fill="#7F6E5D" />
    <path d="M118.288 178.418C117.992 178.418 117.696 178.319 117.45 178.116C116.889 177.653 116.812 176.824 117.274 176.263C117.324 176.203 122.236 170.196 122.236 165.258C122.241 164.941 122.402 157.967 126.57 153.8C127.084 153.286 127.916 153.286 128.43 153.8C128.945 154.315 128.945 155.147 128.43 155.661C125.009 159.084 124.868 165.219 124.868 165.281C124.868 171.147 119.529 177.666 119.303 177.941C119.042 178.254 118.666 178.418 118.288 178.418Z" fill="white" />
    <path d="M135.394 173.154C135.278 173.154 135.16 173.138 135.043 173.105C134.843 173.05 130.132 171.668 130.132 165.258C130.13 165.22 129.974 159.067 126.569 155.661C126.055 155.147 126.055 154.315 126.569 153.8C127.084 153.286 127.916 153.286 128.43 153.8C132.598 157.967 132.758 164.941 132.764 165.236C132.764 169.609 135.64 170.537 135.763 170.575C136.452 170.785 136.852 171.512 136.651 172.204C136.484 172.777 135.964 173.154 135.394 173.154Z" fill="white" />
    <path d="M134.08 194.209C134.08 197.842 131.134 200.788 127.501 200.788C123.867 200.788 120.921 197.842 120.921 194.209C120.921 190.575 123.867 187.629 127.501 187.629C131.134 187.629 134.08 190.575 134.08 194.209Z" fill="#F0C419" />
    <path d="M136.711 182.365C133.324 182.365 130.567 184.934 130.204 188.224C132.486 189.257 134.079 191.541 134.079 194.209C134.079 194.456 134.033 194.69 134.007 194.93C134.834 195.305 135.744 195.525 136.711 195.525C140.345 195.525 143.291 192.578 143.291 188.945C143.291 185.312 140.345 182.365 136.711 182.365Z" fill="#D3A71C" />
    <path d="M120.92 194.209C120.92 191.403 122.685 189.024 125.157 188.078C123.993 186.233 121.948 184.997 119.604 184.997C115.971 184.997 113.024 187.943 113.024 191.577C113.024 195.21 115.971 198.156 119.604 198.156C120.432 198.156 121.216 197.987 121.946 197.708C121.306 196.692 120.92 195.498 120.92 194.209Z" fill="#D3A71C" />
    <path d="M152.467 139.379C152.143 135.632 147.72 133.711 144.709 135.965C142.814 137.385 139.989 138.939 136.712 138.939C134.192 138.939 132.275 138.217 130.859 137.306C128.806 135.985 126.195 135.985 124.143 137.306C122.727 138.217 120.809 138.939 118.289 138.939C115.011 138.939 112.187 137.385 110.291 135.965C107.282 133.711 102.857 135.632 102.535 139.379C102.53 139.438 102.524 139.497 102.52 139.558C102.49 140.008 102.64 140.455 102.902 140.822L109.078 149.467H127.501H145.924L152.098 140.822C152.361 140.455 152.51 140.008 152.48 139.558C152.476 139.497 152.472 139.438 152.467 139.379Z" fill="#7F6E5D" />
    <path d="M147.239 154.731H107.761C106.313 154.731 105.129 153.546 105.129 152.099C105.129 150.651 106.313 149.467 107.761 149.467H147.239C148.686 149.467 149.871 150.651 149.871 152.099C149.871 153.546 148.686 154.731 147.239 154.731Z" fill="#B29A84" />
    <path d="M80.9659 30.9307L65.5003 10.7065L50.0348 30.9307L34.5693 10.7065L42.8969 46.3963H65.5003H88.1038L96.4313 10.7065L80.9659 30.9307Z" fill="#F0C419" />
    <path d="M70.2584 32.1205C70.2584 36.7197 68.1277 40.4481 65.4998 40.4481C62.8719 40.4481 60.7412 36.7197 60.7412 32.1205C60.7412 27.5214 62.8719 23.793 65.4998 23.793C68.1277 23.793 70.2584 27.5213 70.2584 32.1205Z" fill="white" />
    <path d="M65.5003 35.6895C64.8435 35.6895 64.3105 35.1565 64.3105 34.4998V29.74C64.3105 29.0821 64.8435 28.5503 65.5003 28.5503C66.157 28.5503 66.69 29.0821 66.69 29.74V34.4998C66.69 35.1565 66.157 35.6895 65.5003 35.6895Z" fill="#E64C3C" />
    <path d="M91.6724 51.1551H39.3275C38.013 51.1551 36.9482 50.0903 36.9482 48.7758C36.9482 47.4611 38.013 46.3965 39.3275 46.3965H91.6724C92.9869 46.3965 94.0517 47.4613 94.0517 48.7758C94.0517 50.0904 92.9869 51.1551 91.6724 51.1551Z" fill="#BA941C" />
    <path d="M91.6724 65.431H39.3275C38.013 65.431 36.9482 64.3662 36.9482 63.0517C36.9482 61.7371 38.013 60.6724 39.3275 60.6724H91.6724C92.9869 60.6724 94.0517 61.7371 94.0517 63.0517C94.0517 64.3662 92.9869 65.431 91.6724 65.431Z" fill="#BA941C" />
    <path d="M40.5176 60.6721H90.483V51.1548H40.5176V60.6721Z" fill="#F0C419" />
    <path d="M60.7412 57.1031H51.2239C50.5672 57.1031 50.0342 56.5701 50.0342 55.9133C50.0342 55.2566 50.5672 54.7236 51.2239 54.7236H60.7412C61.3979 54.7236 61.9309 55.2566 61.9309 55.9133C61.9309 56.5701 61.3978 57.1031 60.7412 57.1031Z" fill="#BA941C" />
    <path d="M79.7754 57.1031H70.2581C69.6014 57.1031 69.0684 56.5701 69.0684 55.9133C69.0684 55.2566 69.6014 54.7236 70.2581 54.7236H79.7754C80.4321 54.7236 80.9651 55.2566 80.9651 55.9133C80.9651 56.5701 80.4321 57.1031 79.7754 57.1031Z" fill="#BA941C" />
    <path d="M66.69 55.9138C66.69 56.5705 66.157 57.1035 65.5003 57.1035C64.8435 57.1035 64.3105 56.5705 64.3105 55.9138C64.3105 55.2571 64.8435 54.7241 65.5003 54.7241C66.157 54.7241 66.69 55.2571 66.69 55.9138Z" fill="#BA941C" />
    <path d="M85.7241 55.9138C85.7241 56.5705 85.1911 57.1035 84.5344 57.1035C83.8777 57.1035 83.3447 56.5705 83.3447 55.9138C83.3447 55.2571 83.8777 54.7241 84.5344 54.7241C85.1911 54.7241 85.7241 55.2571 85.7241 55.9138Z" fill="#BA941C" />
    <path d="M45.2754 55.9138C45.2754 55.2571 45.8084 54.7241 46.4651 54.7241C47.1218 54.7241 47.6548 55.2571 47.6548 55.9138C47.6548 56.5705 47.1218 57.1035 46.4651 57.1035C45.8084 57.1035 45.2754 56.5704 45.2754 55.9138Z" fill="#BA941C" />
    <path d="M38.138 7.13785C38.138 9.10906 36.5403 10.7068 34.569 10.7068C32.5976 10.7068 31 9.10906 31 7.13785C31 5.16663 32.5976 3.56885 34.569 3.56885C36.5403 3.56885 38.138 5.16649 38.138 7.13785Z" fill="#BA941C" />
    <path d="M69.0696 7.13785C69.0696 9.10906 67.472 10.7068 65.5006 10.7068C63.5294 10.7068 61.9316 9.1092 61.9316 7.13785C61.9316 5.16649 63.5294 3.56885 65.5006 3.56885C67.4719 3.56885 69.0696 5.16649 69.0696 7.13785Z" fill="#BA941C" />
    <path d="M100 7.13785C100 9.10906 98.4027 10.7068 96.4313 10.7068C94.46 10.7068 92.8623 9.1092 92.8623 7.13785C92.8623 5.16649 94.46 3.56885 96.4313 3.56885C98.4027 3.56885 100 5.16649 100 7.13785Z" fill="#BA941C" />
    <defs>
        <clipPath id="clip0">
            <rect width="137" height="186" fill="white" transform="translate(0 52)" />
        </clipPath>
    </defs>
</svg>
    