<svg width="223" height="235" viewBox="0 0 223 235" fill="none" xmlns="http://www.w3.org/2000/svg">
    <g clip-path="url(#clip0)">
        <path d="M91.5687 214.536C116.353 214.536 136.445 177.776 136.445 132.429C136.445 87.0825 116.353 50.3218 91.5687 50.3218C66.7845 50.3218 46.6929 87.0825 46.6929 132.429C46.6929 177.776 66.7845 214.536 91.5687 214.536Z" fill="black" stroke="black" stroke-width="1.225" stroke-miterlimit="10" />
        <path d="M91.5664 214.537C112.148 214.537 128.832 187.316 128.832 153.738C128.832 120.16 112.148 92.9399 91.5664 92.9399C70.9852 92.9399 54.3008 120.16 54.3008 153.738C54.3008 187.316 70.9852 214.537 91.5664 214.537Z" fill="white" stroke="black" stroke-width="0.961" stroke-miterlimit="10" />
        <path d="M80.0462 221.002C87.765 213.272 85.1853 198.154 74.2844 187.237C63.3834 176.319 48.2891 173.735 40.5703 181.466C32.8515 189.197 35.4312 204.314 46.3322 215.231C57.2331 226.149 72.3274 228.733 80.0462 221.002Z" fill="#F7941D" />
        <path d="M76.7959 92.9331L90.9034 148.619L106.333 92.9331H76.7959Z" fill="#FBB040" />
        <path opacity="0.67" d="M80.686 100.21L90.3135 138.216C90.8452 140.307 93.0304 140.353 93.6095 138.278L104.141 100.272C104.572 98.7373 103.723 97.0986 102.505 97.0986H82.3437C81.1424 97.0986 80.3028 98.6855 80.686 100.21Z" fill="#FFE07F" />
        <path opacity="0.67" d="M78.3001 220.878C84.9175 214.251 82.7079 201.293 73.3648 191.935C64.0217 182.578 51.0832 180.365 44.4658 186.992C37.8484 193.62 40.0579 206.578 49.401 215.936C58.7441 225.293 71.6826 227.506 78.3001 220.878Z" fill="#FFE07F" />
        <path d="M137.164 215.234C148.065 204.317 150.645 189.199 142.926 181.469C135.207 173.738 120.113 176.322 109.212 187.239C98.3111 198.157 95.7314 213.274 103.45 221.005C111.169 228.735 126.263 226.152 137.164 215.234Z" fill="#F7941D" />
        <path opacity="0.67" d="M134.09 215.932C143.433 206.575 145.643 193.616 139.025 186.989C132.408 180.361 119.469 182.574 110.126 191.932C100.783 201.289 98.5735 214.247 105.191 220.875C111.808 227.502 124.747 225.289 134.09 215.932Z" fill="#FFE07F" />
        <path d="M77.3558 83.4635C81.0963 83.4635 84.1286 79.5693 84.1286 74.7657C84.1286 69.962 81.0963 66.0679 77.3558 66.0679C73.6153 66.0679 70.583 69.962 70.583 74.7657C70.583 79.5693 73.6153 83.4635 77.3558 83.4635Z" fill="white" />
        <path d="M78.0555 79.7055C79.7843 79.7055 81.1857 78.302 81.1857 76.5705C81.1857 74.8391 79.7843 73.4355 78.0555 73.4355C76.3267 73.4355 74.9253 74.8391 74.9253 76.5705C74.9253 78.302 76.3267 79.7055 78.0555 79.7055Z" fill="black" />
        <path d="M49.7306 104.434C46.116 104.175 41.567 105.688 35.3475 116.529C30.9988 124.115 20.4735 153.634 26.7598 154.637C36.8566 156.247 60.0276 128.505 60.301 113.256C60.3893 108.679 54.3592 104.766 49.7306 104.434Z" fill="black" stroke="#58595B" stroke-width="0.75" stroke-miterlimit="10" />
        <path d="M135.272 104.434C138.888 104.175 143.435 105.688 149.655 116.529C154.003 124.115 164.529 153.634 158.242 154.637C148.146 156.247 124.975 128.505 124.701 113.256C124.613 108.679 130.643 104.766 135.272 104.434Z" fill="black" stroke="#58595B" stroke-width="0.75" stroke-miterlimit="10" />
        <path d="M105.771 83.4635C109.511 83.4635 112.544 79.5693 112.544 74.7657C112.544 69.962 109.511 66.0679 105.771 66.0679C102.03 66.0679 98.998 69.962 98.998 74.7657C98.998 79.5693 102.03 83.4635 105.771 83.4635Z" fill="white" />
        <path d="M106.477 79.7055C108.206 79.7055 109.607 78.302 109.607 76.5705C109.607 74.8391 108.206 73.4355 106.477 73.4355C104.748 73.4355 103.347 74.8391 103.347 76.5705C103.347 78.302 104.748 79.7055 106.477 79.7055Z" fill="black" />
    </g>
    <g clip-path="url(#clip1)">
        <path d="M118.46 28.6916C120.543 31.2981 122.209 34.1327 123.441 37.1337C127.712 31.845 129.795 25.2776 129.359 18.5342C126.022 22.3469 121.744 25.2529 116.964 26.946C117.481 27.5103 117.981 28.0919 118.46 28.6916Z" fill="#FFD085" />
        <path d="M64.5407 28.6912C65.0199 28.0917 65.5191 27.5103 66.0359 26.946C61.2557 25.2529 56.9784 22.3469 53.6406 18.5342C53.2055 25.2776 55.2886 31.845 59.5596 37.1338C60.7913 34.1325 62.4575 31.2977 64.5407 28.6912Z" fill="#FFD085" />
        <path d="M130.684 28.9149C132.078 24.4031 132.366 19.7415 131.541 15.0598C131.45 14.545 131.058 14.1356 130.548 14.0224C130.038 13.9097 129.509 14.1146 129.209 14.543C125.742 19.4944 120.689 23.1496 114.923 24.8961C110.847 21.132 105.896 18.3717 100.546 16.9182V16.1531C100.546 15.5498 100.129 15.0268 99.5407 14.893C94.285 13.6967 88.7096 13.6977 83.4602 14.8926C82.8719 15.0265 82.4546 15.5495 82.4546 16.1526V16.9181C77.1047 18.3714 72.1531 21.1318 68.0774 24.8961C62.3111 23.1496 57.2578 19.4944 53.7908 14.5428C53.4911 14.1146 52.9621 13.9095 52.4524 14.0222C51.942 14.1354 51.5501 14.5449 51.4593 15.0596C50.6337 19.7413 50.9222 24.4029 52.3162 28.9148C53.5688 32.9681 55.7182 36.762 58.5518 39.9351C57.6566 42.8163 57.1445 45.8255 57.0328 48.9143H56.5772C55.8633 48.9143 55.2848 49.493 55.2848 50.2067V54.1828C53.7806 54.7163 52.7 56.1528 52.7 57.8377C52.7 59.5227 53.7806 60.9591 55.2848 61.4926V65.7138C55.2848 66.4275 55.8633 67.0062 56.5772 67.0062L126.423 67.0081C126.766 67.0081 127.094 66.8719 127.337 66.6295C127.579 66.3872 127.715 66.0584 127.715 65.7157V61.4928C129.22 60.9593 130.3 59.5229 130.3 57.8379C130.3 56.153 129.22 54.7165 127.715 54.183V50.2069C127.715 49.4932 127.137 48.9145 126.423 48.9145H125.967C125.856 45.8255 125.344 42.8163 124.448 39.9351C127.282 36.762 129.431 32.9682 130.684 28.9149ZM53.6409 18.5344C56.9787 22.3472 61.256 25.2532 66.0361 26.9462C65.5195 27.5105 65.0201 28.0919 64.5409 28.6914C62.4578 31.2979 60.7914 34.1329 59.5599 37.1341C55.2887 31.8452 53.2056 25.2778 53.6409 18.5344ZM82.4546 19.6026L82.4539 39.8677C82.4539 40.5817 83.0324 41.1601 83.7463 41.1601C84.46 41.16 85.0387 40.5815 85.0387 39.8677L85.0395 17.2003C89.2793 16.3727 93.7182 16.3716 97.9616 17.2007V48.9145H85.0387V45.0373C85.0387 44.3236 84.4602 43.7449 83.7465 43.7449C83.0325 43.7449 82.4539 44.3236 82.4539 45.0373V48.9145H59.6193C60.1626 35.1937 69.3237 23.4583 82.4546 19.6026ZM125.131 51.4993V55.2531V60.4227V64.4233L57.8697 64.4214V60.4225V55.2529V51.4993H125.131ZM100.546 48.9145V19.6028C113.677 23.4588 122.838 35.1943 123.381 48.9145H100.546ZM129.359 18.5344C129.795 25.2778 127.712 31.8451 123.441 37.1339C122.209 34.1329 120.543 31.2983 118.46 28.6918C117.98 28.0921 117.481 27.5105 116.964 26.9462C121.744 25.253 126.022 22.347 129.359 18.5344Z" fill="#081C1F" />
        <path d="M82.4537 48.9144V45.0372C82.4537 44.3235 83.0322 43.7449 83.7461 43.7449C83.7463 43.7449 83.7463 41.1601 83.7463 41.1601C83.0322 41.1601 82.4537 40.5814 82.4537 39.8677L82.4544 19.6025C69.3237 23.4582 60.1625 35.1937 59.6191 48.9144H82.4537Z" fill="#2EAAB6" />
        <path d="M100.546 19.603V48.9148H123.381C122.838 35.1943 113.677 23.4588 100.546 19.603Z" fill="#2EAAB6" />
        <path d="M57.8701 51.4995V55.2533V60.4229V64.4218L125.131 64.4237V60.4231V55.2535V51.4995H57.8701ZM68.9958 61.7153C66.858 61.7153 65.1186 59.9761 65.1186 57.8381C65.1186 55.7002 66.858 53.9609 68.9958 53.9609C71.1336 53.9609 72.8729 55.7002 72.8729 57.8381C72.8729 59.9761 71.1336 61.7153 68.9958 61.7153ZM83.9989 61.7153C81.8611 61.7153 80.1217 59.9761 80.1217 57.8381C80.1217 55.7002 81.8611 53.9609 83.9989 53.9609C86.1367 53.9609 87.8761 55.7002 87.8761 57.8381C87.8761 59.9761 86.1369 61.7153 83.9989 61.7153ZM114.005 53.9609C116.143 53.9609 117.882 55.7002 117.882 57.8381C117.882 59.9761 116.143 61.7153 114.005 61.7153C111.867 61.7153 110.128 59.9761 110.128 57.8381C110.128 55.7002 111.867 53.9609 114.005 53.9609ZM102.879 57.8381C102.879 59.9761 101.14 61.7153 99.0021 61.7153C96.8643 61.7153 95.1249 59.9761 95.1249 57.8381C95.1249 55.7002 96.8643 53.9609 99.0021 53.9609C101.14 53.9609 102.879 55.7002 102.879 57.8381Z" fill="#8BEEF8" />
        <path d="M85.0388 45.0372V48.9144H97.9617V17.2005C93.7184 16.3715 89.2792 16.3725 85.0397 17.2002L85.0388 39.8676C85.0388 40.5812 84.4602 41.1598 83.7466 41.1598V43.7446C84.4603 43.7448 85.0388 44.3235 85.0388 45.0372ZM91.5003 21.3667C93.6381 21.3667 95.3775 23.1059 95.3775 25.2439C95.3775 27.3819 93.6381 29.1211 91.5003 29.1211C89.3625 29.1211 87.6231 27.3819 87.6231 25.2439C87.6231 23.1059 89.3623 21.3667 91.5003 21.3667ZM91.5003 36.3697C93.6381 36.3697 95.3775 38.1089 95.3775 40.2469C95.3775 42.3849 93.6381 44.1241 91.5003 44.1241C89.3625 44.1241 87.6231 42.3849 87.6231 40.2469C87.6231 38.1089 89.3623 36.3697 91.5003 36.3697Z" fill="#8BEEF8" />
        <path d="M68.9955 56.5454C68.2828 56.5454 67.7031 57.1251 67.7031 57.8378C67.7031 58.5505 68.2828 59.1302 68.9955 59.1302C69.7082 59.1302 70.2879 58.5505 70.2879 57.8378C70.2879 57.1251 69.7082 56.5454 68.9955 56.5454Z" fill="#2EAAB6" />
        <path d="M68.9954 53.9604C66.8576 53.9604 65.1182 55.6997 65.1182 57.8376C65.1182 59.9756 66.8576 61.7148 68.9954 61.7148C71.1331 61.7148 72.8725 59.9756 72.8725 57.8376C72.8725 55.6997 71.1331 53.9604 68.9954 53.9604ZM68.9954 59.13C68.2826 59.13 67.703 58.5504 67.703 57.8376C67.703 57.1249 68.2826 56.5452 68.9954 56.5452C69.7081 56.5452 70.2877 57.1249 70.2877 57.8376C70.2877 58.5504 69.7081 59.13 68.9954 59.13Z" fill="#081C1F" />
        <path d="M83.9985 56.5454C83.2857 56.5454 82.7061 57.1251 82.7061 57.8378C82.7061 58.5505 83.2857 59.1302 83.9985 59.1302C84.7112 59.1302 85.2908 58.5505 85.2908 57.8378C85.2908 57.1251 84.7112 56.5454 83.9985 56.5454Z" fill="#2EAAB6" />
        <path d="M83.9983 53.9604C81.8605 53.9604 80.1211 55.6997 80.1211 57.8376C80.1211 59.9756 81.8605 61.7148 83.9983 61.7148C86.1361 61.7148 87.8755 59.9756 87.8755 57.8376C87.8755 55.6997 86.1363 53.9604 83.9983 53.9604ZM83.9983 59.13C83.2856 59.13 82.7059 58.5504 82.7059 57.8376C82.7059 57.1249 83.2856 56.5452 83.9983 56.5452C84.711 56.5452 85.2907 57.1249 85.2907 57.8376C85.2907 58.5504 84.711 59.13 83.9983 59.13Z" fill="#081C1F" />
        <path d="M99.0019 56.5454C98.2892 56.5454 97.7095 57.1251 97.7095 57.8378C97.7095 58.5505 98.2892 59.1302 99.0019 59.1302C99.7146 59.1302 100.294 58.5505 100.294 57.8378C100.294 57.1251 99.7146 56.5454 99.0019 56.5454Z" fill="#2EAAB6" />
        <path d="M95.1245 57.8376C95.1245 59.9756 96.8639 61.7148 99.0017 61.7148C101.14 61.7148 102.879 59.9756 102.879 57.8376C102.879 55.6997 101.14 53.9604 99.0017 53.9604C96.8639 53.9604 95.1245 55.6997 95.1245 57.8376ZM99.0017 59.13C98.289 59.13 97.7093 58.5504 97.7093 57.8376C97.7093 57.1249 98.289 56.5452 99.0017 56.5452C99.7144 56.5452 100.294 57.1249 100.294 57.8376C100.294 58.5504 99.7144 59.13 99.0017 59.13Z" fill="#081C1F" />
        <path d="M114.005 59.1302C114.718 59.1302 115.297 58.5505 115.297 57.8378C115.297 57.1251 114.718 56.5454 114.005 56.5454C113.292 56.5454 112.712 57.1251 112.712 57.8378C112.712 58.5505 113.292 59.1302 114.005 59.1302Z" fill="#2EAAB6" />
        <path d="M114.005 61.7148C116.142 61.7148 117.882 59.9756 117.882 57.8376C117.882 55.6997 116.142 53.9604 114.005 53.9604C111.867 53.9604 110.127 55.6997 110.127 57.8376C110.127 59.9756 111.867 61.7148 114.005 61.7148ZM114.005 56.5452C114.717 56.5452 115.297 57.1249 115.297 57.8376C115.297 58.5504 114.717 59.13 114.005 59.13C113.292 59.13 112.712 58.5504 112.712 57.8376C112.712 57.1249 113.292 56.5452 114.005 56.5452Z" fill="#081C1F" />
        <path d="M91.4999 26.5365C92.2126 26.5365 92.7923 25.9568 92.7923 25.2441C92.7923 24.5313 92.2126 23.9517 91.4999 23.9517C90.7872 23.9517 90.2075 24.5313 90.2075 25.2441C90.2075 25.9568 90.7872 26.5365 91.4999 26.5365Z" fill="#2EAAB6" />
        <path d="M91.5002 29.1211C93.638 29.1211 95.3774 27.3819 95.3774 25.2439C95.3774 23.1059 93.638 21.3667 91.5002 21.3667C89.3624 21.3667 87.623 23.1059 87.623 25.2439C87.623 27.3819 89.3623 29.1211 91.5002 29.1211ZM91.5002 23.9515C92.2129 23.9515 92.7926 24.5312 92.7926 25.2439C92.7926 25.9566 92.2129 26.5363 91.5002 26.5363C90.7875 26.5363 90.2078 25.9566 90.2078 25.2439C90.2078 24.5312 90.7875 23.9515 91.5002 23.9515Z" fill="#081C1F" />
        <path d="M90.2075 40.247C90.2075 40.9597 90.7872 41.5394 91.4999 41.5394C92.2126 41.5394 92.7923 40.9597 92.7923 40.247C92.7923 39.5343 92.2126 38.9546 91.4999 38.9546C90.7872 38.9546 90.2075 39.5343 90.2075 40.247Z" fill="#2EAAB6" />
        <path d="M91.5002 44.124C93.638 44.124 95.3774 42.3848 95.3774 40.2468C95.3774 38.1088 93.638 36.3696 91.5002 36.3696C89.3624 36.3696 87.623 38.1088 87.623 40.2468C87.623 42.3848 89.3623 44.124 91.5002 44.124ZM92.7926 40.2468C92.7926 40.9595 92.2129 41.5392 91.5002 41.5392C90.7875 41.5392 90.2078 40.9595 90.2078 40.2468C90.2078 39.5341 90.7875 38.9544 91.5002 38.9544C92.2129 38.9544 92.7926 39.5341 92.7926 40.2468Z" fill="#081C1F" />
    </g>
    <g clip-path="url(#clip2)">
        <path d="M195.335 98.0714L201.928 104.665L209.619 96.9727H203.027V90.3794L195.335 98.0714Z" fill="#D69C77" />
        <path d="M179.952 113.455L136 157.406L142.592 164L186.545 120.048L179.952 113.455Z" fill="#D69C77" />
        <path d="M222.805 110.158C213.553 113.524 207.758 110.494 204.125 106.863C200.488 103.223 196.777 99.5123 193.137 95.8746C189.518 92.2539 186.474 86.4468 189.842 77.1947C189.842 77.1947 176.586 75.0658 166.767 84.8867C156.946 94.7061 159.075 107.961 159.075 107.961C168.327 104.594 174.2 107.702 177.755 111.257L188.743 122.245C192.362 125.864 195.405 131.673 192.039 140.925C192.039 140.925 205.292 143.054 215.113 133.233C224.934 123.412 222.805 110.158 222.805 110.158Z" fill="#C7CFE3" />
        <path d="M200.828 133.689C200.147 133.689 199.521 133.237 199.331 132.549C199.103 131.722 199.588 130.866 200.415 130.637C202.812 129.974 206.096 129.066 208.52 126.64C210.943 124.219 211.852 120.934 212.517 118.535C212.745 117.707 213.603 117.227 214.43 117.452C215.256 117.68 215.741 118.538 215.513 119.365C214.798 121.941 213.718 125.837 210.717 128.838C207.715 131.843 203.819 132.92 201.243 133.632C201.104 133.67 200.965 133.689 200.828 133.689Z" fill="white" />
        <path d="M167.865 100.725C167.728 100.725 167.589 100.707 167.449 100.668C166.622 100.44 166.137 99.5832 166.367 98.755C167.081 96.1785 168.159 92.2828 171.161 89.2821C174.167 86.2753 178.061 85.2 180.636 84.4867C181.464 84.2582 182.32 84.7431 182.549 85.5714C182.777 86.3981 182.292 87.2543 181.464 87.4828C179.068 88.1448 175.786 89.0537 173.359 91.4794C170.936 93.9021 170.027 97.1871 169.362 99.5863C169.17 100.273 168.546 100.725 167.865 100.725Z" fill="white" />
        <path d="M171.161 135.431L164.568 128.838L171.161 122.246L177.755 128.838L171.161 135.431Z" fill="#BD8366" />
        <path d="M151.383 155.21L144.79 148.616L151.383 142.024L157.976 148.616L151.383 155.21Z" fill="#BD8366" />
        <path d="M199.711 118.956C199.313 118.956 198.916 118.804 198.613 118.501L181.519 101.407C180.912 100.8 180.912 99.8177 181.519 99.2101C182.127 98.6025 183.109 98.6025 183.716 99.2101L200.81 116.303C201.417 116.911 201.417 117.893 200.81 118.501C200.507 118.804 200.109 118.956 199.711 118.956Z" fill="white" />
    </g>
    <path d="M90 169C90 193.852 69.8525 214 45 214C20.1475 214 0 193.852 0 169C0 144.148 20.1475 124 45 124C69.8525 124 90 144.148 90 169Z" fill="#8A9099" />
    <path d="M82.241 169C82.241 189.568 65.5678 206.241 44.9997 206.241C24.4315 206.241 7.7583 189.568 7.7583 169C7.7583 148.432 24.4315 131.758 44.9997 131.758C65.5678 131.758 82.241 148.432 82.241 169Z" fill="#A4ACBC" />
    <path d="M43.4478 206.241H46.5513V179.862H43.4478V206.241Z" fill="#C7CFE3" />
    <path d="M43.4478 158.138H46.5513V131.758H43.4478V158.138Z" fill="#C7CFE3" />
    <path d="M7.7583 170.551H34.1376V167.448H7.7583V170.551Z" fill="#C7CFE3" />
    <path d="M55.8618 170.551H82.2411V167.448H55.8618V170.551Z" fill="#C7CFE3" />
    <path d="M55.8618 169C55.8618 174.999 50.9986 179.862 44.9997 179.862C39.0009 179.862 34.1377 174.999 34.1377 169C34.1377 163.001 39.0009 158.138 44.9997 158.138C50.9986 158.138 55.8618 163.001 55.8618 169Z" fill="#C7CFE3" />
    <path d="M34.1376 148.827H26.3789C25.5224 148.827 24.8271 148.132 24.8271 147.275C24.8271 146.419 25.5224 145.724 26.3789 145.724H34.1376C34.9942 145.724 35.6894 146.419 35.6894 147.275C35.6892 148.132 34.9942 148.827 34.1376 148.827Z" fill="#C7CFE3" />
    <path d="M29.4823 156.586H21.7237C20.8671 156.586 20.1719 155.891 20.1719 155.034C20.1719 154.178 20.8671 153.482 21.7237 153.482H29.4823C30.3389 153.482 31.0341 154.178 31.0341 155.034C31.0341 155.891 30.3389 156.586 29.4823 156.586Z" fill="#C7CFE3" />
    <path d="M63.6205 182.965H55.8619C55.0053 182.965 54.3101 182.27 54.3101 181.414C54.3101 180.557 55.0053 179.862 55.8619 179.862H63.6205C64.4771 179.862 65.1723 180.557 65.1723 181.414C65.1723 182.27 64.4771 182.965 63.6205 182.965Z" fill="#C7CFE3" />
    <path d="M68.2753 190.724H60.5166C59.6601 190.724 58.9648 190.029 58.9648 189.172C58.9648 188.315 59.6601 187.62 60.5166 187.62H68.2753C69.1319 187.62 69.8271 188.315 69.8271 189.172C69.8269 190.029 69.1319 190.724 68.2753 190.724Z" fill="#C7CFE3" />
    <path d="M58.9652 155.034C58.568 155.034 58.1707 154.882 57.8682 154.579C57.2614 153.973 57.2614 152.992 57.8682 152.385L62.5234 147.73C63.1302 147.123 64.1109 147.123 64.7175 147.73C65.3241 148.337 65.3243 149.317 64.7175 149.924L60.0623 154.579C59.7598 154.882 59.3625 155.034 58.9652 155.034Z" fill="#C7CFE3" />
    <path d="M63.6204 155.034C63.2232 155.034 62.8259 154.882 62.5234 154.58L57.8682 149.925C57.2614 149.318 57.2614 148.337 57.8682 147.73C58.475 147.124 59.4557 147.124 60.0623 147.73L64.7175 152.386C65.3243 152.992 65.3243 153.973 64.7175 154.58C64.415 154.882 64.0177 155.034 63.6204 155.034Z" fill="#C7CFE3" />
    <path d="M26.3788 189.172C25.9815 189.172 25.5843 189.02 25.2818 188.717C24.675 188.111 24.675 187.13 25.2818 186.523L29.937 181.868C30.5438 181.261 31.5244 181.261 32.1311 181.868C32.7379 182.475 32.7379 183.456 32.1311 184.062L27.4759 188.717C27.1733 189.02 26.7761 189.172 26.3788 189.172Z" fill="#C7CFE3" />
    <path d="M31.034 189.172C30.6368 189.172 30.2395 189.02 29.937 188.717L25.2818 184.062C24.675 183.455 24.675 182.475 25.2818 181.868C25.8886 181.261 26.8692 181.261 27.4759 181.868L32.1311 186.523C32.7379 187.13 32.7379 188.111 32.1311 188.717C31.8284 189.02 31.4313 189.172 31.034 189.172Z" fill="#C7CFE3" />
    <path d="M40.3448 170.552C39.4882 170.552 38.793 169.857 38.793 169C38.793 165.577 41.5768 162.793 44.9998 162.793C45.8564 162.793 46.5516 163.489 46.5516 164.345C46.5516 165.202 45.8564 165.897 44.9998 165.897C43.2882 165.897 41.8964 167.289 41.8964 169C41.8966 169.857 41.2013 170.552 40.3448 170.552Z" fill="white" />
    <defs>
        <clipPath id="clip0">
            <rect width="137" height="186" fill="white" transform="translate(24 49)" />
        </clipPath>
        <clipPath id="clip1">
            <rect width="81" height="81" fill="white" transform="translate(51)" />
        </clipPath>
        <clipPath id="clip2">
            <rect width="87" height="87" fill="white" transform="translate(136 77)" />
        </clipPath>
    </defs>
</svg>
    