<svg width="218" height="251" viewBox="0 0 218 251" fill="none" xmlns="http://www.w3.org/2000/svg">
    <g clip-path="url(#clip0)">
        <path d="M67.5687 230.536C92.353 230.536 112.445 193.776 112.445 148.429C112.445 103.082 92.353 66.3218 67.5687 66.3218C42.7845 66.3218 22.6929 103.082 22.6929 148.429C22.6929 193.776 42.7845 230.536 67.5687 230.536Z" fill="black" stroke="black" stroke-width="1.225" stroke-miterlimit="10" />
        <path d="M67.5664 230.537C88.1476 230.537 104.832 203.316 104.832 169.738C104.832 136.16 88.1476 108.94 67.5664 108.94C46.9852 108.94 30.3008 136.16 30.3008 169.738C30.3008 203.316 46.9852 230.537 67.5664 230.537Z" fill="white" stroke="black" stroke-width="0.961" stroke-miterlimit="10" />
        <path d="M56.0462 237.002C63.765 229.272 61.1853 214.154 50.2844 203.237C39.3834 192.319 24.2891 189.735 16.5703 197.466C8.85155 205.197 11.4312 220.314 22.3322 231.231C33.2331 242.149 48.3274 244.733 56.0462 237.002Z" fill="#F7941D" />
        <path d="M52.7959 108.933L66.9034 164.619L82.3328 108.933H52.7959Z" fill="#FBB040" />
        <path opacity="0.67" d="M56.686 116.21L66.3135 154.216C66.8452 156.307 69.0304 156.353 69.6095 154.278L80.1412 116.272C80.5717 114.737 79.7235 113.099 78.505 113.099H58.3437C57.1424 113.099 56.3028 114.686 56.686 116.21Z" fill="#FFE07F" />
        <path opacity="0.67" d="M54.3001 236.878C60.9175 230.251 58.7079 217.293 49.3648 207.935C40.0217 198.578 27.0832 196.365 20.4658 202.992C13.8484 209.62 16.0579 222.578 25.401 231.936C34.7441 241.293 47.6826 243.506 54.3001 236.878Z" fill="#FFE07F" />
        <path d="M113.164 231.234C124.065 220.317 126.645 205.199 118.926 197.469C111.207 189.738 96.113 192.322 85.2121 203.239C74.3111 214.157 71.7314 229.274 79.4502 237.005C87.169 244.735 102.263 242.152 113.164 231.234Z" fill="#F7941D" />
        <path opacity="0.67" d="M110.09 231.932C119.433 222.575 121.643 209.616 115.025 202.989C108.408 196.361 95.4692 198.574 86.1261 207.932C76.7831 217.289 74.5735 230.247 81.1909 236.875C87.8083 243.502 100.747 241.289 110.09 231.932Z" fill="#FFE07F" />
        <path d="M53.3558 99.4635C57.0963 99.4635 60.1286 95.5693 60.1286 90.7657C60.1286 85.962 57.0963 82.0679 53.3558 82.0679C49.6153 82.0679 46.583 85.962 46.583 90.7657C46.583 95.5693 49.6153 99.4635 53.3558 99.4635Z" fill="white" />
        <path d="M54.0555 95.7055C55.7843 95.7055 57.1857 94.302 57.1857 92.5705C57.1857 90.8391 55.7843 89.4355 54.0555 89.4355C52.3267 89.4355 50.9253 90.8391 50.9253 92.5705C50.9253 94.302 52.3267 95.7055 54.0555 95.7055Z" fill="black" />
        <path d="M25.7306 120.434C22.116 120.175 17.567 121.688 11.3475 132.529C6.99875 140.115 -3.52646 169.634 2.75982 170.637C12.8566 172.247 36.0276 144.505 36.301 129.256C36.3893 124.679 30.3592 120.766 25.7306 120.434Z" fill="black" stroke="#58595B" stroke-width="0.75" stroke-miterlimit="10" />
        <path d="M111.272 120.434C114.888 120.175 119.435 121.688 125.655 132.529C130.003 140.115 140.529 169.634 134.242 170.637C124.146 172.247 100.975 144.505 100.701 129.256C100.613 124.679 106.643 120.766 111.272 120.434Z" fill="black" stroke="#58595B" stroke-width="0.75" stroke-miterlimit="10" />
        <path d="M81.7709 99.4635C85.5114 99.4635 88.5437 95.5693 88.5437 90.7657C88.5437 85.962 85.5114 82.0679 81.7709 82.0679C78.0303 82.0679 74.998 85.962 74.998 90.7657C74.998 95.5693 78.0303 99.4635 81.7709 99.4635Z" fill="white" />
        <path d="M82.4769 95.7055C84.2057 95.7055 85.6071 94.302 85.6071 92.5705C85.6071 90.8391 84.2057 89.4355 82.4769 89.4355C80.7481 89.4355 79.3467 90.8391 79.3467 92.5705C79.3467 94.302 80.7481 95.7055 82.4769 95.7055Z" fill="black" />
    </g>
    <g clip-path="url(#clip1)">
        <path d="M103.679 34.5206C103.679 43.3445 98.566 51.3483 90.7411 55.1298V76.3952C90.7411 79.4863 88.2252 82.0002 85.134 82.0002H48.5492C45.458 82.0002 42.9421 79.4863 42.9421 76.3952V55.3364C39.5525 53.6363 36.6404 51.1267 34.4397 47.9823C31.7448 44.1285 30.3218 39.5993 30.3218 34.8827C30.3218 29.6888 32.1091 24.6014 35.3558 20.5602C38.2063 17.0153 42.0771 14.3864 46.3869 13.0401C48.0954 9.44826 50.7029 6.37422 54.0009 4.0819C57.7844 1.45086 62.222 0.0427617 66.8427 0.00224219C66.9108 0 66.9811 0 67.0493 0C75.7753 0 83.6533 4.91904 87.5157 12.648C91.8404 13.9796 95.7304 16.5956 98.5978 20.1427C101.874 24.1946 103.679 29.3011 103.679 34.5206Z" fill="#CCE6FF" />
        <path d="M103.678 34.5206C103.678 43.3445 98.5656 51.3483 90.7406 55.1298V76.3952C90.7406 79.4863 88.2248 82.0002 85.1336 82.0002H66.8423V0.00208203C66.9104 0 66.9807 0 67.0489 0C75.7748 0 83.6529 4.91904 87.5153 12.648C91.84 13.9796 95.73 16.5956 98.5974 20.1427C101.874 24.1946 103.678 29.3011 103.678 34.5206Z" fill="#BDDEFF" />
        <path d="M90.742 65.8857H42.9429V72.2768H90.742V65.8857Z" fill="#A6673A" />
        <path d="M90.7419 65.8857H66.8413V72.2768H90.7419V65.8857Z" fill="#99522E" />
    </g>
    <g clip-path="url(#clip2)">
        <path d="M189.125 118.252C187.957 117.084 186.066 117.084 184.898 118.252L171.989 131.162C170.508 132.642 168.528 133.456 166.413 133.458C164.299 133.456 162.318 132.642 160.837 131.162C159.357 129.681 158.543 127.7 158.543 125.587C158.543 123.471 159.358 121.492 160.839 120.012L173.748 107.102C174.916 105.934 174.915 104.042 173.748 102.876C172.581 101.708 170.69 101.708 169.522 102.876L156.613 115.785C154.002 118.396 152.565 121.875 152.565 125.586C152.565 128.274 153.323 130.84 154.73 133.043L141.823 145.95C141.186 146.587 141.186 147.618 141.823 148.255L143.746 150.178C144.381 150.813 145.412 150.813 146.049 150.176L158.956 137.269C161.16 138.676 163.725 139.433 166.413 139.433C170.124 139.433 173.605 137.998 176.215 135.388L189.125 122.478C190.293 121.31 190.291 119.419 189.125 118.252Z" fill="#CCE6FF" />
        <path d="M189.125 118.252C187.957 117.084 186.066 117.084 184.899 118.252L171.989 131.161C170.508 132.642 168.528 133.456 166.413 133.458C164.299 133.456 162.318 132.642 160.838 131.161L156.611 135.387L142.783 149.216L143.745 150.178C144.381 150.813 145.412 150.813 146.049 150.177L158.956 137.269C161.16 138.677 163.725 139.434 166.413 139.434C170.124 139.434 173.605 137.998 176.215 135.388L189.125 122.478C190.293 121.31 190.291 119.418 189.125 118.252Z" fill="#BDDEFF" />
        <path d="M147.402 159.388L132.812 173.978C131.509 175.282 129.773 176 127.922 176C126.071 176 124.335 175.282 123.032 173.978L118.021 168.968C116.717 167.666 116 165.929 116 164.078C116 162.227 116.717 160.49 118.02 159.187L132.61 144.597C133.913 143.294 135.65 142.577 137.501 142.577C139.351 142.575 141.088 143.295 142.391 144.598L147.402 149.609C148.705 150.912 149.424 152.648 149.424 154.499C149.423 156.35 148.705 158.085 147.402 159.388Z" fill="#A6673A" />
        <path d="M147.402 159.388L132.812 173.978C131.509 175.281 129.773 176 127.922 176C126.071 176 124.336 175.281 123.032 173.978L120.528 171.474L144.898 147.104L147.402 149.609C148.705 150.912 149.424 152.647 149.424 154.498C149.424 156.349 148.705 158.085 147.402 159.388Z" fill="#99522E" />
    </g>
    <g clip-path="url(#clip3)">
        <path d="M202.881 156C203.812 156 204.656 155.624 205.264 155.015C205.874 154.405 206.251 153.561 206.251 152.63V144.271H206.292H214.609C215.541 144.271 216.384 143.895 216.995 143.285C217.605 142.674 217.981 141.831 217.981 140.9C217.983 139.039 216.474 137.529 214.611 137.529L202.882 137.531C202.881 137.529 202.881 137.529 202.881 137.529C202.719 137.529 202.56 137.545 202.401 137.568C201.671 137.671 201.018 138.009 200.519 138.499C199.896 139.109 199.51 139.959 199.51 140.9C199.509 140.901 199.509 140.901 199.51 140.903V152.63C199.51 154.492 201.02 156.002 202.881 156Z" fill="#F2A38F" />
        <path d="M202.881 156C203.812 156 204.656 155.624 205.264 155.015C205.875 154.405 206.251 153.561 206.251 152.63V144.271H206.292L200.52 138.499C199.897 139.109 199.511 139.959 199.511 140.9C199.509 140.901 199.509 140.901 199.511 140.903V152.63C199.51 154.492 201.02 156.002 202.881 156Z" fill="#E5907F" />
        <path d="M138.389 91.4711H150.12C151.051 91.4711 151.893 91.0929 152.503 90.4827C153.113 89.8725 153.492 89.0303 153.492 88.0992L153.49 76.3704C153.49 74.5081 151.98 72.9984 150.12 73C148.259 72.9984 146.749 74.5081 146.749 76.3704V84.7288H138.391C136.529 84.7288 135.019 86.2385 135.019 88.1008C135.019 89.96 136.529 91.4694 138.389 91.4711Z" fill="#F2A38F" />
        <path d="M138.389 91.4706H150.119C151.051 91.4706 151.893 91.0924 152.503 90.4823L146.749 84.7285H138.391C136.529 84.7285 135.019 86.2382 135.019 88.1006C135.019 89.9596 136.528 91.469 138.389 91.4706Z" fill="#E5907F" />
        <path d="M147.736 105.292L185.763 143.319C191.098 148.654 199.78 148.654 205.114 143.319C205.152 143.281 205.189 143.245 205.225 143.205C210.447 137.863 210.41 129.264 205.114 123.968L167.087 85.9411C161.789 80.6432 153.193 80.6082 147.85 85.8299C147.811 85.8665 147.774 85.903 147.736 85.9411C142.402 91.2753 142.4 99.9564 147.736 105.292Z" fill="#E6563A" />
        <path d="M147.736 105.292L185.763 143.32C191.098 148.654 199.78 148.654 205.114 143.32C205.153 143.281 205.189 143.245 205.226 143.205L147.851 85.8301C147.811 85.8667 147.774 85.9032 147.736 85.9413C142.402 91.2755 142.4 99.9566 147.736 105.292Z" fill="#D9472B" />
        <path d="M185.353 125.996C186.292 126.935 187.648 127.204 188.824 126.803C189.299 126.643 189.742 126.374 190.12 125.996L198.631 117.485L193.864 112.718L185.353 121.229C184.975 121.607 184.707 122.051 184.546 122.526C184.147 123.703 184.416 125.059 185.353 125.996Z" fill="#F2A38F" />
        <path d="M175.326 115.969C176.264 116.907 177.619 117.175 178.797 116.776C179.272 116.616 179.715 116.347 180.094 115.969L188.604 107.458L183.838 102.691L175.327 111.202C174.948 111.581 174.68 112.024 174.519 112.499C174.119 113.675 174.387 115.03 175.326 115.969Z" fill="#F2A38F" />
        <path d="M165.014 105.974C166.015 106.976 167.488 107.215 168.715 106.694C169.102 106.529 169.465 106.29 169.781 105.974L178.451 97.3046L173.684 92.5376L165.014 101.207C164.698 101.523 164.459 101.886 164.294 102.274C163.773 103.5 164.014 104.975 165.014 105.974Z" fill="#F2A38F" />
        <path d="M185.353 125.995C186.292 126.934 187.648 127.203 188.824 126.802L184.546 122.525C184.147 123.702 184.416 125.058 185.353 125.995Z" fill="#E5907F" />
        <path d="M175.326 115.969C176.264 116.906 177.619 117.175 178.797 116.776L174.519 112.499C174.119 113.674 174.387 115.03 175.326 115.969Z" fill="#E5907F" />
        <path d="M168.714 106.694L164.294 102.273C163.772 103.5 164.014 104.974 165.013 105.974C166.015 106.975 167.488 107.215 168.714 106.694Z" fill="#E5907F" />
    </g>
    <defs>
        <clipPath id="clip0">
            <rect width="137" height="186" fill="white" transform="translate(0 65)" />
        </clipPath>
        <clipPath id="clip1">
            <rect width="82" height="82" fill="white" transform="translate(26)" />
        </clipPath>
        <clipPath id="clip2">
            <rect width="74" height="74" fill="white" transform="translate(116 102)" />
        </clipPath>
        <clipPath id="clip3">
            <rect width="83" height="83" fill="white" transform="matrix(-1 0 0 1 218 73)" />
        </clipPath>
    </defs>
</svg>
    