<svg width="916" height="937" viewBox="0 0 916 937" fill="none" xmlns="http://www.w3.org/2000/svg">
<path d="M916 318.896L563.29 411.726V226.067L916 318.896Z" fill="#FF8800"/>
<path d="M301.505 936.217C468.022 936.217 603.011 726.638 603.011 468.109C603.011 209.579 468.022 0 301.505 0C134.989 0 0 209.579 0 468.109C0 726.638 134.989 936.217 301.505 936.217Z" fill="black"/>
<path d="M301.499 933.345C466.43 933.345 600.133 725.051 600.133 468.108C600.133 211.165 466.43 2.87158 301.499 2.87158C136.568 2.87158 2.86523 211.165 2.86523 468.108C2.86523 725.051 136.568 933.345 301.499 933.345Z" stroke="black"/>
<path d="M317.317 54.3265C381.42 24.4021 472.417 59.9783 540.08 184.288C566.337 232.535 596.603 296.606 605.056 360.665C615.238 437.802 595.776 564.892 595.776 564.892C595.776 564.892 582.228 452.529 493.672 397.798C425.457 355.639 345.762 360.579 298.755 323.538C251.749 286.497 224.499 234.149 224.499 184.288C224.499 134.428 253.214 84.251 317.317 54.3265Z" fill="white"/>
<path d="M393.398 315.902C455.247 315.902 505.386 265.757 505.386 203.9C505.386 142.044 455.247 91.8989 393.398 91.8989C331.549 91.8989 281.41 142.044 281.41 203.9C281.41 265.757 331.549 315.902 393.398 315.902Z" fill="black"/>
<path d="M330.219 183.797C347.664 183.797 361.805 169.654 361.805 152.207C361.805 134.76 347.664 120.617 330.219 120.617C312.774 120.617 298.633 134.76 298.633 152.207C298.633 169.654 312.774 183.797 330.219 183.797Z" fill="white"/>
</svg>
