<svg width="1182" height="1182" viewBox="0 0 1182 1182" fill="none" xmlns="http://www.w3.org/2000/svg">
<circle cx="591" cy="591" r="591" fill="#0075FF"/>
<path d="M1049 441.896L696.29 534.726V349.067L1049 441.896Z" fill="#FF8800"/>
<path d="M434.505 1059.22C601.022 1059.22 736.011 849.638 736.011 591.109C736.011 332.579 601.022 123 434.505 123C267.989 123 133 332.579 133 591.109C133 849.638 267.989 1059.22 434.505 1059.22Z" fill="black"/>
<path d="M434.499 1056.34C599.43 1056.34 733.133 848.051 733.133 591.108C733.133 334.165 599.43 125.872 434.499 125.872C269.568 125.872 135.865 334.165 135.865 591.108C135.865 848.051 269.568 1056.34 434.499 1056.34Z" stroke="black"/>
<path d="M450.317 177.327C514.42 147.402 605.417 182.978 673.08 307.288C699.337 355.535 729.603 419.606 738.056 483.665C748.238 560.802 728.776 687.892 728.776 687.892C728.776 687.892 715.228 575.529 626.672 520.798C558.457 478.639 478.762 483.579 431.755 446.538C384.749 409.497 357.499 357.149 357.499 307.288C357.499 257.428 386.214 207.251 450.317 177.327Z" fill="white"/>
<path d="M526.398 438.902C588.247 438.902 638.386 388.757 638.386 326.9C638.386 265.044 588.247 214.899 526.398 214.899C464.549 214.899 414.41 265.044 414.41 326.9C414.41 388.757 464.549 438.902 526.398 438.902Z" fill="black"/>
<path d="M463.219 306.797C480.664 306.797 494.805 292.654 494.805 275.207C494.805 257.76 480.664 243.617 463.219 243.617C445.774 243.617 431.633 257.76 431.633 275.207C431.633 292.654 445.774 306.797 463.219 306.797Z" fill="white"/>
</svg>
