<svg width="77" height="77" viewBox="0 0 77 77" fill="none" xmlns="http://www.w3.org/2000/svg">
    <path d="M46.1988 38.5003C46.1988 34.2537 42.7454 30.8003 38.4988 30.8003C34.2522 30.8003 30.7988 34.2537 30.7988 38.5003C30.7988 42.7469 34.2522 46.2003 38.4988 46.2003C42.7454 46.2003 46.1988 42.7469 46.1988 38.5003ZM38.4988 35.9336C37.0833 35.9336 35.9321 37.0847 35.9321 38.5003C35.9321 39.2086 35.3572 39.7836 34.6488 39.7836C33.9405 39.7836 33.3655 39.2086 33.3655 38.5003C33.3655 35.6692 35.6679 33.367 38.4988 33.367C39.2072 33.367 39.7821 33.942 39.7821 34.6503C39.7821 35.3586 39.2072 35.9336 38.4988 35.9336Z" fill="white" />
    <path d="M48.6781 37.2169H67.9845C67.3274 21.9606 55.0394 9.67268 39.7832 9.01562V28.322C44.4187 28.9046 48.0954 32.5814 48.6781 37.2169ZM49.1426 22.7242C48.6408 22.2225 48.6408 21.4113 49.1426 20.9096C49.6443 20.4077 50.4555 20.4077 50.9572 20.9096L51.9749 21.9273L52.9926 20.9096C53.4945 20.4077 54.3055 20.4077 54.8072 20.9096C55.3089 21.4114 55.3089 22.2225 54.8072 22.7242L53.7895 23.7419L54.8072 24.7596C55.3089 25.2614 55.3089 26.0725 54.8072 26.5742C54.557 26.8244 54.2284 26.9502 53.8999 26.9502C53.5713 26.9502 53.2429 26.8244 52.9926 26.5742L51.9749 25.5565L50.9572 26.5742C50.707 26.8244 50.3784 26.9502 50.0499 26.9502C49.7213 26.9502 49.3929 26.8244 49.1426 26.5742C48.6408 26.0723 48.6408 25.2613 49.1426 24.7596L50.1603 23.7419L49.1426 22.7242Z" fill="white" />
    <path d="M28.322 39.7832H9.01562C9.67268 55.0394 21.9606 67.3274 37.2169 67.9845V48.6781C32.5814 48.0954 28.9046 44.4187 28.322 39.7832ZM27.8575 52.9926C28.3592 53.4945 28.3592 54.3055 27.8575 54.8072C27.6072 55.0575 27.2786 55.1832 26.9502 55.1832C26.6216 55.1832 26.2931 55.0575 26.0429 54.8072L25.0252 53.7895L24.0075 54.8072C23.7572 55.0575 23.4286 55.1832 23.1002 55.1832C22.7716 55.1832 22.4431 55.0575 22.1929 54.8072C21.691 54.3054 21.691 53.4943 22.1929 52.9926L23.2105 51.9749L22.1929 50.9572C21.691 50.4555 21.691 49.6443 22.1929 49.1426C22.6947 48.6409 23.5058 48.6408 24.0075 49.1426L25.0252 50.1603L26.0429 49.1426C26.5447 48.6408 27.3558 48.6408 27.8575 49.1426C28.3592 49.6445 28.3592 50.4555 27.8575 50.9572L26.8398 51.9749L27.8575 52.9926Z" fill="white" />
    <path d="M38.5 0C17.2712 0 0 17.2712 0 38.5C0 59.7288 17.2712 77 38.5 77C59.7288 77 77 59.7288 77 38.5C77 17.2712 59.7288 0 38.5 0ZM38.5 70.5833C20.8092 70.5833 6.41672 56.1908 6.41672 38.5C6.41672 20.8092 20.8092 6.41672 38.5 6.41672C56.1908 6.41672 70.5833 20.8092 70.5833 38.5C70.5833 56.1908 56.1908 70.5833 38.5 70.5833Z" fill="white" />
    <path d="M37.2169 28.322V9.01562C21.9606 9.67268 9.67268 21.9606 9.01562 37.2169H28.322C28.9046 32.5814 32.5814 28.9046 37.2169 28.322ZM23.1002 19.2502H29.5169C30.2252 19.2502 30.8002 19.8251 30.8002 20.5334C30.8002 21.2418 30.2252 21.8167 29.5169 21.8167H23.1002C22.3918 21.8167 21.8169 21.2418 21.8169 20.5334C21.8169 19.8251 22.3918 19.2502 23.1002 19.2502ZM25.6669 28.2334H19.2502C18.5418 28.2334 17.9669 27.6585 17.9669 26.9502C17.9669 26.2418 18.5418 25.6669 19.2502 25.6669H25.6669C26.3752 25.6669 26.9502 26.2418 26.9502 26.9502C26.9502 27.6585 26.3752 28.2334 25.6669 28.2334Z" fill="white" />
    <path d="M39.7832 48.6781V67.9845C55.0394 67.3274 67.3274 55.0394 67.9845 39.7832H48.6781C48.0954 44.4187 44.4187 48.0954 39.7832 48.6781ZM59.0332 55.1832C59.0332 55.8915 58.4583 56.4665 57.7499 56.4665H51.3332C50.6249 56.4665 50.0499 55.8915 50.0499 55.1832C50.0499 54.4749 50.6249 53.8999 51.3332 53.8999H57.7499C58.4583 53.8999 59.0332 54.4749 59.0332 55.1832ZM55.1832 48.7666C55.1832 49.475 54.6083 50.0499 53.8999 50.0499H47.4832C46.7749 50.0499 46.1999 49.475 46.1999 48.7666C46.1999 48.0583 46.7749 47.4834 47.4832 47.4834H53.8999C54.6083 47.4832 55.1832 48.0581 55.1832 48.7666Z" fill="white" />
</svg>
    