<svg width="57" height="57" viewBox="0 0 57 57" fill="none" xmlns="http://www.w3.org/2000/svg">
    <g clip-path="url(#clip0_1226_57)">
        <path d="M54.7849 27.3612C54.7849 41.8792 43.0164 53.6476 28.4999 53.6476C27.5236 53.6476 26.5602 53.5945 25.6127 53.4897C22.6393 53.1652 19.8167 52.344 17.2252 51.1122L7.93466 55.9232L9.54124 45.5673C5.00439 40.844 2.21484 34.4293 2.21484 27.3612C2.21484 12.8447 13.982 1.07617 28.4999 1.07617C32.1063 1.07617 35.542 1.80259 38.669 3.11637C48.1361 7.09179 54.7849 16.4498 54.7849 27.3612Z" fill="#BDDBFF" />
        <path d="M11.9936 53.8215L13.2741 45.5677C8.73722 40.8441 5.94768 34.4294 5.94768 27.3613C5.94768 13.4722 16.7201 2.10017 30.3668 1.14297C29.7501 1.09966 29.1276 1.07617 28.4999 1.07617C13.9819 1.07617 2.21484 12.8447 2.21484 27.3612C2.21484 34.4292 5.00439 40.844 9.54135 45.5675L7.93477 55.9233L11.9936 53.8215Z" fill="#9BB8DC" />
        <path d="M29.3469 53.4898C26.3736 53.1653 23.551 52.3442 20.9595 51.1123L19.2793 51.9823C21.2861 52.7345 23.4086 53.249 25.6141 53.4898C26.5617 53.5946 27.525 53.6478 28.5013 53.6478C29.1319 53.6478 29.7571 53.6241 30.3767 53.5804C30.0318 53.5562 29.6879 53.5276 29.3469 53.4898Z" fill="#70E5CF" />
        <path d="M28.5014 18.1976C31.0554 18.1976 33.1259 16.1272 33.1259 13.5732C33.1259 11.0192 31.0554 8.94873 28.5014 8.94873C25.9474 8.94873 23.877 11.0192 23.877 13.5732C23.877 16.1272 25.9474 18.1976 28.5014 18.1976Z" fill="#E6E6E6" />
        <path d="M32.516 40.9035V25.7493V22.1709H24.4845H22.1816V25.7493H24.4845V40.9035H22.1816V44.4818H24.4845H32.516H34.8189V40.9035H32.516Z" fill="#E6E6E6" />
        <path d="M8.39793 45.9232L6.87196 55.7581C6.80984 56.159 6.97805 56.5606 7.30725 56.7975C7.49395 56.9319 7.71438 57.0001 7.93592 57.0001C8.10514 57.0001 8.27503 56.9604 8.431 56.8795L17.2527 52.3111C20.7958 53.9126 24.5768 54.7241 28.5005 54.7241C43.5877 54.7241 55.8625 42.4496 55.8625 27.3621C55.8626 12.2745 43.5881 0 28.5006 0C13.413 0 1.13867 12.2745 1.13867 27.362C1.13867 34.2834 3.71269 40.8534 8.39793 45.9232ZM28.5006 2.15353C42.4004 2.15353 53.7089 13.4619 53.7089 27.3619C53.7089 41.2619 42.4005 52.5704 28.5006 52.5704C24.7184 52.5704 21.081 51.7524 17.689 50.1395C17.385 49.9948 17.0306 50.001 16.7316 50.1558L9.32563 53.991L10.607 45.733C10.6586 45.4011 10.5521 45.0643 10.3196 44.8219C5.78807 40.1046 3.29243 33.9038 3.29243 27.3618C3.29231 13.462 14.6007 2.15353 28.5006 2.15353Z" fill="#333333" />
        <path d="M28.4997 19.2734C31.6434 19.2734 34.2006 16.7159 34.2006 13.5725C34.2006 10.4288 31.6432 7.87158 28.4997 7.87158C25.3563 7.87158 22.7988 10.429 22.7988 13.5725C22.7988 16.7159 25.3563 19.2734 28.4997 19.2734ZM28.4997 10.0251C30.4559 10.0251 32.0471 11.6164 32.0471 13.5725C32.0471 15.5285 30.4558 17.1198 28.4997 17.1198C26.5437 17.1198 24.9524 15.5285 24.9524 13.5725C24.9524 11.6164 26.5437 10.0251 28.4997 10.0251Z" fill="#333333" />
        <path d="M22.1821 45.5587H34.8194C35.4141 45.5587 35.8962 45.0765 35.8962 44.4819V40.9035C35.8962 40.3088 35.414 39.8268 34.8194 39.8268H33.5934V22.171C33.5934 21.5763 33.1112 21.0942 32.5166 21.0942H22.1822C21.5875 21.0942 21.1055 21.5764 21.1055 22.171V25.7494C21.1055 26.3441 21.5876 26.8262 22.1822 26.8262H23.4083V39.8268H22.1822C21.5875 39.8268 21.1055 40.3089 21.1055 40.9035V44.4819C21.1052 45.0767 21.5874 45.5587 22.1821 45.5587ZM23.2589 41.9804H24.4849C25.0797 41.9804 25.5617 41.4982 25.5617 40.9036V25.7494C25.5617 25.1547 25.0795 24.6727 24.4849 24.6727H23.2589V23.2479H31.4397V40.9037C31.4397 41.4985 31.9219 41.9805 32.5165 41.9805H33.7425V43.4053H23.2588L23.2589 41.9804Z" fill="#333333" />
    </g>
    <defs>
        <clipPath id="clip0_1226_57">
            <rect width="57" height="57" fill="white" />
        </clipPath>
    </defs>
</svg>
    