<svg width="32" height="52" viewBox="0 0 32 52" fill="none" xmlns="http://www.w3.org/2000/svg">
    <path d="M26.3165 20.2091L28.2416 13.0246L16.5838 9.90095L14.6587 17.0854C14.0521 19.3495 12.3495 21.1138 10.1614 21.9555C5.68509 23.6763 2.06662 27.4413 0.730563 32.4275C-0.825922 38.2364 1.13807 44.1497 5.30275 47.9323L18.9956 51.6013C24.4937 50.4078 29.1512 46.2687 30.7077 40.4599C32.0437 35.4736 30.7926 30.4038 27.7763 26.6754C26.3022 24.8524 25.7098 22.4732 26.3165 20.2091Z" fill="#A2C9ED" />
    <path d="M17.4469 33.3262C14.9387 27.8017 7.28189 25.9839 2.45563 29.3201L1.61582 29.9795C1.25995 30.7578 0.959482 31.5732 0.730563 32.4275C-0.825922 38.2364 1.13807 44.1497 5.30275 47.9323L18.9956 51.6013C24.4937 50.4078 29.1512 46.2687 30.7077 40.4599C30.9864 39.4198 31.1463 38.3767 31.2074 37.3426L30.7675 36.9062C25.2141 40.3544 20.2063 38.6395 17.4469 33.3262Z" fill="#47E35D" />
    <path d="M30.0451 13.5082L14.7801 9.41794C14.3961 9.31507 14.1688 8.92124 14.2717 8.53741L14.792 6.59556C14.8949 6.21164 15.2887 5.98434 15.6725 6.08718L30.9375 10.1774C31.3214 10.2803 31.5487 10.6741 31.4459 11.058L30.9256 12.9998C30.8228 13.3837 30.429 13.6111 30.0451 13.5082Z" fill="#7FABDA" />
    <path d="M29.134 9.69416L17.4762 6.57047L19.0851 0.565862C19.1824 0.20279 19.5551 -0.0123814 19.9182 0.0849036L30.2619 2.8565C30.625 2.95379 30.8402 3.32647 30.7429 3.68955L29.134 9.69416Z" fill="#B88353" />
    <path d="M29.8527 7.01172C29.5166 6.49421 29.004 6.08904 28.3612 5.91678C26.9814 5.54708 25.5632 6.36654 25.1937 7.74553C25.1149 8.03946 25.1006 8.33286 25.1237 8.61932L29.134 9.69416L29.8527 7.01172Z" fill="#8C5D37" />
    <path d="M19.811 4.51859C21.1907 4.8883 22.6087 4.06969 22.9784 2.68985C23.1507 2.04699 23.0562 1.40051 22.776 0.850647L19.9182 0.0849036C19.5551 -0.0123814 19.1824 0.20279 19.0851 0.565862L18.3194 3.42366C18.6555 3.94127 19.1681 4.34634 19.811 4.51859Z" fill="#8C5D37" />
    <path d="M15.719 36.4441C15.5958 36.9037 15.1228 37.1768 14.6631 37.0537C14.2034 36.9305 13.9303 36.4575 14.0535 35.9978C14.1767 35.5381 14.6497 35.265 15.1094 35.3882C15.569 35.5114 15.8421 35.9844 15.719 36.4441Z" fill="#26A832" />
    <path d="M9.9339 44.7112C9.81073 45.1709 9.33769 45.444 8.87803 45.3208C8.41836 45.1977 8.14526 44.7246 8.26842 44.2649C8.39159 43.8053 8.86462 43.5322 9.32429 43.6553C9.78395 43.7785 10.0571 44.2515 9.9339 44.7112Z" fill="#26A832" />
    <path d="M7.36724 37.7761L5.63187 37.3111C5.19135 37.1931 4.92984 36.7401 5.04788 36.2996L5.51287 34.5643C5.63091 34.1237 6.08385 33.8622 6.52437 33.9803L8.25974 34.4453C8.70025 34.5633 8.96176 35.0162 8.84373 35.4567L8.37873 37.1921C8.2607 37.6326 7.80776 37.8941 7.36724 37.7761Z" fill="#26A832" />
    <path d="M19.3518 46.3422L17.6164 45.8772C17.1759 45.7592 16.9144 45.3062 17.0324 44.8657L17.4974 43.1303C17.6154 42.6898 18.0684 42.4283 18.5089 42.5463L20.2443 43.0113C20.6848 43.1294 20.9463 43.5823 20.8282 44.0228L20.3632 45.7582C20.2452 46.1987 19.7923 46.4602 19.3518 46.3422Z" fill="#26A832" />
</svg>
    