<svg width="40" height="56" viewBox="0 0 40 56" fill="none" xmlns="http://www.w3.org/2000/svg">
    <path d="M20.6209 10.5493L25.4006 12.7817L28.0041 7.2059L24.4989 8.47925L23.2253 4.97323L20.6209 10.5493Z" fill="#D69C77" />
    <path d="M15.4124 21.701L0.53125 53.5626L5.31011 55.7953L20.1921 23.9334L15.4124 21.701Z" fill="#D69C77" />
    <path d="M37.563 11.6701C33.2933 15.2471 29.6267 14.7552 26.9932 13.5259C24.3559 12.2934 21.6657 11.037 19.0279 9.80566C16.4039 8.57947 13.6634 6.07958 13.6668 0.509277C13.6668 0.509277 6.20709 1.93774 2.88283 9.05684C-0.442633 16.1755 3.24994 22.8126 3.24994 22.8126C7.51933 19.2347 11.2423 19.753 13.8197 20.9568L21.7851 24.677C24.4087 25.9024 27.1486 28.4034 27.1461 33.9734C27.1461 33.9734 34.6049 32.5453 37.9301 25.4259C41.2553 18.3064 37.563 11.6701 37.563 11.6701Z" fill="#C7CFE3" />
    <path d="M30.4221 28.4279C30.0602 28.5594 29.6399 28.4398 29.406 28.1105C29.1249 27.715 29.2173 27.166 29.6128 26.8848C30.7596 26.0688 32.3303 24.952 33.1508 23.1939C33.9713 21.4384 33.8201 19.516 33.7103 18.1118C33.6717 17.6273 34.0351 17.2062 34.5182 17.1663C35.002 17.1281 35.4255 17.4905 35.4637 17.9743C35.5813 19.4824 35.7596 21.7626 34.7436 23.9378C33.7277 26.1158 31.8642 27.441 30.6317 28.3172C30.5656 28.3645 30.4948 28.4015 30.4221 28.4279Z" fill="white" />
    <path d="M6.52643 17.2669C6.45368 17.2933 6.37578 17.3104 6.29391 17.3168C5.81019 17.355 5.38693 16.9934 5.34931 16.5085C5.23093 15.0007 5.05183 12.7208 6.06862 10.5452C7.08584 8.36582 8.94885 7.04175 10.1803 6.16503C10.5766 5.88357 11.1256 5.97601 11.407 6.3723C11.6882 6.76777 11.5957 7.31676 11.1995 7.59822C10.0532 8.41311 8.48358 9.53043 7.66147 11.2892C6.84121 13.0454 6.99245 14.9678 7.10226 16.3721C7.1332 16.7743 6.8883 17.1354 6.52643 17.2669Z" fill="white" />
    <path d="M14.9833 35.085L10.2036 32.8526L12.4363 28.0737L17.2157 30.3053L14.9833 35.085Z" fill="#BD8366" />
    <path d="M8.28665 49.4228L3.50698 47.1904L5.73964 42.4115L10.5191 44.6431L8.28665 49.4228Z" fill="#BD8366" />
    <path d="M26.9823 20.8093C26.7707 20.8862 26.5298 20.882 26.3101 20.7794L13.9187 14.992C13.4782 14.7863 13.2885 14.2641 13.4942 13.8236C13.7 13.3831 14.2222 13.1934 14.6626 13.3992L27.054 19.1866C27.4944 19.3923 27.6841 19.9145 27.4784 20.355C27.3759 20.5747 27.1937 20.7325 26.9823 20.8093Z" fill="white" />
</svg>
    