<svg width="44" height="59" viewBox="0 0 44 59" fill="none" xmlns="http://www.w3.org/2000/svg">
    <path d="M23.3426 18.1167C22.5278 17.7729 21.5881 18.1548 21.2443 18.9696L5.70345 55.7947C5.35954 56.6096 5.7414 57.5491 6.55633 57.893C6.96386 58.065 7.4025 58.0556 7.78222 57.9011C8.16197 57.7468 8.48284 57.4475 8.65468 57.0402L24.1955 20.2151C24.5395 19.4001 24.1575 18.4606 23.3426 18.1167Z" fill="#A66300" />
    <path d="M23.3426 18.1167C23.3056 18.1011 23.268 18.0886 23.2305 18.076L6.44891 57.8412C6.48409 57.8592 6.5193 57.8774 6.55633 57.893C6.96386 58.065 7.4025 58.0556 7.78222 57.9011C8.16197 57.7468 8.48284 57.4475 8.65468 57.0402L24.1955 20.2151C24.5395 19.4001 24.1575 18.4606 23.3426 18.1167Z" fill="#875100" />
    <path d="M35.2017 16.5608L29.8924 13.352L29.5258 7.15906C29.4898 6.5505 29.1113 6.01504 28.5497 5.77801C27.988 5.54097 27.3404 5.64334 26.8792 6.04216L22.1867 10.1L16.1835 8.53503C15.5937 8.38121 14.9675 8.57552 14.5685 9.03658C14.1695 9.49764 14.0668 10.1451 14.3035 10.7069L16.7129 16.4238L13.3691 21.6495C13.0405 22.1631 13.0319 22.8186 13.347 23.3406C13.6621 23.8625 14.2462 24.1602 14.8537 24.1088L21.0353 23.5841L24.9719 28.3788C25.3587 28.85 25.9796 29.0608 26.5733 28.9223C26.656 28.903 26.7359 28.8775 26.8132 28.8461C27.2898 28.6524 27.6502 28.2378 27.7695 27.7268L29.1806 21.6855L34.9573 19.4231C35.5197 19.1998 35.9172 18.6753 35.9691 18.068C36.0212 17.4606 35.7235 16.8762 35.2017 16.5608Z" fill="#FACE17" />
    <path d="M2.73255 11.4841L4.7973 13.1684L7.44447 13.4726L5.76014 15.5372L5.45593 18.1844L3.39127 16.5001L0.744141 16.196L2.42844 14.1312L2.73255 11.4841Z" fill="#E6BD15" />
    <path d="M31.3676 33.1L33.0377 34.4624L35.1789 34.7084L33.8165 36.3785L33.5704 38.5197L31.9004 37.1573L29.7591 36.9113L31.1216 35.2412L31.3676 33.1Z" fill="#FACE17" />
    <path d="M19.5707 0.213379L21.2407 1.57574L23.382 1.82181L22.0195 3.49188L21.7736 5.63312L20.1034 4.2707L17.9623 4.02465L19.3246 2.35456L19.5707 0.213379Z" fill="#FACE17" />
    <path d="M34.6393 7.59053L35.6389 8.40593L36.9203 8.55312L36.105 9.55264L35.9577 10.8341L34.9583 10.0187L33.6767 9.87148L34.4922 8.87202L34.6393 7.59053Z" fill="#FACE17" />
    <path d="M41.279 21.776L41.5483 24.4301L43.207 26.5194L40.5528 26.7888L38.4636 28.4474L38.1942 25.7934L36.5356 23.704L39.1896 23.4347L41.279 21.776Z" fill="#E6BD15" />
    <path d="M35.9691 18.068C36.0212 17.4606 35.7235 16.8762 35.2017 16.5608L29.8924 13.352L29.5258 7.15906C29.4898 6.5505 29.1113 6.01504 28.5497 5.77801C28.5127 5.76243 28.4758 5.7484 28.4383 5.73577L20.9013 23.5952L21.0353 23.5841L24.9719 28.3788C25.3587 28.85 25.9796 29.0608 26.5733 28.9223C26.656 28.903 26.7359 28.8775 26.8132 28.8461C27.2898 28.6524 27.6502 28.2378 27.7695 27.7268L29.1806 21.6855L34.9573 19.4231C35.5197 19.1998 35.9172 18.6753 35.9691 18.068Z" fill="#E6BD15" />
</svg>
    